<svg width="256" height="256" viewBox="0 0 256 256" fill="none" xmlns="http://www.w3.org/2000/svg">
<path d="M256 195.789H0V195.917H256V195.789Z" fill="#E6E6E6"/>
<path d="M38.861 200.704H33.4287V200.832H38.861V200.704Z" fill="#E6E6E6"/>
<path d="M64.7115 200.643H42.6187V200.771H64.7115V200.643Z" fill="#E6E6E6"/>
<path d="M74.9208 203.606H57.436V203.734H74.9208V203.606Z" fill="#E6E6E6"/>
<path d="M117.821 199.639H78.853V199.767H117.821V199.639Z" fill="#E6E6E6"/>
<path d="M206.474 201.8H178.856V201.928H206.474V201.8Z" fill="#E6E6E6"/>
<path d="M176.016 201.8H172.114V201.928H176.016V201.8Z" fill="#E6E6E6"/>
<path d="M220.016 199.572H192.937V199.7H220.016V199.572Z" fill="#E6E6E6"/>
<path d="M121.344 172.954H22.4819C21.7074 172.952 20.9651 172.644 20.4179 172.096C19.8708 171.548 19.5635 170.805 19.5635 170.03V31.0581C19.5702 30.288 19.8805 29.5518 20.4269 29.0092C20.9734 28.4666 21.7118 28.1615 22.4819 28.1602H121.344C122.119 28.1602 122.863 28.4682 123.411 29.0164C123.959 29.5647 124.267 30.3083 124.267 31.0837V170.03C124.267 170.806 123.959 171.549 123.411 172.097C122.863 172.646 122.119 172.954 121.344 172.954ZM22.4819 28.2626C21.7413 28.2639 21.0316 28.559 20.5085 29.0832C19.9853 29.6073 19.6915 30.3175 19.6915 31.0581V170.03C19.6915 170.771 19.9853 171.481 20.5085 172.005C21.0316 172.529 21.7413 172.824 22.4819 172.826H121.344C122.085 172.824 122.795 172.529 123.319 172.005C123.843 171.482 124.138 170.771 124.139 170.03V31.0581C124.138 30.3171 123.843 29.6068 123.319 29.0828C122.795 28.5589 122.085 28.2639 121.344 28.2626H22.4819Z" fill="#E6E6E6"/>
<path d="M232.095 172.954H133.228C132.453 172.952 131.71 172.644 131.162 172.096C130.614 171.548 130.306 170.805 130.304 170.03V31.0581C130.312 30.2876 130.624 29.5513 131.171 29.0088C131.718 28.4664 132.457 28.1615 133.228 28.1602H232.095C232.864 28.1628 233.601 28.4685 234.147 29.011C234.692 29.5534 235.001 30.2889 235.008 31.0581V170.03C235.008 170.804 234.702 171.546 234.156 172.094C233.609 172.642 232.868 172.951 232.095 172.954ZM133.228 28.2626C132.487 28.2639 131.776 28.5589 131.252 29.0828C130.729 29.6068 130.434 30.3171 130.432 31.0581V170.03C130.434 170.771 130.729 171.482 131.252 172.005C131.776 172.529 132.487 172.824 133.228 172.826H232.095C232.836 172.824 233.546 172.529 234.07 172.005C234.594 171.482 234.889 170.771 234.89 170.03V31.0581C234.889 30.3171 234.594 29.6068 234.07 29.0828C233.546 28.5589 232.836 28.2639 232.095 28.2626H133.228Z" fill="#E6E6E6"/>
<path d="M158.178 195.789H103.66C105.998 186.963 106.709 177.785 105.759 168.704C104.566 156.953 100.67 145.152 94.0752 133.821H148.588C155.182 145.142 159.079 156.953 160.277 168.704C161.227 177.785 160.516 186.963 158.178 195.789Z" fill="#E0E0E0"/>
<path d="M156.984 195.789H102.466C104.805 186.963 105.516 177.785 104.566 168.704C103.373 156.953 99.4764 145.152 92.8818 133.821H147.394C153.989 145.142 157.885 156.953 159.083 168.704C160.033 177.785 159.322 186.963 156.984 195.789Z" fill="#F5F5F5"/>
<path d="M159.083 168.704H104.566C103.373 156.953 99.4764 145.152 92.8818 133.821H147.394C153.989 145.142 157.885 156.953 159.083 168.704Z" fill="#E0E0E0"/>
<path d="M211.185 49.2393H42.9109C40.0266 49.2393 37.6885 51.5774 37.6885 54.4617V158.183C37.6885 161.067 40.0266 163.405 42.9109 163.405H211.185C214.069 163.405 216.407 161.067 216.407 158.183V54.4617C216.407 51.5774 214.069 49.2393 211.185 49.2393Z" fill="#E0E0E0"/>
<path d="M210.253 49.2393H41.9792C39.095 49.2393 36.7568 51.5774 36.7568 54.4617V158.183C36.7568 161.067 39.095 163.405 41.9792 163.405H210.253C213.137 163.405 215.476 161.067 215.476 158.183V54.4617C215.476 51.5774 213.137 49.2393 210.253 49.2393Z" fill="#EBEBEB"/>
<path d="M215.476 55.2397H36.7568V145.577H215.476V55.2397Z" fill="white"/>
<path d="M150.677 191.488H88.4482C87.3049 191.488 86.2084 191.942 85.3999 192.75C84.5914 193.559 84.1372 194.655 84.1372 195.799H154.988C154.988 194.655 154.534 193.559 153.725 192.75C152.917 191.942 151.82 191.488 150.677 191.488Z" fill="#F5F5F5"/>
<path d="M165.504 191.488H154.363C153.219 191.488 152.123 191.942 151.314 192.75C150.506 193.559 150.052 194.655 150.052 195.799H169.815C169.815 194.655 169.361 193.559 168.552 192.75C167.744 191.942 166.647 191.488 165.504 191.488Z" fill="#E0E0E0"/>
<path d="M99.9835 121.001L205.338 121.001C206.568 121.001 207.565 120.004 207.565 118.774V39.511C207.565 38.281 206.568 37.2838 205.338 37.2838L99.9835 37.2838C98.7534 37.2838 97.7563 38.281 97.7563 39.511L97.7563 118.774C97.7563 120.004 98.7534 121.001 99.9835 121.001Z" fill="#E0E0E0"/>
<path d="M99.3946 121.001L204.749 121.001C205.979 121.001 206.976 120.004 206.976 118.774V39.511C206.976 38.281 205.979 37.2838 204.749 37.2838L99.3946 37.2838C98.1646 37.2838 97.1674 38.281 97.1674 39.511L97.1674 118.774C97.1674 120.004 98.1646 121.001 99.3946 121.001Z" fill="#EBEBEB"/>
<path d="M206.976 43.0439V118.784C206.974 119.374 206.739 119.94 206.322 120.357C205.904 120.775 205.339 121.01 204.748 121.011H99.3942C98.8039 121.01 98.2382 120.775 97.8208 120.357C97.4034 119.94 97.1683 119.374 97.167 118.784V43.0439H206.976Z" fill="#F0F0F0"/>
<path d="M206.566 46.0029H97.582V118.036H206.566V46.0029Z" fill="white"/>
<path d="M200.904 40.1764C200.904 40.4103 200.973 40.639 201.103 40.8335C201.233 41.028 201.418 41.1795 201.634 41.2691C201.85 41.3586 202.088 41.382 202.317 41.3364C202.547 41.2907 202.757 41.1781 202.923 41.0127C203.088 40.8473 203.201 40.6365 203.247 40.4071C203.292 40.1777 203.269 39.9399 203.179 39.7238C203.09 39.5076 202.938 39.3229 202.744 39.193C202.549 39.063 202.32 38.9937 202.087 38.9937C201.773 38.9937 201.472 39.1183 201.25 39.3401C201.028 39.5619 200.904 39.8627 200.904 40.1764Z" fill="white"/>
<path d="M196.705 40.1764C196.705 40.4103 196.774 40.639 196.904 40.8335C197.034 41.028 197.219 41.1795 197.435 41.2691C197.651 41.3586 197.889 41.382 198.119 41.3364C198.348 41.2907 198.559 41.1781 198.724 41.0127C198.89 40.8473 199.002 40.6365 199.048 40.4071C199.093 40.1777 199.07 39.9399 198.98 39.7238C198.891 39.5076 198.739 39.3229 198.545 39.193C198.35 39.063 198.122 38.9937 197.888 38.9937C197.574 38.9937 197.273 39.1183 197.051 39.3401C196.83 39.5619 196.705 39.8627 196.705 40.1764Z" fill="white"/>
<path d="M192.512 40.1764C192.512 40.4103 192.582 40.639 192.712 40.8335C192.841 41.028 193.026 41.1795 193.242 41.2691C193.458 41.3586 193.696 41.382 193.926 41.3364C194.155 41.2907 194.366 41.1781 194.531 41.0127C194.697 40.8473 194.809 40.6365 194.855 40.4071C194.901 40.1777 194.877 39.9399 194.788 39.7238C194.698 39.5076 194.547 39.3229 194.352 39.193C194.158 39.063 193.929 38.9937 193.695 38.9937C193.381 38.9937 193.08 39.1183 192.859 39.3401C192.637 39.5619 192.512 39.8627 192.512 40.1764Z" fill="white"/>
<path d="M97.1674 43.187L206.976 43.187V42.8901L97.1674 42.8901V43.187Z" fill="#E0E0E0"/>
<path d="M89.3438 131.635H194.698C195.928 131.635 196.925 130.638 196.925 129.408V50.1453C196.925 48.9153 195.928 47.9181 194.698 47.9181L89.3438 47.9181C88.1138 47.9181 87.1166 48.9153 87.1166 50.1453L87.1166 129.408C87.1166 130.638 88.1138 131.635 89.3438 131.635Z" fill="#E0E0E0"/>
<path d="M88.7555 131.635H194.11C195.34 131.635 196.337 130.638 196.337 129.408V50.1453C196.337 48.9153 195.34 47.9181 194.11 47.9181L88.7555 47.9181C87.5254 47.9181 86.5283 48.9153 86.5283 50.1453L86.5283 129.408C86.5283 130.638 87.5254 131.635 88.7555 131.635Z" fill="#EBEBEB"/>
<path d="M196.336 53.6831V129.408C196.335 129.999 196.099 130.566 195.681 130.983C195.262 131.401 194.695 131.635 194.104 131.635H88.755C88.1648 131.634 87.599 131.399 87.1817 130.981C86.7643 130.564 86.5292 129.998 86.5278 129.408V53.6831H196.336Z" fill="#F0F0F0"/>
<path d="M195.922 56.6426H86.938V128.676H195.922V56.6426Z" fill="white"/>
<path d="M191.447 51.9987C192.1 51.9987 192.63 51.4692 192.63 50.816C192.63 50.1628 192.1 49.6333 191.447 49.6333C190.794 49.6333 190.264 50.1628 190.264 50.816C190.264 51.4692 190.794 51.9987 191.447 51.9987Z" fill="white"/>
<path d="M186.061 50.816C186.06 51.0512 186.128 51.2813 186.258 51.4773C186.388 51.6733 186.573 51.8264 186.79 51.9171C187.007 52.0078 187.246 52.032 187.477 51.9868C187.708 51.9415 187.92 51.8288 188.087 51.6629C188.253 51.497 188.367 51.2853 188.413 51.0548C188.459 50.8242 188.436 50.5851 188.346 50.3678C188.257 50.1504 188.104 49.9646 187.909 49.8338C187.713 49.7031 187.484 49.6333 187.248 49.6333C186.934 49.6333 186.633 49.7577 186.41 49.9794C186.188 50.2011 186.062 50.5019 186.061 50.816Z" fill="white"/>
<path d="M183.05 51.9987C183.703 51.9987 184.233 51.4692 184.233 50.816C184.233 50.1628 183.703 49.6333 183.05 49.6333C182.397 49.6333 181.867 50.1628 181.867 50.816C181.867 51.4692 182.397 51.9987 183.05 51.9987Z" fill="white"/>
<path d="M86.5283 53.8267L196.337 53.8267V53.5297L86.5283 53.5297V53.8267Z" fill="#E0E0E0"/>
<path d="M177.208 91.3C173.23 91.3 171.305 87.245 169.436 83.3282C167.629 79.5291 165.924 75.94 162.591 75.94C159.258 75.94 157.553 79.524 155.745 83.3282C153.882 87.245 151.951 91.3 147.973 91.3C143.995 91.3 142.07 87.245 140.206 83.3282C138.399 79.5291 136.689 75.94 133.361 75.94C130.033 75.94 128.323 79.524 126.515 83.3282C124.652 87.245 122.721 91.3 118.748 91.3C114.775 91.3 112.84 87.245 110.976 83.3282C109.169 79.5291 107.464 75.94 104.131 75.94C100.797 75.94 99.0925 79.524 97.2851 83.3282C95.4215 87.245 93.4963 91.3 89.5181 91.3C85.5399 91.3 83.6147 87.245 81.7459 83.3282C79.9437 79.5291 78.2336 75.94 74.9056 75.94C71.5776 75.94 69.8675 79.524 68.0602 83.3282C66.1965 87.245 64.2714 91.3 60.2931 91.3C56.3149 91.3 54.3898 87.245 52.5261 83.3282C50.7187 79.5291 49.0087 75.94 45.6807 75.94V74.916C49.6589 74.916 51.584 78.9711 53.4477 82.8879C55.2551 86.6869 56.9651 90.276 60.2931 90.276C63.6211 90.276 65.3312 86.692 67.1386 82.8879C69.0023 78.9711 70.9274 74.916 74.9056 74.916C78.8839 74.916 80.809 78.9711 82.6727 82.8879C84.48 86.6869 86.185 90.276 89.5181 90.276C92.8512 90.276 94.5562 86.692 96.3635 82.8879C98.2272 78.9711 100.152 74.916 104.131 74.916C108.109 74.916 110.034 78.9711 111.903 82.8879C113.71 86.6869 115.415 90.276 118.748 90.276C122.081 90.276 123.781 86.692 125.589 82.8879C127.457 78.9711 129.382 74.916 133.361 74.916C137.339 74.916 139.264 78.9711 141.133 82.8879C142.94 86.6869 144.645 90.276 147.973 90.276C151.301 90.276 153.016 86.692 154.824 82.8879C156.687 78.9711 158.613 74.916 162.591 74.916C166.569 74.916 168.499 78.9711 170.363 82.8879C172.17 86.6869 173.88 90.276 177.208 90.276V91.3Z" fill="#FAFAFA"/>
<path d="M177.208 114.857C173.23 114.857 171.305 110.807 169.436 106.885C167.629 103.086 165.924 99.4971 162.591 99.4971C159.258 99.4971 157.553 103.081 155.745 106.885C153.882 110.807 151.951 114.857 147.973 114.857C143.995 114.857 142.07 110.807 140.206 106.885C138.399 103.086 136.689 99.4971 133.361 99.4971C130.033 99.4971 128.323 103.081 126.515 106.885C124.652 110.807 122.721 114.857 118.748 114.857C114.775 114.857 112.84 110.807 110.976 106.885C109.169 103.086 107.464 99.4971 104.131 99.4971C100.797 99.4971 99.0925 103.081 97.2851 106.885C95.4215 110.807 93.4963 114.857 89.5181 114.857C85.5399 114.857 83.6147 110.807 81.7459 106.885C79.9437 103.086 78.2336 99.4971 74.9056 99.4971C71.5776 99.4971 69.8675 103.081 68.0602 106.885C66.1965 110.807 64.2714 114.857 60.2931 114.857C56.3149 114.857 54.3898 110.807 52.5261 106.885C50.7187 103.086 49.0087 99.4971 45.6807 99.4971V98.4731C49.6589 98.4731 51.584 102.528 53.4477 106.445C55.2551 110.244 56.9651 113.833 60.2931 113.833C63.6211 113.833 65.3312 110.249 67.1386 106.445C69.0023 102.528 70.9274 98.4731 74.9056 98.4731C78.8839 98.4731 80.809 102.528 82.6727 106.445C84.48 110.244 86.185 113.833 89.5181 113.833C92.8512 113.833 94.5562 110.249 96.3635 106.445C98.2272 102.528 100.152 98.4731 104.131 98.4731C108.109 98.4731 110.034 102.528 111.903 106.445C113.71 110.244 115.415 113.833 118.748 113.833C122.081 113.833 123.781 110.249 125.589 106.445C127.457 102.528 129.382 98.4731 133.361 98.4731C137.339 98.4731 139.264 102.528 141.133 106.445C142.94 110.244 144.645 113.833 147.973 113.833C151.301 113.833 153.016 110.249 154.824 106.445C156.687 102.528 158.613 98.4731 162.591 98.4731C166.569 98.4731 168.499 102.528 170.363 106.445C172.17 110.244 173.88 113.833 177.208 113.833V114.857Z" fill="#FAFAFA"/>
<path d="M128 218.911C182.826 218.911 227.271 216.316 227.271 213.115C227.271 209.914 182.826 207.319 128 207.319C73.1735 207.319 28.728 209.914 28.728 213.115C28.728 216.316 73.1735 218.911 128 218.911Z" fill="#F5F5F5"/>
<path d="M160.256 56.2891H132.966C132.005 56.2893 131.066 56.579 130.271 57.1206C129.477 57.6621 128.864 58.4303 128.512 59.3252L126.08 65.4692H167.148L164.716 59.3252C164.364 58.4295 163.75 57.6607 162.954 57.1191C162.159 56.5775 161.218 56.2882 160.256 56.2891Z" fill="#FF002C"/>
<path opacity="0.4" d="M160.256 56.2891H132.966C132.005 56.2893 131.066 56.579 130.271 57.1206C129.477 57.6621 128.864 58.4303 128.512 59.3252L126.08 65.4692H167.148L164.716 59.3252C164.364 58.4295 163.75 57.6607 162.954 57.1191C162.159 56.5775 161.218 56.2882 160.256 56.2891Z" fill="white"/>
<path d="M82.7802 56.2891H55.4906C54.5284 56.2889 53.5884 56.5785 52.7931 57.12C51.9977 57.6615 51.3837 58.4299 51.0311 59.3252L48.5991 65.4692H89.6718L87.2398 59.3252C86.8871 58.4299 86.2732 57.6615 85.4778 57.12C84.6824 56.5785 83.7425 56.2889 82.7802 56.2891Z" fill="#FF002C"/>
<path opacity="0.2" d="M82.7802 56.2891H55.4906C54.5284 56.2889 53.5884 56.5785 52.7931 57.12C51.9977 57.6615 51.3837 58.4299 51.0311 59.3252L48.5991 65.4692H89.6718L87.2398 59.3252C86.8871 58.4299 86.2732 57.6615 85.4778 57.12C84.6824 56.5785 83.7425 56.2889 82.7802 56.2891Z" fill="black"/>
<path d="M208.246 64.7934H128.143L125.983 59.3252C125.629 58.4303 125.015 57.6623 124.22 57.1209C123.425 56.5795 122.485 56.2896 121.523 56.2891H94.2335C93.2711 56.2882 92.3308 56.5775 91.5353 57.1191C90.7398 57.6607 90.126 58.4295 89.774 59.3252L87.6133 64.7934H47.7541C46.271 64.8015 44.851 65.3942 43.8023 66.4429C42.7536 67.4916 42.1609 68.9116 42.1528 70.3947V177.259C42.1609 178.742 42.7536 180.162 43.8023 181.211C44.851 182.26 46.271 182.853 47.7541 182.861H208.246C209.729 182.853 211.149 182.26 212.197 181.211C213.246 180.162 213.839 178.742 213.847 177.259V70.3947C213.839 68.9116 213.246 67.4916 212.197 66.4429C211.149 65.3942 209.729 64.8015 208.246 64.7934Z" fill="#FF002C"/>
<path d="M210.263 177.367V80.9366C210.263 79.8819 209.408 79.0269 208.353 79.0269L47.6515 79.0269C46.5968 79.0269 45.7417 79.8819 45.7417 80.9366V177.367C45.7417 178.421 46.5968 179.276 47.6515 179.276H208.353C209.408 179.276 210.263 178.421 210.263 177.367Z" fill="white"/>
<path d="M129.772 105.538H102.292V113.684H129.772V105.538Z" fill="#FF002C"/>
<path d="M153.707 105.538H134.42V113.684H153.707V105.538Z" fill="#FF002C"/>
<path d="M40.8728 99.6963H40.3608V109.614H40.8728V99.6963Z" fill="#FF002C"/>
<path d="M40.8728 113.377H40.3608V117.018H40.8728V113.377Z" fill="#FF002C"/>
<path d="M69.1407 82.3604H60.4111V84.306H69.1407V82.3604Z" fill="#FF002C"/>
<path d="M57.9889 82.3604H49.2593V84.306H57.9889V82.3604Z" fill="#FF002C"/>
<path d="M170.24 136.54H85.7603V120.996H170.24V136.54ZM86.2723 136.028H169.728V121.508H86.2723V136.028Z" fill="#FF002C"/>
<path d="M89.1751 124.882H88.6631V132.659H89.1751V124.882Z" fill="#FF002C"/>
<path d="M149.903 141.491H106.097V143.437H149.903V141.491Z" fill="#FF002C"/>
<path d="M160.809 131.732C160.187 131.733 159.575 131.58 159.027 131.287C158.479 130.995 158.011 130.572 157.665 130.055C157.32 129.539 157.107 128.945 157.045 128.326C156.984 127.708 157.076 127.084 157.314 126.51C157.551 125.935 157.927 125.428 158.407 125.034C158.887 124.639 159.457 124.369 160.067 124.248C160.676 124.126 161.306 124.157 161.901 124.337C162.496 124.517 163.037 124.841 163.476 125.281C164.005 125.809 164.365 126.482 164.511 127.215C164.657 127.947 164.583 128.707 164.297 129.397C164.012 130.088 163.528 130.678 162.907 131.093C162.286 131.509 161.556 131.731 160.809 131.732ZM160.809 125.199C160.172 125.198 159.554 125.418 159.06 125.821C158.567 126.225 158.229 126.787 158.104 127.412C157.979 128.037 158.074 128.686 158.373 129.248C158.673 129.811 159.159 130.252 159.747 130.497C160.336 130.742 160.991 130.775 161.601 130.59C162.211 130.406 162.738 130.016 163.093 129.487C163.448 128.957 163.608 128.321 163.546 127.687C163.484 127.052 163.205 126.459 162.755 126.008C162.239 125.491 161.539 125.2 160.809 125.199Z" fill="#FF002C"/>
<path d="M165.704 133.361C165.636 133.361 165.57 133.348 165.507 133.323C165.445 133.297 165.388 133.26 165.34 133.212L162.755 130.627C162.658 130.53 162.604 130.399 162.604 130.263C162.604 130.127 162.658 129.996 162.755 129.9C162.851 129.803 162.982 129.749 163.118 129.749C163.254 129.749 163.385 129.803 163.482 129.9L166.067 132.49C166.163 132.586 166.216 132.716 166.216 132.851C166.216 132.987 166.163 133.116 166.067 133.212C166.019 133.26 165.963 133.297 165.9 133.323C165.838 133.348 165.771 133.361 165.704 133.361Z" fill="#FF002C"/>
<path opacity="0.6" d="M170.24 136.54H85.7603V120.996H170.24V136.54ZM86.2723 136.028H169.728V121.508H86.2723V136.028Z" fill="white"/>
<path opacity="0.6" d="M89.1751 124.882H88.6631V132.659H89.1751V124.882Z" fill="white"/>
<path opacity="0.6" d="M149.903 141.491H106.097V143.437H149.903V141.491Z" fill="white"/>
<path opacity="0.6" d="M69.1407 82.3604H60.4111V84.306H69.1407V82.3604Z" fill="white"/>
<path opacity="0.6" d="M57.9889 82.3604H49.2593V84.306H57.9889V82.3604Z" fill="white"/>
<g opacity="0.6">
<path d="M160.809 131.732C160.187 131.733 159.575 131.58 159.027 131.287C158.479 130.995 158.011 130.572 157.665 130.055C157.32 129.539 157.107 128.945 157.045 128.326C156.984 127.708 157.076 127.084 157.314 126.51C157.551 125.935 157.927 125.428 158.407 125.034C158.887 124.639 159.457 124.369 160.067 124.248C160.676 124.126 161.306 124.157 161.901 124.337C162.496 124.517 163.037 124.841 163.476 125.281C164.005 125.809 164.365 126.482 164.511 127.215C164.657 127.947 164.583 128.707 164.297 129.397C164.012 130.088 163.528 130.678 162.907 131.093C162.286 131.509 161.556 131.731 160.809 131.732ZM160.809 125.199C160.172 125.198 159.554 125.418 159.06 125.821C158.567 126.225 158.229 126.787 158.104 127.412C157.979 128.037 158.074 128.686 158.373 129.248C158.673 129.811 159.159 130.252 159.747 130.497C160.336 130.742 160.991 130.775 161.601 130.59C162.211 130.406 162.738 130.016 163.093 129.487C163.448 128.957 163.608 128.321 163.546 127.687C163.484 127.052 163.205 126.459 162.755 126.008C162.239 125.491 161.539 125.2 160.809 125.199Z" fill="white"/>
<path d="M165.704 133.361C165.636 133.361 165.57 133.348 165.507 133.323C165.445 133.297 165.388 133.26 165.34 133.212L162.755 130.627C162.658 130.53 162.604 130.399 162.604 130.263C162.604 130.127 162.658 129.996 162.755 129.9C162.851 129.803 162.982 129.749 163.118 129.749C163.254 129.749 163.385 129.803 163.482 129.9L166.067 132.49C166.163 132.586 166.216 132.716 166.216 132.851C166.216 132.987 166.163 133.116 166.067 133.212C166.019 133.26 165.963 133.297 165.9 133.323C165.838 133.348 165.771 133.361 165.704 133.361Z" fill="white"/>
</g>
<path d="M188.088 75.8115C187.576 78.3715 186.552 83.4915 188.319 85.2067C188.319 85.2067 187.627 87.7667 182.896 87.7667C177.695 87.7667 180.413 85.2067 180.413 85.2067C183.25 84.5309 183.178 82.4266 182.681 80.4451L188.088 75.8115Z" fill="#E4897B"/>
<path d="M180.117 86.0413C179.415 86.1437 180.065 84.5411 180.357 84.3722C181.028 83.9728 189.573 83.169 189.476 84.0701C189.418 84.6038 189.184 85.1029 188.81 85.4884C188.416 85.7597 186.266 85.0532 180.117 86.0413Z" fill="#FF002C"/>
<path opacity="0.6" d="M180.117 86.0413C179.415 86.1437 180.065 84.5411 180.357 84.3722C181.028 83.9728 189.573 83.169 189.476 84.0701C189.418 84.6038 189.184 85.1029 188.81 85.4884C188.416 85.7597 186.266 85.0532 180.117 86.0413Z" fill="white"/>
<path d="M197.632 91.1719C197.899 92.1959 198.19 93.3223 198.508 94.3975C198.825 95.4727 199.127 96.5786 199.46 97.664C199.793 98.7495 200.131 99.8451 200.484 100.925L200.996 102.554L201.129 102.958L201.18 103.101C201.188 103.131 201.199 103.16 201.211 103.189C201.274 103.335 201.353 103.474 201.447 103.603C202.014 104.333 202.708 104.955 203.495 105.441C204.398 106.037 205.341 106.57 206.316 107.039C208.346 108.016 210.428 108.882 212.552 109.635L212.04 111.749C209.664 111.389 207.326 110.809 205.056 110.019C203.883 109.609 202.741 109.113 201.641 108.534C200.396 107.893 199.281 107.025 198.354 105.974C198.085 105.649 197.85 105.297 197.653 104.924C197.596 104.827 197.55 104.725 197.499 104.617L197.392 104.356L197.218 103.946C196.987 103.404 196.757 102.861 196.542 102.308C196.112 101.207 195.682 100.106 195.303 98.985C194.924 97.8637 194.545 96.7424 194.202 95.6058L193.721 93.8855C193.562 93.2967 193.429 92.7437 193.291 92.0986L197.632 91.1719Z" fill="#E4897B"/>
<path d="M199.404 92.9843L195.098 96.4147L192.512 98.4627C192.512 98.4627 192.241 97.7407 191.913 96.7065C191.289 94.7097 190.475 91.5455 191.038 90.0915C191.924 87.7875 193.598 85.7087 195.718 86.1695C197.499 86.574 199.404 92.9843 199.404 92.9843Z" fill="#FF002C"/>
<path opacity="0.2" d="M199.404 92.9843L195.098 96.4147L192.512 98.4627C192.512 98.4627 192.241 97.7407 191.913 96.7065C191.289 94.7097 190.475 91.5455 191.038 90.0915C191.924 87.7875 193.598 85.7087 195.718 86.1695C197.499 86.574 199.404 92.9843 199.404 92.9843Z" fill="white"/>
<path opacity="0.1" d="M195.098 96.4149L192.512 98.4629C192.512 98.4629 192.241 97.741 191.913 96.7067L193.449 89.1035L195.098 96.4149Z" fill="black"/>
<path d="M173.163 86.308C173.163 86.308 171.115 87.0248 175.211 112.19H192.619C192.328 105.104 192.317 100.731 195.691 86.18C193.252 85.6767 190.779 85.3516 188.293 85.2072C185.661 85.0175 183.019 85.0175 180.388 85.2072C177.014 85.5041 173.163 86.308 173.163 86.308Z" fill="#FF002C"/>
<path opacity="0.2" d="M173.163 86.308C173.163 86.308 171.115 87.0248 175.211 112.19H192.619C192.328 105.104 192.317 100.731 195.691 86.18C193.252 85.6767 190.779 85.3516 188.293 85.2072C185.661 85.0175 183.019 85.0175 180.388 85.2072C177.014 85.5041 173.163 86.308 173.163 86.308Z" fill="white"/>
<path d="M215.178 112.789L213.847 115.502L212.966 112.64L214.912 109.962L215.178 112.789Z" fill="#E4897B"/>
<path d="M165.207 208.707L161.029 207.739L162.985 197.996L167.163 198.963L165.207 208.707Z" fill="#E4897B"/>
<path d="M193.454 208.737H189.163L189.501 198.805H193.792L193.454 208.737Z" fill="#E4897B"/>
<path d="M162.985 198.001L161.935 203.218L166.154 203.986L167.168 198.969L162.985 198.001Z" fill="#CE6F64"/>
<path d="M193.792 198.805H189.501L189.333 203.925H193.623L193.792 198.805Z" fill="#CE6F64"/>
<path d="M175.211 112.189C175.211 112.189 170.378 145.213 168.678 158.188C166.912 171.679 161.751 201.928 161.751 201.928L167.48 202.803C167.48 202.803 176.548 173.952 179.072 160.819C181.826 146.509 187.965 112.179 187.965 112.179L175.211 112.189Z" fill="#FF002C"/>
<path opacity="0.7" d="M175.211 112.189C175.211 112.189 170.378 145.213 168.678 158.188C166.912 171.679 161.751 201.928 161.751 201.928L167.48 202.803C167.48 202.803 176.548 173.952 179.072 160.819C181.826 146.509 187.965 112.179 187.965 112.179L175.211 112.189Z" fill="black"/>
<path d="M179.809 112.189C179.809 112.189 182.303 141.624 184.883 158.213C186.967 171.612 188.615 202.936 188.615 202.936H194.463C194.463 202.936 197.248 172.687 196.188 159.416C193.51 125.885 198.21 119.946 192.63 112.174L179.809 112.189Z" fill="#FF002C"/>
<path opacity="0.7" d="M179.809 112.189C179.809 112.189 182.303 141.624 184.883 158.213C186.967 171.612 188.615 202.936 188.615 202.936H194.463C194.463 202.936 197.248 172.687 196.188 159.416C193.51 125.885 198.21 119.946 192.63 112.174L179.809 112.189Z" fill="black"/>
<path d="M211.891 109.481L214.912 109.962L212.992 112.64C212.992 112.64 210.033 111.57 210.15 109.793L211.891 109.481Z" fill="#E4897B"/>
<path d="M187.361 208.988C187.07 209.013 186.779 208.933 186.542 208.762C186.47 208.695 186.417 208.61 186.387 208.516C186.358 208.422 186.353 208.321 186.373 208.225C186.378 208.164 186.399 208.105 186.434 208.055C186.469 208.004 186.517 207.964 186.573 207.938C187.085 207.713 188.375 208.553 188.523 208.65C188.54 208.661 188.553 208.676 188.562 208.694C188.57 208.712 188.572 208.733 188.569 208.752C188.565 208.771 188.555 208.789 188.542 208.803C188.528 208.818 188.511 208.828 188.493 208.834C188.122 208.926 187.743 208.978 187.361 208.988ZM186.788 208.102C186.745 208.093 186.702 208.093 186.66 208.102C186.635 208.114 186.614 208.132 186.599 208.154C186.583 208.177 186.574 208.203 186.573 208.23C186.557 208.295 186.559 208.362 186.578 208.426C186.597 208.49 186.632 208.547 186.68 208.593C186.895 208.793 187.458 208.819 188.216 208.67C187.785 208.383 187.298 208.189 186.788 208.102Z" fill="#FF002C"/>
<path d="M188.467 208.835C188.451 208.84 188.433 208.84 188.416 208.835C188.007 208.6 187.228 207.678 187.326 207.192C187.342 207.112 187.385 207.041 187.447 206.99C187.51 206.939 187.588 206.911 187.669 206.91C187.746 206.9 187.824 206.906 187.898 206.929C187.973 206.952 188.041 206.991 188.099 207.043C188.565 207.458 188.57 208.692 188.57 208.748C188.569 208.766 188.564 208.783 188.555 208.798C188.546 208.813 188.534 208.826 188.519 208.835C188.502 208.84 188.484 208.84 188.467 208.835ZM187.74 207.099H187.694C187.561 207.099 187.536 207.176 187.525 207.222C187.464 207.519 187.95 208.21 188.36 208.538C188.37 208.057 188.231 207.585 187.961 207.186C187.931 207.158 187.897 207.136 187.859 207.121C187.821 207.106 187.781 207.099 187.74 207.099Z" fill="#FF002C"/>
<path d="M160.66 207.094C159.969 206.955 158.766 206.638 158.499 206.07C158.458 205.991 158.437 205.903 158.437 205.814C158.437 205.725 158.458 205.637 158.499 205.558C158.523 205.507 158.56 205.464 158.606 205.433C158.651 205.401 158.705 205.382 158.76 205.379C159.344 205.307 160.599 206.771 160.742 206.915C160.753 206.93 160.759 206.949 160.761 206.968C160.762 206.987 160.759 207.006 160.751 207.023C160.742 207.04 160.729 207.055 160.713 207.066C160.698 207.076 160.679 207.082 160.66 207.083V207.094ZM158.807 205.558H158.781C158.759 205.56 158.737 205.569 158.719 205.582C158.701 205.596 158.687 205.614 158.679 205.635C158.65 205.687 158.635 205.746 158.635 205.806C158.635 205.866 158.65 205.925 158.679 205.978C158.832 206.295 159.467 206.602 160.404 206.822C159.877 206.259 159.139 205.563 158.807 205.563V205.558Z" fill="#FF002C"/>
<path d="M160.661 207.094C160.633 207.092 160.608 207.079 160.589 207.058C160.205 206.648 159.627 205.409 159.883 205.01C159.933 204.938 160.008 204.886 160.094 204.865C160.179 204.843 160.27 204.853 160.349 204.892C160.446 204.921 160.536 204.97 160.613 205.035C160.691 205.1 160.754 205.18 160.799 205.271C161.127 205.891 160.773 206.997 160.758 207.043C160.754 207.059 160.745 207.074 160.732 207.086C160.719 207.098 160.703 207.106 160.686 207.109L160.661 207.094ZM160.149 205.046C160.067 205.046 160.046 205.082 160.036 205.097C159.883 205.348 160.236 206.285 160.594 206.776C160.746 206.311 160.746 205.809 160.594 205.343C160.561 205.276 160.514 205.217 160.457 205.17C160.4 205.122 160.333 205.087 160.261 205.066C160.232 205.056 160.201 205.049 160.169 205.046H160.149Z" fill="#FF002C"/>
<path d="M177.761 70.3542C177.729 70.3546 177.698 70.3474 177.669 70.3332C177.641 70.3189 177.616 70.298 177.597 70.2723C177.453 70.0609 177.261 69.8867 177.037 69.7639C176.813 69.6411 176.562 69.5732 176.307 69.5657C176.278 69.5704 176.248 69.5687 176.219 69.5607C176.191 69.5526 176.164 69.5385 176.142 69.5193C176.119 69.5001 176.101 69.4762 176.089 69.4493C176.076 69.4224 176.07 69.3931 176.07 69.3635C176.07 69.3339 176.076 69.3046 176.089 69.2777C176.101 69.2508 176.119 69.2269 176.142 69.2077C176.164 69.1885 176.191 69.1743 176.219 69.1663C176.248 69.1583 176.278 69.1566 176.307 69.1613C176.628 69.1679 176.944 69.2502 177.227 69.4014C177.511 69.5526 177.755 69.7685 177.94 70.0317C177.956 70.0535 177.967 70.0782 177.974 70.1045C177.98 70.1307 177.981 70.1579 177.977 70.1846C177.972 70.2112 177.963 70.2368 177.949 70.2597C177.935 70.2827 177.916 70.3026 177.894 70.3184C177.855 70.3457 177.808 70.3584 177.761 70.3542Z" fill="#263238"/>
<path d="M176.64 72.7959C176.364 73.598 175.978 74.3578 175.493 75.0538C175.674 75.1718 175.879 75.2489 176.093 75.2799C176.307 75.3108 176.525 75.2948 176.732 75.233L176.64 72.7959Z" fill="#DE5753"/>
<path d="M176.911 72.1921C176.911 72.5402 176.753 72.827 176.522 72.8321C176.292 72.8372 176.102 72.571 176.092 72.2228C176.082 71.8746 176.251 71.593 176.476 71.5828C176.702 71.5726 176.896 71.849 176.911 72.1921Z" fill="#263238"/>
<path d="M176.578 71.5984L175.739 71.3936C175.739 71.3936 176.189 72.0233 176.578 71.5984Z" fill="#263238"/>
<path d="M188.825 208.241H193.643C193.726 208.239 193.807 208.267 193.871 208.321C193.934 208.375 193.975 208.45 193.986 208.533L194.534 212.342C194.545 212.438 194.535 212.536 194.506 212.628C194.476 212.72 194.427 212.805 194.363 212.878C194.298 212.95 194.218 213.007 194.13 213.046C194.041 213.085 193.945 213.105 193.848 213.105C192.169 213.079 191.36 212.977 189.24 212.977C187.935 212.977 186.03 213.115 184.233 213.115C182.436 213.115 182.338 211.333 183.086 211.175C186.445 210.448 186.977 209.454 188.109 208.502C188.31 208.335 188.564 208.242 188.825 208.241Z" fill="#263238"/>
<path d="M161.111 206.638L165.56 208.487C165.638 208.517 165.701 208.574 165.739 208.647C165.776 208.721 165.786 208.806 165.765 208.886L164.813 212.618C164.786 212.711 164.739 212.798 164.677 212.872C164.614 212.945 164.536 213.005 164.449 213.047C164.361 213.088 164.266 213.111 164.169 213.113C164.072 213.115 163.975 213.097 163.886 213.059C162.35 212.388 161.633 211.989 159.678 211.175C158.474 210.663 155.93 209.767 154.266 209.075C152.602 208.384 153.201 206.705 153.953 206.843C157.333 207.468 158.94 207.053 160.348 206.607C160.598 206.528 160.868 206.539 161.111 206.638Z" fill="#263238"/>
<path d="M174.868 92.1601C173.863 94.6904 172.723 97.1651 171.453 99.5738C170.824 100.782 170.158 101.985 169.405 103.158C169.231 103.455 169.026 103.747 168.837 104.038C168.648 104.33 168.448 104.627 168.228 104.914C168.008 105.201 167.823 105.498 167.577 105.784L167.229 106.214L167.055 106.43L166.937 106.563L166.799 106.711C166.119 107.391 165.29 107.903 164.377 108.206C163.626 108.456 162.85 108.627 162.063 108.718C160.632 108.887 159.188 108.911 157.752 108.79C155.01 108.572 152.297 108.081 149.652 107.326L150.093 105.196C151.362 105.313 152.683 105.421 153.974 105.472C155.264 105.523 156.559 105.559 157.824 105.508C159.045 105.478 160.261 105.345 161.459 105.109C161.986 105.003 162.501 104.843 162.995 104.632C163.343 104.495 163.655 104.279 163.906 104.003L164.362 103.368C164.536 103.137 164.695 102.856 164.874 102.61C165.202 102.098 165.519 101.55 165.832 101.002C166.451 99.9015 167.03 98.7444 167.603 97.5924C168.177 96.4404 168.709 95.2474 169.247 94.0596C169.784 92.8717 170.306 91.6634 170.783 90.4756L174.868 92.1601Z" fill="#E4897B"/>
<path d="M150.328 107.52L145.951 106.767L147.773 103.567C147.773 103.567 150.815 104.381 151.511 106.02L150.328 107.52Z" fill="#E4897B"/>
<path d="M143.063 105.729L144.205 103.803L147.774 103.558L145.951 106.763L143.063 105.729Z" fill="#E4897B"/>
<path d="M188.483 70.5485C188.391 74.8032 188.442 76.6055 186.384 78.8685C183.312 82.2733 178.079 81.2288 176.901 77.0304C175.842 73.2519 176.174 66.9287 180.26 65.0752C181.16 64.6627 182.15 64.4871 183.136 64.5648C184.123 64.6426 185.073 64.9713 185.897 65.5197C186.721 66.0681 187.391 66.8179 187.844 67.6981C188.296 68.5782 188.516 69.5594 188.483 70.5485Z" fill="#E4897B"/>
<path d="M193.603 70.4715C193.224 67.3995 191.724 64.3787 190.049 62.8939C186.015 59.3099 180.598 62.1771 177.925 64.3685C175.13 66.6622 177.055 70.2974 178.765 72.1202C178.793 72.7725 178.892 73.4199 179.062 74.0504C178.796 75.7298 177.674 77.3938 176.103 78.7352C181.422 80.2712 189.21 80.3992 192.087 79.3291C195.804 77.9518 194.304 76.8664 193.603 70.4715Z" fill="#263238"/>
<path d="M180.321 72.5195C180.249 73.321 179.906 74.074 179.348 74.6546C178.591 75.4379 177.812 74.9874 177.674 74.0606C177.556 73.2261 177.807 71.813 178.729 71.3675C179.65 70.9221 180.383 71.5723 180.321 72.5195Z" fill="#E4897B"/>
<path d="M160.906 201.948L168.248 203.198L169.083 200.428L161.224 199.081L160.906 201.948Z" fill="#FF002C"/>
<path d="M187.811 203.049H195.261L195.65 200.438L187.771 200.171L187.811 203.049Z" fill="#FF002C"/>
<path d="M192.891 111.171L193.674 112.707C193.736 112.83 193.592 112.953 193.393 112.953H175.104C174.95 112.953 174.817 112.876 174.807 112.773L174.653 111.237C174.653 111.13 174.776 111.038 174.95 111.038H192.589C192.646 111.029 192.706 111.037 192.759 111.06C192.813 111.084 192.858 111.122 192.891 111.171Z" fill="#FF002C"/>
<path opacity="0.6" d="M192.891 111.171L193.674 112.707C193.736 112.83 193.592 112.953 193.393 112.953H175.104C174.95 112.953 174.817 112.876 174.807 112.773L174.653 111.237C174.653 111.13 174.776 111.038 174.95 111.038H192.589C192.646 111.029 192.706 111.037 192.759 111.06C192.813 111.084 192.858 111.122 192.891 111.171Z" fill="white"/>
<path d="M190.52 113.152H190.976C191.068 113.152 191.139 113.101 191.134 113.045L190.909 110.997C190.909 110.935 190.822 110.889 190.73 110.889H190.254C190.162 110.889 190.09 110.935 190.095 110.997L190.32 113.045C190.346 113.091 190.428 113.152 190.52 113.152Z" fill="#FF002C"/>
<path d="M179.072 113.152H179.543C179.635 113.152 179.712 113.101 179.702 113.045L179.481 110.997C179.481 110.935 179.394 110.889 179.297 110.889H178.826C178.734 110.889 178.662 110.935 178.667 110.997L178.887 113.045C178.893 113.091 178.974 113.152 179.072 113.152Z" fill="#FF002C"/>
<path opacity="0.7" d="M190.52 113.152H190.976C191.068 113.152 191.139 113.101 191.134 113.045L190.909 110.997C190.909 110.935 190.822 110.889 190.73 110.889H190.254C190.162 110.889 190.09 110.935 190.095 110.997L190.32 113.045C190.346 113.091 190.428 113.152 190.52 113.152Z" fill="black"/>
<path opacity="0.7" d="M179.072 113.152H179.543C179.635 113.152 179.712 113.101 179.702 113.045L179.481 110.997C179.481 110.935 179.394 110.889 179.297 110.889H178.826C178.734 110.889 178.662 110.935 178.667 110.997L178.887 113.045C178.893 113.091 178.974 113.152 179.072 113.152Z" fill="black"/>
<path d="M173.164 86.3079C171.029 86.8199 168.407 92.6772 168.407 92.6772L173.481 99.1796C173.481 99.1796 178.724 91.7607 178.023 89.4976C177.296 87.1373 175.749 85.6781 173.164 86.3079Z" fill="#FF002C"/>
<path opacity="0.2" d="M173.164 86.3079C171.029 86.8199 168.407 92.6772 168.407 92.6772L173.481 99.1796C173.481 99.1796 178.724 91.7607 178.023 89.4976C177.296 87.1373 175.749 85.6781 173.164 86.3079Z" fill="white"/>
</svg>
