<svg width="556" height="490" viewBox="0 0 556 490" fill="none" xmlns="http://www.w3.org/2000/svg">
<path d="M278 486.447C397.076 486.447 493.606 480.811 493.606 473.859C493.606 466.907 397.076 461.271 278 461.271C158.924 461.271 62.3943 466.907 62.3943 473.859C62.3943 480.811 158.924 486.447 278 486.447Z" fill="#F5F5F5"/>
<path d="M298.907 354.97C344.653 309.225 344.653 235.057 298.907 189.312C253.162 143.567 178.994 143.567 133.249 189.312C87.5038 235.057 87.5038 309.225 133.249 354.97C178.994 400.716 253.162 400.716 298.907 354.97Z" fill="#FF002C"/>
<path opacity="0.4" d="M294.19 350.252C337.329 307.113 337.329 237.169 294.19 194.03C251.05 150.89 181.107 150.89 137.967 194.03C94.8272 237.169 94.8272 307.113 137.967 350.252C181.107 393.392 251.05 393.392 294.19 350.252Z" fill="white"/>
<path opacity="0.7" d="M323.87 272.142C323.888 295.821 316.115 318.847 301.748 337.67C287.382 356.492 267.221 370.064 244.376 376.292C221.531 382.52 197.271 381.057 175.34 372.13C153.409 363.203 135.024 347.307 123.023 326.895C111.022 306.483 106.071 282.689 108.933 259.184C111.796 235.679 122.314 213.769 138.864 196.835C155.414 179.901 177.076 168.882 200.509 165.48C223.942 162.079 247.844 166.482 268.526 178.011C285.288 187.362 299.253 201.014 308.982 217.56C318.71 234.107 323.849 252.948 323.87 272.142Z" fill="white"/>
<path opacity="0.2" d="M216.073 155.004C192.906 155.007 170.259 161.878 150.997 174.751C131.736 187.624 116.723 205.919 107.859 227.323C98.9951 248.728 96.6769 272.28 101.198 295.002C105.719 317.724 116.876 338.595 133.259 354.976C149.641 371.356 170.513 382.512 193.236 387.031C215.958 391.549 239.51 389.229 260.913 380.363C282.317 371.497 300.611 356.483 313.481 337.22C326.352 317.957 333.222 295.31 333.222 272.142C333.222 256.759 330.192 241.526 324.304 227.313C318.417 213.101 309.788 200.187 298.909 189.309C288.031 178.432 275.116 169.804 260.903 163.918C246.69 158.032 231.457 155.003 216.073 155.004ZM216.073 386.934C193.366 386.934 171.17 380.201 152.291 367.586C133.411 354.97 118.697 337.04 110.008 316.062C101.319 295.084 99.0461 272 103.477 249.73C107.907 227.46 118.842 207.005 134.899 190.95C150.955 174.894 171.412 163.961 193.683 159.533C215.953 155.105 239.036 157.38 260.014 166.071C280.991 174.761 298.92 189.478 311.533 208.358C324.147 227.239 330.878 249.436 330.876 272.142C330.876 287.218 327.906 302.146 322.137 316.074C316.367 330.002 307.911 342.657 297.25 353.316C286.589 363.976 273.934 372.431 260.005 378.199C246.077 383.968 231.148 386.936 216.073 386.934Z" fill="black"/>
<path d="M268.526 178.011L216.073 272.954V164.356C234.44 164.327 252.505 169.03 268.526 178.011Z" fill="#FF002C"/>
<path opacity="0.5" d="M268.526 178.011L216.073 272.954V164.356C234.44 164.327 252.505 169.03 268.526 178.011Z" fill="white"/>
<g opacity="0.7">
<path d="M219.553 171.05L221.288 171.128L220.799 179.001L225.68 179.301L225.58 180.769L218.975 180.358L219.553 171.05Z" fill="white"/>
<path d="M225.803 176.688L226.559 171.462L228.283 171.718L227.526 176.866C227.248 178.768 227.982 179.713 229.483 179.935C230.985 180.158 231.941 179.457 232.219 177.556L232.975 172.396L234.665 172.652L233.898 177.867C233.509 180.558 231.774 181.804 229.25 181.437C226.726 181.07 225.402 179.402 225.803 176.688Z" fill="white"/>
<path d="M244.495 175.009L242.271 184.083L240.881 183.738L237.401 176.354L235.877 182.493L234.209 182.081L236.433 173.007L237.823 173.352L241.304 180.736L242.827 174.586L244.495 175.009Z" fill="white"/>
<path d="M244.106 179.769C244.48 178.853 245.115 178.066 245.931 177.507C246.748 176.948 247.71 176.641 248.7 176.623C249.689 176.605 250.662 176.878 251.498 177.407C252.334 177.937 252.996 178.7 253.403 179.602L251.99 180.224C251.808 179.792 251.536 179.404 251.193 179.084C250.85 178.764 250.444 178.52 250 178.367C249.577 178.131 249.108 177.989 248.625 177.952C248.141 177.916 247.656 177.985 247.202 178.154C246.748 178.324 246.337 178.591 245.997 178.936C245.656 179.281 245.395 179.695 245.231 180.151C245.068 180.608 245.005 181.094 245.048 181.576C245.092 182.059 245.24 182.526 245.482 182.946C245.724 183.366 246.055 183.728 246.451 184.007C246.847 184.286 247.299 184.475 247.776 184.561C248.218 184.725 248.691 184.792 249.161 184.755C249.632 184.719 250.089 184.58 250.5 184.35L251.212 185.729C250.329 186.172 249.336 186.347 248.355 186.233C247.374 186.12 246.447 185.722 245.689 185.089C244.93 184.456 244.374 183.615 244.087 182.67C243.8 181.725 243.795 180.716 244.073 179.769H244.106Z" fill="white"/>
<path d="M262.354 182.159L258.418 190.632L256.839 189.899L258.529 186.273L254.148 184.238L252.424 187.864L250.856 187.13L254.793 178.656L256.36 179.39L254.737 182.893L259.118 184.928L260.742 181.425L262.354 182.159Z" fill="white"/>
</g>
<path d="M216.084 276.145C215.943 276.157 215.802 276.157 215.661 276.145C214.606 276.036 213.637 275.512 212.967 274.688C212.298 273.865 211.983 272.809 212.092 271.753L219.064 204.377C219.111 203.848 219.263 203.334 219.511 202.865C219.759 202.395 220.098 201.98 220.507 201.643C220.917 201.305 221.39 201.053 221.898 200.9C222.407 200.747 222.94 200.697 223.468 200.752C223.996 200.808 224.508 200.967 224.974 201.222C225.439 201.477 225.849 201.822 226.181 202.237C226.512 202.652 226.757 203.128 226.902 203.639C227.047 204.15 227.089 204.684 227.026 205.211L220.031 272.554C219.928 273.532 219.469 274.438 218.741 275.101C218.013 275.763 217.068 276.135 216.084 276.145Z" fill="#263238"/>
<path d="M221.688 219.467H221.555C221.38 219.449 221.211 219.397 221.057 219.313C220.902 219.229 220.766 219.116 220.655 218.98C220.545 218.844 220.462 218.687 220.413 218.518C220.363 218.35 220.347 218.174 220.365 217.999L221.744 204.655C221.781 204.303 221.956 203.979 222.231 203.756C222.507 203.533 222.859 203.428 223.212 203.465C223.564 203.502 223.888 203.677 224.111 203.953C224.334 204.228 224.439 204.581 224.402 204.933L223.023 218.277C222.985 218.604 222.828 218.906 222.582 219.126C222.336 219.345 222.018 219.466 221.688 219.467Z" fill="#FF002C"/>
<g opacity="0.2">
<path d="M216.084 276.145C215.943 276.157 215.802 276.157 215.661 276.145C214.606 276.036 213.637 275.512 212.967 274.688C212.298 273.865 211.983 272.809 212.092 271.753L219.064 204.377C219.111 203.848 219.263 203.334 219.511 202.865C219.759 202.395 220.098 201.98 220.507 201.643C220.917 201.305 221.39 201.053 221.898 200.9C222.407 200.747 222.94 200.697 223.468 200.752C223.996 200.808 224.508 200.967 224.974 201.222C225.439 201.477 225.849 201.822 226.181 202.237C226.512 202.652 226.757 203.128 226.902 203.639C227.047 204.15 227.089 204.684 227.026 205.211L220.031 272.554C219.928 273.532 219.469 274.438 218.741 275.101C218.013 275.763 217.068 276.135 216.084 276.145Z" fill="white"/>
<path d="M221.688 219.467H221.555C221.38 219.449 221.211 219.397 221.057 219.313C220.902 219.229 220.766 219.116 220.655 218.98C220.545 218.844 220.462 218.687 220.413 218.518C220.363 218.35 220.347 218.174 220.365 217.999L221.744 204.655C221.781 204.303 221.956 203.979 222.231 203.756C222.507 203.533 222.859 203.428 223.212 203.465C223.564 203.502 223.888 203.677 224.111 203.953C224.334 204.228 224.439 204.581 224.402 204.933L223.023 218.277C222.985 218.604 222.828 218.906 222.582 219.126C222.336 219.345 222.018 219.466 221.688 219.467Z" fill="white"/>
</g>
<path d="M216.073 182.671C215.925 182.671 215.784 182.612 215.68 182.508C215.575 182.404 215.517 182.262 215.517 182.115V169.794C215.52 169.647 215.579 169.507 215.683 169.404C215.786 169.3 215.926 169.241 216.073 169.238C216.22 169.238 216.362 169.296 216.466 169.401C216.57 169.505 216.629 169.646 216.629 169.794V182.115C216.629 182.262 216.57 182.404 216.466 182.508C216.362 182.612 216.22 182.671 216.073 182.671Z" fill="#263238"/>
<path d="M216.073 375.047C215.926 375.044 215.786 374.984 215.683 374.881C215.579 374.777 215.52 374.637 215.517 374.491V362.159C215.52 362.012 215.579 361.872 215.683 361.769C215.786 361.665 215.926 361.605 216.073 361.603C216.22 361.603 216.362 361.661 216.466 361.765C216.57 361.87 216.629 362.011 216.629 362.159V374.491C216.629 374.638 216.57 374.779 216.466 374.884C216.362 374.988 216.22 375.047 216.073 375.047Z" fill="#263238"/>
<path d="M318.421 272.698H306.1C305.953 272.698 305.811 272.64 305.707 272.536C305.603 272.431 305.544 272.29 305.544 272.142C305.544 271.995 305.603 271.854 305.707 271.749C305.811 271.645 305.953 271.586 306.1 271.586H318.421C318.569 271.586 318.71 271.645 318.814 271.749C318.919 271.854 318.977 271.995 318.977 272.142C318.977 272.29 318.919 272.431 318.814 272.536C318.71 272.64 318.569 272.698 318.421 272.698Z" fill="#263238"/>
<path d="M126.056 272.698H113.735C113.588 272.698 113.447 272.64 113.342 272.536C113.238 272.431 113.179 272.29 113.179 272.142C113.179 271.995 113.238 271.854 113.342 271.749C113.447 271.645 113.588 271.586 113.735 271.586H126.056C126.204 271.586 126.345 271.645 126.45 271.749C126.554 271.854 126.612 271.995 126.612 272.142C126.612 272.29 126.554 272.431 126.45 272.536C126.345 272.64 126.204 272.698 126.056 272.698Z" fill="#263238"/>
<path d="M172.238 194.069C172.139 194.068 172.043 194.041 171.959 193.99C171.875 193.939 171.806 193.867 171.76 193.78L165.755 183.016C165.683 182.887 165.665 182.736 165.704 182.594C165.744 182.452 165.838 182.332 165.966 182.259C166.096 182.191 166.248 182.176 166.389 182.218C166.53 182.259 166.65 182.354 166.722 182.482L172.727 193.246C172.796 193.375 172.813 193.526 172.773 193.667C172.734 193.808 172.642 193.928 172.516 194.002C172.43 194.047 172.334 194.069 172.238 194.069Z" fill="#263238"/>
<path d="M265.913 362.092C265.813 362.089 265.716 362.061 265.631 362.01C265.545 361.96 265.474 361.888 265.423 361.803L259.43 351.039C259.358 350.91 259.339 350.759 259.379 350.617C259.419 350.475 259.513 350.355 259.641 350.283C259.769 350.211 259.921 350.192 260.063 350.232C260.204 350.272 260.325 350.366 260.397 350.494L266.402 361.258C266.437 361.322 266.459 361.393 266.467 361.466C266.475 361.538 266.469 361.612 266.448 361.682C266.427 361.753 266.393 361.818 266.347 361.875C266.301 361.932 266.244 361.979 266.179 362.014C266.1 362.067 266.007 362.094 265.913 362.092Z" fill="#263238"/>
<path d="M126.69 322.538C126.59 322.537 126.493 322.51 126.407 322.459C126.321 322.408 126.25 322.336 126.201 322.249C126.164 322.186 126.14 322.116 126.13 322.043C126.121 321.97 126.126 321.897 126.146 321.826C126.165 321.755 126.199 321.689 126.245 321.632C126.291 321.575 126.348 321.528 126.412 321.493L137.176 315.488C137.307 315.42 137.458 315.405 137.599 315.446C137.74 315.488 137.86 315.583 137.933 315.71C138.005 315.839 138.023 315.99 137.983 316.132C137.944 316.274 137.849 316.394 137.721 316.467L126.957 322.46C126.878 322.511 126.785 322.539 126.69 322.538Z" fill="#263238"/>
<path d="M294.68 228.863C294.582 228.862 294.485 228.835 294.401 228.784C294.317 228.734 294.248 228.661 294.202 228.574C294.13 228.446 294.112 228.294 294.151 228.152C294.191 228.01 294.285 227.89 294.413 227.818L305.177 221.824C305.306 221.752 305.457 221.734 305.599 221.773C305.741 221.813 305.861 221.907 305.933 222.035C306.003 222.164 306.019 222.315 305.98 222.456C305.94 222.597 305.848 222.717 305.722 222.792L294.958 228.785C294.875 228.837 294.778 228.864 294.68 228.863Z" fill="#263238"/>
<path d="M259.908 194.069C259.815 194.068 259.723 194.045 259.641 194.002C259.513 193.93 259.419 193.81 259.379 193.668C259.339 193.526 259.358 193.374 259.43 193.246L265.423 182.482C265.496 182.354 265.615 182.259 265.756 182.218C265.898 182.176 266.049 182.191 266.179 182.259C266.244 182.294 266.301 182.342 266.347 182.399C266.393 182.456 266.427 182.521 266.448 182.591C266.469 182.662 266.475 182.735 266.467 182.808C266.459 182.881 266.437 182.951 266.402 183.016L260.397 193.78C260.35 193.868 260.279 193.942 260.193 193.993C260.107 194.044 260.008 194.07 259.908 194.069Z" fill="#263238"/>
<path d="M166.244 362.092C166.146 362.094 166.049 362.067 165.966 362.014C165.901 361.979 165.845 361.932 165.799 361.875C165.753 361.818 165.719 361.752 165.7 361.681C165.68 361.61 165.675 361.537 165.684 361.464C165.694 361.391 165.718 361.321 165.755 361.258L171.76 350.494C171.836 350.374 171.955 350.288 172.093 350.253C172.231 350.219 172.377 350.239 172.501 350.308C172.625 350.378 172.718 350.493 172.76 350.629C172.802 350.764 172.79 350.911 172.727 351.039L166.722 361.803C166.674 361.888 166.605 361.96 166.521 362.01C166.437 362.061 166.342 362.089 166.244 362.092Z" fill="#263238"/>
<path d="M305.466 322.538C305.372 322.538 305.279 322.511 305.2 322.46L294.435 316.467C294.307 316.394 294.213 316.274 294.173 316.132C294.134 315.99 294.152 315.839 294.224 315.71C294.259 315.646 294.306 315.589 294.363 315.543C294.42 315.497 294.486 315.463 294.556 315.442C294.626 315.421 294.7 315.415 294.773 315.423C294.846 315.431 294.916 315.453 294.98 315.488L305.744 321.493C305.873 321.565 305.967 321.685 306.006 321.827C306.046 321.969 306.028 322.121 305.956 322.249C305.907 322.336 305.836 322.408 305.75 322.459C305.664 322.51 305.566 322.537 305.466 322.538Z" fill="#263238"/>
<path d="M137.443 228.863C137.349 228.864 137.256 228.837 137.176 228.786L126.412 222.792C126.292 222.715 126.206 222.596 126.172 222.458C126.137 222.32 126.157 222.174 126.227 222.05C126.296 221.926 126.411 221.834 126.547 221.792C126.683 221.75 126.83 221.762 126.957 221.824L137.721 227.818C137.849 227.891 137.944 228.011 137.983 228.153C138.023 228.294 138.005 228.446 137.933 228.574C137.885 228.663 137.815 228.737 137.729 228.788C137.642 228.839 137.543 228.865 137.443 228.863Z" fill="#263238"/>
<path d="M216.073 276.146C215.375 276.148 214.688 275.967 214.082 275.621C213.476 275.275 212.971 274.776 212.618 274.174C212.264 273.572 212.075 272.888 212.069 272.19C212.062 271.492 212.239 270.805 212.581 270.196L253.38 196.804C253.629 196.333 253.97 195.916 254.382 195.577C254.794 195.239 255.27 194.987 255.781 194.835C256.292 194.683 256.828 194.635 257.358 194.693C257.889 194.751 258.402 194.915 258.868 195.174C259.333 195.433 259.743 195.783 260.072 196.203C260.401 196.622 260.643 197.104 260.783 197.618C260.923 198.132 260.96 198.67 260.89 199.198C260.819 199.727 260.644 200.236 260.375 200.696L219.576 274.088C219.227 274.712 218.719 275.231 218.104 275.593C217.488 275.954 216.787 276.145 216.073 276.146Z" fill="#263238"/>
<path d="M222.089 272.142C222.089 273.332 221.736 274.495 221.075 275.485C220.414 276.474 219.474 277.245 218.375 277.7C217.276 278.156 216.066 278.275 214.899 278.043C213.732 277.811 212.66 277.238 211.819 276.396C210.978 275.555 210.405 274.483 210.172 273.316C209.94 272.149 210.059 270.939 210.515 269.84C210.97 268.741 211.741 267.801 212.731 267.14C213.72 266.479 214.883 266.126 216.073 266.126C217.668 266.126 219.199 266.76 220.327 267.889C221.455 269.017 222.089 270.547 222.089 272.142Z" fill="#263238"/>
<path opacity="0.2" d="M216.073 275.489C215.413 275.489 214.768 275.294 214.219 274.927C213.671 274.561 213.243 274.04 212.991 273.43C212.738 272.82 212.672 272.15 212.801 271.503C212.93 270.855 213.247 270.261 213.714 269.794C214.18 269.328 214.775 269.01 215.422 268.881C216.069 268.753 216.74 268.819 217.349 269.071C217.959 269.324 218.48 269.751 218.847 270.3C219.213 270.849 219.409 271.494 219.409 272.153C219.409 273.038 219.057 273.887 218.432 274.512C217.806 275.138 216.958 275.489 216.073 275.489Z" fill="white"/>
<path d="M249.833 212.795C249.608 212.792 249.386 212.735 249.188 212.628C248.879 212.457 248.65 212.17 248.552 211.83C248.454 211.49 248.495 211.125 248.665 210.815L255.76 198.161C255.835 197.991 255.945 197.839 256.082 197.715C256.219 197.59 256.38 197.495 256.556 197.436C256.732 197.377 256.918 197.355 257.102 197.372C257.287 197.389 257.466 197.444 257.628 197.534C257.79 197.624 257.931 197.747 258.043 197.895C258.155 198.042 258.235 198.212 258.278 198.392C258.321 198.572 258.326 198.759 258.293 198.942C258.259 199.124 258.188 199.297 258.084 199.451L251.045 212.116C250.925 212.33 250.748 212.506 250.534 212.626C250.321 212.745 250.078 212.804 249.833 212.795Z" fill="#FF002C"/>
<path d="M134.93 444.28H134.063C134.063 442.99 135.175 412.599 140.423 407.461C145.672 402.324 152.244 407.384 152.311 407.461L151.755 408.129C151.521 407.928 145.906 403.369 141.024 408.129C136.142 412.888 134.941 443.968 134.93 444.28Z" fill="#FF002C"/>
<path d="M134.552 450.374L133.685 450.296C133.685 449.929 137.099 413.399 123.866 398.21L124.522 397.631C137.944 413.11 134.552 450.007 134.552 450.374Z" fill="#FF002C"/>
<path d="M134.919 446.471C134.808 444.747 132.261 404.148 142.425 394.796L143.014 395.43C133.151 404.504 135.753 446.003 135.786 446.415L134.919 446.471Z" fill="#FF002C"/>
<path d="M133.629 446.448C133.629 446.17 133.307 418.893 126.079 414.745C125.462 414.342 124.757 414.092 124.024 414.016C123.291 413.941 122.55 414.042 121.864 414.311C117.627 416.068 115.37 424.164 115.348 424.242L114.514 424.019C114.603 423.663 116.905 415.423 121.542 413.511C122.348 413.188 123.22 413.062 124.085 413.146C124.95 413.229 125.782 413.518 126.512 413.989C134.174 418.437 134.485 445.303 134.496 446.437L133.629 446.448Z" fill="#FF002C"/>
<path d="M136.609 446.47C136.609 445.592 135.43 424.909 141.302 417.247C142.859 415.223 144.638 414.256 146.462 414.389C150.632 414.678 153.867 420.327 154.001 420.561L153.245 420.994C153.245 420.939 150.109 415.512 146.406 415.256C144.838 415.145 143.359 415.99 141.958 417.781C136.287 425.187 137.432 446.215 137.443 446.426L136.609 446.47Z" fill="#FF002C"/>
<path d="M135.442 449.328L134.574 449.273C134.574 448.772 138.266 399.488 132.183 391.271L132.884 390.748C139.156 399.233 135.597 447.293 135.442 449.328Z" fill="#FF002C"/>
<path d="M119.851 418.415C119.851 418.415 123.599 419.794 122.487 423.063C121.375 426.332 109.499 431.714 109.499 431.714C109.499 431.714 104.528 427.155 109.087 419.738C113.646 412.321 119.751 416.068 119.851 418.415Z" fill="#FF002C"/>
<path opacity="0.2" d="M119.851 418.415C119.851 418.415 123.599 419.794 122.487 423.063C121.375 426.332 109.499 431.714 109.499 431.714C109.499 431.714 104.528 427.155 109.087 419.738C113.646 412.321 119.751 416.068 119.851 418.415Z" fill="white"/>
<path d="M136.176 412.188C136.176 412.188 132.172 412.021 131.95 415.524C131.728 419.026 140.612 428.512 140.612 428.512C140.612 428.512 146.951 426.21 145.594 417.614C144.237 409.018 137.165 410.075 136.176 412.188Z" fill="#FF002C"/>
<path opacity="0.2" d="M136.176 412.188C136.176 412.188 132.172 412.021 131.95 415.524C131.728 419.026 140.612 428.512 140.612 428.512C140.612 428.512 146.951 426.21 145.594 417.614C144.237 409.018 137.165 410.075 136.176 412.188Z" fill="white"/>
<path d="M139.556 395.752C139.556 395.752 136.898 395.463 137.11 393.839C137.321 392.216 147.473 388.035 153.456 394.796C153.456 394.796 149.631 401.379 144.082 401.468C138.533 401.557 139.556 395.752 139.556 395.752Z" fill="#FF002C"/>
<path opacity="0.2" d="M139.556 395.752C139.556 395.752 136.898 395.463 137.11 393.839C137.321 392.216 147.473 388.035 153.456 394.796C153.456 394.796 149.631 401.379 144.082 401.468C138.533 401.557 139.556 395.752 139.556 395.752Z" fill="white"/>
<path d="M134.552 391.749C134.552 391.749 136.965 392.916 137.632 391.426C138.299 389.936 131.917 381.018 123.254 383.587C123.254 383.587 123.021 391.204 127.702 394.206C132.384 397.209 134.552 391.749 134.552 391.749Z" fill="#FF002C"/>
<path opacity="0.2" d="M134.552 391.749C134.552 391.749 136.965 392.916 137.632 391.426C138.299 389.936 131.917 381.018 123.254 383.587C123.254 383.587 123.021 391.204 127.702 394.206C132.384 397.209 134.552 391.749 134.552 391.749Z" fill="white"/>
<path d="M147.218 417.103C147.218 417.103 145.372 415.613 147.362 414.879C149.353 414.145 159.094 414.356 159.194 424.008C159.194 424.008 147.84 425.899 146.439 422.218C145.038 418.537 147.218 417.103 147.218 417.103Z" fill="#FF002C"/>
<path opacity="0.2" d="M147.218 417.103C147.218 417.103 145.372 415.613 147.362 414.879C149.353 414.145 159.094 414.356 159.194 424.008C159.194 424.008 147.84 425.899 146.439 422.218C145.038 418.537 147.218 417.103 147.218 417.103Z" fill="white"/>
<path d="M124.077 395.452C124.077 395.452 125.912 393.962 123.932 393.228C121.953 392.494 112.201 392.716 112.101 402.357C112.101 402.357 123.443 404.248 124.855 400.567C126.268 396.886 124.077 395.452 124.077 395.452Z" fill="#FF002C"/>
<path opacity="0.2" d="M124.077 395.452C124.077 395.452 125.912 393.962 123.932 393.228C121.953 392.494 112.201 392.716 112.101 402.357C112.101 402.357 123.443 404.248 124.855 400.567C126.268 396.886 124.077 395.452 124.077 395.452Z" fill="white"/>
<path d="M130.104 403.225C130.104 403.225 130.271 401.423 128.814 402.113C127.357 402.802 122.276 408.307 127.535 413.511C127.535 413.511 134.63 408.251 133.351 405.527C132.072 402.802 130.104 403.225 130.104 403.225Z" fill="#FF002C"/>
<path opacity="0.2" d="M130.104 403.225C130.104 403.225 130.271 401.423 128.814 402.113C127.357 402.802 122.276 408.307 127.535 413.511C127.535 413.511 134.63 408.251 133.351 405.527C132.072 402.802 130.104 403.225 130.104 403.225Z" fill="white"/>
<path d="M148.863 405.76C148.863 405.76 147.751 404.314 149.375 404.137C150.999 403.959 158.204 405.882 156.514 413.088C156.514 413.088 147.729 412.432 147.351 409.441C146.973 406.45 148.863 405.76 148.863 405.76Z" fill="#FF002C"/>
<path opacity="0.2" d="M148.863 405.76C148.863 405.76 147.751 404.314 149.375 404.137C150.999 403.959 158.204 405.882 156.514 413.088C156.514 413.088 147.729 412.432 147.351 409.441C146.973 406.45 148.863 405.76 148.863 405.76Z" fill="white"/>
<path d="M119.151 473.203H149.319L152.578 440.166H115.893L119.151 473.203Z" fill="#FF002C"/>
<path opacity="0.5" d="M119.151 473.203H149.319L152.578 440.166H115.893L119.151 473.203Z" fill="white"/>
<path d="M114.28 443.802H154.19V436.507H114.28V443.802Z" fill="#FF002C"/>
<path opacity="0.2" d="M114.28 443.802H154.19V436.507H114.28V443.802Z" fill="white"/>
<path d="M390.412 164.945H365.292C363.001 164.945 360.803 165.856 359.182 167.476C357.562 169.096 356.652 171.294 356.652 173.586V198.05C356.655 200.339 357.566 202.534 359.186 204.152C360.806 205.77 363.002 206.679 365.292 206.679H375.3L377.958 215.797L381.105 206.679H390.412C392.701 206.679 394.896 205.77 396.514 204.151C398.132 202.533 399.041 200.338 399.041 198.05V173.586C399.043 172.451 398.821 171.328 398.388 170.28C397.955 169.232 397.319 168.279 396.518 167.477C395.716 166.674 394.765 166.038 393.717 165.603C392.669 165.169 391.546 164.945 390.412 164.945Z" fill="#FF002C"/>
<path opacity="0.7" d="M390.412 164.945H365.292C363.001 164.945 360.803 165.856 359.182 167.476C357.562 169.096 356.652 171.294 356.652 173.586V198.05C356.655 200.339 357.566 202.534 359.186 204.152C360.806 205.77 363.002 206.679 365.292 206.679H375.3L377.958 215.797L381.105 206.679H390.412C392.701 206.679 394.896 205.77 396.514 204.151C398.132 202.533 399.041 200.338 399.041 198.05V173.586C399.043 172.451 398.821 171.328 398.388 170.28C397.955 169.232 397.319 168.279 396.518 167.477C395.716 166.674 394.765 166.038 393.717 165.603C392.669 165.169 391.546 164.945 390.412 164.945Z" fill="white"/>
<path d="M369.117 180.902C371.341 177.255 375.578 178.589 377.813 181.369C379.971 178.534 384.207 177.088 386.487 180.68C390.323 186.729 382.65 192.478 379.025 194.736C378.614 195.002 378.28 195.214 377.991 195.381L376.946 194.769C373.254 192.601 365.448 187.052 369.117 180.902Z" fill="#FF002C"/>
<path d="M442.676 297.229H437.883L424.539 375.536H429.332L442.676 297.229Z" fill="#263238"/>
<path d="M424.884 297.229H420.091L406.747 375.536H411.54L424.884 297.229Z" fill="#263238"/>
<path d="M407.092 297.229H402.299L388.955 375.536H393.748L407.092 297.229Z" fill="#263238"/>
<path opacity="0.4" d="M442.676 297.229H437.883L424.539 375.536H429.332L442.676 297.229Z" fill="white"/>
<path opacity="0.4" d="M424.884 297.229H420.091L406.747 375.536H411.54L424.884 297.229Z" fill="white"/>
<path opacity="0.4" d="M407.092 297.229H402.299L388.955 375.536H393.748L407.092 297.229Z" fill="white"/>
<path d="M434.392 306.269C426.675 301.599 415.966 301.599 405.724 306.269C400.554 308.493 394.427 309.183 391.724 305.913C387.11 301.11 395.205 286.865 410.751 282.35C421.871 279.159 432.891 279.159 442.287 282.35C455.397 286.865 455.798 301.11 448.592 305.913C444.111 309.183 438.339 308.538 434.392 306.269Z" fill="#FF002C"/>
<path opacity="0.4" d="M434.392 306.269C426.675 301.599 415.966 301.599 405.724 306.269C400.554 308.493 394.427 309.183 391.724 305.913C387.11 301.11 395.205 286.865 410.751 282.35C421.871 279.159 432.891 279.159 442.287 282.35C455.397 286.865 455.798 301.11 448.592 305.913C444.111 309.183 438.339 308.538 434.392 306.269Z" fill="white"/>
<path d="M364.836 369.064H428.12C429.595 369.064 431.009 369.65 432.052 370.692C433.094 371.735 433.68 373.149 433.68 374.624V382.063H359.276V374.624C359.276 373.149 359.862 371.735 360.905 370.692C361.947 369.65 363.362 369.064 364.836 369.064Z" fill="#FF002C"/>
<path opacity="0.4" d="M364.836 369.064H428.12C429.595 369.064 431.009 369.65 432.052 370.692C433.094 371.735 433.68 373.149 433.68 374.624V382.063H359.276V374.624C359.276 373.149 359.862 371.735 360.905 370.692C361.947 369.65 363.362 369.064 364.836 369.064Z" fill="white"/>
<path d="M401.71 377.571L401.31 394.885L399.486 473.203H393.47L391.658 394.885L391.257 377.571H401.71Z" fill="#263238"/>
<path opacity="0.4" d="M401.71 377.571L401.31 394.885L399.486 473.203H393.47L391.658 394.885L391.257 377.571H401.71Z" fill="white"/>
<path opacity="0.2" d="M401.71 377.571L401.31 395.363H391.658L391.257 377.571H401.71Z" fill="black"/>
<path d="M434.381 472.925L428.821 378.794H419.736L427.52 472.925H434.381Z" fill="#263238"/>
<path opacity="0.4" d="M427.508 472.925H434.369L429.332 387.245L428.832 378.683H419.747L420.447 387.245L427.508 472.925Z" fill="white"/>
<path opacity="0.2" d="M419.747 378.683L420.447 387.579H429.332L428.832 378.683H419.747Z" fill="black"/>
<path d="M365.448 472.925L373.232 378.794H364.147L358.587 472.925H365.448Z" fill="#263238"/>
<path opacity="0.4" d="M365.459 472.925L372.52 387.245L373.221 378.683H364.136L363.635 387.245L358.598 472.925H365.459Z" fill="white"/>
<path opacity="0.2" d="M373.221 378.683L372.52 387.579H363.635L364.136 378.683H373.221Z" fill="black"/>
<path d="M435.014 375.536H357.942C356.707 375.536 355.707 376.536 355.707 377.771V379.795C355.707 381.029 356.707 382.03 357.942 382.03H435.014C436.249 382.03 437.249 381.029 437.249 379.795V377.771C437.249 376.536 436.249 375.536 435.014 375.536Z" fill="#263238"/>
<path opacity="0.6" d="M435.014 375.536H357.942C356.707 375.536 355.707 376.536 355.707 377.771V379.795C355.707 381.029 356.707 382.03 357.942 382.03H435.014C436.249 382.03 437.249 381.029 437.249 379.795V377.771C437.249 376.536 436.249 375.536 435.014 375.536Z" fill="white"/>
<path d="M389.434 230.131C396.762 240.65 398.063 255.028 396.306 258.264C394.549 261.5 363.835 263.257 363.835 263.257C363.835 263.257 366.449 259.676 364.725 241.517C363.001 223.358 389.434 230.131 389.434 230.131Z" fill="#263238"/>
<path d="M375.556 282.573C372.398 288.811 369.151 295.038 363.902 299.942C362.488 301.031 360.869 301.825 359.143 302.277C351.724 304.431 344.129 305.919 336.447 306.725C335.792 306.777 335.139 306.596 334.605 306.214C334.07 305.832 333.687 305.273 333.524 304.637C333.36 304 333.427 303.327 333.711 302.734C333.996 302.142 334.48 301.669 335.079 301.399C341.751 298.552 349.157 296.072 355.707 293.237C356.301 292.987 356.873 292.69 357.419 292.347L357.274 292.436C357.163 292.525 357.208 292.436 357.219 292.436C359.632 289.222 363.624 281.183 365.67 277.535C369.251 271.308 378.48 276.023 375.556 282.584V282.573Z" fill="#E9B376"/>
<path d="M358.464 285.797C359.592 288.076 361.121 290.133 362.979 291.869C364.69 293.498 366.769 294.688 369.039 295.338C369.642 295.498 370.255 295.617 370.874 295.694C379.259 296.684 371.986 271.152 371.986 271.152C365.726 273.265 363.858 277.546 358.464 285.797Z" fill="#FF002C"/>
<path opacity="0.2" d="M362.979 291.869C364.69 293.497 366.769 294.688 369.039 295.338L371.052 278.269C371.052 278.147 371.519 273.365 371.464 273.232C371.408 273.098 365.514 276.234 362.979 291.869Z" fill="black"/>
<path d="M367.761 251.247C363.435 247.678 356.251 236.402 365.804 228.529C377.713 218.699 387.098 225.138 391.502 233.344C395.905 241.551 393.47 249.902 384.185 252.626C374.9 255.351 370.752 253.716 367.761 251.247Z" fill="#263238"/>
<path d="M296.904 438.353L303.053 439.52C303.053 439.52 336.636 359.034 341.973 358.8C347.311 358.567 401.777 383.609 415.421 369.72C429.065 355.831 409.327 322.36 409.327 322.36C409.327 322.36 376.501 317.678 374.021 325.095C373.414 327.287 372.95 329.516 372.631 331.767C372.264 333.991 372.009 335.937 372.009 335.937C370.986 335.682 338.037 327.175 325.049 335.937C311.838 344.878 296.904 438.353 296.904 438.353Z" fill="#EBB376"/>
<path d="M391.836 373.067C391.836 373.067 389.612 373.067 355.14 371.51C355.14 371.51 361.522 430.646 364.336 462.872L357.152 463.272C357.152 463.272 328.24 379.528 328.463 368.574C328.685 357.621 341.384 354.396 341.384 354.396C341.384 354.396 365.848 368.574 391.836 373.067Z" fill="#EBB376"/>
<path d="M391.802 373.067C391.446 373.067 387.955 373.067 361.089 371.788L361.611 364.06C371.333 368.108 381.452 371.127 391.802 373.067Z" fill="#263238"/>
<path opacity="0.2" d="M338.293 404.648C332.655 381.996 329.83 370.231 332.655 364.749C334.555 361.343 337.571 358.696 341.195 357.254C348.534 368.663 371.397 372.166 371.997 372.266C388.966 373.011 391.502 373.045 391.802 373.045C381.453 371.099 371.335 368.08 361.611 364.038C354.677 361.242 347.922 358.022 341.384 354.396C341.384 354.396 328.818 357.61 328.551 368.574C328.44 373.022 333.222 389.702 338.904 407.839C338.757 406.765 338.553 405.7 338.293 404.648Z" fill="black"/>
<path d="M290.232 434.672C290.114 434.51 290.051 434.316 290.051 434.116C290.051 433.916 290.114 433.722 290.232 433.56C290.3 433.431 290.395 433.317 290.51 433.227C290.625 433.137 290.757 433.072 290.899 433.037C291.653 432.919 292.425 433.02 293.123 433.326C292.445 432.726 291.889 432.059 292.011 431.547C292.067 431.214 292.345 431.002 292.834 430.902C293.046 430.851 293.266 430.848 293.48 430.892C293.693 430.936 293.894 431.027 294.068 431.158C295.236 432.003 295.503 434.416 295.514 434.494C295.524 434.534 295.524 434.576 295.514 434.616C295.514 434.616 295.514 434.616 295.514 434.672C295.498 434.7 295.475 434.722 295.447 434.739C295.419 434.75 295.387 434.75 295.358 434.739C294.345 434.957 293.314 435.08 292.278 435.106C291.926 435.185 291.561 435.187 291.208 435.112C290.855 435.037 290.522 434.887 290.232 434.672ZM291.055 433.56C290.979 433.574 290.907 433.605 290.846 433.652C290.784 433.698 290.734 433.758 290.699 433.827C290.51 434.172 290.61 434.305 290.643 434.349C290.999 434.817 292.867 434.716 294.413 434.461C293.435 434.005 291.856 433.36 291.077 433.56H291.055ZM292.879 431.425C292.734 431.425 292.489 431.525 292.467 431.658C292.389 432.092 293.579 433.171 294.847 434.038C294.749 433.128 294.359 432.273 293.735 431.603C293.565 431.474 293.358 431.404 293.145 431.403L292.879 431.425Z" fill="#263238"/>
<path d="M350.024 463.05C349.882 462.921 349.783 462.752 349.739 462.566C349.696 462.379 349.71 462.183 349.78 462.005C349.856 461.724 350.04 461.485 350.291 461.338C350.992 461.039 351.764 460.947 352.515 461.071C351.715 460.659 351.003 460.148 350.97 459.636C350.97 459.295 351.181 459.017 351.603 458.802C351.798 458.7 352.012 458.642 352.231 458.633C352.45 458.623 352.669 458.662 352.871 458.747C354.205 459.28 355.095 461.56 355.095 461.66C355.106 461.7 355.106 461.742 355.095 461.782C355.1 461.801 355.1 461.82 355.095 461.838C355.083 461.871 355.064 461.902 355.039 461.927H354.973C353.7 462.597 352.318 463.034 350.892 463.217C350.592 463.259 350.287 463.2 350.024 463.05ZM350.558 461.782C350.489 461.816 350.429 461.864 350.381 461.924C350.333 461.983 350.298 462.053 350.28 462.127C350.191 462.516 350.28 462.605 350.358 462.639C350.814 463.017 352.582 462.461 354.05 461.827C352.949 461.593 351.259 461.36 350.558 461.782ZM351.804 459.258C351.67 459.325 351.459 459.458 351.459 459.592C351.459 460.037 352.904 460.782 354.361 461.315C354.033 460.454 353.437 459.721 352.66 459.225C352.535 459.179 352.404 459.153 352.271 459.147C352.109 459.152 351.95 459.19 351.804 459.258Z" fill="#263238"/>
<path d="M306.134 436.351C306.312 435.573 296.637 433.894 296.637 433.894C296.637 433.894 289.342 438.442 283.293 438.408C277.244 438.375 279.635 442.556 285.995 444.091L301.73 447.883C306.289 448.972 304.388 444.435 306.134 436.351Z" fill="#263238"/>
<path d="M365.848 460.759C365.848 459.959 356.029 460.759 356.029 460.759C356.029 460.759 350.08 466.964 344.242 468.41C338.404 469.855 341.718 473.336 348.256 473.258L364.447 473.058C369.084 472.947 366.137 469.021 365.848 460.759Z" fill="#263238"/>
<path d="M409.327 322.36C409.327 322.36 376.501 317.678 374.021 325.095C373.414 327.287 372.95 329.516 372.631 331.767C372.264 333.991 372.008 335.937 372.008 335.937L369.262 335.281L365.07 368.008C383.206 373.834 407.248 378.016 415.432 369.709C429.054 355.853 409.327 322.36 409.327 322.36Z" fill="#263238"/>
<path opacity="0.3" d="M372.009 335.96L391.202 339.963C391.202 339.963 380.593 334.103 372.631 331.79C372.264 334.058 372.009 335.96 372.009 335.96Z" fill="black"/>
<path d="M407.793 317.3L409.316 322.415L374.021 325.129L373.087 319.091L407.793 317.3Z" fill="#263238"/>
<path opacity="0.2" d="M407.793 317.3L409.316 322.415L374.021 325.129L373.087 319.091L407.793 317.3Z" fill="black"/>
<path d="M397.396 325.853L399.144 325.673L398.23 316.79L396.483 316.97L397.396 325.853Z" fill="#263238"/>
<path d="M381.709 324.973L389.444 324.475L389.067 318.616L381.333 319.113L381.709 324.973Z" fill="white"/>
<path d="M375.745 326.788L377.493 326.608L376.579 317.725L374.832 317.905L375.745 326.788Z" fill="#263238"/>
<path d="M367.349 333.458L370.507 334.403L367.349 369.286H363.113L367.349 333.458Z" fill="#263238"/>
<path opacity="0.4" d="M367.349 333.458L370.507 334.403L367.349 369.286H363.113L367.349 333.458Z" fill="white"/>
<path d="M360.155 363.448V373.023L363.112 373.412L363.635 364.86L360.155 363.448Z" fill="#263238"/>
<path opacity="0.3" d="M360.155 363.448V373.023L363.112 373.412L363.635 364.86L360.155 363.448Z" fill="white"/>
<path d="M365.103 286.42C365.014 293.314 370.563 308.426 373.299 320.102L407.771 317.3C407.048 313.608 406.659 308.126 407.181 299.197C407.459 293.97 408.06 287.554 409.06 279.626C409.205 278.447 409.361 277.246 409.528 276C409.747 274.739 409.68 273.445 409.333 272.213C408.985 270.98 408.365 269.842 407.519 268.881C406.672 267.921 405.621 267.163 404.443 266.663C403.264 266.163 401.988 265.934 400.709 265.992C399.253 266.048 397.707 266.148 396.139 266.304C390.596 266.698 385.089 267.489 379.659 268.672C377.891 269.084 376.067 269.584 374.322 270.085C368.072 271.931 365.181 279.959 365.103 286.42Z" fill="#FF002C"/>
<path d="M386.676 248.968C386.898 254.528 388.133 264.413 392.514 266.76C392.514 266.76 387.454 267.549 379.17 277.124C374.855 273.788 376.646 271.73 376.646 271.73C382.017 268.55 380.86 264.269 378.925 260.521L386.676 248.968Z" fill="#EBB376"/>
<path opacity="0.2" d="M383.507 253.672L378.914 260.522C379.384 261.397 379.775 262.313 380.082 263.257C382.183 262.257 384.596 258.865 384.285 256.463C384.197 255.493 383.933 254.547 383.507 253.672Z" fill="black"/>
<path d="M386.531 236.914C388.6 245.465 389.656 249.046 386.731 254.706C382.35 263.146 371.397 263.813 366.815 256.051C362.69 249.057 360.01 236.247 367.194 230.375C368.77 229.075 370.653 228.198 372.664 227.828C374.674 227.459 376.746 227.608 378.682 228.263C380.618 228.918 382.356 230.056 383.729 231.57C385.103 233.084 386.067 234.923 386.531 236.914Z" fill="#FFB573"/>
<path d="M377.435 230.542C375.734 234.067 383.284 242.229 387.91 242.852C395.594 238.237 382.528 220.056 377.435 230.542Z" fill="#263238"/>
<path d="M366.36 228.852C363.524 230.965 361.912 237.57 362.023 239.872C366.793 239.16 377.657 230.976 377.657 230.976C377.657 230.976 386.553 230.609 381.071 227.796C375.589 224.982 366.36 228.852 366.36 228.852Z" fill="#263238"/>
<path d="M366.604 246.944C366.815 247.634 366.604 248.29 366.17 248.434C365.737 248.579 365.192 248.123 364.992 247.445C364.792 246.766 364.992 246.099 365.414 245.955C365.837 245.81 366.393 246.266 366.604 246.944Z" fill="#263238"/>
<path d="M365.626 245.932H363.835C363.835 245.932 365.07 246.989 365.626 245.932Z" fill="#263238"/>
<path d="M368.862 246.132C368.728 247.881 368.354 249.602 367.75 251.248C368.175 251.391 368.626 251.439 369.072 251.389C369.517 251.339 369.947 251.192 370.329 250.958L368.862 246.132Z" fill="#ED893E"/>
<path d="M391.168 243.919C391.122 244.766 390.909 245.595 390.54 246.358C390.172 247.122 389.656 247.805 389.022 248.367C387.321 249.846 385.508 248.568 385.163 246.455C384.863 244.553 385.375 241.495 387.476 240.828C387.934 240.69 388.418 240.668 388.886 240.764C389.354 240.86 389.79 241.071 390.157 241.377C390.523 241.684 390.807 242.077 390.983 242.521C391.16 242.964 391.224 243.445 391.168 243.919Z" fill="#FFB573"/>
<path d="M376.445 240.739C376.365 240.778 376.274 240.79 376.186 240.774C376.098 240.758 376.018 240.715 375.956 240.65C375.423 240.219 374.805 239.904 374.142 239.726C373.479 239.548 372.787 239.51 372.109 239.616C372.002 239.624 371.897 239.591 371.813 239.524C371.73 239.457 371.675 239.361 371.66 239.256C371.644 239.15 371.669 239.043 371.73 238.955C371.79 238.867 371.882 238.805 371.986 238.782C372.098 238.782 374.922 238.359 376.568 240.061C376.607 240.1 376.639 240.147 376.66 240.198C376.682 240.25 376.693 240.305 376.693 240.361C376.693 240.417 376.682 240.472 376.66 240.524C376.639 240.575 376.607 240.622 376.568 240.661C376.533 240.695 376.491 240.722 376.445 240.739Z" fill="#263238"/>
<path d="M362.679 242.785C362.596 242.824 362.502 242.834 362.413 242.815C362.323 242.796 362.242 242.749 362.182 242.68C362.122 242.611 362.086 242.524 362.079 242.433C362.072 242.341 362.095 242.25 362.145 242.173C362.503 241.603 362.993 241.128 363.574 240.787C364.154 240.446 364.809 240.251 365.481 240.216C365.591 240.219 365.696 240.265 365.773 240.344C365.849 240.423 365.892 240.529 365.892 240.639C365.892 240.749 365.849 240.855 365.773 240.934C365.696 241.013 365.591 241.059 365.481 241.061C364.954 241.098 364.443 241.259 363.991 241.532C363.539 241.805 363.158 242.181 362.879 242.629C362.829 242.7 362.759 242.754 362.679 242.785Z" fill="#263238"/>
<path d="M374.333 244.575C374.544 245.254 374.333 245.921 373.899 246.054C373.465 246.188 372.92 245.754 372.709 245.065C372.498 244.375 372.709 243.719 373.143 243.586C373.576 243.452 374.121 243.886 374.333 244.575Z" fill="#263238"/>
<path d="M373.354 243.563H371.564C371.564 243.563 372.798 244.609 373.354 243.563Z" fill="#263238"/>
<path d="M372.364 254.228C373.566 254.921 374.718 255.697 375.811 256.552L376.356 256.052C378.769 253.772 379.136 251.915 378.814 250.492C378.634 249.828 378.303 249.215 377.846 248.701C377.596 248.402 377.304 248.14 376.979 247.923C376.423 249.902 374.333 252.204 373.176 253.383C372.687 253.939 372.364 254.228 372.364 254.228Z" fill="#263238"/>
<path d="M373.176 253.416L374.21 254.072C376.434 251.926 377.791 250.102 377.846 248.734C377.596 248.435 377.304 248.173 376.979 247.956C376.423 249.958 374.333 252.304 373.176 253.416Z" fill="white"/>
<path d="M376.356 256.051C378.769 253.772 379.136 251.915 378.814 250.491C377.89 251.364 377.135 252.401 376.59 253.549C376.249 254.338 376.168 255.214 376.356 256.051Z" fill="#DE5753"/>
<path d="M337.192 301.476L327.829 300.275L328.107 308.526C328.107 308.526 334.534 310.283 337.804 305.869L337.192 301.476Z" fill="#FFB573"/>
<path d="M321.546 302.655L323.225 308.76L328.107 308.526L327.829 300.275L321.546 302.655Z" fill="#FFB573"/>
<path opacity="0.2" d="M391.424 287.799C394.86 293.759 401.343 297.429 407.203 299.197C407.481 293.97 408.082 287.554 409.083 279.626C404.835 275.634 399.519 273.254 393.77 275.322C393.77 275.322 387.944 281.761 391.424 287.799Z" fill="black"/>
<path d="M408.871 276.523C404.913 284.708 394.582 306.436 384.852 307.448C372.876 307.581 369.44 289.656 368.761 280.582C368.709 279.9 368.91 279.223 369.327 278.68C369.743 278.138 370.346 277.769 371.019 277.645C371.692 277.521 372.386 277.65 372.969 278.007C373.553 278.365 373.983 278.925 374.177 279.581C375.74 284.201 377.724 288.668 380.104 292.925C380.998 294.604 382.237 296.074 383.74 297.24C384.074 297.418 384.241 297.518 384.474 297.496C384.708 297.473 383.985 297.373 383.74 297.429C383.184 297.485 383.195 297.573 383.362 297.429C385.194 295.671 386.78 293.674 388.077 291.491C392.012 285.108 395.608 278.524 398.852 271.764C402.188 265.37 411.696 269.862 408.86 276.534L408.871 276.523Z" fill="#E9B376"/>
<path d="M400.732 266.037C405.18 264.925 415.844 271.264 408.638 290.879C408.638 290.879 392.936 286.876 391.535 282.295C390.134 277.713 400.732 266.037 400.732 266.037Z" fill="#FF002C"/>
<path d="M369.84 264.136C369.856 264.338 369.913 264.534 370.007 264.714C370.105 264.894 370.238 265.053 370.398 265.181C370.559 265.309 370.743 265.404 370.941 265.459C371.086 265.503 371.235 265.529 371.386 265.537L370.908 276.657C370.908 276.79 370.96 276.917 371.054 277.011C371.148 277.105 371.275 277.157 371.408 277.157C371.541 277.157 371.668 277.105 371.762 277.011C371.856 276.917 371.908 276.79 371.908 276.657L372.375 265.537C372.527 265.558 372.68 265.558 372.831 265.537C373.237 265.448 373.592 265.204 373.821 264.859C373.929 264.689 374.004 264.5 374.043 264.303C374.049 264.206 374.049 264.11 374.043 264.013V263.802V262.968C374.043 261.856 373.932 260.744 373.821 259.632C373.61 260.744 373.454 261.856 373.31 262.968L373.221 263.802V264.002C373.227 264.043 373.227 264.084 373.221 264.125C373.189 264.199 373.144 264.267 373.087 264.325C372.931 264.503 372.765 264.525 372.464 264.514C372.46 264.492 372.46 264.469 372.464 264.447L372.231 259.588L371.575 264.414C371.263 264.414 371.108 264.414 370.963 264.169C370.909 264.113 370.871 264.044 370.852 263.969C370.852 263.969 370.852 263.891 370.852 263.847V263.635V262.801C370.852 261.689 370.741 260.577 370.63 259.465C370.418 260.577 370.263 261.689 370.118 262.801L370.029 263.635V263.847C369.96 263.939 369.897 264.035 369.84 264.136Z" fill="#263238"/>
<path opacity="0.4" d="M369.84 264.136C369.856 264.338 369.913 264.534 370.007 264.714C370.105 264.894 370.238 265.053 370.398 265.181C370.559 265.309 370.743 265.404 370.941 265.459C371.086 265.503 371.235 265.529 371.386 265.537L370.908 276.657C370.908 276.79 370.96 276.917 371.054 277.011C371.148 277.105 371.275 277.157 371.408 277.157C371.541 277.157 371.668 277.105 371.762 277.011C371.856 276.917 371.908 276.79 371.908 276.657L372.375 265.537C372.527 265.558 372.68 265.558 372.831 265.537C373.237 265.448 373.592 265.204 373.821 264.859C373.929 264.689 374.004 264.5 374.043 264.303C374.049 264.206 374.049 264.11 374.043 264.013V263.802V262.968C374.043 261.856 373.932 260.744 373.821 259.632C373.61 260.744 373.454 261.856 373.31 262.968L373.221 263.802V264.002C373.227 264.043 373.227 264.084 373.221 264.125C373.189 264.199 373.144 264.267 373.087 264.325C372.931 264.503 372.765 264.525 372.464 264.514C372.46 264.492 372.46 264.469 372.464 264.447L372.231 259.588L371.575 264.414C371.263 264.414 371.108 264.414 370.963 264.169C370.909 264.113 370.871 264.044 370.852 263.969C370.852 263.969 370.852 263.891 370.852 263.847V263.635V262.801C370.852 261.689 370.741 260.577 370.63 259.465C370.418 260.577 370.263 261.689 370.118 262.801L370.029 263.635V263.847C369.96 263.939 369.897 264.035 369.84 264.136Z" fill="white"/>
<path d="M368.239 260.144C368.239 260.144 372.809 262.112 375.333 260.811C377.858 259.51 375.878 256.196 373.554 255.34C373.485 255.312 373.415 255.29 373.343 255.273C373.178 255.48 372.971 255.649 372.735 255.768C372.499 255.887 372.239 255.954 371.975 255.962C371.219 255.873 370.385 256.963 370.441 257.074C370.496 257.186 369.451 257.541 368.85 257.742C368.25 257.942 368.239 260.144 368.239 260.144Z" fill="#FF002C"/>
<path opacity="0.4" d="M368.239 260.144C368.239 260.144 372.809 262.112 375.333 260.811C375.544 260.364 375.687 259.888 375.756 259.398C375.845 258.754 375.445 258.965 375.378 258.564C375.251 258.117 375.009 257.711 374.677 257.386C374.378 257.142 374.062 256.919 373.732 256.719C373.522 256.456 373.405 256.132 373.398 255.796C373.44 255.64 373.492 255.488 373.554 255.34C373.485 255.312 373.415 255.29 373.343 255.273C373.178 255.48 372.971 255.649 372.735 255.768C372.499 255.887 372.239 255.954 371.975 255.962C371.219 255.873 370.385 256.963 370.441 257.074C370.496 257.186 369.451 257.541 368.85 257.742C368.25 257.942 368.239 260.144 368.239 260.144Z" fill="white"/>
<path opacity="0.2" d="M368.239 260.143C368.704 260.121 369.164 260.035 369.607 259.888C369.796 259.743 370.018 259.888 370.329 259.699C370.724 259.608 371.126 259.552 371.53 259.532C371.797 259.465 371.53 258.731 371.675 258.42C371.819 258.108 372.309 258.609 372.475 258.52C372.862 258.266 373.164 257.902 373.343 257.475C373.521 256.974 373.588 256.73 373.221 256.363C372.854 255.996 373.676 255.44 373.343 255.317C373.178 255.525 372.971 255.694 372.735 255.813C372.499 255.932 372.239 255.998 371.975 256.007C371.219 255.918 370.385 257.008 370.441 257.119C370.496 257.23 369.451 257.586 368.85 257.786C368.25 257.986 368.239 260.143 368.239 260.143Z" fill="black"/>
<path d="M365.381 272.042L364.413 274.599C364.233 275.074 364.169 275.585 364.225 276.089C364.281 276.594 364.456 277.078 364.736 277.502L367.405 281.505C367.931 282.291 368.638 282.94 369.466 283.399C370.293 283.857 371.218 284.111 372.164 284.14H373.354C375.255 280.015 374.266 274.132 374.266 274.132L374.177 272.431C374.165 272.081 374.085 271.737 373.94 271.418C373.795 271.099 373.588 270.812 373.332 270.573C373.076 270.335 372.775 270.149 372.447 270.027C372.118 269.905 371.769 269.849 371.419 269.862L368.083 270.007C367.482 270.043 366.906 270.255 366.425 270.617C365.944 270.979 365.581 271.474 365.381 272.042Z" fill="#EBB376"/>
<path d="M318.621 295.26C314.696 290.112 314.696 286.776 314.696 286.776L321.791 295.672L331.376 307.704C331.44 307.765 331.49 307.84 331.522 307.922C331.555 308.005 331.569 308.093 331.565 308.182C331.56 308.27 331.537 308.357 331.497 308.436C331.456 308.515 331.399 308.584 331.33 308.639C331.26 308.694 331.18 308.734 331.094 308.755C331.008 308.777 330.918 308.78 330.831 308.764C330.744 308.748 330.661 308.713 330.588 308.663C330.515 308.613 330.454 308.547 330.409 308.471L324.037 300.465C321.923 299.083 320.086 297.318 318.621 295.26Z" fill="#263238"/>
<path opacity="0.4" d="M318.621 295.26C314.696 290.112 314.696 286.776 314.696 286.776L321.791 295.672L331.376 307.704C331.44 307.765 331.49 307.84 331.522 307.922C331.555 308.005 331.569 308.093 331.565 308.182C331.56 308.27 331.537 308.357 331.497 308.436C331.456 308.515 331.399 308.584 331.33 308.639C331.26 308.694 331.18 308.734 331.094 308.755C331.008 308.777 330.918 308.78 330.831 308.764C330.744 308.748 330.661 308.713 330.588 308.663C330.515 308.613 330.454 308.547 330.409 308.471L324.037 300.465C321.923 299.083 320.086 297.318 318.621 295.26Z" fill="white"/>
<path d="M311.293 287.388H318.744C318.744 287.388 318.455 294.727 317.954 296.284C317.454 297.84 316.842 300.387 316.842 306.67H309.659C309.659 300.387 309.036 297.852 308.547 296.284C308.057 294.716 307.768 287.388 307.768 287.388H311.293Z" fill="#FF002C"/>
<path opacity="0.4" d="M311.293 287.388H318.744C318.744 287.388 318.455 294.727 317.954 296.284C317.454 297.84 316.842 300.387 316.842 306.67H309.659C309.659 300.387 309.036 297.852 308.547 296.284C308.057 294.716 307.768 287.388 307.768 287.388H311.293Z" fill="white"/>
<path opacity="0.4" d="M317.721 293.993C317.676 294.698 317.568 295.397 317.398 296.083C316.842 297.818 316.286 300.353 316.286 306.091H310.248C310.248 300.387 309.636 297.851 309.08 296.083C308.922 295.395 308.814 294.696 308.758 293.993H317.721Z" fill="white"/>
<path d="M299.222 305.513L301.512 305.058L300.01 297.499L297.719 297.954L299.222 305.513Z" fill="#FF002C"/>
<path d="M296.587 305.475L298.786 304.688L296.187 297.433L293.988 298.22L296.587 305.475Z" fill="#FF002C"/>
<path d="M293.894 305.519L295.864 304.265L291.724 297.765L289.755 299.019L293.894 305.519Z" fill="#FF002C"/>
<path d="M291.277 305.527L292.704 303.679L286.606 298.968L285.178 300.816L291.277 305.527Z" fill="#FF002C"/>
<path d="M287.875 306.547H298.839C300.489 306.545 302.092 305.999 303.401 304.994C304.709 303.989 305.65 302.581 306.078 300.987V300.932H280.602V300.987C281.035 302.584 281.982 303.995 283.296 305C284.611 306.005 286.22 306.549 287.875 306.547Z" fill="#263238"/>
<path d="M311.872 473.203L310.837 314.521H319.867L318.833 473.203H311.872Z" fill="#263238"/>
<path opacity="0.4" d="M318.844 473.203H311.872L311.015 342.287L310.837 314.798H319.878L319.7 342.287L318.844 473.203Z" fill="white"/>
<path opacity="0.2" d="M319.878 314.798L319.7 342.598H311.015L310.837 314.798H319.878Z" fill="black"/>
<path d="M383.429 473.203L372.031 314.521H381.071L390.39 473.203H383.429Z" fill="#263238"/>
<path opacity="0.5" d="M383.429 473.203L372.631 322.983L372.031 314.798H381.071L381.561 322.983L390.401 473.203H383.429Z" fill="white"/>
<path opacity="0.2" d="M381.561 322.582H372.631L372.031 314.798H381.071L381.561 322.582Z" fill="black"/>
<path d="M240.314 473.203L249.633 314.521H258.673L247.275 473.203H240.314Z" fill="#263238"/>
<path opacity="0.5" d="M247.275 473.203H240.314L249.144 322.983L249.633 314.798H258.673L258.073 322.983L247.275 473.203Z" fill="white"/>
<path opacity="0.2" d="M249.633 314.798H258.674L258.073 322.582H249.144L249.633 314.798Z" fill="black"/>
<path d="M242.416 310.25H388.233V316.377C388.233 316.693 388.17 317.005 388.05 317.296C387.929 317.588 387.752 317.852 387.529 318.076C387.306 318.299 387.041 318.476 386.75 318.596C386.458 318.717 386.146 318.779 385.831 318.779H244.874C244.558 318.779 244.246 318.717 243.954 318.596C243.663 318.476 243.398 318.299 243.175 318.076C242.952 317.852 242.775 317.588 242.654 317.296C242.534 317.005 242.472 316.693 242.472 316.377V310.25H242.416Z" fill="#263238"/>
<path opacity="0.6" d="M242.416 310.25H388.233V316.377C388.233 316.693 388.17 317.005 388.05 317.296C387.929 317.588 387.752 317.852 387.529 318.076C387.306 318.299 387.041 318.476 386.75 318.596C386.458 318.717 386.146 318.779 385.831 318.779H244.874C244.558 318.779 244.246 318.717 243.954 318.596C243.663 318.476 243.398 318.299 243.175 318.076C242.952 317.852 242.775 317.588 242.654 317.296C242.534 317.005 242.472 316.693 242.472 316.377V310.25H242.416Z" fill="white"/>
<path opacity="0.2" d="M388.233 310.25H242.472V314.52H388.233V310.25Z" fill="black"/>
<path d="M392.458 311.362H238.246C237.931 311.362 237.618 311.3 237.327 311.18C237.035 311.059 236.771 310.882 236.548 310.659C236.325 310.436 236.148 310.171 236.027 309.88C235.906 309.588 235.844 309.276 235.844 308.961C235.844 308.645 235.906 308.333 236.027 308.041C236.148 307.75 236.325 307.485 236.548 307.262C236.771 307.039 237.035 306.862 237.327 306.741C237.618 306.621 237.931 306.559 238.246 306.559H392.458C392.774 306.559 393.086 306.621 393.377 306.741C393.669 306.862 393.934 307.039 394.157 307.262C394.38 307.485 394.557 307.75 394.677 308.041C394.798 308.333 394.86 308.645 394.86 308.961C394.86 309.276 394.798 309.588 394.677 309.88C394.557 310.171 394.38 310.436 394.157 310.659C393.934 310.882 393.669 311.059 393.377 311.18C393.086 311.3 392.774 311.362 392.458 311.362Z" fill="#263238"/>
<path opacity="0.6" d="M392.458 311.362H238.246C237.931 311.362 237.618 311.3 237.327 311.18C237.035 311.059 236.771 310.882 236.548 310.659C236.325 310.436 236.148 310.171 236.027 309.88C235.906 309.588 235.844 309.276 235.844 308.961C235.844 308.645 235.906 308.333 236.027 308.041C236.148 307.75 236.325 307.485 236.548 307.262C236.771 307.039 237.035 306.862 237.327 306.741C237.618 306.621 237.931 306.559 238.246 306.559H392.458C392.774 306.559 393.086 306.621 393.377 306.741C393.669 306.862 393.934 307.039 394.157 307.262C394.38 307.485 394.557 307.75 394.677 308.041C394.798 308.333 394.86 308.645 394.86 308.961C394.86 309.276 394.798 309.588 394.677 309.88C394.557 310.171 394.38 310.436 394.157 310.659C393.934 310.882 393.669 311.059 393.377 311.18C393.086 311.3 392.774 311.362 392.458 311.362Z" fill="white"/>
<path d="M330.909 305.469C333.133 307.114 339.16 306.725 346.143 301.21C346.571 300.941 346.894 300.534 347.06 300.057C347.225 299.58 347.224 299.061 347.055 298.585C346.655 297.551 345.387 296.628 343.13 296.361C338.927 295.894 331.143 299.697 330.108 303.211C329.977 303.623 329.984 304.067 330.129 304.475C330.273 304.882 330.547 305.232 330.909 305.469Z" fill="#FF002C"/>
<path opacity="0.2" d="M330.909 305.469C333.133 307.114 339.16 306.725 346.143 301.21C346.571 300.941 346.894 300.534 347.06 300.057C347.225 299.58 347.224 299.061 347.055 298.585C346.655 297.551 345.387 296.628 343.13 296.361C338.927 295.894 331.143 299.697 330.108 303.211C329.977 303.623 329.984 304.067 330.129 304.475C330.273 304.882 330.547 305.232 330.909 305.469Z" fill="white"/>
<path opacity="0.2" d="M342.808 300.576C341.24 299.975 336.658 301.81 335.769 304.045C334.879 306.28 343.831 300.965 342.808 300.576Z" fill="black"/>
<path opacity="0.4" d="M330.909 305.469C331.154 304.906 331.289 304.303 331.309 303.69C331.309 302.8 332.021 302.322 333.033 302.578C334.045 302.833 333.622 301.466 333.867 301.043C334.446 300.42 335.242 300.042 336.091 299.987C337.047 299.987 336.981 299.642 337.281 298.808C337.581 297.974 338.715 297.696 339.316 297.696C339.916 297.696 340.962 298.085 341.54 297.44C342.118 296.795 342.652 296.773 344.12 297.44C345.034 298.004 346.027 298.427 347.066 298.697C346.666 297.663 345.398 296.74 343.141 296.473C338.938 296.006 331.154 299.809 330.12 303.323C330.013 303.718 330.032 304.137 330.173 304.521C330.314 304.906 330.572 305.237 330.909 305.469Z" fill="black"/>
<path d="M344.175 305.791C346.777 305.869 350.736 305.724 353.605 305.569C355.573 305.469 357.03 305.368 357.152 305.335C357.252 305.157 356.574 304.401 357.152 303.467C357.731 302.533 357.152 301.921 356.852 301.777C356.552 301.632 355.974 301.877 355.907 301.421C355.817 301.074 355.667 300.747 355.462 300.453C354.807 300.373 354.167 300.2 353.561 299.942H352.849C349.585 300.003 346.334 300.375 343.141 301.054C342.604 301.136 342.096 301.349 341.66 301.672C341.224 301.996 340.873 302.421 340.639 302.911C340.15 304.212 341.384 305.68 344.175 305.791Z" fill="#FF002C"/>
<path opacity="0.4" d="M344.175 305.791C346.777 305.869 350.736 305.724 353.605 305.569C355.573 305.469 357.03 305.368 357.152 305.335C357.252 305.157 356.574 304.401 357.152 303.467C357.731 302.533 357.152 301.921 356.852 301.777C356.552 301.632 355.974 301.877 355.907 301.421C355.817 301.074 355.667 300.747 355.462 300.453C354.807 300.373 354.167 300.2 353.561 299.942H352.849C352.426 300.02 352.015 300.876 352.015 300.876C352.015 300.876 352.827 301.132 352.46 301.41C352.093 301.688 351.87 302.233 351.503 302.522C351.136 302.811 350.102 302.277 349.446 302.522C348.79 302.766 346.733 303.445 346.299 303.178C345.866 302.911 343.73 302.544 343.074 303.056C342.689 303.235 342.266 303.317 341.842 303.296C341.417 303.274 341.004 303.15 340.639 302.933C340.15 304.212 341.384 305.68 344.175 305.791Z" fill="white"/>
<path opacity="0.2" d="M352.093 303.289C352.315 303.801 352.604 303.578 352.782 304.168C352.964 304.603 353.228 305 353.56 305.335C353.549 305.413 353.549 305.491 353.56 305.569C353.705 306.08 354.339 307.07 357.108 305.335C357.208 305.157 356.529 304.401 357.108 303.467C357.686 302.533 357.108 301.921 356.807 301.777C356.507 301.632 355.929 301.877 355.862 301.421C355.773 301.074 355.622 300.747 355.417 300.453C354.763 300.373 354.123 300.2 353.516 299.942C351.915 300.787 352.782 301.343 352.704 301.777C352.626 302.21 352.949 302.889 352.526 302.889C352.104 302.889 351.87 302.766 352.093 303.289Z" fill="black"/>
<path d="M325.471 306.647H359.265C360.747 306.549 362.151 305.949 363.246 304.946H321.49C322.586 305.949 323.99 306.549 325.471 306.647Z" fill="#263238"/>
</svg>
