<svg width="333" height="333" viewBox="0 0 333 333" fill="none" xmlns="http://www.w3.org/2000/svg">
<path d="M333 254.678H0V254.845H333V254.678Z" fill="#E0E0E0"/>
<path d="M261.858 259.74H250.629V259.906H261.858V259.74Z" fill="#E0E0E0"/>
<path d="M298.741 259.66H269.064V259.827H298.741V259.66Z" fill="#E0E0E0"/>
<path d="M213.607 260.779H176.664V260.945H213.607V260.779Z" fill="#E0E0E0"/>
<path d="M172.827 260.779H159.027V260.945H172.827V260.779Z" fill="#E0E0E0"/>
<path d="M100.94 259.494H94.8789V259.66H100.94V259.494Z" fill="#E0E0E0"/>
<path d="M114.651 259.494H104.635V259.66H114.651V259.494Z" fill="#E0E0E0"/>
<path d="M88.8778 262.497H44.5488V262.664H88.8778V262.497Z" fill="#E0E0E0"/>
<path d="M157.841 224.975H29.2435C28.236 224.973 27.2705 224.571 26.5587 223.859C25.847 223.146 25.4473 222.179 25.4473 221.172V40.3994C25.456 39.3978 25.8596 38.4401 26.5704 37.7343C27.2812 37.0285 28.2418 36.6316 29.2435 36.6299H157.841C158.85 36.6299 159.817 37.0305 160.53 37.7437C161.244 38.4569 161.644 39.4242 161.644 40.4327V221.172C161.644 222.18 161.244 223.148 160.53 223.861C159.817 224.574 158.85 224.975 157.841 224.975ZM29.2435 36.7631C28.2802 36.7648 27.357 37.1487 26.6765 37.8305C25.996 38.5123 25.6138 39.4362 25.6138 40.3994V221.172C25.6138 222.135 25.996 223.059 26.6765 223.741C27.357 224.423 28.2802 224.806 29.2435 224.808H157.841C158.805 224.806 159.729 224.423 160.411 223.741C161.092 223.06 161.476 222.136 161.478 221.172V40.3994C161.476 39.4356 161.092 38.5117 160.411 37.8301C159.729 37.1485 158.805 36.7648 157.841 36.7631H29.2435Z" fill="#E0E0E0"/>
<path d="M301.904 224.975H173.299C172.291 224.973 171.325 224.572 170.612 223.859C169.899 223.146 169.498 222.18 169.496 221.172V40.3994C169.507 39.3972 169.912 38.4395 170.624 37.7338C171.335 37.0282 172.297 36.6316 173.299 36.6299H301.904C302.904 36.6333 303.863 37.031 304.572 37.7366C305.282 38.4422 305.684 39.3989 305.693 40.3994V221.172C305.693 222.178 305.294 223.143 304.584 223.856C303.874 224.569 302.91 224.971 301.904 224.975ZM173.299 36.7631C172.335 36.7648 171.411 37.1485 170.73 37.8301C170.048 38.5117 169.664 39.4356 169.663 40.3994V221.172C169.664 222.136 170.048 223.06 170.73 223.741C171.411 224.423 172.335 224.806 173.299 224.808H301.904C302.867 224.806 303.791 224.423 304.473 223.741C305.154 223.06 305.538 222.136 305.54 221.172V40.3994C305.538 39.4356 305.154 38.5117 304.473 37.8301C303.791 37.1485 302.867 36.7648 301.904 36.7631H173.299Z" fill="#E0E0E0"/>
<path d="M211.647 173.52H180.105V254.678H211.647V173.52Z" fill="#E0E0E0"/>
<path d="M205.653 254.678H211.647V237.635H199.373L205.653 254.678Z" fill="#F0F0F0"/>
<path d="M93.7664 173.52H62.2246V254.678H93.7664V173.52Z" fill="#E0E0E0"/>
<path d="M211.641 173.52H88.5371V244.222H211.641V173.52Z" fill="#F0F0F0"/>
<path d="M152.102 178.654V222.917H207V178.654H152.102Z" fill="#E0E0E0"/>
<path d="M93.1875 178.661V222.923H148.086V178.661H93.1875Z" fill="#E0E0E0"/>
<path d="M207 237.635V234.378H152.102V237.635H207Z" fill="#E0E0E0"/>
<path d="M148.086 237.635V234.378H93.1876V237.635H148.086Z" fill="#E0E0E0"/>
<path d="M206.992 231.342V228.085H152.094V231.342H206.992Z" fill="#E0E0E0"/>
<path d="M148.078 231.349V228.092H93.1797V231.349H148.078Z" fill="#E0E0E0"/>
<path d="M126.067 183.423H115.218C112.884 183.423 110.574 182.948 108.429 182.026C106.285 181.104 104.35 179.755 102.744 178.062H138.528C136.924 179.754 134.992 181.103 132.85 182.024C130.707 182.946 128.4 183.422 126.067 183.423Z" fill="#F0F0F0"/>
<path d="M185.535 183.423H174.679C172.345 183.424 170.035 182.949 167.89 182.027C165.745 181.105 163.811 179.756 162.205 178.062H198.009C196.403 179.756 194.469 181.105 192.324 182.027C190.18 182.949 187.869 183.424 185.535 183.423Z" fill="#F0F0F0"/>
<path d="M94.5311 254.678H88.5371V237.635H100.811L94.5311 254.678Z" fill="#F0F0F0"/>
<path d="M210.969 49.2773H45.5215V143.783H210.969V49.2773Z" fill="#E0E0E0"/>
<path d="M220.119 46.3604H39.9591C39.7348 46.3604 39.5197 46.4495 39.361 46.6081C39.2024 46.7667 39.1133 46.9818 39.1133 47.2062C39.1124 47.3178 39.1337 47.4285 39.1758 47.5319C39.2179 47.6353 39.28 47.7293 39.3587 47.8086C39.4373 47.8878 39.5308 47.9507 39.6339 47.9936C39.737 48.0366 39.8475 48.0587 39.9591 48.0587H220.119C220.23 48.0587 220.341 48.0366 220.444 47.9936C220.547 47.9507 220.641 47.8878 220.719 47.8086C220.798 47.7293 220.86 47.6353 220.902 47.5319C220.944 47.4285 220.965 47.3178 220.965 47.2062C220.965 46.9818 220.876 46.7667 220.717 46.6081C220.558 46.4495 220.343 46.3604 220.119 46.3604Z" fill="#E0E0E0"/>
<path d="M214.592 49.2773H47.2129V143.783H214.592V49.2773Z" fill="#E6E6E6"/>
<path d="M210.969 143.783H45.5215V150.516H210.969V143.783Z" fill="#E0E0E0"/>
<path d="M220.625 143.783H53.2461V150.516H220.625V143.783Z" fill="#E6E6E6"/>
<path d="M209.51 138.708V54.3521L52.2805 54.3521V138.708H209.51Z" fill="#F5F5F5"/>
<path d="M130.096 138.708L159.873 54.3521H173.925L144.148 138.708H130.096Z" fill="#FAFAFA"/>
<path d="M147.172 138.708L176.949 54.3521H182.423L152.653 138.708H147.172Z" fill="#FAFAFA"/>
<path d="M209.51 138.708V54.3521H208.864V138.708H209.51Z" fill="#E0E0E0"/>
<path d="M52.3406 44.8418H43.6094V126.24H52.3406V44.8418Z" fill="#EBEBEB"/>
<path d="M55.7452 44.8418H48.9453V126.24H55.7452V44.8418Z" fill="#E0E0E0"/>
<path d="M61.0731 44.8418H52.3418V126.24H61.0731V44.8418Z" fill="#EBEBEB"/>
<path d="M64.4756 44.8418H57.6758V126.24H64.4756V44.8418Z" fill="#E0E0E0"/>
<path d="M69.8035 44.8418H61.0723V126.24H69.8035V44.8418Z" fill="#EBEBEB"/>
<path d="M206.261 44.8418H201.232V126.24H206.261V44.8418Z" fill="#EBEBEB"/>
<path d="M208.231 44.8418H204.309V126.24H208.231V44.8418Z" fill="#E0E0E0"/>
<path d="M211.296 44.8418H206.268V126.24H211.296V44.8418Z" fill="#EBEBEB"/>
<path d="M213.261 44.8418H209.338V126.24H213.261V44.8418Z" fill="#E0E0E0"/>
<path d="M216.323 44.8418H211.295V126.24H216.323V44.8418Z" fill="#EBEBEB"/>
<path d="M262.092 80.1528H250.93V110.609H262.092V80.1528Z" fill="#E6E6E6"/>
<path d="M246.686 115.691L244.102 122.731H246.686L262.49 115.691H246.686Z" fill="#F0F0F0"/>
<path d="M244.102 115.691V122.731L259.912 115.691H244.102Z" fill="#E0E0E0"/>
<path d="M273.719 115.691L271.135 122.731H273.719L289.523 115.691H273.719Z" fill="#F0F0F0"/>
<path d="M271.135 115.691V122.731L286.946 115.691H271.135Z" fill="#E0E0E0"/>
<path d="M232.508 116.017H249.697V110.656H232.508V116.017Z" fill="#E0E0E0"/>
<path d="M298.74 110.656H249.689V116.017H298.74V110.656Z" fill="#F0F0F0"/>
<path d="M280.686 110.609H253.52L250.156 73.7061H277.322L280.686 110.609Z" fill="#E0E0E0"/>
<path d="M282.091 110.609H254.925L251.568 73.7061H278.734L282.091 110.609Z" fill="#F0F0F0"/>
<path d="M258.641 106.526L256.023 77.7886H275.018L277.635 106.526H258.641Z" fill="#FAFAFA"/>
<path d="M104.834 161.672C104.834 161.672 93.1195 141.485 109.37 125.415C109.37 125.415 113.612 128.178 113.546 131.895C113.479 135.611 109.004 136.557 109.969 139.647C110.935 142.737 115.157 145.794 112.38 148.358C109.603 150.922 112.826 153.2 112.64 156.35C112.453 159.5 104.834 161.672 104.834 161.672Z" fill="#E0E0E0"/>
<path d="M105.721 163.516C105.721 163.516 110.469 140.666 89.9832 130.536C89.9832 130.536 86.833 134.498 88.0651 138.002C89.2972 141.505 93.8393 140.992 93.9059 144.235C93.9725 147.479 90.9223 151.701 94.3588 153.26C97.7954 154.818 95.4644 158.001 96.6365 160.919C97.8087 163.836 105.721 163.516 105.721 163.516Z" fill="#E0E0E0"/>
<path d="M87.7793 158.455C87.7793 158.455 88.1656 173.52 103.097 173.52C118.029 173.52 118.415 158.455 118.415 158.455H87.7793Z" fill="#F0F0F0"/>
<path d="M263.969 254.678H265.494L269.836 233.26L270.602 229.51L275.337 206.2H293.513L303.363 254.678H304.888L294.851 205.274C294.816 205.106 294.724 204.956 294.59 204.848C294.457 204.74 294.29 204.681 294.119 204.682H274.731C274.56 204.68 274.394 204.739 274.261 204.847C274.129 204.955 274.038 205.106 274.005 205.274L269.843 225.774L269.064 229.523L263.969 254.678Z" fill="#EBEBEB"/>
<path d="M234.791 254.678H236.316L246.166 206.173H264.341L269.063 229.523L269.823 233.26L274.172 254.678H275.723L270.615 229.51L269.843 225.774L265.68 205.274C265.645 205.106 265.553 204.956 265.419 204.848C265.286 204.74 265.119 204.681 264.947 204.682H245.56C245.389 204.681 245.222 204.74 245.088 204.848C244.955 204.956 244.863 205.106 244.828 205.274L234.791 254.678Z" fill="#EBEBEB"/>
<path d="M279.594 205.427H246.201C243.136 205.426 240.194 204.224 238.005 202.079C235.816 199.934 234.555 197.016 234.492 193.952L233.247 143.19C233.23 142.06 233.438 140.939 233.858 139.891C234.278 138.842 234.902 137.888 235.694 137.082C236.485 136.277 237.429 135.637 238.47 135.199C239.511 134.761 240.629 134.534 241.759 134.532H262.691C264.787 134.531 266.809 135.302 268.373 136.698C269.937 138.093 270.932 140.015 271.169 142.097L279.594 205.427Z" fill="#E6E6E6"/>
<path d="M261.379 199.027H294.06C295.273 199.027 296.437 199.509 297.295 200.367C298.153 201.226 298.635 202.389 298.635 203.603V203.763C298.635 204.204 298.46 204.628 298.147 204.94C297.835 205.252 297.412 205.428 296.97 205.428H261.379V199.027Z" fill="#E6E6E6"/>
<path d="M166.5 284.755C237.817 284.755 295.631 281.38 295.631 277.216C295.631 273.052 237.817 269.677 166.5 269.677C95.1829 269.677 37.3691 273.052 37.3691 277.216C37.3691 281.38 95.1829 284.755 166.5 284.755Z" fill="#F5F5F5"/>
<path d="M124.241 85.4345C124.244 84.1941 124.144 82.9555 123.942 81.7316C123.049 76.322 120.278 71.4001 116.116 67.8312C111.954 64.2622 106.667 62.2746 101.185 62.2178H100.985C97.3066 62.22 93.6817 63.0968 90.4093 64.7759C87.1368 66.455 84.3105 68.8882 82.1636 71.8748C81.8106 72.361 81.4976 72.8605 81.1779 73.36C81.1519 73.3929 81.1295 73.4287 81.1113 73.4665C78.925 77.0824 77.7732 81.2291 77.7813 85.4545V85.5011C77.795 90.4121 79.3648 95.1924 82.2651 99.1555C85.1655 103.119 89.2472 106.061 93.9241 107.559C98.601 109.057 103.632 109.035 108.296 107.495C112.959 105.955 117.014 102.976 119.879 98.9876C120.225 98.5015 120.545 98.0086 120.858 97.5025C120.884 97.4695 120.907 97.4338 120.925 97.3959C123.108 93.7893 124.256 89.6507 124.241 85.4345ZM78.7736 84.9084C78.8506 81.1058 79.9131 77.3882 81.8572 74.1192H89.1233C88.0129 77.6093 87.4315 81.246 87.3983 84.9084H78.7736ZM90.1423 74.1192H100.505V84.9084H88.3973C88.4194 81.2436 89.008 77.6042 90.1423 74.1192ZM101.504 73.1202V63.1835C102.945 63.3141 104.324 63.8268 105.5 64.6687C107.971 66.3603 110.042 69.3307 111.494 73.1202H101.504ZM111.854 74.1192C112.678 76.6141 113.214 79.1949 113.452 81.8115C113.552 82.8505 113.599 83.8828 113.612 84.9084H101.504V74.1192H111.854ZM99.04 63.4632C99.5181 63.3273 100.009 63.2425 100.505 63.2101V73.1402H90.5152C92.38 68.1185 95.4037 64.4689 99.04 63.4432V63.4632ZM100.505 85.9274V96.7166H90.1622C89.3381 94.2156 88.8062 91.6276 88.5772 89.0043C88.4839 87.9653 88.4306 86.933 88.4173 85.9074L100.505 85.9274ZM100.505 97.7156V107.652C99.065 107.521 97.6857 107.008 96.5092 106.167C94.045 104.475 91.9738 101.505 90.5152 97.7156H100.505ZM102.969 107.393C102.491 107.529 102 107.614 101.504 107.646V97.6956H111.494C109.629 102.697 106.606 106.354 102.969 107.373V107.393ZM101.504 96.7366V85.9141H113.612C113.593 89.5792 113.005 93.2191 111.867 96.7033L101.504 96.7366ZM114.611 85.9141H123.269C123.188 89.7161 122.126 93.4328 120.186 96.7033H112.886C113.997 93.2131 114.578 89.5764 114.611 85.9141ZM123.269 84.9151H114.611C114.611 83.8628 114.544 82.7972 114.445 81.7249C114.217 79.1435 113.706 76.5951 112.919 74.1259H120.172C121.574 76.5056 122.52 79.1254 122.963 81.8515C123.121 82.8634 123.215 83.8845 123.242 84.9084L123.269 84.9151ZM114.032 67.3793C116.208 68.9473 118.085 70.8942 119.573 73.1269H112.553C111.061 69.0043 108.817 65.7409 106.066 63.8495L105.853 63.7096C108.79 64.3673 111.563 65.6134 114.005 67.3726L114.032 67.3793ZM96.1363 63.7229C93.3324 65.5678 91.028 68.9244 89.4763 73.1269H82.4833L82.9694 72.4142C86.1322 67.9991 90.8097 64.9029 96.1096 63.7163L96.1363 63.7229ZM78.8203 85.9141H87.445C87.445 86.9663 87.5116 88.0319 87.6115 89.1042C87.842 91.6851 88.3534 94.2332 89.1366 96.7033H81.8439C80.4395 94.3249 79.493 91.7045 79.0534 88.9777C78.8876 87.9644 78.7941 86.9406 78.7736 85.9141H78.8203ZM82.5099 97.7023H89.4763C90.9681 101.825 93.2125 105.088 95.9631 106.98L96.1829 107.119C90.5868 105.849 85.6924 102.477 82.5099 97.7023ZM105.893 107.1C108.69 105.261 110.995 101.898 112.553 97.6956H119.533C119.373 97.9354 119.213 98.1751 119.047 98.4082C115.881 102.825 111.198 105.92 105.893 107.1Z" fill="#FF002C"/>
<path opacity="0.8" d="M124.241 85.4345C124.244 84.1941 124.144 82.9555 123.942 81.7316C123.049 76.322 120.278 71.4001 116.116 67.8312C111.954 64.2622 106.667 62.2746 101.185 62.2178H100.985C97.3066 62.22 93.6817 63.0968 90.4093 64.7759C87.1368 66.455 84.3105 68.8882 82.1636 71.8748C81.8106 72.361 81.4976 72.8605 81.1779 73.36C81.1519 73.3929 81.1295 73.4287 81.1113 73.4665C78.925 77.0824 77.7732 81.2291 77.7813 85.4545V85.5011C77.795 90.4121 79.3648 95.1924 82.2651 99.1555C85.1655 103.119 89.2472 106.061 93.9241 107.559C98.601 109.057 103.632 109.035 108.296 107.495C112.959 105.955 117.014 102.976 119.879 98.9876C120.225 98.5015 120.545 98.0086 120.858 97.5025C120.884 97.4695 120.907 97.4338 120.925 97.3959C123.108 93.7893 124.256 89.6507 124.241 85.4345ZM78.7736 84.9084C78.8506 81.1058 79.9131 77.3882 81.8572 74.1192H89.1233C88.0129 77.6093 87.4315 81.246 87.3983 84.9084H78.7736ZM90.1423 74.1192H100.505V84.9084H88.3973C88.4194 81.2436 89.008 77.6042 90.1423 74.1192ZM101.504 73.1202V63.1835C102.945 63.3141 104.324 63.8268 105.5 64.6687C107.971 66.3603 110.042 69.3307 111.494 73.1202H101.504ZM111.854 74.1192C112.678 76.6141 113.214 79.1949 113.452 81.8115C113.552 82.8505 113.599 83.8828 113.612 84.9084H101.504V74.1192H111.854ZM99.04 63.4632C99.5181 63.3273 100.009 63.2425 100.505 63.2101V73.1402H90.5152C92.38 68.1185 95.4037 64.4689 99.04 63.4432V63.4632ZM100.505 85.9274V96.7166H90.1622C89.3381 94.2156 88.8062 91.6276 88.5772 89.0043C88.4839 87.9653 88.4306 86.933 88.4173 85.9074L100.505 85.9274ZM100.505 97.7156V107.652C99.065 107.521 97.6857 107.008 96.5092 106.167C94.045 104.475 91.9738 101.505 90.5152 97.7156H100.505ZM102.969 107.393C102.491 107.529 102 107.614 101.504 107.646V97.6956H111.494C109.629 102.697 106.606 106.354 102.969 107.373V107.393ZM101.504 96.7366V85.9141H113.612C113.593 89.5792 113.005 93.2191 111.867 96.7033L101.504 96.7366ZM114.611 85.9141H123.269C123.188 89.7161 122.126 93.4328 120.186 96.7033H112.886C113.997 93.2131 114.578 89.5764 114.611 85.9141ZM123.269 84.9151H114.611C114.611 83.8628 114.544 82.7972 114.445 81.7249C114.217 79.1435 113.706 76.5951 112.919 74.1259H120.172C121.574 76.5056 122.52 79.1254 122.963 81.8515C123.121 82.8634 123.215 83.8845 123.242 84.9084L123.269 84.9151ZM114.032 67.3793C116.208 68.9473 118.085 70.8942 119.573 73.1269H112.553C111.061 69.0043 108.817 65.7409 106.066 63.8495L105.853 63.7096C108.79 64.3673 111.563 65.6134 114.005 67.3726L114.032 67.3793ZM96.1363 63.7229C93.3324 65.5678 91.028 68.9244 89.4763 73.1269H82.4833L82.9694 72.4142C86.1322 67.9991 90.8097 64.9029 96.1096 63.7163L96.1363 63.7229ZM78.8203 85.9141H87.445C87.445 86.9663 87.5116 88.0319 87.6115 89.1042C87.842 91.6851 88.3534 94.2332 89.1366 96.7033H81.8439C80.4395 94.3249 79.493 91.7045 79.0534 88.9777C78.8876 87.9644 78.7941 86.9406 78.7736 85.9141H78.8203ZM82.5099 97.7023H89.4763C90.9681 101.825 93.2125 105.088 95.9631 106.98L96.1829 107.119C90.5868 105.849 85.6924 102.477 82.5099 97.7023ZM105.893 107.1C108.69 105.261 110.995 101.898 112.553 97.6956H119.533C119.373 97.9354 119.213 98.1751 119.047 98.4082C115.881 102.825 111.198 105.92 105.893 107.1Z" fill="#FAFAFA"/>
<path d="M275.916 96.5034H66.5254V147.239H275.916V96.5034Z" fill="#FF002C"/>
<path opacity="0.6" d="M275.916 96.5034H66.5254V147.239H275.916V96.5034Z" fill="#FAFAFA"/>
<path d="M271.195 101.226H61.8047V151.961H271.195V101.226Z" fill="#FF002C"/>
<path opacity="0.3" d="M271.195 101.226H61.8047V151.961H271.195V101.226Z" fill="black"/>
<path d="M266.472 105.947H57.082V156.683H266.472V105.947Z" fill="#FF002C"/>
<path opacity="0.1" d="M266.472 105.947H57.082V156.683H266.472V105.947Z" fill="#FAFAFA"/>
<path d="M256.482 146.693V115.938L67.072 115.938V146.693H256.482Z" fill="#FF002C"/>
<path opacity="0.9" d="M256.482 146.693V115.938L67.072 115.938V146.693H256.482Z" fill="#FAFAFA"/>
<path d="M224.621 115.937V146.693H225.733V115.937H224.621Z" fill="#FF002C"/>
<path opacity="0.6" d="M224.621 115.937V146.693H225.733V115.937H224.621Z" fill="#FAFAFA"/>
<path d="M71.7949 120.18V142.451H72.9071V120.18H71.7949Z" fill="#FF002C"/>
<path opacity="0.6" d="M71.7949 120.18V142.451H72.9071V120.18H71.7949Z" fill="#FAFAFA"/>
<path d="M240.046 135.198C239.238 135.198 238.442 134.998 237.73 134.617C237.017 134.236 236.409 133.685 235.96 133.013C235.512 132.341 235.235 131.569 235.156 130.764C235.077 129.96 235.198 129.149 235.507 128.402C235.816 127.655 236.305 126.997 236.93 126.484C237.554 125.971 238.296 125.62 239.088 125.463C239.881 125.305 240.7 125.345 241.474 125.58C242.247 125.814 242.951 126.235 243.522 126.807C244.21 127.494 244.679 128.37 244.868 129.324C245.058 130.277 244.961 131.266 244.589 132.164C244.217 133.063 243.586 133.831 242.778 134.371C241.969 134.911 241.018 135.199 240.046 135.198ZM240.046 126.707C239.217 126.707 238.413 126.995 237.773 127.521C237.132 128.047 236.693 128.78 236.532 129.593C236.371 130.406 236.497 131.25 236.888 131.981C237.28 132.712 237.912 133.285 238.679 133.601C239.445 133.918 240.297 133.959 241.091 133.718C241.884 133.476 242.569 132.967 243.028 132.277C243.488 131.587 243.695 130.759 243.612 129.934C243.53 129.109 243.164 128.338 242.577 127.752C242.248 127.413 241.855 127.143 241.42 126.958C240.985 126.773 240.518 126.676 240.046 126.674V126.707Z" fill="#FF002C"/>
<path d="M246.419 137.29C246.33 137.289 246.243 137.271 246.162 137.237C246.081 137.203 246.007 137.153 245.946 137.09L242.582 133.727C242.513 133.667 242.456 133.593 242.416 133.511C242.376 133.428 242.354 133.338 242.35 133.246C242.347 133.155 242.362 133.063 242.395 132.978C242.429 132.892 242.48 132.815 242.545 132.75C242.61 132.685 242.687 132.634 242.773 132.601C242.858 132.567 242.95 132.552 243.041 132.555C243.133 132.559 243.223 132.581 243.306 132.621C243.388 132.661 243.462 132.718 243.521 132.787L246.885 136.151C247.009 136.276 247.078 136.444 247.078 136.62C247.078 136.796 247.009 136.965 246.885 137.09C246.762 137.215 246.594 137.287 246.419 137.29Z" fill="#FF002C"/>
<g opacity="0.6">
<path d="M240.046 135.198C239.238 135.198 238.442 134.998 237.73 134.617C237.017 134.236 236.409 133.685 235.96 133.013C235.512 132.341 235.235 131.569 235.156 130.764C235.077 129.96 235.198 129.149 235.507 128.402C235.816 127.655 236.305 126.997 236.93 126.484C237.554 125.971 238.296 125.62 239.088 125.463C239.881 125.305 240.7 125.345 241.474 125.58C242.247 125.814 242.951 126.235 243.522 126.807C244.21 127.494 244.679 128.37 244.868 129.324C245.058 130.277 244.961 131.266 244.589 132.164C244.217 133.063 243.586 133.831 242.778 134.371C241.969 134.911 241.018 135.199 240.046 135.198ZM240.046 126.707C239.217 126.707 238.413 126.995 237.773 127.521C237.132 128.047 236.693 128.78 236.532 129.593C236.371 130.406 236.497 131.25 236.888 131.981C237.28 132.712 237.912 133.285 238.679 133.601C239.445 133.918 240.297 133.959 241.091 133.718C241.884 133.476 242.569 132.967 243.028 132.277C243.488 131.587 243.695 130.759 243.612 129.934C243.53 129.109 243.164 128.338 242.577 127.752C242.248 127.413 241.855 127.143 241.42 126.958C240.985 126.773 240.518 126.676 240.046 126.674V126.707Z" fill="#FAFAFA"/>
<path d="M246.419 137.29C246.33 137.289 246.243 137.271 246.162 137.237C246.081 137.203 246.007 137.153 245.946 137.09L242.582 133.727C242.513 133.667 242.456 133.593 242.416 133.511C242.376 133.428 242.354 133.338 242.35 133.246C242.347 133.155 242.362 133.063 242.395 132.978C242.429 132.892 242.48 132.815 242.545 132.75C242.61 132.685 242.687 132.634 242.773 132.601C242.858 132.567 242.95 132.552 243.041 132.555C243.133 132.559 243.223 132.581 243.306 132.621C243.388 132.661 243.462 132.718 243.521 132.787L246.885 136.151C247.009 136.276 247.078 136.444 247.078 136.62C247.078 136.796 247.009 136.965 246.885 137.09C246.762 137.215 246.594 137.287 246.419 137.29Z" fill="#FAFAFA"/>
</g>
<path d="M194.865 65.8345H173.926V66.354H194.865V65.8345Z" fill="#FF002C"/>
<path d="M194.865 68.0386H173.926V68.5581H194.865V68.0386Z" fill="#FF002C"/>
<path d="M194.865 70.25H173.926V70.7695H194.865V70.25Z" fill="#FF002C"/>
<path d="M194.865 72.4546H173.926V72.9741H194.865V72.4546Z" fill="#FF002C"/>
<path d="M194.865 74.6587H173.926V75.1782H194.865V74.6587Z" fill="#FF002C"/>
<path d="M187.579 76.8701H173.926V77.3896H187.579V76.8701Z" fill="#FF002C"/>
<g opacity="0.5">
<path d="M194.865 65.8345H173.926V66.354H194.865V65.8345Z" fill="#FAFAFA"/>
<path d="M194.865 68.0391H173.926V68.5585H194.865V68.0391Z" fill="#FAFAFA"/>
<path d="M194.865 70.25H173.926V70.7695H194.865V70.25Z" fill="#FAFAFA"/>
<path d="M194.865 72.4546H173.926V72.9741H194.865V72.4546Z" fill="#FAFAFA"/>
<path d="M194.865 74.6592H173.926V75.1787H194.865V74.6592Z" fill="#FAFAFA"/>
<path d="M187.579 76.8701H173.926V77.3896H187.579V76.8701Z" fill="#FAFAFA"/>
</g>
<path d="M68.8305 161.065H46.5195V161.398H68.8305V161.065Z" fill="#FF002C"/>
<path d="M68.8305 162.478H46.5195V162.811H68.8305V162.478Z" fill="#FF002C"/>
<path d="M68.8305 163.89H46.5195V164.223H68.8305V163.89Z" fill="#FF002C"/>
<path d="M68.8305 165.301H46.5195V165.634H68.8305V165.301Z" fill="#FF002C"/>
<path d="M68.8305 166.713H46.5195V167.046H68.8305V166.713Z" fill="#FF002C"/>
<path d="M60.5455 168.132H46.5195V168.465H60.5455V168.132Z" fill="#FF002C"/>
<g opacity="0.4">
<path d="M68.8305 161.065H46.5195V161.398H68.8305V161.065Z" fill="#FAFAFA"/>
<path d="M68.8305 162.478H46.5195V162.811H68.8305V162.478Z" fill="#FAFAFA"/>
<path d="M68.8305 163.889H46.5195V164.222H68.8305V163.889Z" fill="#FAFAFA"/>
<path d="M68.8305 165.301H46.5195V165.634H68.8305V165.301Z" fill="#FAFAFA"/>
<path d="M68.8305 166.713H46.5195V167.046H68.8305V166.713Z" fill="#FAFAFA"/>
<path d="M60.5455 168.132H46.5195V168.465H60.5455V168.132Z" fill="#FAFAFA"/>
</g>
<path d="M142.156 69.1045C141.04 69.1045 139.969 69.5479 139.18 70.3373C138.391 71.1267 137.947 72.1973 137.947 73.3136V87.1997C137.947 88.316 138.391 89.3866 139.18 90.176C139.969 90.9654 141.04 91.4088 142.156 91.4088C143.273 91.4088 144.343 90.9654 145.133 90.176C145.922 89.3866 146.366 88.316 146.366 87.1997V73.3136C146.366 72.1973 145.922 71.1267 145.133 70.3373C144.343 69.5479 143.273 69.1045 142.156 69.1045Z" fill="#FF002C"/>
<path opacity="0.2" d="M142.156 69.1045C141.04 69.1045 139.969 69.5479 139.18 70.3373C138.391 71.1267 137.947 72.1973 137.947 73.3136V87.1997C137.947 88.316 138.391 89.3866 139.18 90.176C139.969 90.9654 141.04 91.4088 142.156 91.4088C143.273 91.4088 144.343 90.9654 145.133 90.176C145.922 89.3866 146.366 88.316 146.366 87.1997V73.3136C146.366 72.1973 145.922 71.1267 145.133 70.3373C144.343 69.5479 143.273 69.1045 142.156 69.1045Z" fill="#FAFAFA"/>
<path d="M152.707 60.8262C151.594 60.8315 150.528 61.2773 149.743 62.0661C148.958 62.8549 148.518 63.9225 148.518 65.0353V87.1998C148.518 88.3161 148.961 89.3867 149.75 90.1761C150.54 90.9655 151.61 91.4089 152.727 91.4089C153.843 91.4089 154.914 90.9655 155.703 90.1761C156.492 89.3867 156.936 88.3161 156.936 87.1998V65.0353C156.936 64.4809 156.826 63.9319 156.614 63.42C156.401 62.908 156.089 62.4431 155.696 62.052C155.303 61.6608 154.837 61.3512 154.324 61.1409C153.811 60.9305 153.261 60.8236 152.707 60.8262Z" fill="#FF002C"/>
<path opacity="0.3" d="M152.707 60.8262C151.594 60.8315 150.528 61.2773 149.743 62.0661C148.958 62.8549 148.518 63.9225 148.518 65.0353V87.1998C148.518 88.3161 148.961 89.3867 149.75 90.1761C150.54 90.9655 151.61 91.4089 152.727 91.4089C153.843 91.4089 154.914 90.9655 155.703 90.1761C156.492 89.3867 156.936 88.3161 156.936 87.1998V65.0353C156.936 64.4809 156.826 63.9319 156.614 63.42C156.401 62.908 156.089 62.4431 155.696 62.052C155.303 61.6608 154.837 61.3512 154.324 61.1409C153.811 60.9305 153.261 60.8236 152.707 60.8262Z" fill="black"/>
<path d="M163.25 77.3828C162.134 77.3828 161.063 77.8263 160.274 78.6156C159.484 79.405 159.041 80.4756 159.041 81.5919V87.1997C159.041 88.316 159.484 89.3866 160.274 90.176C161.063 90.9653 162.134 91.4088 163.25 91.4088C163.803 91.4097 164.351 91.3014 164.863 91.0903C165.374 90.8792 165.839 90.5692 166.231 90.1783C166.622 89.7874 166.933 89.3231 167.145 88.812C167.357 88.3009 167.466 87.753 167.466 87.1997V81.5919C167.466 81.0386 167.357 80.4907 167.145 79.9796C166.933 79.4685 166.622 79.0042 166.231 78.6133C165.839 78.2223 165.374 77.9124 164.863 77.7013C164.351 77.4902 163.803 77.3819 163.25 77.3828Z" fill="#FF002C"/>
<path opacity="0.6" d="M163.25 77.3828C162.134 77.3828 161.063 77.8263 160.274 78.6156C159.484 79.405 159.041 80.4756 159.041 81.5919V87.1997C159.041 88.316 159.484 89.3866 160.274 90.176C161.063 90.9653 162.134 91.4088 163.25 91.4088C163.803 91.4097 164.351 91.3014 164.863 91.0903C165.374 90.8792 165.839 90.5692 166.231 90.1783C166.622 89.7874 166.933 89.3231 167.145 88.812C167.357 88.3009 167.466 87.753 167.466 87.1997V81.5919C167.466 81.0386 167.357 80.4907 167.145 79.9796C166.933 79.4685 166.622 79.0042 166.231 78.6133C165.839 78.2223 165.374 77.9124 164.863 77.7013C164.351 77.4902 163.803 77.3819 163.25 77.3828Z" fill="#FAFAFA"/>
<path d="M252.154 172.581H269.17L240.119 142.451L252.154 172.581Z" fill="#FF002C"/>
<g opacity="0.1">
<path d="M252.154 172.581H269.17L240.119 142.451L252.154 172.581Z" fill="black"/>
</g>
<g style="mix-blend-mode:multiply">
<path d="M235.797 156.677L240.119 142.451L242.57 156.677H235.797Z" fill="#FF002C"/>
</g>
<path d="M240.119 142.451V184.609L243.129 181.605L252.154 172.581L240.119 142.451Z" fill="#FF002C"/>
<path opacity="0.3" d="M240.119 142.451V184.609L243.129 181.605L252.154 172.581L240.119 142.451Z" fill="#FAFAFA"/>
<path d="M270.209 52.0215H232.913C231.023 52.0285 229.212 52.782 227.875 54.118C226.537 55.454 225.782 57.2641 225.773 59.1543V78.4151C225.782 80.3041 226.537 82.1133 227.872 83.4491C229.208 84.7849 231.017 85.5392 232.906 85.5479H260.272L260.072 92.2812L266.979 85.5479H270.196C272.086 85.5409 273.897 84.7874 275.234 83.4514C276.571 82.1155 277.326 80.3053 277.335 78.4151V59.1543C277.326 57.2664 276.573 55.4582 275.239 54.1227C273.904 52.7871 272.097 52.032 270.209 52.0215ZM232.074 60.2266C232.074 59.6967 232.284 59.1885 232.659 58.8138C233.034 58.4391 233.542 58.2286 234.072 58.2286H242.657C243.186 58.2286 243.695 58.4391 244.069 58.8138C244.444 59.1885 244.655 59.6967 244.655 60.2266C244.655 60.7565 244.444 61.2647 244.069 61.6394C243.695 62.0141 243.186 62.2246 242.657 62.2246H234.065C233.536 62.2228 233.03 62.0116 232.657 61.6371C232.283 61.2625 232.074 60.7554 232.074 60.2266ZM268.091 78.8746H253.253C252.965 78.9249 252.671 78.9118 252.389 78.8361C252.108 78.7604 251.846 78.624 251.623 78.4364C251.399 78.2489 251.22 78.0147 251.097 77.7505C250.974 77.4862 250.91 77.1981 250.91 76.9066C250.91 76.615 250.974 76.327 251.097 76.0627C251.22 75.7984 251.399 75.5643 251.623 75.3767C251.846 75.1892 252.108 75.0528 252.389 74.9771C252.671 74.9014 252.965 74.8882 253.253 74.9385H268.091C268.378 74.8882 268.673 74.9014 268.955 74.9771C269.236 75.0528 269.498 75.1892 269.721 75.3767C269.944 75.5643 270.124 75.7984 270.247 76.0627C270.37 76.327 270.434 76.615 270.434 76.9066C270.434 77.1981 270.37 77.4862 270.247 77.7505C270.124 78.0147 269.944 78.2489 269.721 78.4364C269.498 78.624 269.236 78.7604 268.955 78.8361C268.673 78.9118 268.378 78.9249 268.091 78.8746ZM268.091 70.5429H236.063C235.776 70.5933 235.481 70.5801 235.2 70.5044C234.918 70.4287 234.656 70.2923 234.433 70.1048C234.21 69.9172 234.03 69.6831 233.907 69.4188C233.784 69.1545 233.72 68.8665 233.72 68.5749C233.72 68.2833 233.784 67.9953 233.907 67.731C234.03 67.4667 234.21 67.2326 234.433 67.0451C234.656 66.8575 234.918 66.7211 235.2 66.6454C235.481 66.5697 235.776 66.5566 236.063 66.6069H268.091C268.378 66.5566 268.673 66.5697 268.955 66.6454C269.236 66.7211 269.498 66.8575 269.721 67.0451C269.944 67.2326 270.124 67.4667 270.247 67.731C270.37 67.9953 270.434 68.2833 270.434 68.5749C270.434 68.8665 270.37 69.1545 270.247 69.4188C270.124 69.6831 269.944 69.9172 269.721 70.1048C269.498 70.2923 269.236 70.4287 268.955 70.5044C268.673 70.5801 268.378 70.5933 268.091 70.5429ZM268.091 62.2113H249.13C248.6 62.2113 248.092 62.0008 247.717 61.6261C247.343 61.2514 247.132 60.7432 247.132 60.2133C247.132 59.6834 247.343 59.1752 247.717 58.8005C248.092 58.4258 248.6 58.2153 249.13 58.2153H268.091C268.621 58.2153 269.129 58.4258 269.504 58.8005C269.879 59.1752 270.089 59.6834 270.089 60.2133C270.089 60.7432 269.879 61.2514 269.504 61.6261C269.129 62.0008 268.621 62.2113 268.091 62.2113Z" fill="#FF002C"/>
<path d="M211.88 113.074C210.287 108.698 207.855 104.676 204.721 101.232H151.767C148.632 104.676 146.2 108.698 144.607 113.074L151.933 149.544C157.538 155.62 165.073 159.568 173.258 160.717C181.444 161.867 189.775 160.148 196.836 155.851C203.897 151.555 209.254 144.946 211.995 137.148C214.736 129.35 214.693 120.844 211.873 113.074H211.88Z" fill="#FF002C"/>
<path opacity="0.1" d="M211.88 113.074C210.287 108.698 207.855 104.676 204.721 101.232H151.767C148.632 104.676 146.2 108.698 144.607 113.074L151.933 149.544C157.538 155.62 165.073 159.568 173.258 160.717C181.444 161.867 189.775 160.148 196.836 155.851C203.897 151.555 209.254 144.946 211.995 137.148C214.736 129.35 214.693 120.844 211.873 113.074H211.88Z" fill="#FAFAFA"/>
<path d="M213.992 126.947C213.614 135.356 210.274 143.36 204.562 149.544H151.948C147.506 144.717 144.474 138.765 143.182 132.334C141.891 125.903 142.388 119.241 144.622 113.074H211.888C213.503 117.512 214.219 122.228 213.992 126.947Z" fill="#FF002C"/>
<path opacity="0.9" d="M213.992 126.947C213.614 135.356 210.274 143.36 204.562 149.544H151.948C147.506 144.717 144.474 138.765 143.182 132.334C141.891 125.903 142.388 119.241 144.622 113.074H211.888C213.503 117.512 214.219 122.228 213.992 126.947Z" fill="#FAFAFA"/>
<path opacity="0.3" d="M213.993 126.946C213.578 135.796 209.889 144.175 203.642 150.456C197.394 156.737 189.035 160.471 180.188 160.933C171.341 161.394 162.638 158.551 155.771 152.954C148.904 147.357 144.362 139.407 143.03 130.649C141.697 121.891 143.667 112.95 148.559 105.563C153.45 98.1772 160.913 92.8732 169.497 90.6821C178.08 88.491 187.172 89.5693 195.005 93.7075C202.839 97.8457 208.853 104.748 211.881 113.074C213.497 117.512 214.215 122.228 213.993 126.946Z" fill="white"/>
<path opacity="0.4" d="M198.415 95.7444L146.96 142.671C146.702 142.196 146.449 141.716 146.2 141.232C144.627 138.083 143.534 134.715 142.957 131.242L187.399 90.7095C191.332 91.7459 195.058 93.4488 198.415 95.7444Z" fill="white"/>
<path opacity="0.4" d="M212.18 113.933L163.835 158.049C158.82 155.836 154.381 152.5 150.861 148.299L203.688 100.12C207.538 104.014 210.443 108.74 212.18 113.933Z" fill="white"/>
<path d="M213.978 104.662C209.897 97.5854 203.808 91.8783 196.482 88.263C189.157 84.6476 180.923 83.2864 172.824 84.3516C164.724 85.4168 157.123 88.8606 150.981 94.2472C144.839 99.6337 140.433 106.721 138.321 114.612C136.208 122.504 136.484 130.844 139.112 138.579C141.741 146.314 146.605 153.095 153.089 158.064C159.573 163.034 167.385 165.968 175.537 166.497C183.69 167.025 191.815 165.123 198.886 161.032C208.357 155.553 215.266 146.539 218.095 135.97C220.925 125.401 219.444 114.14 213.978 104.662ZM150.042 141.585C146.822 136.008 145.328 129.602 145.748 123.176C146.169 116.75 148.486 110.593 152.406 105.484C156.326 100.374 161.673 96.5422 167.771 94.4718C173.869 92.4013 180.444 92.1856 186.664 93.8517C192.885 95.5179 198.471 98.9912 202.718 103.832C206.964 108.674 209.68 114.665 210.521 121.05C211.363 127.435 210.292 133.925 207.444 139.701C204.597 145.477 200.1 150.279 194.524 153.5C190.821 155.638 186.734 157.027 182.495 157.585C178.256 158.144 173.948 157.862 169.818 156.755C165.688 155.649 161.816 153.74 158.424 151.137C155.032 148.534 152.186 145.288 150.048 141.585H150.042Z" fill="#FF002C"/>
<path opacity="0.1" d="M213.978 104.662C209.897 97.5854 203.808 91.8783 196.482 88.263C189.157 84.6476 180.923 83.2864 172.824 84.3516C164.724 85.4168 157.123 88.8606 150.981 94.2472C144.839 99.6337 140.433 106.721 138.321 114.612C136.208 122.504 136.484 130.844 139.112 138.579C141.741 146.314 146.605 153.095 153.089 158.064C159.573 163.034 167.385 165.968 175.537 166.497C183.69 167.025 191.815 165.123 198.886 161.032C208.357 155.553 215.266 146.539 218.095 135.97C220.925 125.401 219.444 114.14 213.978 104.662ZM150.042 141.585C146.822 136.008 145.328 129.602 145.748 123.176C146.169 116.75 148.486 110.593 152.406 105.484C156.326 100.374 161.673 96.5422 167.771 94.4718C173.869 92.4013 180.444 92.1856 186.664 93.8517C192.885 95.5179 198.471 98.9912 202.718 103.832C206.964 108.674 209.68 114.665 210.521 121.05C211.363 127.435 210.292 133.925 207.444 139.701C204.597 145.477 200.1 150.279 194.524 153.5C190.821 155.638 186.734 157.027 182.495 157.585C178.256 158.144 173.948 157.862 169.818 156.755C165.688 155.649 161.816 153.74 158.424 151.137C155.032 148.534 152.186 145.288 150.048 141.585H150.042Z" fill="black"/>
<path d="M83.2899 167.759L88.3914 168.944L84.1623 172.101C84.1623 172.101 81.132 170.729 80.9922 168.578L83.2899 167.759Z" fill="#E4897B"/>
<path d="M91.1218 172.341L87.4455 174.792L84.1621 172.101L88.3912 168.951L91.1218 172.341Z" fill="#E4897B"/>
<path d="M148.831 147.04C143.409 151.036 137.848 154.832 132.26 158.541C126.673 162.251 121.012 165.867 115.324 169.417C109.636 172.967 103.896 176.443 98.1347 179.82C95.2575 181.538 92.3538 183.203 89.4767 184.895C88.0474 185.805 86.4893 186.494 84.8546 186.94C83.9825 187.171 83.0906 187.32 82.1906 187.386C81.1915 187.467 80.1859 187.416 79.2003 187.233C78.4959 187.093 77.8259 186.816 77.2287 186.418C76.6314 186.019 76.1187 185.507 75.7197 184.91C75.3207 184.313 75.0433 183.643 74.9034 182.939C74.7636 182.235 74.764 181.51 74.9046 180.806C74.9502 180.579 75.0125 180.357 75.0911 180.14C75.4126 179.196 75.8606 178.299 76.4231 177.476C76.9248 176.735 77.4956 176.044 78.128 175.411C79.3325 174.219 80.7086 173.213 82.2106 172.427C85.121 170.769 88.0115 169.097 90.9419 167.452C96.776 164.156 102.663 160.946 108.564 157.775C114.465 154.605 120.439 151.535 126.446 148.538C132.454 145.541 138.508 142.624 144.688 139.933C145.621 139.521 146.673 139.468 147.643 139.784C148.612 140.1 149.431 140.763 149.941 141.646C150.452 142.529 150.618 143.569 150.408 144.567C150.198 145.565 149.627 146.45 148.804 147.053L148.831 147.04Z" fill="#FF002C"/>
<path opacity="0.1" d="M148.831 147.04C143.409 151.036 137.848 154.832 132.26 158.541C126.673 162.251 121.012 165.867 115.324 169.417C109.636 172.967 103.896 176.443 98.1347 179.82C95.2575 181.538 92.3538 183.203 89.4767 184.895C88.0474 185.805 86.4893 186.494 84.8546 186.94C83.9825 187.171 83.0906 187.32 82.1906 187.386C81.1915 187.467 80.1859 187.416 79.2003 187.233C78.4959 187.093 77.8259 186.816 77.2287 186.418C76.6314 186.019 76.1187 185.507 75.7197 184.91C75.3207 184.313 75.0433 183.643 74.9034 182.939C74.7636 182.235 74.764 181.51 74.9046 180.806C74.9502 180.579 75.0125 180.357 75.0911 180.14C75.4126 179.196 75.8606 178.299 76.4231 177.476C76.9248 176.735 77.4956 176.044 78.128 175.411C79.3325 174.219 80.7086 173.213 82.2106 172.427C85.121 170.769 88.0115 169.097 90.9419 167.452C96.776 164.156 102.663 160.946 108.564 157.775C114.465 154.605 120.439 151.535 126.446 148.538C132.454 145.541 138.508 142.624 144.688 139.933C145.621 139.521 146.673 139.468 147.643 139.784C148.612 140.1 149.431 140.763 149.941 141.646C150.452 142.529 150.618 143.569 150.408 144.567C150.198 145.565 149.627 146.45 148.804 147.053L148.831 147.04Z" fill="black"/>
<path d="M90.6814 136.21C90.3484 136.75 89.9688 137.402 89.6091 138.015C89.2495 138.628 88.8965 139.267 88.5635 139.913C87.8975 141.185 87.2315 142.477 86.5655 143.789C85.8995 145.101 85.3601 146.453 84.8139 147.785C84.5475 148.451 84.2678 149.117 84.0214 149.783L83.6484 150.802C83.5752 150.996 83.5619 151.075 83.5152 151.215C83.4686 151.355 83.4486 151.488 83.4087 151.622C83.1487 152.938 83.0171 154.276 83.0157 155.618C82.9824 157.05 83.0157 158.508 83.0957 159.98C83.1756 161.452 83.2555 162.93 83.3887 164.409C83.5219 165.887 83.6551 167.392 83.795 168.858L81.2242 169.384C80.7713 167.899 80.4183 166.42 80.0654 164.922C79.7124 163.423 79.446 161.918 79.1862 160.386C78.9265 158.854 78.7533 157.316 78.6401 155.724C78.5016 154.057 78.544 152.38 78.7667 150.722C78.8066 150.489 78.8399 150.27 78.8999 150.056C78.9598 149.843 79.0197 149.544 79.073 149.39L79.3994 148.258C79.6125 147.506 79.8589 146.76 80.112 146.021C80.6248 144.535 81.1842 143.077 81.8103 141.638C82.4363 140.2 83.1023 138.794 83.8083 137.409C84.1746 136.743 84.5609 136.031 84.9538 135.345C85.3467 134.659 85.7397 134.013 86.2325 133.287L90.6814 136.21Z" fill="#E4897B"/>
<path d="M87.8373 273.726C87.3879 273.712 86.9413 273.649 86.5053 273.54C86.482 273.536 86.4605 273.525 86.4437 273.508C86.427 273.491 86.4159 273.47 86.4121 273.446C86.4078 273.422 86.4106 273.398 86.4201 273.375C86.4295 273.353 86.4453 273.333 86.4654 273.32C86.6452 273.2 88.2169 272.188 88.823 272.461C88.8904 272.492 88.9482 272.54 88.9904 272.601C89.0326 272.662 89.0576 272.733 89.0628 272.807C89.094 272.926 89.0919 273.051 89.0567 273.168C89.0214 273.286 88.9544 273.391 88.863 273.473C88.5629 273.678 88.1986 273.768 87.8373 273.726ZM86.8183 273.366C87.7241 273.546 88.4034 273.513 88.6632 273.273C88.7202 273.218 88.762 273.149 88.7842 273.074C88.8064 272.998 88.8083 272.917 88.7897 272.84C88.7889 272.806 88.7784 272.773 88.7596 272.745C88.7407 272.717 88.7142 272.694 88.6831 272.68C88.3701 272.541 87.4577 272.98 86.8183 273.366Z" fill="#FF002C"/>
<path d="M86.499 273.546C86.4794 273.552 86.4586 273.552 86.439 273.546C86.4199 273.536 86.4041 273.521 86.3934 273.502C86.3828 273.483 86.3778 273.461 86.3791 273.44C86.3791 273.38 86.3791 271.888 86.9452 271.388C87.0151 271.326 87.0976 271.278 87.1871 271.25C87.2766 271.221 87.3712 271.211 87.4647 271.222C87.5629 271.223 87.6576 271.258 87.7328 271.322C87.808 271.385 87.8592 271.472 87.8776 271.568C87.9975 272.148 87.0518 273.267 86.5456 273.566C86.5287 273.563 86.5127 273.557 86.499 273.546ZM87.3848 271.442C87.2838 271.443 87.1866 271.481 87.1117 271.548C86.7842 272.031 86.6165 272.604 86.6322 273.187C87.125 272.787 87.7111 271.948 87.6378 271.595C87.6378 271.535 87.5912 271.468 87.438 271.448L87.3848 271.442Z" fill="#FF002C"/>
<path d="M111.428 273.726C110.879 273.718 110.332 273.656 109.796 273.54C109.771 273.537 109.747 273.526 109.729 273.507C109.71 273.489 109.699 273.465 109.696 273.44C109.693 273.415 109.698 273.389 109.71 273.366C109.722 273.344 109.74 273.325 109.763 273.313C109.996 273.194 112.06 272.141 112.693 272.488C112.754 272.519 112.806 272.565 112.843 272.622C112.88 272.68 112.902 272.746 112.906 272.814C112.921 272.924 112.908 273.035 112.868 273.139C112.829 273.242 112.764 273.334 112.68 273.407C112.312 273.654 111.869 273.767 111.428 273.726ZM110.202 273.367C111.354 273.56 112.2 273.507 112.52 273.227C112.573 273.177 112.614 273.116 112.638 273.047C112.662 272.979 112.67 272.906 112.66 272.834C112.66 272.807 112.652 272.78 112.638 272.756C112.624 272.733 112.604 272.714 112.58 272.701C112.234 272.514 111.048 272.96 110.202 273.367Z" fill="#FF002C"/>
<path d="M109.817 273.547C109.806 273.551 109.795 273.553 109.783 273.553C109.772 273.553 109.761 273.551 109.75 273.547C109.731 273.537 109.715 273.521 109.706 273.502C109.696 273.483 109.693 273.461 109.697 273.44C109.697 273.38 109.823 271.981 110.469 271.442C110.655 271.287 110.894 271.21 111.135 271.229C111.475 271.262 111.568 271.435 111.595 271.575C111.688 272.161 110.469 273.28 109.85 273.573L109.817 273.547ZM111.055 271.442C110.899 271.444 110.748 271.5 110.629 271.602C110.247 272.053 110.015 272.611 109.963 273.2C110.589 272.821 111.422 271.941 111.362 271.589C111.362 271.589 111.362 271.469 111.122 271.449L111.055 271.442Z" fill="#FF002C"/>
<path d="M98.5675 116.21C98.9738 119.321 99.8995 125.628 97.6484 127.532C97.6484 127.532 98.3144 130.703 103.989 131.069C110.262 131.475 107.186 128.152 107.186 128.152C103.816 127.113 104.069 124.575 104.821 122.231L98.5675 116.21Z" fill="#E4897B"/>
<path d="M110.202 109.89C110.162 109.889 110.123 109.878 110.089 109.857C110.06 109.842 110.034 109.822 110.013 109.797C109.992 109.772 109.976 109.743 109.967 109.712C109.958 109.681 109.955 109.648 109.959 109.616C109.962 109.583 109.973 109.552 109.989 109.524C110.162 109.172 110.417 108.866 110.734 108.634C111.051 108.402 111.419 108.251 111.807 108.192C111.866 108.194 111.923 108.218 111.967 108.259C112.01 108.3 112.037 108.355 112.043 108.415C112.048 108.474 112.032 108.533 111.998 108.582C111.963 108.63 111.912 108.664 111.853 108.678C111.55 108.731 111.263 108.854 111.014 109.036C110.766 109.219 110.563 109.456 110.422 109.73C110.403 109.774 110.372 109.812 110.334 109.84C110.295 109.869 110.249 109.886 110.202 109.89Z" fill="#263238"/>
<path d="M111.994 112.621C112.453 113.535 113.036 114.382 113.726 115.138C113.528 115.31 113.295 115.437 113.043 115.509C112.791 115.582 112.526 115.598 112.267 115.558L111.994 112.621Z" fill="#DE5753"/>
<path d="M111.554 111.941C111.594 112.361 111.847 112.674 112.114 112.647C112.38 112.621 112.58 112.268 112.54 111.848C112.5 111.429 112.247 111.116 111.974 111.142C111.701 111.169 111.514 111.528 111.554 111.941Z" fill="#263238"/>
<path d="M111.887 111.176L112.859 110.796C112.859 110.796 112.393 111.622 111.887 111.176Z" fill="#263238"/>
<path d="M104.115 273.42H109.303L109.65 261.418H104.462L104.115 273.42Z" fill="#E4897B"/>
<path d="M80.5586 273.42H85.7467L87.4117 261.418H82.2303L80.5586 273.42Z" fill="#E4897B"/>
<path d="M86.066 272.82H80.2385C80.1386 272.819 80.0417 272.854 79.9658 272.919C79.8899 272.984 79.84 273.074 79.8255 273.173L79.1595 277.782C79.1464 277.898 79.158 278.016 79.1935 278.128C79.229 278.239 79.2876 278.342 79.3656 278.429C79.4435 278.517 79.539 278.587 79.6458 278.635C79.7526 278.683 79.8683 278.708 79.9854 278.708C81.9834 278.674 82.9957 278.555 85.5598 278.555C87.1316 278.555 89.4359 278.714 91.6137 278.714C93.7916 278.714 93.9048 276.563 92.999 276.37C88.9364 275.498 88.2971 274.292 86.9251 273.14C86.6856 272.935 86.3811 272.822 86.066 272.82Z" fill="#263238"/>
<path d="M109.477 272.82H103.656C103.555 272.818 103.458 272.853 103.382 272.918C103.305 272.983 103.256 273.074 103.243 273.173L102.577 277.782C102.565 277.899 102.577 278.017 102.613 278.128C102.65 278.24 102.709 278.343 102.787 278.43C102.866 278.517 102.962 278.587 103.069 278.635C103.176 278.683 103.292 278.708 103.409 278.708C105.407 278.675 106.42 278.555 108.977 278.555C110.555 278.555 113.812 278.715 115.99 278.715C118.168 278.715 118.281 276.563 117.375 276.37C113.313 275.498 111.714 274.292 110.342 273.14C110.101 272.934 109.794 272.82 109.477 272.82Z" fill="#263238"/>
<path d="M109.643 261.418L109.469 267.606H104.281L104.461 261.418H109.643Z" fill="#CE6F64"/>
<path d="M82.2244 261.418H87.4125L86.5534 267.606H81.3652L82.2244 261.418Z" fill="#CE6F64"/>
<path d="M92.8928 137.01C91.9082 138.548 90.7678 139.981 89.4896 141.285L88.8968 140.892L82.3301 136.53C82.3301 136.53 85.9132 128.538 88.6105 128.132C91.1879 127.719 93.066 130.383 93.9385 133.233C94.2715 134.266 93.7187 135.664 92.8928 137.01Z" fill="#FF002C"/>
<path opacity="0.6" d="M92.8928 137.01C91.9082 138.548 90.7678 139.981 89.4896 141.285L88.8968 140.892L82.3301 136.53C82.3301 136.53 85.9132 128.538 88.6105 128.132C91.1879 127.719 93.066 130.383 93.9385 133.233C94.2715 134.266 93.7187 135.664 92.8928 137.01Z" fill="#FAFAFA"/>
<path d="M92.8925 137.01C91.9079 138.548 90.7674 139.981 89.4892 141.285L88.8965 140.893C89.1895 138.495 90.1219 136.117 91.1875 135.365C91.8402 135.431 92.4196 136.124 92.8925 137.01Z" fill="#FF002C"/>
<path opacity="0.4" d="M92.8925 137.01C91.9079 138.548 90.7674 139.981 89.4892 141.285L88.8965 140.893C89.1895 138.495 90.1219 136.117 91.1875 135.365C91.8402 135.431 92.4196 136.124 92.8925 137.01Z" fill="#FAFAFA"/>
<path d="M115.358 140.999C115.045 142.997 114.639 145.348 114.092 148.138C113.426 151.708 112.494 155.991 111.315 161.112L90.303 159.78C91.2087 151.249 91.5617 145.974 88.6113 128.158C91.5943 127.742 94.6038 127.544 97.6157 127.566C100.805 127.545 103.993 127.752 107.153 128.185C111.229 128.851 115.811 130.076 115.811 130.076C115.811 130.076 116.983 130.536 115.358 140.999Z" fill="#FF002C"/>
<path opacity="0.6" d="M115.358 140.999C115.045 142.997 114.639 145.348 114.092 148.138C113.426 151.708 112.494 155.991 111.315 161.112L90.303 159.78C91.2087 151.249 91.5617 145.974 88.6113 128.158C91.5943 127.742 94.6038 127.544 97.6157 127.566C100.805 127.545 103.993 127.752 107.153 128.185C111.229 128.851 115.811 130.076 115.811 130.076C115.811 130.076 116.983 130.536 115.358 140.999Z" fill="#FAFAFA"/>
<path d="M115.357 140.999C115.044 142.997 114.637 145.348 114.091 148.139C112.935 145.681 111.976 143.135 111.221 140.526H115.123L115.357 140.999Z" fill="#FF002C"/>
<path opacity="0.4" d="M115.357 140.999C115.044 142.997 114.637 145.348 114.091 148.139C112.935 145.681 111.976 143.135 111.221 140.526H115.123L115.357 140.999Z" fill="#FAFAFA"/>
<path d="M97.4213 111.835C98.2138 116.916 98.4469 119.087 101.277 121.465C105.533 125.048 111.6 122.957 112.34 117.735C113.006 113.04 111.594 105.514 106.392 103.956C105.248 103.605 104.033 103.552 102.863 103.804C101.693 104.055 100.607 104.601 99.7075 105.391C98.8083 106.181 98.1261 107.188 97.7259 108.315C97.3258 109.443 97.2209 110.655 97.4213 111.835Z" fill="#E4897B"/>
<path d="M105.761 160.753C105.761 160.753 105.428 170.003 104.629 181.672C103.963 191.462 102.957 202.944 101.552 212.094L101.512 212.348C98.9875 228.545 87.8053 266.4 87.8053 266.4H80.7324C80.7324 266.4 86.5599 229.837 87.8386 213.786C91.0821 173.247 82.9569 168.658 90.3028 159.72L105.761 160.753Z" fill="#FF002C"/>
<path opacity="0.3" d="M105.761 160.753C105.761 160.753 105.428 170.003 104.629 181.672C103.963 191.462 102.957 202.944 101.552 212.094L101.512 212.348C98.9875 228.545 87.8053 266.4 87.8053 266.4H80.7324C80.7324 266.4 86.5599 229.837 87.8386 213.786C91.0821 173.247 82.9569 168.658 90.3028 159.72L105.761 160.753Z" fill="black"/>
<path d="M104.629 181.672C103.963 191.462 102.957 202.944 101.552 212.095C99.161 200.207 95.2316 182.844 100.506 171.469C101.765 174.699 103.23 178.349 104.629 181.672Z" fill="#FF002C"/>
<path opacity="0.4" d="M104.629 181.672C103.963 191.462 102.957 202.944 101.552 212.095C99.161 200.207 95.2316 182.844 100.506 171.469C101.765 174.699 103.23 178.349 104.629 181.672Z" fill="black"/>
<path d="M111.315 161.119C111.315 161.119 117.309 196.643 116.949 212.454C116.596 228.904 110.569 266.4 110.569 266.4H103.563C103.563 266.4 104.668 229.857 104.049 213.706C103.383 196.097 95.9238 160.113 95.9238 160.113L111.315 161.119Z" fill="#FF002C"/>
<path opacity="0.3" d="M111.315 161.119C111.315 161.119 117.309 196.643 116.949 212.454C116.596 228.904 110.569 266.4 110.569 266.4H103.563C103.563 266.4 104.668 229.857 104.049 213.706C103.383 196.097 95.9238 160.113 95.9238 160.113L111.315 161.119Z" fill="black"/>
<path d="M102.364 266.733H111.762L112.494 263.583L102.031 263.656L102.364 266.733Z" fill="#263238"/>
<path d="M79.707 266.733H89.1043L89.8369 263.583L79.7736 263.656L79.707 266.733Z" fill="#263238"/>
<path d="M90.0634 158.508L88.9978 160.333C88.9112 160.473 89.0777 160.633 89.3175 160.646L111.355 162.078C111.542 162.078 111.708 162.011 111.728 161.891L112.041 160.02C112.041 159.893 111.902 159.774 111.695 159.76L90.3831 158.375C90.3233 158.372 90.2636 158.383 90.2083 158.406C90.1531 158.429 90.1036 158.464 90.0634 158.508Z" fill="#263238"/>
<path d="M92.7676 161.066L92.2015 161.026C92.0883 161.026 92.0017 160.953 92.015 160.886L92.4413 158.455C92.4413 158.388 92.5545 158.335 92.6677 158.342L93.2405 158.375C93.3537 158.375 93.4336 158.448 93.4269 158.522L93.0007 160.946C92.9874 161.019 92.8808 161.072 92.7676 161.066Z" fill="#FF002C"/>
<path opacity="0.3" d="M92.7676 161.066L92.2015 161.026C92.0883 161.026 92.0017 160.953 92.015 160.886L92.4413 158.455C92.4413 158.388 92.5545 158.335 92.6677 158.342L93.2405 158.375C93.3537 158.375 93.4336 158.448 93.4269 158.522L93.0007 160.946C92.9874 161.019 92.8808 161.072 92.7676 161.066Z" fill="black"/>
<path d="M106.559 161.958L105.993 161.925C105.879 161.925 105.793 161.852 105.806 161.778L106.232 159.354C106.232 159.281 106.346 159.234 106.465 159.241L107.031 159.274C107.145 159.274 107.231 159.347 107.218 159.421L106.792 161.845C106.798 161.918 106.692 161.965 106.559 161.958Z" fill="#FF002C"/>
<path opacity="0.3" d="M106.559 161.958L105.993 161.925C105.879 161.925 105.793 161.852 105.806 161.778L106.232 159.354C106.232 159.281 106.346 159.234 106.465 159.241L107.031 159.274C107.145 159.274 107.231 159.347 107.218 159.421L106.792 161.845C106.798 161.918 106.692 161.965 106.559 161.958Z" fill="black"/>
<path d="M117.003 135.405C117.802 138.069 118.561 140.766 119.301 143.457L121.532 151.509L121.811 152.508L121.885 152.754L121.918 152.881V152.947C121.942 153.035 121.971 153.122 122.005 153.207C122.168 153.612 122.393 153.989 122.671 154.326C123.466 155.165 124.387 155.875 125.401 156.43C127.724 157.688 130.182 158.68 132.727 159.387L132.341 161.985C129.354 161.831 126.413 161.194 123.63 160.1C122.09 159.497 120.671 158.621 119.44 157.516C118.736 156.863 118.15 156.092 117.709 155.238C117.59 155.007 117.485 154.769 117.396 154.526L117.323 154.346L117.276 154.219L117.189 153.973L116.836 152.967C115.904 150.303 115.038 147.639 114.219 144.935C113.4 142.231 112.594 139.567 111.861 136.85L117.003 135.405Z" fill="#E4897B"/>
<path d="M115.81 130.05C118.474 130.923 121.271 139.634 121.271 139.634L111.654 143.777C111.654 143.777 107.658 134 109.43 131.789C111.201 129.577 112.753 129.051 115.81 130.05Z" fill="#FF002C"/>
<path opacity="0.6" d="M115.81 130.05C118.474 130.923 121.271 139.634 121.271 139.634L111.654 143.777C111.654 143.777 107.658 134 109.43 131.789C111.201 129.577 112.753 129.051 115.81 130.05Z" fill="#FAFAFA"/>
<path d="M110.669 103.663C108.971 101.565 95.8504 100.066 95.1511 105.781C90.4891 109.044 94.9114 117.476 95.5774 119.62C92.3606 120.513 81.9976 124.056 89.5834 130.942C97.1691 137.829 108.544 136.657 110.769 129.53C112.327 124.549 107.379 116.21 107.485 113.293C107.592 110.376 113.579 107.226 110.669 103.663Z" fill="#263238"/>
<path d="M96.496 120.673C96.4716 120.673 96.4475 120.668 96.4255 120.658C96.4035 120.647 96.3842 120.632 96.3694 120.613C95.164 119.147 90.9682 111.448 92.44 107.785C92.6683 107.217 93.0553 106.727 93.5549 106.372C94.0544 106.018 94.6454 105.815 95.2572 105.787C95.2787 105.785 95.3006 105.786 95.3215 105.792C95.3424 105.798 95.3618 105.808 95.3786 105.822C95.3954 105.836 95.4093 105.853 95.4194 105.872C95.4294 105.891 95.4354 105.912 95.437 105.934C95.4428 105.977 95.4313 106.021 95.4052 106.056C95.379 106.091 95.3403 106.114 95.2972 106.12C94.7471 106.141 94.2144 106.318 93.7622 106.633C93.3101 106.947 92.9575 107.384 92.7464 107.892C91.3278 111.435 95.4437 118.954 96.6225 120.393C96.6436 120.416 96.6572 120.445 96.6617 120.477C96.6662 120.508 96.6615 120.54 96.6479 120.568C96.6344 120.597 96.6128 120.62 96.5857 120.637C96.5587 120.653 96.5275 120.661 96.496 120.659V120.673Z" fill="#263238"/>
<path d="M106.447 112.981C106.596 113.953 107.064 114.849 107.779 115.525C108.725 116.431 109.617 115.811 109.704 114.659C109.784 113.627 109.384 111.915 108.265 111.436C107.146 110.956 106.307 111.828 106.447 112.981Z" fill="#E4897B"/>
<path d="M129.463 158.668L133.246 157.383L132.653 161.932C132.653 161.932 131.161 162.598 129.23 160.919L127.385 159.74L128.837 158.948C129.036 158.835 129.245 158.741 129.463 158.668Z" fill="#E4897B"/>
<path d="M135.891 157.369L134.732 161.345L132.654 161.925L133.247 157.382L135.891 157.369Z" fill="#E4897B"/>
</svg>
