<svg width="273" height="78" viewBox="0 0 273 78" fill="none" xmlns="http://www.w3.org/2000/svg">
<path d="M192.64 46.7694C189.23 66.5094 205.15 76.2294 220.64 71.3294C231.19 67.9794 241.64 70.5494 248.72 73.9294C248.999 74.0543 249.313 74.0814 249.609 74.0063C249.906 73.9312 250.168 73.7582 250.355 73.5154C250.541 73.2726 250.64 72.9741 250.635 72.6682C250.631 72.3623 250.523 72.0667 250.33 71.8294C249.138 70.4014 247.866 69.0426 246.52 67.7595C246.299 67.5508 246.156 67.2732 246.113 66.9723C246.071 66.6714 246.132 66.365 246.286 66.1033C246.441 65.8417 246.68 65.6404 246.964 65.5325C247.248 65.4246 247.561 65.4165 247.85 65.5095C254.01 67.3895 263.09 69.1494 271.85 67.0894C272.113 67.0288 272.353 66.8904 272.536 66.6924C272.72 66.4943 272.84 66.2455 272.881 65.9784C272.922 65.7112 272.882 65.4379 272.766 65.1938C272.65 64.9498 272.463 64.7462 272.23 64.6094C263.48 59.4294 250.13 45.8194 237.62 41.3994C237.314 41.2907 237.057 41.0751 236.897 40.7922C236.736 40.5093 236.684 40.1781 236.748 39.8595C236.813 39.5409 236.99 39.2562 237.247 39.0578C237.505 38.8594 237.825 38.7605 238.15 38.7794C240.124 38.8918 242.088 39.1323 244.03 39.4994C244.346 39.5783 244.68 39.5402 244.97 39.3923C245.26 39.2443 245.487 38.9965 245.609 38.6945C245.731 38.3924 245.739 38.0565 245.633 37.7487C245.526 37.4409 245.312 37.1819 245.03 37.0194C227.49 26.1294 197 21.5594 192.64 46.7694Z" fill="#FF002C"/>
<path opacity="0.7" d="M192.64 46.7694C189.23 66.5094 205.15 76.2294 220.64 71.3294C231.19 67.9794 241.64 70.5494 248.72 73.9294C248.999 74.0543 249.313 74.0814 249.609 74.0063C249.906 73.9312 250.168 73.7582 250.355 73.5154C250.541 73.2726 250.64 72.9741 250.635 72.6682C250.631 72.3623 250.523 72.0667 250.33 71.8294C249.138 70.4014 247.866 69.0426 246.52 67.7595C246.299 67.5508 246.156 67.2732 246.113 66.9723C246.071 66.6714 246.132 66.365 246.286 66.1033C246.441 65.8417 246.68 65.6404 246.964 65.5325C247.248 65.4246 247.561 65.4165 247.85 65.5095C254.01 67.3895 263.09 69.1494 271.85 67.0894C272.113 67.0288 272.353 66.8904 272.536 66.6924C272.72 66.4943 272.84 66.2455 272.881 65.9784C272.922 65.7112 272.882 65.4379 272.766 65.1938C272.65 64.9498 272.463 64.7462 272.23 64.6094C263.48 59.4294 250.13 45.8194 237.62 41.3994C237.314 41.2907 237.057 41.0751 236.897 40.7922C236.736 40.5093 236.684 40.1781 236.748 39.8595C236.813 39.5409 236.99 39.2562 237.247 39.0578C237.505 38.8594 237.825 38.7605 238.15 38.7794C240.124 38.8918 242.088 39.1323 244.03 39.4994C244.346 39.5783 244.68 39.5402 244.97 39.3923C245.26 39.2443 245.487 38.9965 245.609 38.6945C245.731 38.3924 245.739 38.0565 245.633 37.7487C245.526 37.4409 245.312 37.1819 245.03 37.0194C227.49 26.1294 197 21.5594 192.64 46.7694Z" fill="white"/>
<path d="M214.16 75.5793L220.86 23.9993C220.894 23.7221 220.867 23.4408 220.78 23.1753C220.694 22.9097 220.55 22.6663 220.36 22.4623C220.169 22.2583 219.936 22.0985 219.677 21.9943C219.418 21.8901 219.139 21.844 218.86 21.8593L186.36 24.1793C185.923 24.2102 185.51 24.3914 185.191 24.6921C184.872 24.9929 184.667 25.3946 184.61 25.8293L179.61 64.6193C179.565 65.0485 179.666 65.4804 179.899 65.8439C180.132 66.2074 180.481 66.4809 180.89 66.6193L211.72 77.1493C211.984 77.2301 212.263 77.2524 212.536 77.2146C212.81 77.1768 213.072 77.0798 213.304 76.9303C213.536 76.7809 213.733 76.5826 213.881 76.3493C214.029 76.1159 214.124 75.8532 214.16 75.5793Z" fill="black"/>
<path d="M220.63 65.8995L224.63 34.9595C224.664 34.6947 224.641 34.4259 224.564 34.1704C224.487 33.9149 224.357 33.6785 224.183 33.4766C224.008 33.2747 223.793 33.1118 223.551 32.9986C223.31 32.8854 223.047 32.8244 222.78 32.8195L185.46 32.1195C184.992 32.1108 184.537 32.2755 184.182 32.5819C183.828 32.8883 183.599 33.3147 183.54 33.7795L180.54 56.5695C180.482 57.0337 180.597 57.503 180.863 57.8882C181.128 58.2735 181.526 58.5479 181.98 58.6595L218.24 67.4995C218.503 67.5702 218.778 67.5838 219.047 67.5394C219.316 67.495 219.572 67.3936 219.798 67.2421C220.025 67.0905 220.216 66.8924 220.359 66.6608C220.503 66.4292 220.595 66.1696 220.63 65.8995Z" fill="#263238"/>
<path d="M57.9152 60.36L77.4127 63.5703L77.247 64.5768L57.7495 61.3664L57.9152 60.36Z" fill="#FF002C"/>
<path d="M82.483 64.4086L88.2159 65.3525L88.0501 66.359L82.3173 65.4151L82.483 64.4086Z" fill="#FF002C"/>
<path d="M0.170029 21.5896C0.170029 21.5896 27.06 -3.60036 65.58 1.38964L186.91 12.8596C189.135 13.0693 191.294 13.7249 193.26 14.7873C195.226 15.8496 196.958 17.297 198.352 19.0431C199.746 20.7893 200.774 22.7983 201.375 24.9505C201.976 27.1026 202.138 29.3538 201.85 31.5696L197.73 63.3696C197.443 65.5858 196.713 67.7214 195.583 69.6492C194.452 71.5769 192.945 73.2572 191.152 74.59C189.358 75.9227 187.314 76.8804 185.142 77.4061C182.97 77.9318 180.715 78.0146 178.51 77.6496L58.26 57.7996C19.75 52.8096 0.170029 21.5896 0.170029 21.5896Z" fill="#FF002C"/>
<path opacity="0.3" d="M0.170059 21.5897C6.0552 30.106 13.4181 37.4995 21.91 43.4197C22.9283 44.132 24.1131 44.5693 25.3499 44.6896C26.5867 44.8098 27.8335 44.6088 28.9699 44.106C30.1062 43.6032 31.0936 42.8156 31.8364 41.8195C32.5792 40.8233 33.0523 39.6523 33.21 38.4197L36.41 13.6697C36.5694 12.4376 36.4076 11.1852 35.9404 10.034C35.4732 8.88282 34.7165 7.87185 33.7437 7.09918C32.7708 6.32651 31.6148 5.81834 30.3877 5.62396C29.1606 5.42957 27.9041 5.55556 26.74 5.98971C17.0196 9.55438 8.01963 14.8385 0.170059 21.5897Z" fill="white"/>
<path d="M64.4651 33.5363C63.9555 22.1375 72.7829 12.4838 84.1817 11.9741C95.5805 11.4645 105.234 20.2919 105.744 31.6907C106.254 43.0895 97.4261 52.7432 86.0273 53.2529C74.6285 53.7625 64.9748 44.9351 64.4651 33.5363Z" fill="white"/>
<path opacity="0.3" d="M71.2001 33.7194C71.4626 36.9064 72.8083 39.9074 75.0133 42.2234C77.2183 44.5394 80.1498 46.0308 83.32 46.4494C83.52 46.4494 83.73 46.4994 83.94 46.5094C84.8247 46.5945 85.7154 46.5945 86.6 46.5094C86.91 46.5094 87.23 46.4394 87.53 46.3894L88.2001 46.2594C90.985 45.6202 93.5077 44.1441 95.4294 42.0294C97.351 39.9147 98.5796 37.2626 98.9501 34.4294C99.0312 33.7659 99.068 33.0977 99.06 32.4294C98.883 28.9833 97.4396 25.724 95.0068 23.2769C92.574 20.8298 89.3232 19.3674 85.8782 19.1703C82.4332 18.9732 79.0368 20.0553 76.3407 22.2089C73.6447 24.3626 71.8389 27.436 71.27 30.8394C71.1442 31.7941 71.1208 32.7596 71.2001 33.7194Z" fill="#FF002C"/>
<path opacity="0.3" d="M71.2001 33.7197C71.4626 36.9067 72.8083 39.9078 75.0133 42.2238C77.2183 44.5398 80.1498 46.0311 83.32 46.4497C83.52 46.4497 83.73 46.4997 83.94 46.5097C84.8249 46.5899 85.7152 46.5899 86.6 46.5097C86.91 46.5097 87.23 46.4397 87.53 46.3897L88.2001 46.2597C90.985 45.6205 93.5077 44.1444 95.4294 42.0297C97.351 39.915 98.5796 37.263 98.9501 34.4297C99.0312 33.7662 99.068 33.0981 99.06 32.4297C98.7395 29.3552 97.362 26.4873 95.1626 24.3153C92.9633 22.1432 90.0783 20.8017 87 20.5197C79.35 19.6097 72.34 24.6797 71.32 31.8397C71.2358 32.4628 71.1957 33.091 71.2001 33.7197Z" fill="#FF002C"/>
</svg>
