<svg width="500" height="500" viewBox="0 0 500 500" fill="none" xmlns="http://www.w3.org/2000/svg">
<path d="M500 382.4H0V382.65H500V382.4Z" fill="#EBEBEB"/>
<path d="M449.9 398.49H416.78V398.74H449.9V398.49Z" fill="#EBEBEB"/>
<path d="M331.22 401.21H322.53V401.46H331.22V401.21Z" fill="#EBEBEB"/>
<path d="M415.78 389.21H396.59V389.46H415.78V389.21Z" fill="#EBEBEB"/>
<path d="M95.65 390.89H52.46V391.14H95.65V390.89Z" fill="#EBEBEB"/>
<path d="M110.89 390.89H104.56V391.14H110.89V390.89Z" fill="#EBEBEB"/>
<path d="M225.15 395.11H131.47V395.36H225.15V395.11Z" fill="#EBEBEB"/>
<path d="M237 337.8H43.91C42.3973 337.797 40.9475 337.195 39.8788 336.124C38.8102 335.053 38.21 333.603 38.21 332.09V60.66C38.2231 59.156 38.8292 57.718 39.8964 56.6582C40.9637 55.5985 42.4059 55.0026 43.91 55H237C238.514 55 239.967 55.6016 241.038 56.6724C242.108 57.7433 242.71 59.1956 242.71 60.71V332.09C242.71 333.604 242.108 335.057 241.038 336.128C239.967 337.198 238.514 337.8 237 337.8ZM43.91 55.2C42.4636 55.2026 41.0774 55.7791 40.0556 56.8027C39.0338 57.8264 38.46 59.2136 38.46 60.66V332.09C38.46 333.536 39.0338 334.924 40.0556 335.947C41.0774 336.971 42.4636 337.547 43.91 337.55H237C238.447 337.547 239.834 336.971 240.858 335.948C241.881 334.924 242.457 333.537 242.46 332.09V60.66C242.457 59.2127 241.881 57.8255 240.858 56.8021C239.834 55.7787 238.447 55.2026 237 55.2H43.91Z" fill="#EBEBEB"/>
<path d="M453.31 337.8H260.21C258.696 337.797 257.246 337.195 256.175 336.125C255.105 335.054 254.503 333.604 254.5 332.09V60.66C254.516 59.1551 255.124 57.7171 256.193 56.6576C257.262 55.5981 258.705 55.0025 260.21 55H453.31C454.812 55.0052 456.252 55.6022 457.317 56.6617C458.382 57.7212 458.987 59.1578 459 60.66V332.09C459 333.601 458.401 335.05 457.335 336.121C456.268 337.191 454.821 337.795 453.31 337.8ZM260.21 55.2C258.763 55.2026 257.375 55.7787 256.352 56.8021C255.329 57.8255 254.753 59.2127 254.75 60.66V332.09C254.753 333.537 255.329 334.924 256.352 335.948C257.375 336.971 258.763 337.547 260.21 337.55H453.31C454.757 337.547 456.145 336.971 457.168 335.948C458.191 334.924 458.767 333.537 458.77 332.09V60.66C458.767 59.2127 458.191 57.8255 457.168 56.8021C456.145 55.7787 454.757 55.2026 453.31 55.2H260.21Z" fill="#EBEBEB"/>
<path d="M395 149C395 149 396.1 141.73 390.8 137.07C385.5 132.41 385.96 129.63 387.47 129.27C388.98 128.91 390.39 133.57 392.72 134.85C392.72 134.85 392.79 128.21 390.43 125.76C388.07 123.31 386.81 117.01 389.07 116.9C391.33 116.79 391.55 120.64 392.02 123.38C392.49 126.12 395.02 129.96 395.02 129.96C395.02 129.96 395.51 123.96 397.02 121.57C398.53 119.18 394.47 113.57 396.02 111.08C397.57 108.59 400.39 113.29 400.16 118.53C399.93 123.77 396.43 129.37 397.24 134.85C397.24 134.85 398.79 131.01 400.17 130.66C401.55 130.31 402.96 127.76 403.89 126.82C404.82 125.88 405.99 129.14 403.89 132.17C401.79 135.2 396.43 143.31 397.24 149.86L395 149Z" fill="#E6E6E6"/>
<path d="M391.87 145.73L390.13 156.63C390.01 157.418 390.063 158.223 390.282 158.989C390.502 159.755 390.885 160.464 391.404 161.069C391.924 161.674 392.567 162.159 393.291 162.493C394.015 162.826 394.803 162.999 395.6 163H397.45C398.251 163 399.043 162.826 399.771 162.49C400.498 162.155 401.145 161.665 401.665 161.056C402.186 160.447 402.569 159.733 402.787 158.962C403.005 158.191 403.054 157.382 402.93 156.59L401.19 145.69L391.87 145.73Z" fill="#E6E6E6"/>
<path d="M418.13 159.02H295.38V165.33H418.13V159.02Z" fill="#E0E0E0"/>
<path d="M306.44 135.77H301.03V159.02H306.44V135.77Z" fill="#EBEBEB"/>
<path d="M332.59 135.77H327.18V159.02H332.59V135.77Z" fill="#EBEBEB"/>
<path d="M363.949 135.746L358.593 136.666L362.545 159.683L367.901 158.763L363.949 135.746Z" fill="#EBEBEB"/>
<path d="M313.14 138.84H307.73V159.02H313.14V138.84Z" fill="#EBEBEB"/>
<path d="M325.57 138.84H320.16V159.02H325.57V138.84Z" fill="#EBEBEB"/>
<path d="M356.95 138.84H351.54V159.02H356.95V138.84Z" fill="#EBEBEB"/>
<path d="M339.701 138.125L334.42 139.299L338.798 158.998L344.079 157.824L339.701 138.125Z" fill="#EBEBEB"/>
<path d="M317.81 134.62H315.11V159.02H317.81V134.62Z" fill="#EBEBEB"/>
<path d="M349.98 134.62H347.28V159.02H349.98V134.62Z" fill="#EBEBEB"/>
<path d="M295.38 212.41L418.13 212.41V206.1L295.38 206.1V212.41Z" fill="#E0E0E0"/>
<path d="M407.08 206.11H412.49V182.86H407.08V206.11Z" fill="#EBEBEB"/>
<path d="M380.93 206.11H386.34V182.86H380.93V206.11Z" fill="#EBEBEB"/>
<path d="M347.285 205.182L352.616 206.101L356.566 183.189L351.234 182.27L347.285 205.182Z" fill="#EBEBEB"/>
<path d="M400.37 206.1H405.78V185.92H400.37V206.1Z" fill="#EBEBEB"/>
<path d="M387.94 206.1H393.35V185.92H387.94V206.1Z" fill="#EBEBEB"/>
<path d="M356.57 206.1H361.98V185.92H356.57V206.1Z" fill="#EBEBEB"/>
<path d="M369.458 204.914L374.739 206.087L379.117 186.388L373.836 185.214L369.458 204.914Z" fill="#EBEBEB"/>
<path d="M395.7 206.1H398.4V181.7H395.7V206.1Z" fill="#EBEBEB"/>
<path d="M363.54 206.1H366.24V181.7H363.54V206.1Z" fill="#EBEBEB"/>
<path d="M307.16 205.9H333.51V187.71H307.16V205.9Z" fill="#EBEBEB"/>
<path d="M80.0505 227.72H85.2305L85.2305 118.75H80.0505L80.0505 227.72Z" fill="#E0E0E0"/>
<path d="M179.1 118.74H80.5703V227.71H179.1V118.74Z" fill="#E0E0E0"/>
<path d="M182.24 118.74H80.0498V227.71H182.24V118.74Z" fill="#F0F0F0"/>
<path d="M177.92 122.22H84.21V222.71H177.92V122.22Z" fill="white"/>
<path d="M177.92 122.22H175.21V222.71H177.92V122.22Z" fill="#E0E0E0"/>
<path d="M83.9697 194.48V197.19H175.5V194.48H83.9697Z" fill="#E0E0E0"/>
<path d="M177.93 189.93H82.7598V194.48H177.93V189.93Z" fill="#F0F0F0"/>
<path d="M194.45 266.37H107.2C102.654 266.37 98.2941 268.176 95.0798 271.39C91.8654 274.605 90.0596 278.964 90.0596 283.51V351.64H211.59V283.51C211.59 281.259 211.146 279.03 210.285 276.951C209.424 274.871 208.161 272.982 206.569 271.39C204.978 269.799 203.088 268.536 201.009 267.675C198.929 266.813 196.7 266.37 194.45 266.37Z" fill="#E6E6E6"/>
<path d="M237.38 316.87H221.77C220.433 316.87 219.109 317.133 217.874 317.645C216.639 318.157 215.517 318.906 214.572 319.852C213.626 320.797 212.876 321.919 212.365 323.154C211.853 324.39 211.59 325.713 211.59 327.05V383.4H247.59V327.05C247.589 325.711 247.323 324.385 246.809 323.149C246.295 321.913 245.543 320.79 244.595 319.844C243.646 318.899 242.521 318.149 241.283 317.639C240.045 317.129 238.719 316.868 237.38 316.87Z" fill="#E0E0E0"/>
<path d="M237.38 316.87H237.05C234.35 316.87 231.761 317.943 229.852 319.852C227.943 321.761 226.87 324.35 226.87 327.05V383.4H247.57V327.05C247.567 324.349 246.493 321.76 244.582 319.851C242.671 317.942 240.081 316.87 237.38 316.87Z" fill="#EBEBEB"/>
<path d="M222.51 357.51H102.77V383.39H222.51V357.51Z" fill="#E6E6E6"/>
<path d="M222.69 333.84H107.2C101.483 333.84 96.8496 338.474 96.8496 344.19V350.64C96.8496 356.356 101.483 360.99 107.2 360.99H222.69C228.406 360.99 233.04 356.356 233.04 350.64V344.19C233.04 338.474 228.406 333.84 222.69 333.84Z" fill="#F5F5F5"/>
<path d="M121.72 333.84H107.39C101.674 333.84 97.04 338.474 97.04 344.19V350.64C97.04 356.356 101.674 360.99 107.39 360.99H121.72C127.436 360.99 132.07 356.356 132.07 350.64V344.19C132.07 338.474 127.436 333.84 121.72 333.84Z" fill="#E0E0E0"/>
<path d="M105.85 316.87H90.2298C87.5299 316.87 84.9406 317.943 83.0315 319.852C81.1223 321.761 80.0498 324.35 80.0498 327.05V383.4H116.05V327.05C116.05 325.712 115.786 324.386 115.273 323.15C114.76 321.913 114.008 320.79 113.061 319.845C112.114 318.899 110.989 318.15 109.752 317.639C108.514 317.129 107.188 316.868 105.85 316.87Z" fill="#E0E0E0"/>
<path d="M105.85 316.87H105.52C102.819 316.87 100.229 317.942 98.3182 319.851C96.4075 321.76 95.3327 324.349 95.3301 327.05V383.4H116V327.05C116 324.355 114.932 321.771 113.029 319.862C111.126 317.954 108.545 316.878 105.85 316.87Z" fill="#F0F0F0"/>
<path d="M250 427.56C357.083 427.56 443.89 422.492 443.89 416.24C443.89 409.988 357.083 404.92 250 404.92C142.918 404.92 56.1104 409.988 56.1104 416.24C56.1104 422.492 142.918 427.56 250 427.56Z" fill="#F5F5F5"/>
<path d="M106.34 394.16C106.34 394.16 111.09 383.8 105.66 373.58C100.23 363.36 98.6599 360.96 102.12 358.86C105.58 356.76 107.12 367.04 107.12 367.04C108.836 362.399 109.015 357.33 107.63 352.58C105.22 345.19 103.71 333.15 107 331.86C110.29 330.57 107.63 346.86 110.48 352.44C111.936 348.536 112.874 344.458 113.27 340.31C113.67 334.37 113.05 324.89 115.65 322.46C118.25 320.03 119.91 321.71 117.36 334.81C115.821 342.641 114.971 350.591 114.82 358.57C114.82 358.57 120.46 341.38 124.24 340.88C128.02 340.38 128.02 345.94 124.78 350.77C121.54 355.6 115.3 364.25 114.28 368.7C114.28 368.7 120.46 355.76 126.03 359.7C131.6 363.64 121.18 371.47 116.54 374.3C111.9 377.13 108.68 394.81 108.68 394.81L106.34 394.16Z" fill="#FF002C"/>
<path opacity="0.2" d="M106.34 394.16C106.34 394.16 111.09 383.8 105.66 373.58C100.23 363.36 98.6599 360.96 102.12 358.86C105.58 356.76 107.12 367.04 107.12 367.04C108.836 362.399 109.015 357.33 107.63 352.58C105.22 345.19 103.71 333.15 107 331.86C110.29 330.57 107.63 346.86 110.48 352.44C111.936 348.536 112.874 344.458 113.27 340.31C113.67 334.37 113.05 324.89 115.65 322.46C118.25 320.03 119.91 321.71 117.36 334.81C115.821 342.641 114.971 350.591 114.82 358.57C114.82 358.57 120.46 341.38 124.24 340.88C128.02 340.38 128.02 345.94 124.78 350.77C121.54 355.6 115.3 364.25 114.28 368.7C114.28 368.7 120.46 355.76 126.03 359.7C131.6 363.64 121.18 371.47 116.54 374.3C111.9 377.13 108.68 394.81 108.68 394.81L106.34 394.16Z" fill="black"/>
<path d="M110.09 398.41C110.09 398.41 105.47 387.98 111.02 377.84C116.57 367.7 118.17 365.32 114.73 363.18C111.29 361.04 109.59 371.28 109.59 371.28C107.932 366.62 107.813 361.552 109.25 356.82C111.75 349.46 113.4 337.44 110.13 336.1C106.86 334.76 109.32 351.1 106.4 356.63C104.995 352.705 104.107 348.614 103.76 344.46C103.44 338.52 104.16 329.05 101.6 326.58C99.0396 324.11 97.3496 325.77 99.7396 338.91C101.186 346.755 101.942 354.712 102 362.69C102 362.69 96.5696 345.42 92.7896 344.87C89.0096 344.32 88.9496 349.87 92.1296 354.75C95.3096 359.63 101.45 368.37 102.43 372.83C102.43 372.83 96.4296 359.83 90.7796 363.69C85.1296 367.55 95.4796 375.53 100.09 378.43C104.7 381.33 107.7 399.06 107.7 399.06L110.09 398.41Z" fill="#FF002C"/>
<path d="M88.7598 390.97H126.97L123.88 418.32H91.8498L88.7598 390.97Z" fill="#263238"/>
<path d="M360.31 413.22H355.89V176.63H351.14V413.22H346.72L343.72 418.32H351.14H355.89H363.31L360.31 413.22Z" fill="#263238"/>
<path d="M388.193 182.859C392.714 163.702 380.85 144.506 361.693 139.985C342.535 135.463 323.34 147.328 318.819 166.485C314.297 185.642 326.162 204.837 345.319 209.359C364.476 213.88 383.671 202.016 388.193 182.859Z" fill="#FF002C"/>
<path opacity="0.8" d="M353.51 206.33C370.984 206.33 385.15 192.165 385.15 174.69C385.15 157.216 370.984 143.05 353.51 143.05C336.036 143.05 321.87 157.216 321.87 174.69C321.87 192.165 336.036 206.33 353.51 206.33Z" fill="white"/>
<path d="M357.63 168.38C357.63 166.12 355.7 164.59 352.63 164.59C351.352 164.508 350.075 164.75 348.916 165.294C347.757 165.838 346.754 166.665 346 167.7L342.09 165.16C344.35 162.09 347.98 160.24 353.02 160.24C358.94 160.24 362.9 162.94 362.9 167.58C362.9 174.15 356 174.75 356 179.51H350.9C350.9 173.54 357.63 172.41 357.63 168.38ZM350.26 186C350.246 185.363 350.422 184.736 350.766 184.199C351.11 183.662 351.605 183.24 352.19 182.986C352.774 182.732 353.421 182.658 354.048 182.773C354.675 182.888 355.254 183.187 355.71 183.632C356.167 184.077 356.48 184.648 356.611 185.272C356.742 185.896 356.684 186.544 356.444 187.135C356.205 187.726 355.796 188.232 355.268 188.589C354.74 188.946 354.117 189.138 353.48 189.14C353.06 189.155 352.641 189.085 352.249 188.933C351.857 188.782 351.499 188.552 351.198 188.259C350.897 187.965 350.659 187.614 350.498 187.226C350.336 186.837 350.256 186.421 350.26 186Z" fill="#FF002C"/>
<path opacity="0.3" d="M360.31 413.22H355.89V219.66L351.14 216.66V413.22H346.72L343.72 418.32H351.14H355.89H363.31L360.31 413.22Z" fill="white"/>
<path d="M333.779 413.22H270.979V276.27L300.759 247.25H333.779V413.22Z" fill="#263238"/>
<path opacity="0.7" d="M333.779 413.22H270.979V276.27L300.759 247.25H333.779V413.22Z" fill="white"/>
<path opacity="0.2" d="M333.78 413.22H304V276.27L333.78 247.25V413.22Z" fill="black"/>
<path opacity="0.4" d="M270.979 276.27H303.999L333.779 247.25H300.759L270.979 276.27Z" fill="white"/>
<path opacity="0.5" d="M304.446 266.105C311.558 263.812 316.593 259.691 315.693 256.9C314.794 254.108 308.299 253.705 301.187 255.998C294.075 258.291 289.039 262.412 289.939 265.203C290.839 267.994 297.334 268.398 304.446 266.105Z" fill="black"/>
<path opacity="0.5" d="M311.299 259.43C308.179 262.38 301.629 264.77 296.679 264.77C291.729 264.77 290.219 262.38 293.339 259.43C296.459 256.48 303.009 254.08 307.959 254.08C312.909 254.08 314.419 256.47 311.299 259.43Z" fill="black"/>
<path d="M302.853 261.159C309.339 259.068 313.931 255.306 313.109 252.757C312.287 250.207 306.363 249.836 299.876 251.927C293.39 254.019 288.798 257.781 289.62 260.33C290.442 262.879 296.367 263.251 302.853 261.159Z" fill="#FF002C"/>
<path opacity="0.1" d="M306.79 255.05C304.64 257.05 300.12 258.73 296.7 258.73C293.28 258.73 292.25 257.08 294.4 255.05C296.55 253.02 301.07 251.36 304.49 251.36C307.91 251.36 308.94 253 306.79 255.05Z" fill="white"/>
<path opacity="0.2" d="M311.4 256.52C307.92 259.82 300.62 262.52 295.09 262.52C291.54 262.52 289.59 261.43 289.55 259.77C290.27 260.77 292.04 261.42 294.73 261.42C300.26 261.42 307.57 258.75 311.05 255.42C311.551 255.036 311.97 254.557 312.282 254.009C312.595 253.461 312.794 252.856 312.87 252.23C313.62 253.31 313.18 254.83 311.4 256.52Z" fill="black"/>
<path opacity="0.2" d="M273.52 310.43L272.7 311.25V279.64H301.62L300.95 280.89L273.52 310.43Z" fill="black"/>
<path opacity="0.4" d="M301.62 279.64V311.25H272.7L273.52 310.43L300.95 280.89L301.62 279.64Z" fill="white"/>
<path d="M277.44 280.89H273.52V285.11H277.44V280.89Z" fill="#263238"/>
<path d="M281.359 280.89H277.439V285.11H281.359V280.89Z" fill="#263238"/>
<path d="M285.279 280.89H281.359V285.11H285.279V280.89Z" fill="#263238"/>
<path d="M289.199 280.89H285.279V285.11H289.199V280.89Z" fill="#263238"/>
<path d="M293.12 280.89H289.2V285.11H293.12V280.89Z" fill="#263238"/>
<path d="M297.04 280.89H293.12V285.11H297.04V280.89Z" fill="#263238"/>
<path d="M300.949 280.89H297.029V285.11H300.949V280.89Z" fill="#263238"/>
<path d="M277.44 285.11H273.52V289.33H277.44V285.11Z" fill="#263238"/>
<path d="M281.359 285.11H277.439V289.33H281.359V285.11Z" fill="#263238"/>
<path d="M285.279 285.11H281.359V289.33H285.279V285.11Z" fill="#263238"/>
<path d="M289.199 285.11H285.279V289.33H289.199V285.11Z" fill="#263238"/>
<path d="M293.12 285.11H289.2V289.33H293.12V285.11Z" fill="#263238"/>
<path d="M297.04 285.11H293.12V289.33H297.04V285.11Z" fill="#263238"/>
<path d="M300.949 285.11H297.029V289.33H300.949V285.11Z" fill="#263238"/>
<path d="M277.44 289.33H273.52V293.55H277.44V289.33Z" fill="#263238"/>
<path d="M281.359 289.33H277.439V293.55H281.359V289.33Z" fill="#263238"/>
<path d="M285.279 289.33H281.359V293.55H285.279V289.33Z" fill="#263238"/>
<path d="M289.199 289.33H285.279V293.55H289.199V289.33Z" fill="#263238"/>
<path d="M293.12 289.33H289.2V293.55H293.12V289.33Z" fill="#263238"/>
<path d="M297.04 289.33H293.12V293.55H297.04V289.33Z" fill="#263238"/>
<path d="M300.949 289.33H297.029V293.55H300.949V289.33Z" fill="#263238"/>
<path d="M277.44 293.55H273.52V297.77H277.44V293.55Z" fill="#263238"/>
<path d="M281.359 293.55H277.439V297.77H281.359V293.55Z" fill="#263238"/>
<path d="M285.279 293.55H281.359V297.77H285.279V293.55Z" fill="#263238"/>
<path d="M289.199 293.55H285.279V297.77H289.199V293.55Z" fill="#263238"/>
<path d="M293.12 293.55H289.2V297.77H293.12V293.55Z" fill="#263238"/>
<path d="M297.04 293.55H293.12V297.77H297.04V293.55Z" fill="#263238"/>
<path d="M300.949 293.55H297.029V297.77H300.949V293.55Z" fill="#263238"/>
<path d="M277.44 297.77H273.52V301.99H277.44V297.77Z" fill="#263238"/>
<path d="M281.359 297.77H277.439V301.99H281.359V297.77Z" fill="#263238"/>
<path d="M285.279 297.77H281.359V301.99H285.279V297.77Z" fill="#263238"/>
<path d="M289.199 297.77H285.279V301.99H289.199V297.77Z" fill="#263238"/>
<path d="M293.12 297.77H289.2V301.99H293.12V297.77Z" fill="#263238"/>
<path d="M297.04 297.77H293.12V301.99H297.04V297.77Z" fill="#263238"/>
<path d="M300.949 297.77H297.029V301.99H300.949V297.77Z" fill="#263238"/>
<path d="M277.44 301.99H273.52V306.21H277.44V301.99Z" fill="#263238"/>
<path d="M281.359 301.99H277.439V306.21H281.359V301.99Z" fill="#263238"/>
<path d="M285.279 301.99H281.359V306.21H285.279V301.99Z" fill="#263238"/>
<path d="M289.199 301.99H285.279V306.21H289.199V301.99Z" fill="#263238"/>
<path d="M293.12 301.99H289.2V306.21H293.12V301.99Z" fill="#263238"/>
<path d="M297.04 301.99H293.12V306.21H297.04V301.99Z" fill="#263238"/>
<path d="M300.949 301.99H297.029V306.21H300.949V301.99Z" fill="#263238"/>
<path d="M277.44 306.21H273.52V310.43H277.44V306.21Z" fill="#263238"/>
<path d="M281.359 306.21H277.439V310.43H281.359V306.21Z" fill="#263238"/>
<path d="M285.279 306.21H281.359V310.43H285.279V306.21Z" fill="#263238"/>
<path d="M289.199 306.21H285.279V310.43H289.199V306.21Z" fill="#263238"/>
<path d="M293.12 306.21H289.2V310.43H293.12V306.21Z" fill="#263238"/>
<path d="M297.04 306.21H293.12V310.43H297.04V306.21Z" fill="#263238"/>
<path d="M300.949 306.21H297.029V310.43H300.949V306.21Z" fill="#263238"/>
<path d="M297.04 285.11H293.12V289.33H297.04V285.11Z" fill="#FF002C"/>
<path d="M293.12 289.33H289.2V293.55H293.12V289.33Z" fill="#FF002C"/>
<path d="M289.199 293.55H285.279V297.77H289.199V293.55Z" fill="#FF002C"/>
<path d="M285.279 297.77H281.359V301.99H285.279V297.77Z" fill="#FF002C"/>
<path d="M281.359 293.55H277.439V297.77H281.359V293.55Z" fill="#FF002C"/>
<path d="M335.72 408.12H267.72L264.51 418.32H338.93L335.72 408.12Z" fill="#FF002C"/>
<path opacity="0.2" d="M301.62 418.32L301.72 408.22L335.72 408.12L338.93 418.32H301.62Z" fill="black"/>
<path d="M403.83 413.22H341.02V276.27L370.81 247.25H403.83V413.22Z" fill="#263238"/>
<path opacity="0.7" d="M403.83 413.22H341.02V276.27L370.81 247.25H403.83V413.22Z" fill="white"/>
<path opacity="0.2" d="M403.83 413.22H374.04V276.27L403.83 247.25V413.22Z" fill="black"/>
<path opacity="0.4" d="M341.02 276.27H374.04L403.83 247.25H370.81L341.02 276.27Z" fill="white"/>
<path opacity="0.5" d="M374.495 266.099C381.607 263.806 386.643 259.685 385.743 256.894C384.843 254.103 378.349 253.699 371.237 255.992C364.125 258.285 359.089 262.406 359.989 265.197C360.889 267.989 367.384 268.392 374.495 266.099Z" fill="black"/>
<path opacity="0.5" d="M381.34 259.43C378.22 262.38 371.68 264.77 366.72 264.77C361.76 264.77 360.27 262.38 363.39 259.43C366.51 256.48 373.05 254.08 378.01 254.08C382.97 254.08 384.46 256.47 381.34 259.43Z" fill="black"/>
<path d="M372.904 261.164C379.39 259.072 383.982 255.31 383.16 252.761C382.338 250.212 376.414 249.84 369.927 251.932C363.441 254.023 358.849 257.785 359.671 260.334C360.493 262.884 366.417 263.255 372.904 261.164Z" fill="#FF002C"/>
<path opacity="0.1" d="M376.83 255.05C374.68 257.05 370.17 258.73 366.75 258.73C363.33 258.73 362.3 257.08 364.45 255.05C366.6 253.02 371.11 251.36 374.53 251.36C377.95 251.36 379 253 376.83 255.05Z" fill="white"/>
<path opacity="0.2" d="M381.44 256.52C377.97 259.82 370.66 262.52 365.13 262.52C361.59 262.52 359.63 261.43 359.6 259.77C360.31 260.77 362.09 261.42 364.77 261.42C370.31 261.42 377.61 258.75 381.09 255.42C381.592 255.038 382.012 254.559 382.325 254.011C382.638 253.462 382.836 252.857 382.91 252.23C383.66 253.31 383.23 254.83 381.44 256.52Z" fill="black"/>
<path opacity="0.2" d="M343.57 310.43L342.75 311.25V279.64H371.67L371 280.89L343.57 310.43Z" fill="black"/>
<path opacity="0.4" d="M371.67 279.64V311.25H342.75L343.57 310.43L371 280.89L371.67 279.64Z" fill="white"/>
<path d="M347.489 280.89H343.569V285.11H347.489V280.89Z" fill="#263238"/>
<path d="M351.409 280.89H347.489V285.11H351.409V280.89Z" fill="#263238"/>
<path d="M355.319 280.89H351.399V285.11H355.319V280.89Z" fill="#263238"/>
<path d="M359.239 280.89H355.319V285.11H359.239V280.89Z" fill="#263238"/>
<path d="M363.159 280.89H359.239V285.11H363.159V280.89Z" fill="#263238"/>
<path d="M367.079 280.89H363.159V285.11H367.079V280.89Z" fill="#263238"/>
<path d="M370.999 280.89H367.079V285.11H370.999V280.89Z" fill="#263238"/>
<path d="M347.489 285.11H343.569V289.33H347.489V285.11Z" fill="#263238"/>
<path d="M351.409 285.11H347.489V289.33H351.409V285.11Z" fill="#263238"/>
<path d="M355.319 285.11H351.399V289.33H355.319V285.11Z" fill="#263238"/>
<path d="M359.239 285.11H355.319V289.33H359.239V285.11Z" fill="#263238"/>
<path d="M363.159 285.11H359.239V289.33H363.159V285.11Z" fill="#263238"/>
<path d="M367.079 285.11H363.159V289.33H367.079V285.11Z" fill="#263238"/>
<path d="M370.999 285.11H367.079V289.33H370.999V285.11Z" fill="#263238"/>
<path d="M347.489 289.33H343.569V293.55H347.489V289.33Z" fill="#263238"/>
<path d="M351.409 289.33H347.489V293.55H351.409V289.33Z" fill="#263238"/>
<path d="M355.319 289.33H351.399V293.55H355.319V289.33Z" fill="#263238"/>
<path d="M359.239 289.33H355.319V293.55H359.239V289.33Z" fill="#263238"/>
<path d="M363.159 289.33H359.239V293.55H363.159V289.33Z" fill="#263238"/>
<path d="M367.079 289.33H363.159V293.55H367.079V289.33Z" fill="#263238"/>
<path d="M370.999 289.33H367.079V293.55H370.999V289.33Z" fill="#263238"/>
<path d="M347.489 293.55H343.569V297.77H347.489V293.55Z" fill="#263238"/>
<path d="M351.409 293.55H347.489V297.77H351.409V293.55Z" fill="#263238"/>
<path d="M355.319 293.55H351.399V297.77H355.319V293.55Z" fill="#263238"/>
<path d="M359.239 293.55H355.319V297.77H359.239V293.55Z" fill="#263238"/>
<path d="M363.159 293.55H359.239V297.77H363.159V293.55Z" fill="#263238"/>
<path d="M367.079 293.55H363.159V297.77H367.079V293.55Z" fill="#263238"/>
<path d="M370.999 293.55H367.079V297.77H370.999V293.55Z" fill="#263238"/>
<path d="M347.489 297.77H343.569V301.99H347.489V297.77Z" fill="#263238"/>
<path d="M351.409 297.77H347.489V301.99H351.409V297.77Z" fill="#263238"/>
<path d="M355.319 297.77H351.399V301.99H355.319V297.77Z" fill="#263238"/>
<path d="M359.239 297.77H355.319V301.99H359.239V297.77Z" fill="#263238"/>
<path d="M363.159 297.77H359.239V301.99H363.159V297.77Z" fill="#263238"/>
<path d="M367.079 297.77H363.159V301.99H367.079V297.77Z" fill="#263238"/>
<path d="M370.999 297.77H367.079V301.99H370.999V297.77Z" fill="#263238"/>
<path d="M347.489 301.99H343.569V306.21H347.489V301.99Z" fill="#263238"/>
<path d="M351.409 301.99H347.489V306.21H351.409V301.99Z" fill="#263238"/>
<path d="M355.319 301.99H351.399V306.21H355.319V301.99Z" fill="#263238"/>
<path d="M359.239 301.99H355.319V306.21H359.239V301.99Z" fill="#263238"/>
<path d="M363.159 301.99H359.239V306.21H363.159V301.99Z" fill="#263238"/>
<path d="M367.079 301.99H363.159V306.21H367.079V301.99Z" fill="#263238"/>
<path d="M370.999 301.99H367.079V306.21H370.999V301.99Z" fill="#263238"/>
<path d="M347.489 306.21H343.569V310.43H347.489V306.21Z" fill="#263238"/>
<path d="M351.409 306.21H347.489V310.43H351.409V306.21Z" fill="#263238"/>
<path d="M355.319 306.21H351.399V310.43H355.319V306.21Z" fill="#263238"/>
<path d="M359.239 306.21H355.319V310.43H359.239V306.21Z" fill="#263238"/>
<path d="M363.159 306.21H359.239V310.43H363.159V306.21Z" fill="#263238"/>
<path d="M367.079 306.21H363.159V310.43H367.079V306.21Z" fill="#263238"/>
<path d="M370.999 306.21H367.079V310.43H370.999V306.21Z" fill="#263238"/>
<path d="M351.409 285.11H347.489V289.33H351.409V285.11Z" fill="#FF002C"/>
<path d="M367.079 285.11H363.159V289.33H367.079V285.11Z" fill="#FF002C"/>
<path d="M355.319 289.33H351.399V293.55H355.319V289.33Z" fill="#FF002C"/>
<path d="M363.159 289.33H359.239V293.55H363.159V289.33Z" fill="#FF002C"/>
<path d="M359.239 293.55H355.319V297.77H359.239V293.55Z" fill="#FF002C"/>
<path d="M355.319 297.77H351.399V301.99H355.319V297.77Z" fill="#FF002C"/>
<path d="M363.159 297.77H359.239V301.99H363.159V297.77Z" fill="#FF002C"/>
<path d="M351.409 301.99H347.489V306.21H351.409V301.99Z" fill="#FF002C"/>
<path d="M367.079 301.99H363.159V306.21H367.079V301.99Z" fill="#FF002C"/>
<path d="M405.76 408.12H337.76L334.56 418.32H408.97L405.76 408.12Z" fill="#FF002C"/>
<path opacity="0.2" d="M371.67 418.32L371.76 408.22L405.76 408.12L408.97 418.32H371.67Z" fill="black"/>
<path d="M207.08 214.36C211.46 213.12 216.08 211.68 220.3 210.07C222.382 209.294 224.418 208.402 226.4 207.4C227.289 206.95 228.148 206.443 228.97 205.88C229.527 205.513 230.034 205.076 230.48 204.58C230.59 204.47 230.54 204.51 230.54 204.73C230.54 204.78 230.59 204.66 230.54 204.47C230.415 203.785 230.16 203.13 229.79 202.54C228.683 200.765 227.374 199.125 225.89 197.65C222.59 194.357 219.086 191.275 215.4 188.42L215.32 188.36C214.849 187.989 214.531 187.458 214.426 186.867C214.32 186.277 214.435 185.669 214.748 185.157C215.061 184.646 215.55 184.267 216.124 184.092C216.698 183.918 217.315 183.96 217.86 184.21C222.529 186.285 226.939 188.9 231 192C233.21 193.679 235.181 195.65 236.86 197.86C237.914 199.242 238.691 200.814 239.15 202.49C239.44 203.582 239.529 204.717 239.41 205.84C239.261 207.089 238.842 208.29 238.18 209.36C237.23 210.849 236.029 212.162 234.63 213.24C233.497 214.12 232.308 214.925 231.07 215.65C228.791 216.968 226.426 218.13 223.99 219.13C221.62 220.13 219.25 220.99 216.85 221.77C214.45 222.55 212.1 223.26 209.55 223.87C208.309 224.135 207.014 223.911 205.934 223.245C204.854 222.579 204.072 221.523 203.751 220.295C203.43 219.067 203.595 217.763 204.212 216.654C204.828 215.545 205.848 214.716 207.06 214.34L207.08 214.36Z" fill="#DD8A7D"/>
<path d="M202.6 211.65C202.6 211.65 213.76 211.18 221.6 208.55L225.36 222C225.36 222 208.61 232.41 204.03 228C199.45 223.59 202.6 211.65 202.6 211.65Z" fill="#FF002C"/>
<path opacity="0.7" d="M225.36 222C225.36 222 217.85 226.67 211.52 228.43C208.58 229.25 205.91 229.43 204.34 228.27C204.23 228.196 204.126 228.112 204.03 228.02C199.45 223.63 202.6 211.61 202.6 211.61C202.6 211.61 213.76 211.14 221.6 208.51L225.36 222Z" fill="white"/>
<path d="M220.22 208.55L224.31 223.53L226.29 222.6L222.2 207.55L220.22 208.55Z" fill="#FF002C"/>
<path opacity="0.5" d="M220.22 208.55L224.31 223.53L226.29 222.6L222.2 207.55L220.22 208.55Z" fill="white"/>
<path opacity="0.1" d="M211.52 228.47C208.58 229.29 205.91 229.47 204.34 228.31C204.076 225.111 204.45 221.893 205.44 218.84C205.44 218.84 209.29 220.26 211.52 228.47Z" fill="black"/>
<path d="M175.38 218.43C170.96 220.11 166.38 222.03 162.14 224.1C160.074 225.098 158.071 226.22 156.14 227.46C155.318 227.999 154.539 228.601 153.81 229.26C153.17 229.81 152.81 230.44 152.81 230.26C152.81 230.08 152.81 230.2 152.81 230.17C152.81 230.14 152.81 230.01 152.81 230.09C152.8 230.196 152.8 230.304 152.81 230.41V230.62V230.89C152.843 231.09 152.89 231.287 152.95 231.48C153.224 232.441 153.585 233.375 154.03 234.27C155.07 236.347 156.249 238.352 157.56 240.27C160.22 244.27 163.25 248.27 166.3 252.08L166.35 252.14C166.68 252.606 166.837 253.173 166.793 253.743C166.75 254.313 166.508 254.849 166.111 255.26C165.713 255.671 165.185 255.929 164.617 255.991C164.049 256.053 163.477 255.915 163 255.6C158.941 252.348 155.173 248.748 151.74 244.84C149.942 242.802 148.314 240.622 146.87 238.32C146.081 237.03 145.412 235.671 144.87 234.26C144.713 233.862 144.579 233.454 144.47 233.04L144.3 232.39L144.16 231.68C144.077 231.16 144.026 230.636 144.01 230.11C143.988 229.777 143.988 229.443 144.01 229.11C144.044 228.773 144.104 228.438 144.19 228.11C144.464 226.993 144.927 225.931 145.56 224.97C146.053 224.215 146.612 223.506 147.23 222.85C148.287 221.751 149.438 220.747 150.67 219.85C152.889 218.218 155.229 216.757 157.67 215.48C162.315 213.012 167.146 210.912 172.12 209.2C172.727 208.978 173.373 208.878 174.019 208.905C174.665 208.933 175.299 209.087 175.885 209.36C176.472 209.632 176.999 210.018 177.436 210.494C177.874 210.97 178.213 211.528 178.435 212.135C178.657 212.742 178.757 213.387 178.73 214.034C178.702 214.68 178.548 215.314 178.275 215.9C178.003 216.487 177.618 217.014 177.141 217.451C176.665 217.889 176.107 218.228 175.5 218.45L175.38 218.43Z" fill="#DD8A7D"/>
<path d="M219.28 184.87L215.52 179.32L211.18 186.61C211.18 186.61 215.43 190.61 217.79 188.56L219.28 184.87Z" fill="#E4897B"/>
<path d="M210.29 177.63L206.98 183.83L211.18 186.61L215.52 179.32L210.29 177.63Z" fill="#E4897B"/>
<path d="M216.53 411.8L210.02 413.65L208.47 403.51L207.64 398.09L214.15 396.25L215.26 403.51L216.53 411.8Z" fill="#E4897B"/>
<path d="M179.09 412.33L172.381 413.22L172.321 403.51L172.271 397.48L178.991 396.6L179.04 403.51L179.09 412.33Z" fill="#E4897B"/>
<path opacity="0.2" d="M178.991 396.6L179.04 403.51H172.321L172.271 397.48L178.991 396.6Z" fill="black"/>
<path opacity="0.2" d="M215.26 403.51H208.47L207.64 398.09L214.15 396.25L215.26 403.51Z" fill="black"/>
<path d="M216.45 410.79L209.06 410.59C208.926 410.584 208.794 410.624 208.687 410.704C208.579 410.785 208.503 410.9 208.47 411.03L206.91 417.03C206.878 417.173 206.878 417.321 206.909 417.464C206.94 417.607 207.002 417.741 207.09 417.857C207.179 417.974 207.292 418.069 207.422 418.137C207.551 418.205 207.694 418.243 207.84 418.25C210.51 418.25 214.37 418.25 217.73 418.32C221.65 418.42 224.14 418.23 228.73 418.32C231.51 418.39 232.38 415.61 231.23 415.32C225.97 414.02 222.53 414.32 218.06 411.32C217.584 410.996 217.026 410.813 216.45 410.79Z" fill="#263238"/>
<path d="M217 411.6C216.997 411.568 217.003 411.535 217.02 411.506C217.036 411.477 217.06 411.454 217.09 411.44C217.4 411.29 220.17 409.98 220.98 410.44C221.055 410.485 221.117 410.547 221.161 410.623C221.205 410.698 221.228 410.783 221.23 410.87C221.24 411.016 221.216 411.161 221.159 411.295C221.101 411.429 221.012 411.548 220.9 411.64C220.13 412.28 218.2 411.96 217.12 411.71C217.092 411.704 217.066 411.691 217.045 411.672C217.024 411.652 217.008 411.628 217 411.6ZM217.66 411.53C219.15 411.82 220.26 411.78 220.66 411.43C220.736 411.37 220.796 411.292 220.835 411.203C220.873 411.114 220.889 411.017 220.88 410.92C220.879 410.884 220.87 410.849 220.852 410.818C220.835 410.786 220.81 410.76 220.78 410.74H220.72C220.24 410.53 218.74 411.05 217.65 411.53H217.66Z" fill="#FF002C"/>
<path d="M217.05 411.71C217.027 411.696 217.009 411.675 216.998 411.65C216.987 411.625 216.984 411.597 216.99 411.57C217.089 410.614 217.488 409.715 218.13 409C218.256 408.899 218.4 408.825 218.555 408.782C218.709 408.739 218.871 408.728 219.03 408.75C219.47 408.81 219.59 409.03 219.61 409.21C219.71 409.98 218.04 411.39 217.21 411.73C217.172 411.745 217.129 411.745 217.09 411.73L217.05 411.71ZM218.99 409.07C218.874 409.049 218.754 409.055 218.64 409.086C218.526 409.117 218.42 409.173 218.33 409.25C217.79 409.812 217.44 410.529 217.33 411.3C218.18 410.83 219.33 409.71 219.26 409.25C219.26 409.25 219.26 409.15 219.12 409.1C219.082 409.086 219.041 409.076 219 409.07H218.99Z" fill="#FF002C"/>
<path d="M178.83 410.79L171.43 410.59C171.296 410.584 171.163 410.624 171.056 410.704C170.948 410.785 170.872 410.9 170.84 411.03L169.28 417.03C169.247 417.173 169.247 417.321 169.278 417.464C169.309 417.607 169.371 417.741 169.46 417.857C169.548 417.974 169.661 418.069 169.791 418.137C169.921 418.205 170.063 418.243 170.21 418.25C172.88 418.25 176.74 418.25 180.1 418.32C184.02 418.42 186.51 418.23 191.1 418.32C193.88 418.39 194.75 415.61 193.6 415.32C188.34 414.02 184.9 414.32 180.43 411.32C179.956 410.998 179.402 410.814 178.83 410.79Z" fill="#263238"/>
<path d="M179.36 411.6C179.357 411.568 179.364 411.535 179.38 411.506C179.396 411.477 179.421 411.454 179.45 411.44C179.76 411.29 182.53 409.98 183.34 410.44C183.415 410.485 183.477 410.547 183.521 410.623C183.565 410.698 183.589 410.783 183.59 410.87C183.601 411.016 183.576 411.161 183.519 411.295C183.462 411.429 183.373 411.548 183.26 411.64C182.49 412.28 180.56 411.96 179.48 411.71C179.452 411.704 179.426 411.691 179.405 411.672C179.384 411.652 179.368 411.628 179.36 411.6ZM180.02 411.53C181.51 411.82 182.63 411.78 183.02 411.43C183.093 411.368 183.151 411.29 183.187 411.201C183.224 411.112 183.238 411.016 183.23 410.92C183.231 410.884 183.223 410.848 183.205 410.816C183.187 410.785 183.162 410.758 183.13 410.74C182.61 410.53 181.12 411.05 180 411.53H180.02Z" fill="#FF002C"/>
<path d="M179.42 411.71C179.396 411.696 179.378 411.675 179.367 411.65C179.356 411.625 179.354 411.597 179.36 411.57C179.458 410.614 179.857 409.715 180.5 409C180.625 408.899 180.769 408.825 180.924 408.782C181.079 408.739 181.24 408.728 181.4 408.75C181.84 408.81 181.96 409.03 181.98 409.21C182.08 409.98 180.41 411.39 179.58 411.73C179.541 411.745 179.498 411.745 179.46 411.73L179.42 411.71ZM181.36 409.07C181.243 409.049 181.124 409.055 181.009 409.086C180.895 409.117 180.789 409.173 180.7 409.25C180.159 409.812 179.809 410.529 179.7 411.3C180.55 410.83 181.7 409.71 181.63 409.25C181.63 409.25 181.63 409.15 181.49 409.1C181.448 409.085 181.404 409.075 181.36 409.07Z" fill="#FF002C"/>
<path d="M165.24 264.72C161.69 280.14 167.79 401.44 167.79 401.44H179.59L184.59 300.35L203.17 401.44L215.78 400.52C207.53 322.21 200.25 275.46 200.25 275.46V269.55L165.24 264.72Z" fill="#263238"/>
<path opacity="0.2" d="M215.82 400.52L203.21 401.44L188.59 321.86L184.59 300.35L179.59 401.44H167.79C167.79 401.44 161.69 280.14 165.24 264.72L200.31 269.55V275.46C200.31 275.46 207.57 322.21 215.82 400.52Z" fill="white"/>
<path d="M171.6 207.6C171.96 214.974 171.773 222.364 171.04 229.71C170.55 234.84 169.86 239.71 169.14 244.07C167.44 254.34 165.52 262.07 165.24 264.72L200.31 269.55C213.09 233.8 208.31 212.99 208.31 212.99C205.686 211.909 202.997 210.991 200.26 210.24C199.69 210.08 199.1 209.94 198.49 209.8C193.567 208.827 188.592 208.139 183.59 207.74C182.64 207.66 181.68 207.6 180.73 207.55C175.91 207.33 171.6 207.6 171.6 207.6Z" fill="#FF002C"/>
<path opacity="0.7" d="M200.3 269.55L165.24 264.72C165.52 262.03 167.44 254.34 169.14 244.07C169.8 240.07 170.43 235.69 170.91 231.07C170.91 230.63 171 230.18 171.04 229.73C171.37 226.29 171.61 222.73 171.72 219.09C171.83 215.45 171.81 211.47 171.6 207.62C171.6 207.62 175.91 207.35 180.7 207.62C181.64 207.62 182.61 207.73 183.56 207.81C188.562 208.209 193.537 208.896 198.46 209.87C199.07 210.01 199.66 210.15 200.23 210.31C202.951 211.061 205.623 211.98 208.23 213.06C208.23 213.06 213.09 233.8 200.3 269.55Z" fill="white"/>
<path d="M190.37 191.52C190.11 196.43 188.87 205.24 184.79 207.52C184.79 207.52 192.84 213.87 195.26 213.85C196.96 213.85 199.42 211.05 199.42 211.05C194.48 208.54 195.59 204.69 197.42 201.27L190.37 191.52Z" fill="#E4897B"/>
<path opacity="0.2" d="M193.24 195.52L197.42 201.31C196.979 202.102 196.611 202.932 196.32 203.79C194.39 203.02 192.18 200.16 192.5 198.02C192.59 197.148 192.841 196.301 193.24 195.52Z" fill="black"/>
<path d="M208.75 182.62C209.33 185.22 208.44 190.39 205.05 188.39C201.66 186.39 207.76 178.14 208.75 182.62Z" fill="#263238"/>
<path d="M190.18 184.46C189.18 190.95 188.34 194.7 190.9 198.64C194.74 204.56 203.29 203.21 206.17 197.12C208.76 191.65 209.89 181.96 204.17 178.12C202.895 177.254 201.419 176.729 199.882 176.597C198.346 176.466 196.802 176.731 195.398 177.367C193.993 178.003 192.776 178.99 191.862 180.232C190.949 181.474 190.37 182.93 190.18 184.46Z" fill="#E4897B"/>
<path d="M188.08 175.18C183.6 176.94 183.56 188.04 189.08 191.81C192.46 189.55 194.08 180.81 194.08 180.81L188.08 175.18Z" fill="#263238"/>
<path d="M186.59 189.28C186.673 190.089 186.917 190.874 187.307 191.588C187.697 192.303 188.225 192.932 188.86 193.44C190.57 194.8 192.28 193.44 192.53 191.44C192.74 189.59 192.12 186.66 190.06 186.11C189.609 186 189.137 186.002 188.687 186.118C188.237 186.233 187.823 186.457 187.48 186.77C187.137 187.083 186.876 187.476 186.721 187.914C186.566 188.352 186.521 188.821 186.59 189.28Z" fill="#E4897B"/>
<path d="M199.56 188.21C199.45 188.73 199.64 189.21 199.98 189.27C200.32 189.33 200.69 188.97 200.8 188.45C200.91 187.93 200.72 187.45 200.38 187.38C200.04 187.31 199.67 187.68 199.56 188.21Z" fill="#263238"/>
<path d="M205.47 189.39C205.36 189.91 205.55 190.39 205.89 190.46C206.23 190.53 206.6 190.16 206.71 189.64C206.82 189.12 206.63 188.64 206.29 188.57C205.95 188.5 205.58 188.87 205.47 189.39Z" fill="#263238"/>
<path d="M203.54 189.27C203.86 190.942 204.412 192.561 205.18 194.08C204.769 194.251 204.327 194.333 203.882 194.321C203.437 194.309 203 194.203 202.6 194.01L203.54 189.27Z" fill="#DE5753"/>
<path d="M197.63 193.14C197.424 193.078 197.213 193.031 197 193C196.959 192.991 196.916 192.999 196.881 193.021C196.845 193.044 196.82 193.079 196.81 193.12C196.806 193.14 196.805 193.16 196.809 193.18C196.813 193.2 196.821 193.219 196.832 193.236C196.843 193.253 196.858 193.267 196.874 193.278C196.891 193.289 196.91 193.297 196.93 193.3C197.579 193.427 198.188 193.706 198.71 194.112C199.231 194.519 199.649 195.042 199.93 195.64C199.951 195.669 199.98 195.691 200.014 195.701C200.048 195.712 200.085 195.711 200.118 195.698C200.151 195.685 200.179 195.662 200.198 195.632C200.216 195.601 200.224 195.566 200.22 195.53C199.985 194.97 199.631 194.466 199.185 194.054C198.738 193.642 198.208 193.33 197.63 193.14Z" fill="#263238"/>
<path d="M199 185.25C199.053 185.265 199.109 185.267 199.163 185.257C199.216 185.247 199.267 185.224 199.31 185.19C199.597 184.919 199.944 184.72 200.324 184.61C200.703 184.5 201.103 184.483 201.49 184.56C201.571 184.579 201.656 184.567 201.728 184.526C201.801 184.486 201.855 184.419 201.88 184.34C201.893 184.3 201.896 184.258 201.892 184.216C201.887 184.175 201.874 184.135 201.854 184.098C201.833 184.062 201.805 184.03 201.772 184.004C201.739 183.979 201.701 183.96 201.66 183.95C201.171 183.851 200.665 183.869 200.183 184.003C199.702 184.137 199.259 184.383 198.89 184.72C198.861 184.749 198.838 184.783 198.823 184.821C198.807 184.859 198.799 184.899 198.799 184.94C198.799 184.981 198.807 185.022 198.823 185.059C198.838 185.097 198.861 185.131 198.89 185.16C198.922 185.196 198.959 185.227 199 185.25Z" fill="#263238"/>
<path d="M208.45 186.53C208.509 186.55 208.572 186.55 208.63 186.53C208.671 186.521 208.709 186.504 208.742 186.479C208.776 186.455 208.804 186.424 208.825 186.389C208.847 186.353 208.861 186.314 208.867 186.273C208.873 186.232 208.871 186.19 208.86 186.15C208.746 185.669 208.517 185.222 208.193 184.848C207.869 184.474 207.46 184.183 207 184C206.921 183.977 206.835 183.985 206.761 184.022C206.687 184.059 206.63 184.123 206.6 184.2C206.575 184.28 206.581 184.366 206.619 184.441C206.656 184.516 206.721 184.573 206.8 184.6C207.164 184.748 207.485 184.983 207.737 185.285C207.988 185.587 208.161 185.946 208.24 186.33C208.255 186.379 208.283 186.422 208.319 186.457C208.356 186.492 208.401 186.517 208.45 186.53Z" fill="#263238"/>
<path d="M193.19 180.41C194.105 181.836 195.54 182.848 197.19 183.23C196.853 182.58 196.701 181.85 196.75 181.12C196.75 181.12 199.27 183.74 206.07 183.23L204.77 181.85C204.77 181.85 209.77 182.12 211.16 180.41C212.55 178.7 212.55 175.26 212.55 175.26L211.23 176.63C211.138 176.15 211.144 175.657 211.247 175.179C211.35 174.701 211.548 174.249 211.83 173.85C211.83 173.85 209.2 172.96 207.71 174.34C207.71 174.34 208.02 171.84 206.71 170.71C206.71 170.71 204.04 172.89 201.2 172.16L202.85 171.04C202.85 171.04 195.85 168.8 192.07 171.04V170.04C192.07 170.04 186.76 172.62 188.28 177.5C189.8 182.38 193.19 180.41 193.19 180.41Z" fill="#263238"/>
<path d="M195.26 213.9C195.26 213.9 193.26 215.68 191.06 217.4C188.37 215.61 182.12 210.93 182.88 207.4C183.4 206.4 186.21 206.07 186.21 206.07C186.21 206.07 188.72 210.27 195.26 213.9Z" fill="#FF002C"/>
<path d="M195.26 213.9C196.538 215.201 197.623 216.68 198.48 218.29C200.76 217.18 200.48 210.38 199.8 209.55C198.762 208.8 197.551 208.325 196.28 208.17C196.592 209.136 196.662 210.163 196.484 211.162C196.306 212.161 195.886 213.101 195.26 213.9Z" fill="#FF002C"/>
<g opacity="0.5">
<path d="M195.26 213.9C195.26 213.9 193.26 215.68 191.06 217.4C188.37 215.61 182.12 210.93 182.88 207.4C183.4 206.4 186.21 206.07 186.21 206.07C186.21 206.07 188.72 210.27 195.26 213.9Z" fill="white"/>
<path d="M195.26 213.9C196.538 215.201 197.623 216.68 198.48 218.29C200.76 217.18 200.48 210.38 199.8 209.55C198.762 208.8 197.551 208.325 196.28 208.17C196.592 209.136 196.662 210.163 196.484 211.162C196.306 212.161 195.886 213.101 195.26 213.9Z" fill="white"/>
</g>
<path d="M167.47 256.39L166.59 260.39L159.86 255.23C159.86 255.23 162.32 249.94 165.28 250.96L166.21 251.96C166.76 252.544 167.162 253.25 167.381 254.021C167.6 254.792 167.631 255.605 167.47 256.39Z" fill="#E4897B"/>
<path d="M162.36 263.87L156.99 259.35L159.86 255.21L166.59 260.37L162.36 263.87Z" fill="#E4897B"/>
<path opacity="0.2" d="M188.59 321.86L184.59 300.35L185.4 289C185.4 289 190.82 308.71 188.59 321.86Z" fill="black"/>
<path opacity="0.1" d="M175.32 217.4C175.32 217.4 174.32 226.4 170.91 231.05C170.91 230.61 171 230.16 171.04 229.71C171.37 226.27 171.61 222.71 171.72 219.07C172.682 218.101 173.959 217.508 175.32 217.4Z" fill="black"/>
<path d="M171.6 207.6C164.1 206.66 151.19 217.4 151.19 217.4L159.99 229.22L175.71 222.47C175.71 222.47 180.73 208.76 171.6 207.6Z" fill="#FF002C"/>
<path opacity="0.7" d="M171.6 207.6C164.1 206.66 151.19 217.4 151.19 217.4L159.99 229.22L175.71 222.47C175.71 222.47 180.73 208.76 171.6 207.6Z" fill="white"/>
<path d="M150.9 217.14L159.87 229.82L161.79 228.81L152.51 215.66L150.9 217.14Z" fill="#FF002C"/>
<path opacity="0.5" d="M150.9 217.14L159.87 229.82L161.79 228.81L152.51 215.66L150.9 217.14Z" fill="white"/>
</svg>
