<svg width="72" height="54" viewBox="0 0 72 54" fill="none" xmlns="http://www.w3.org/2000/svg">
<path d="M6.74 4.72C7.84667 4.72 8.74667 5.08667 9.44 5.82C10.16 6.56667 10.52 7.58 10.52 8.86V15H7.94V9.18C7.94 8.52667 7.76 8.02 7.4 7.66C7.05333 7.3 6.57333 7.12 5.96 7.12C5.28 7.12 4.74 7.33333 4.34 7.76C3.95333 8.17333 3.76 8.78667 3.76 9.6V15H1.18V0.999999H3.76V6.12C4.37333 5.18667 5.36667 4.72 6.74 4.72ZM22.443 11.06H14.903C15.2363 12.3133 16.1763 12.94 17.723 12.94C18.7096 12.94 19.4563 12.6067 19.963 11.94L22.043 13.14C21.0563 14.5667 19.603 15.28 17.683 15.28C16.0296 15.28 14.703 14.78 13.703 13.78C12.703 12.78 12.203 11.52 12.203 10C12.203 8.50667 12.6963 7.25333 13.683 6.24C14.6563 5.22667 15.923 4.72 17.483 4.72C18.963 4.72 20.1696 5.22667 21.103 6.24C22.063 7.25333 22.543 8.50667 22.543 10C22.543 10.28 22.5096 10.6333 22.443 11.06ZM14.863 9.06H19.963C19.8163 8.40667 19.5163 7.90667 19.063 7.56C18.623 7.21333 18.0963 7.04 17.483 7.04C16.7896 7.04 16.2163 7.22 15.763 7.58C15.3096 7.92667 15.0096 8.42 14.863 9.06ZM31.8659 6.18V5H34.4459V15H31.8659V13.82C31.0926 14.7933 30.0059 15.28 28.6059 15.28C27.2726 15.28 26.1259 14.7733 25.1659 13.76C24.2193 12.7333 23.7459 11.48 23.7459 10C23.7459 8.53333 24.2193 7.28667 25.1659 6.26C26.1259 5.23333 27.2726 4.72 28.6059 4.72C30.0059 4.72 31.0926 5.20667 31.8659 6.18ZM27.1059 12.04C27.6259 12.56 28.2859 12.82 29.0859 12.82C29.8859 12.82 30.5459 12.56 31.0659 12.04C31.5993 11.5067 31.8659 10.8267 31.8659 10C31.8659 9.17333 31.5993 8.5 31.0659 7.98C30.5459 7.44667 29.8859 7.18 29.0859 7.18C28.2859 7.18 27.6259 7.44667 27.1059 7.98C26.5859 8.5 26.3259 9.17333 26.3259 10C26.3259 10.8267 26.5859 11.5067 27.1059 12.04ZM39.3655 15H36.7855V0.4H39.3655V15ZM47.4469 5V7.48H45.1869V11.64C45.1869 11.9867 45.2735 12.24 45.4469 12.4C45.6202 12.56 45.8735 12.6533 46.2069 12.68C46.5402 12.6933 46.9535 12.6867 47.4469 12.66V15C45.7002 15.2 44.4535 15.04 43.7069 14.52C42.9735 13.9867 42.6069 13.0267 42.6069 11.64V7.48H40.8669V5H42.6069V2.98L45.1869 2.2V5H47.4469ZM54.8259 4.72C55.9326 4.72 56.8326 5.08667 57.5259 5.82C58.2459 6.56667 58.6059 7.58 58.6059 8.86V15H56.0259V9.18C56.0259 8.52667 55.8459 8.02 55.4859 7.66C55.1393 7.3 54.6593 7.12 54.0459 7.12C53.3659 7.12 52.8259 7.33333 52.4259 7.76C52.0393 8.17333 51.8459 8.78667 51.8459 9.6V15H49.2659V0.999999H51.8459V6.12C52.4593 5.18667 53.4526 4.72 54.8259 4.72ZM64.8941 11.72L67.1141 5H69.8741L66.2341 15C65.7141 16.44 65.0207 17.48 64.1541 18.12C63.3007 18.7733 62.2341 19.0667 60.9541 19V16.6C61.6341 16.6133 62.1807 16.4667 62.5941 16.16C63.0074 15.8533 63.3341 15.36 63.5741 14.68L59.4741 5H62.2941L64.8941 11.72Z" fill="black"/>
<path d="M4.38 38.56C4.38 39.0267 4.21333 39.4267 3.88 39.76C3.54667 40.0933 3.14667 40.26 2.68 40.26C2.21333 40.26 1.81333 40.0933 1.48 39.76C1.14667 39.4267 0.98 39.0267 0.98 38.56C0.98 38.0933 1.14667 37.6933 1.48 37.36C1.81333 37.0267 2.21333 36.86 2.68 36.86C3.14667 36.86 3.54667 37.0267 3.88 37.36C4.21333 37.6933 4.38 38.0933 4.38 38.56ZM11.0602 30V32.48H8.80016V36.64C8.80016 36.9867 8.88682 37.24 9.06016 37.4C9.23349 37.56 9.48682 37.6533 9.82016 37.68C10.1535 37.6933 10.5668 37.6867 11.0602 37.66V40C9.31349 40.2 8.06682 40.04 7.32016 39.52C6.58682 38.9867 6.22016 38.0267 6.22016 36.64V32.48H4.48016V30H6.22016V27.98L8.80016 27.2V30H11.0602ZM21.0867 38.76C20.0734 39.7733 18.8201 40.28 17.3267 40.28C15.8334 40.28 14.5801 39.7733 13.5667 38.76C12.5534 37.7467 12.0467 36.4933 12.0467 35C12.0467 33.52 12.5534 32.2733 13.5667 31.26C14.5934 30.2333 15.8467 29.72 17.3267 29.72C18.8067 29.72 20.0601 30.2333 21.0867 31.26C22.1134 32.2867 22.6267 33.5333 22.6267 35C22.6267 36.48 22.1134 37.7333 21.0867 38.76ZM15.3867 36.98C15.9067 37.5 16.5534 37.76 17.3267 37.76C18.1001 37.76 18.7467 37.5 19.2667 36.98C19.7867 36.46 20.0467 35.8 20.0467 35C20.0467 34.2 19.7867 33.54 19.2667 33.02C18.7467 32.5 18.1001 32.24 17.3267 32.24C16.5534 32.24 15.9067 32.5 15.3867 33.02C14.8801 33.5533 14.6267 34.2133 14.6267 35C14.6267 35.7867 14.8801 36.4467 15.3867 36.98ZM32.0217 31.18V26H34.6017V40H32.0217V38.82C31.2617 39.7933 30.1817 40.28 28.7817 40.28C27.4351 40.28 26.2817 39.7733 25.3217 38.76C24.3751 37.7333 23.9017 36.48 23.9017 35C23.9017 33.5333 24.3751 32.2867 25.3217 31.26C26.2817 30.2333 27.4351 29.72 28.7817 29.72C30.1817 29.72 31.2617 30.2067 32.0217 31.18ZM27.2617 37.04C27.8084 37.56 28.4751 37.82 29.2617 37.82C30.0617 37.82 30.7217 37.56 31.2417 37.04C31.7617 36.5067 32.0217 35.8267 32.0217 35C32.0217 34.1733 31.7617 33.5 31.2417 32.98C30.7217 32.4467 30.0617 32.18 29.2617 32.18C28.4617 32.18 27.7951 32.4467 27.2617 32.98C26.7417 33.5 26.4817 34.1733 26.4817 35C26.4817 35.8267 26.7417 36.5067 27.2617 37.04ZM44.5613 31.18V30H47.1413V40H44.5613V38.82C43.7879 39.7933 42.7013 40.28 41.3013 40.28C39.9679 40.28 38.8213 39.7733 37.8613 38.76C36.9146 37.7333 36.4412 36.48 36.4412 35C36.4412 33.5333 36.9146 32.2867 37.8613 31.26C38.8213 30.2333 39.9679 29.72 41.3013 29.72C42.7013 29.72 43.7879 30.2067 44.5613 31.18ZM39.8013 37.04C40.3213 37.56 40.9813 37.82 41.7813 37.82C42.5813 37.82 43.2413 37.56 43.7613 37.04C44.2946 36.5067 44.5613 35.8267 44.5613 35C44.5613 34.1733 44.2946 33.5 43.7613 32.98C43.2413 32.4467 42.5813 32.18 41.7813 32.18C40.9813 32.18 40.3213 32.4467 39.8013 32.98C39.2813 33.5 39.0213 34.1733 39.0213 35C39.0213 35.8267 39.2813 36.5067 39.8013 37.04ZM53.7808 36.72L56.0008 30H58.7608L55.1208 40C54.6008 41.44 53.9074 42.48 53.0408 43.12C52.1874 43.7733 51.1208 44.0667 49.8408 44V41.6C50.5208 41.6133 51.0674 41.4667 51.4808 41.16C51.8941 40.8533 52.2208 40.36 52.4608 39.68L48.3608 30H51.1808L53.7808 36.72Z" fill="#FF002C"/>
</svg>
