<svg width="500" height="500" viewBox="0 0 500 500" fill="none" xmlns="http://www.w3.org/2000/svg">
<path d="M500 382.4H0V382.65H500V382.4Z" fill="#EBEBEB"/>
<path d="M449.9 398.49H416.78V398.74H449.9V398.49Z" fill="#EBEBEB"/>
<path d="M331.22 401.21H322.53V401.46H331.22V401.21Z" fill="#EBEBEB"/>
<path d="M415.78 389.21H396.59V389.46H415.78V389.21Z" fill="#EBEBEB"/>
<path d="M95.65 390.89H52.46V391.14H95.65V390.89Z" fill="#EBEBEB"/>
<path d="M110.89 390.89H104.56V391.14H110.89V390.89Z" fill="#EBEBEB"/>
<path d="M225.15 395.11H131.47V395.36H225.15V395.11Z" fill="#EBEBEB"/>
<path d="M237 337.8H43.91C42.3973 337.797 40.9475 337.195 39.8788 336.124C38.8102 335.053 38.21 333.603 38.21 332.09V60.66C38.2231 59.156 38.8292 57.718 39.8964 56.6582C40.9637 55.5985 42.4059 55.0026 43.91 55H237C238.514 55 239.967 55.6016 241.038 56.6724C242.108 57.7433 242.71 59.1956 242.71 60.71V332.09C242.71 333.604 242.108 335.057 241.038 336.128C239.967 337.198 238.514 337.8 237 337.8ZM43.91 55.2C42.4636 55.2026 41.0774 55.7791 40.0556 56.8027C39.0338 57.8264 38.46 59.2136 38.46 60.66V332.09C38.46 333.536 39.0338 334.924 40.0556 335.947C41.0774 336.971 42.4636 337.547 43.91 337.55H237C238.447 337.547 239.834 336.971 240.858 335.948C241.881 334.924 242.457 333.537 242.46 332.09V60.66C242.457 59.2127 241.881 57.8255 240.858 56.8021C239.834 55.7787 238.447 55.2026 237 55.2H43.91Z" fill="#EBEBEB"/>
<path d="M453.31 337.8H260.21C258.696 337.797 257.246 337.195 256.175 336.125C255.105 335.054 254.503 333.604 254.5 332.09V60.66C254.516 59.1551 255.124 57.7171 256.193 56.6576C257.262 55.5981 258.705 55.0025 260.21 55H453.31C454.812 55.0052 456.252 55.6022 457.317 56.6617C458.382 57.7212 458.987 59.1578 459 60.66V332.09C459 333.601 458.401 335.05 457.335 336.121C456.268 337.191 454.821 337.795 453.31 337.8ZM260.21 55.2C258.763 55.2026 257.375 55.7787 256.352 56.8021C255.329 57.8255 254.753 59.2127 254.75 60.66V332.09C254.753 333.537 255.329 334.924 256.352 335.948C257.375 336.971 258.763 337.547 260.21 337.55H453.31C454.757 337.547 456.145 336.971 457.168 335.948C458.191 334.924 458.767 333.537 458.77 332.09V60.66C458.767 59.2127 458.191 57.8255 457.168 56.8021C456.145 55.7787 454.757 55.2026 453.31 55.2H260.21Z" fill="#EBEBEB"/>
<path d="M66.7902 382.4H202.49L202.49 95.6099H66.7902L66.7902 382.4Z" fill="#E6E6E6"/>
<path d="M63.78 382.4H199.48L199.48 95.6099H63.78L63.78 382.4Z" fill="#F5F5F5"/>
<path d="M194.07 376.32L194.07 101.69L69.1998 101.69L69.1998 376.32H194.07Z" fill="#FAFAFA"/>
<path d="M165.31 376.32L133.67 101.69H97.9502L129.59 376.32H165.31Z" fill="white"/>
<path d="M71.48 376.32L71.48 101.69H69.2L69.2 376.32H71.48Z" fill="#E6E6E6"/>
<path d="M66.0202 133.64L197.24 133.64V125.48L66.0202 125.48V133.64Z" fill="#F5F5F5"/>
<path d="M274.23 382.4V216H219.44V382.4H274.23Z" fill="#F0F0F0"/>
<path d="M271.22 269.63V220.86H222.45V269.63H271.22Z" fill="#F5F5F5"/>
<path d="M271.22 322.78V274.01H222.45V322.78H271.22Z" fill="#F5F5F5"/>
<path d="M271.22 375.93V327.16H222.45V375.93H271.22Z" fill="#F5F5F5"/>
<path d="M257.63 220.22H236C235.993 220.885 236.119 221.545 236.371 222.161C236.622 222.776 236.994 223.336 237.464 223.806C237.934 224.276 238.494 224.648 239.109 224.899C239.725 225.151 240.385 225.277 241.05 225.27H252.53C253.197 225.275 253.858 225.149 254.476 224.898C255.094 224.646 255.656 224.275 256.13 223.806C256.604 223.337 256.981 222.778 257.238 222.163C257.495 221.547 257.628 220.887 257.63 220.22Z" fill="#E6E6E6"/>
<path d="M257.63 273.37H236C236 274.71 236.532 275.996 237.479 276.945C238.425 277.893 239.71 278.427 241.05 278.43H252.53C253.197 278.434 253.859 278.306 254.477 278.054C255.095 277.801 255.657 277.429 256.131 276.959C256.605 276.489 256.981 275.93 257.238 275.314C257.496 274.698 257.629 274.038 257.63 273.37Z" fill="#E6E6E6"/>
<path d="M257.63 326.52H236C236 327.86 236.532 329.146 237.479 330.094C238.425 331.043 239.71 331.577 241.05 331.58H252.53C253.197 331.584 253.859 331.456 254.477 331.204C255.095 330.951 255.657 330.579 256.131 330.109C256.605 329.639 256.981 329.08 257.238 328.464C257.496 327.848 257.629 327.188 257.63 326.52Z" fill="#E6E6E6"/>
<path d="M301.59 382.4V216H274.22V382.4H301.59Z" fill="#F5F5F5"/>
<path d="M420.49 378.31H435.68V253.03H420.49V378.31Z" fill="#F0F0F0"/>
<path d="M287.72 382.4H433.58V378.31H287.72V382.4Z" fill="#F0F0F0"/>
<path d="M420.49 253.03H285.61V378.31H420.49V253.03Z" fill="#FAFAFA"/>
<path d="M312 326.24H394.06C397.935 326.24 401.651 324.701 404.391 321.961C407.131 319.221 408.67 315.505 408.67 311.63C408.67 307.755 407.131 304.039 404.391 301.299C401.651 298.559 397.935 297.02 394.06 297.02H312C308.125 297.02 304.409 298.559 301.669 301.299C298.929 304.039 297.39 307.755 297.39 311.63C297.39 315.505 298.929 319.221 301.669 321.961C304.409 324.701 308.125 326.24 312 326.24ZM394.08 298C395.87 298 397.642 298.353 399.296 299.038C400.95 299.723 402.452 300.726 403.718 301.992C404.984 303.258 405.988 304.76 406.673 306.414C407.358 308.068 407.71 309.84 407.71 311.63C407.71 313.42 407.358 315.192 406.673 316.846C405.988 318.5 404.984 320.002 403.718 321.268C402.452 322.534 400.95 323.538 399.296 324.223C397.642 324.907 395.87 325.26 394.08 325.26H312C308.385 325.26 304.918 323.824 302.362 321.268C299.806 318.712 298.37 315.245 298.37 311.63C298.37 308.015 299.806 304.548 302.362 301.992C304.918 299.436 308.385 298 312 298H394.08Z" fill="#F0F0F0"/>
<path d="M312 362.59H394.06C397.935 362.59 401.651 361.051 404.391 358.311C407.131 355.571 408.67 351.855 408.67 347.98C408.67 344.105 407.131 340.389 404.391 337.649C401.651 334.909 397.935 333.37 394.06 333.37H312C308.125 333.37 304.409 334.909 301.669 337.649C298.929 340.389 297.39 344.105 297.39 347.98C297.39 351.855 298.929 355.571 301.669 358.311C304.409 361.051 308.125 362.59 312 362.59ZM394.06 334.35C395.88 334.301 397.692 334.617 399.388 335.279C401.085 335.942 402.631 336.938 403.936 338.208C405.241 339.478 406.278 340.996 406.986 342.674C407.694 344.352 408.059 346.154 408.059 347.975C408.059 349.796 407.694 351.599 406.986 353.276C406.278 354.954 405.241 356.473 403.936 357.743C402.631 359.013 401.085 360.008 399.388 360.671C397.692 361.334 395.88 361.649 394.06 361.6H312C310.18 361.649 308.368 361.334 306.672 360.671C304.976 360.008 303.429 359.013 302.125 357.743C300.82 356.473 299.782 354.954 299.074 353.276C298.366 351.599 298.001 349.796 298.001 347.975C298.001 346.154 298.366 344.352 299.074 342.674C299.782 340.996 300.82 339.478 302.125 338.208C303.429 336.938 304.976 335.942 306.672 335.279C308.368 334.617 310.18 334.301 312 334.35H394.06Z" fill="#F0F0F0"/>
<path d="M340.67 308.48H365.43C366.238 308.477 367.012 308.155 367.584 307.584C368.155 307.012 368.477 306.238 368.48 305.43C368.477 304.622 368.155 303.848 367.584 303.276C367.012 302.705 366.238 302.383 365.43 302.38H340.67C339.862 302.383 339.088 302.705 338.516 303.276C337.945 303.848 337.623 304.622 337.62 305.43C337.623 306.238 337.945 307.012 338.516 307.584C339.088 308.155 339.862 308.477 340.67 308.48Z" fill="#EBEBEB"/>
<path d="M312 289.89H394.06C397.935 289.89 401.651 288.351 404.391 285.611C407.131 282.871 408.67 279.155 408.67 275.28C408.67 271.405 407.131 267.689 404.391 264.949C401.651 262.209 397.935 260.67 394.06 260.67H312C308.125 260.67 304.409 262.209 301.669 264.949C298.929 267.689 297.39 271.405 297.39 275.28C297.39 279.155 298.929 282.871 301.669 285.611C304.409 288.351 308.125 289.89 312 289.89ZM394.06 261.65C397.675 261.65 401.142 263.086 403.698 265.642C406.254 268.198 407.69 271.665 407.69 275.28C407.69 278.895 406.254 282.362 403.698 284.918C401.142 287.474 397.675 288.91 394.06 288.91H312C308.385 288.91 304.918 287.474 302.362 284.918C299.806 282.362 298.37 278.895 298.37 275.28C298.37 271.665 299.806 268.198 302.362 265.642C304.918 263.086 308.385 261.65 312 261.65H394.06Z" fill="#F0F0F0"/>
<path d="M340.67 272.13H365.43C366.238 272.127 367.012 271.805 367.584 271.234C368.155 270.662 368.477 269.888 368.48 269.08C368.467 268.28 368.14 267.517 367.569 266.956C366.999 266.394 366.23 266.08 365.43 266.08H340.67C339.87 266.08 339.102 266.394 338.531 266.956C337.96 267.517 337.633 268.28 337.62 269.08C337.623 269.888 337.945 270.662 338.516 271.234C339.088 271.805 339.862 272.127 340.67 272.13Z" fill="#EBEBEB"/>
<path d="M340.67 344.82H365.43C366.23 344.82 366.999 344.505 367.569 343.944C368.14 343.383 368.467 342.62 368.48 341.82C368.464 341.02 368.137 340.259 367.566 339.698C366.996 339.138 366.23 338.822 365.43 338.82H340.67C339.871 338.822 339.104 339.138 338.534 339.698C337.964 340.259 337.636 341.02 337.62 341.82C337.633 342.62 337.96 343.383 338.531 343.944C339.102 344.505 339.87 344.82 340.67 344.82Z" fill="#EBEBEB"/>
<path d="M282.83 253.03L420.48 253.03V246.66L282.83 246.66V253.03Z" fill="#F0F0F0"/>
<path d="M438.66 246.67H420.49V253.04H438.66V246.67Z" fill="#E6E6E6"/>
<path d="M322 146.39C325.07 147.93 333.39 146.27 330.62 151.9C329.025 154.849 327.117 157.619 324.93 160.16C321.83 163.99 322.42 168.16 326.08 169.64C326.865 169.909 327.558 170.395 328.08 171.04C329.77 173.46 325.79 176.7 323.83 179.12C321.87 181.54 321.09 183.92 322.53 185.72C324.13 187.72 327.45 186.97 330.09 187.57C336.43 189.02 329.91 197.77 330.58 202.26C331.04 205.34 333.58 206.2 336.93 206.63C339.7 206.99 343.39 207.24 343.54 210.07C343.68 212.53 340.48 215.31 339.64 217.89C339.241 219 339.09 220.184 339.197 221.359C339.305 222.533 339.667 223.671 340.26 224.69C340.823 225.55 341.558 226.283 342.418 226.844C343.279 227.406 344.247 227.782 345.26 227.95C348.4 228.61 353.15 227.95 353.38 231.47C353.48 233.05 352.38 234.47 353.14 235.91C353.561 236.518 354.109 237.026 354.746 237.401C355.384 237.776 356.094 238.008 356.83 238.08C359.837 238.539 362.901 238.485 365.89 237.92C369.58 237.24 375.03 233.99 373.03 230.86C372.685 230.411 372.255 230.035 371.764 229.754C371.273 229.472 370.732 229.291 370.17 229.22C369.29 229.04 366.71 229.32 366.38 228.72C366.05 228.12 366.94 225.81 366.97 224.98C367.061 222.675 366.698 220.375 365.9 218.21C364.881 215.38 363.257 212.807 361.14 210.67C360.26 209.78 358.87 209.13 358.69 207.84C358.51 206.55 359.32 205.13 360.22 203.84C361.63 201.84 363.82 199.96 364.61 197.84C365.85 194.5 362.84 193.44 360.05 192.68C357.53 191.99 354.21 191.11 355.05 188.05C355.67 185.84 358.46 184.05 359.29 181.87C360.42 178.98 357.68 178.87 355.73 177.87C353.18 176.53 352.54 174.13 353.46 171.1C354.99 166.1 364.16 159.03 359.46 155.78C358.27 154.95 357.16 154.68 356.46 153.43C355.76 152.18 355.58 150.43 354.58 149.25C353 147.34 349.73 147.02 348.03 145.25C344.52 141.61 352.09 135.16 345.18 133.62C343.721 133.432 342.339 132.856 341.18 131.95C340.55 131.36 340.03 128.51 339.32 128.31C336.15 127.43 330.44 133.58 328.64 135.47C326.45 137.75 318.36 144.55 322 146.39Z" fill="#E0E0E0"/>
<path d="M376.39 231.21C374.51 227.72 366.28 224.21 371.74 220.21C374.685 218.206 377.853 216.551 381.18 215.28C385.96 213.28 387.66 208.68 385.24 204.87C384.684 204.069 384.34 203.14 384.24 202.17C384.04 198.65 389.29 197.81 392.31 196.54C395.33 195.27 397.31 193.33 396.98 190.59C396.64 187.59 393.32 186.25 391.31 184C386.49 178.58 396.93 173.67 398.74 168.65C399.98 165.21 398.24 162.78 395.48 160.23C393.23 158.14 390.1 155.6 391.48 152.6C392.68 150 396.99 149.14 399.11 147.02C400.088 146.061 400.866 144.918 401.398 143.656C401.93 142.394 402.206 141.039 402.21 139.67C402.162 137.27 401.217 134.976 399.56 133.24C397.14 130.61 392.56 128.36 394.27 124.59C395.03 122.91 396.76 122.16 396.86 120.19C396.83 119.337 396.629 118.499 396.27 117.724C395.911 116.95 395.401 116.255 394.77 115.68C392.428 113.385 389.691 111.532 386.69 110.21C383.07 108.61 376.52 108.56 376.61 113.01C376.723 114.32 377.305 115.545 378.25 116.46C378.94 117.2 381.36 118.51 381.33 119.33C381.3 120.15 379.33 121.96 378.8 122.79C377.475 125.149 376.571 127.72 376.13 130.39C375.511 133.929 375.569 137.553 376.3 141.07C376.59 142.52 377.48 144.07 376.94 145.49C376.4 146.91 374.94 147.87 373.47 148.6C371.16 149.76 368.21 150.35 366.38 152.03C363.49 154.68 365.58 157.64 367.64 160.15C369.5 162.42 371.95 165.38 369.56 167.99C367.83 169.87 364.4 169.99 362.56 171.68C360.02 173.95 362.37 175.76 363.56 178.04C365.08 181.04 364.37 183.84 361.93 186.37C357.93 190.55 346.03 192.09 348.44 198.37C349.05 199.96 349.87 200.93 349.84 202.65C349.81 204.37 349.02 206.25 349.26 208.1C349.63 211.04 352.34 213.4 352.9 216.27C354.04 222.18 343.9 224.09 349.18 229.95C350.413 231.106 351.329 232.559 351.84 234.17C352.09 235.17 351.01 238.4 351.53 239.05C353.86 241.92 362.19 239.18 364.79 238.35C367.86 237.3 378.64 235.36 376.39 231.21Z" fill="#F5F5F5"/>
<path d="M397.47 223.34C397.47 223.34 396.47 246.67 358.29 246.67C320.11 246.67 319.11 223.34 319.11 223.34H397.47Z" fill="#F0F0F0"/>
<path d="M250 427.56C357.082 427.56 443.89 422.492 443.89 416.24C443.89 409.988 357.082 404.92 250 404.92C142.917 404.92 56.1099 409.988 56.1099 416.24C56.1099 422.492 142.917 427.56 250 427.56Z" fill="#F5F5F5"/>
<g opacity="0.2">
<path d="M360.73 407.87L297.04 290.15L233.35 407.87H360.73Z" fill="#FF002C"/>
<path d="M360.73 208.72L297.04 326.43L233.35 208.72H360.73Z" fill="#FF002C"/>
</g>
<path d="M308.71 278.22L299.39 295.44C299.161 295.864 298.822 296.219 298.408 296.465C297.995 296.712 297.522 296.843 297.04 296.843C296.558 296.843 296.085 296.712 295.672 296.465C295.258 296.219 294.919 295.864 294.69 295.44L285.37 278.22C284.53 276.664 284.108 274.916 284.147 273.147C284.186 271.379 284.683 269.651 285.59 268.133C286.498 266.614 287.784 265.358 289.323 264.486C290.862 263.614 292.601 263.157 294.37 263.16H299.76C301.525 263.166 303.257 263.629 304.79 264.504C306.322 265.38 307.601 266.637 308.503 268.154C309.404 269.671 309.897 271.396 309.933 273.16C309.97 274.924 309.548 276.667 308.71 278.22Z" fill="#FF002C"/>
<path d="M298.05 378.15L327 390.05C327.565 390.288 328.031 390.714 328.319 391.255C328.608 391.796 328.701 392.419 328.584 393.021C328.466 393.623 328.146 394.166 327.675 394.559C327.205 394.952 326.613 395.172 326 395.18H268.13C267.517 395.172 266.926 394.952 266.455 394.559C265.985 394.166 265.664 393.623 265.547 393.021C265.43 392.419 265.523 391.796 265.811 391.255C266.1 390.714 266.565 390.288 267.13 390.05L296 378.15C296.325 378.014 296.673 377.944 297.025 377.944C297.377 377.944 297.726 378.014 298.05 378.15Z" fill="#FF002C"/>
<path d="M297.04 355.51C299.089 355.51 300.75 353.849 300.75 351.8C300.75 349.751 299.089 348.09 297.04 348.09C294.991 348.09 293.33 349.751 293.33 351.8C293.33 353.849 294.991 355.51 297.04 355.51Z" fill="#FF002C"/>
<path d="M297.04 314.96C298.095 314.96 298.95 314.105 298.95 313.05C298.95 311.995 298.095 311.14 297.04 311.14C295.985 311.14 295.13 311.995 295.13 313.05C295.13 314.105 295.985 314.96 297.04 314.96Z" fill="#FF002C"/>
<path d="M297.04 333.69C298.239 333.69 299.21 332.719 299.21 331.52C299.21 330.322 298.239 329.35 297.04 329.35C295.842 329.35 294.87 330.322 294.87 331.52C294.87 332.719 295.842 333.69 297.04 333.69Z" fill="#FF002C"/>
<path d="M360.41 402.06H233.67C232.132 402.065 230.658 402.679 229.571 403.768C228.484 404.857 227.873 406.332 227.87 407.87C227.875 409.407 228.488 410.879 229.575 411.965C230.661 413.052 232.133 413.665 233.67 413.67H360.41C361.947 413.665 363.419 413.052 364.506 411.965C365.592 410.879 366.205 409.407 366.21 407.87C366.207 406.332 365.596 404.857 364.509 403.768C363.422 402.679 361.948 402.065 360.41 402.06Z" fill="#FF002C"/>
<path d="M360.41 202.92H233.67C232.133 202.925 230.661 203.538 229.575 204.625C228.488 205.711 227.875 207.183 227.87 208.72C227.875 210.257 228.488 211.729 229.575 212.815C230.661 213.902 232.133 214.515 233.67 214.52H360.41C361.947 214.515 363.419 213.902 364.506 212.815C365.592 211.729 366.205 210.257 366.21 208.72C366.205 207.183 365.592 205.711 364.506 204.625C363.419 203.538 361.947 202.925 360.41 202.92Z" fill="#FF002C"/>
<path d="M194.63 405.68L187.58 403.39L191.96 386.76L199.01 389.05L194.63 405.68Z" fill="#FF8B7B"/>
<path d="M187.47 402.45L195.39 405.02C195.524 405.06 195.637 405.149 195.706 405.27C195.775 405.392 195.794 405.535 195.76 405.67L194.11 412.07C194.004 412.399 193.773 412.674 193.465 412.833C193.158 412.992 192.8 413.024 192.47 412.92C189.73 411.98 188.47 411.39 184.98 410.26C182.83 409.56 175.77 407.74 172.81 406.78C169.85 405.82 170.88 402.92 172.22 403.06C178.22 403.69 183.62 403.41 186.12 402.49C186.553 402.328 187.028 402.313 187.47 402.45Z" fill="#263238"/>
<path opacity="0.2" d="M199.01 389.06L191.96 386.76L189.7 395.34L196.76 397.63L199.01 389.06Z" fill="black"/>
<path d="M218.28 220.72C218.28 220.72 205.63 279.27 202.66 300.32C199.41 323.37 187.2 392.59 187.2 392.59L200.29 396.21C200.29 396.21 218.43 329.08 223.73 306.67C229.48 282.34 244.73 220.67 244.73 220.67L218.28 220.72Z" fill="#FF002C"/>
<path opacity="0.3" d="M233.92 239.92C228.92 251.26 226.45 275.92 228.39 287.27C231.93 272.72 236.19 255.42 239.48 242.11C238.37 238.25 236.53 234 233.92 239.92Z" fill="black"/>
<path d="M200.62 396.47L186.6 392.61L186.88 386.9L202.66 392.35L200.62 396.47Z" fill="#263238"/>
<path d="M184.57 402.87C185.222 403.06 185.893 403.181 186.57 403.23C186.604 403.232 186.637 403.224 186.666 403.208C186.696 403.192 186.72 403.169 186.737 403.139C186.754 403.11 186.762 403.077 186.761 403.044C186.759 403.01 186.749 402.978 186.73 402.95C186.55 402.72 185 400.71 184.03 400.77C183.918 400.775 183.81 400.809 183.716 400.869C183.621 400.929 183.543 401.012 183.49 401.11C183.39 401.255 183.33 401.424 183.316 401.599C183.302 401.775 183.334 401.951 183.41 402.11C183.694 402.493 184.105 402.763 184.57 402.87ZM186.16 402.87C184.82 402.71 183.9 402.37 183.68 401.94C183.634 401.838 183.616 401.726 183.629 401.615C183.641 401.504 183.683 401.399 183.75 401.31C183.775 401.262 183.813 401.221 183.858 401.191C183.904 401.161 183.956 401.144 184.01 401.14C184.53 401.08 185.51 402.06 186.16 402.84V402.87Z" fill="#263238"/>
<path d="M186.5 403.22H186.58C186.609 403.213 186.636 403.2 186.659 403.181C186.682 403.162 186.699 403.137 186.71 403.11C186.71 403.03 187.56 401.05 187.07 400.11C187.009 399.991 186.921 399.889 186.814 399.811C186.706 399.733 186.582 399.681 186.45 399.66C186.308 399.617 186.156 399.624 186.018 399.678C185.88 399.732 185.765 399.832 185.69 399.96C185.28 400.68 185.85 402.49 186.42 403.14L186.5 403.22ZM186.5 400.05C186.567 400.069 186.629 400.102 186.683 400.147C186.736 400.192 186.779 400.247 186.81 400.31C186.978 401.115 186.883 401.952 186.54 402.7C186.056 401.951 185.874 401.047 186.03 400.17C186.03 400.08 186.17 399.98 186.42 400.03L186.5 400.05Z" fill="#263238"/>
<path d="M231.74 165.13C231.36 166.03 231.04 166.71 230.69 167.47C230.34 168.23 229.96 168.93 229.59 169.65C228.85 171.1 228.07 172.51 227.26 173.92C225.624 176.751 223.821 179.483 221.86 182.1C219.853 184.806 217.629 187.345 215.21 189.69C212.633 192.227 209.711 194.388 206.53 196.11L206.28 196.24C205.875 196.449 205.445 196.604 205 196.7C202.722 197.174 200.363 197.081 198.13 196.43C196.274 195.875 194.509 195.053 192.89 193.99C190.173 192.163 187.735 189.954 185.65 187.43C183.713 185.128 181.951 182.685 180.38 180.12C178.828 177.599 177.448 174.977 176.25 172.27C175.941 171.554 175.901 170.751 176.137 170.008C176.373 169.265 176.868 168.631 177.533 168.224C178.198 167.817 178.987 167.663 179.756 167.791C180.525 167.919 181.223 168.32 181.72 168.92L181.82 169.04C183.47 171.04 185.26 173.17 187.06 175.11C188.814 177.041 190.677 178.871 192.64 180.59C194.375 182.162 196.304 183.507 198.38 184.59C199.156 184.989 199.989 185.266 200.85 185.41C201.332 185.499 201.829 185.458 202.29 185.29L200.76 185.88C202.827 184.486 204.711 182.84 206.37 180.98C208.176 178.952 209.846 176.807 211.37 174.56C212.95 172.26 214.45 169.85 215.86 167.37C216.58 166.14 217.27 164.89 217.92 163.62L218.92 161.73C219.23 161.12 219.57 160.42 219.81 159.93L219.87 159.79C220.599 158.251 221.902 157.06 223.5 156.473C225.098 155.885 226.862 155.948 228.414 156.647C229.966 157.347 231.182 158.627 231.8 160.213C232.418 161.799 232.39 163.565 231.72 165.13H231.74Z" fill="#263238"/>
<path opacity="0.3" d="M215.39 178.71C218.53 170.37 225.2 170.23 228.09 172.44C227.88 172.83 227.66 173.22 227.44 173.61C225.871 176.34 224.152 178.981 222.29 181.52C220.379 184.132 218.276 186.599 216 188.9C215.28 189.61 214.54 190.31 213.77 190.99C213.505 186.83 214.055 182.659 215.39 178.71Z" fill="black"/>
<path d="M176 172.79L169.5 173.03L171.12 166.08C173.358 166.191 175.579 166.526 177.75 167.08C178.145 167.199 178.507 167.41 178.805 167.696C179.104 167.981 179.331 168.333 179.468 168.722C179.606 169.112 179.649 169.528 179.596 169.938C179.542 170.347 179.393 170.738 179.16 171.08C178.808 171.596 178.338 172.022 177.788 172.319C177.238 172.617 176.625 172.778 176 172.79Z" fill="#FF8B7B"/>
<path d="M179.64 166.92C179.002 166.414 178.272 166.037 177.49 165.81C176.95 168.65 173.49 173.44 173.49 173.44H176.2C176.549 173.441 176.894 173.365 177.21 173.218C177.526 173.071 177.806 172.857 178.03 172.59L179.93 170.31C180.138 170.07 180.296 169.791 180.395 169.489C180.493 169.188 180.53 168.869 180.503 168.553C180.475 168.237 180.385 167.93 180.237 167.649C180.089 167.368 179.886 167.12 179.64 166.92Z" fill="#FF002C"/>
<path d="M164.52 169.83L166.34 164.93L171.1 166.09L169.48 173.03L164.52 169.83Z" fill="#FF8B7B"/>
<path d="M246.25 408.92H238.84L238.58 391.75H245.99L246.25 408.92Z" fill="#FF8B7B"/>
<path d="M238.45 408.06H246.78C246.85 408.057 246.919 408.068 246.985 408.093C247.05 408.117 247.11 408.154 247.161 408.201C247.212 408.248 247.253 408.305 247.282 408.369C247.311 408.432 247.328 408.5 247.33 408.57L247.73 415.16C247.73 415.507 247.594 415.839 247.351 416.086C247.107 416.333 246.777 416.475 246.43 416.48C243.53 416.43 242.15 416.26 238.43 416.26C236.18 416.26 228.65 416.49 225.54 416.49C222.43 416.49 222.54 413.41 223.83 413.13C229.75 411.89 235.03 410.13 237.12 408.52C237.496 408.216 237.967 408.053 238.45 408.06Z" fill="#263238"/>
<path opacity="0.2" d="M246 391.76H238.58L238.72 400.61H246.13L246 391.76Z" fill="black"/>
<path d="M232.74 220.72C232.74 220.72 229.91 285.13 231.11 306.36C232.43 329.6 235.19 398.47 235.19 398.47H248.77C248.77 398.47 252.19 331.47 253.01 308.47C253.9 283.47 257.93 220.72 257.93 220.72H232.74Z" fill="#FF002C"/>
<path d="M249.32 398.47H234.65L233.53 393.01L249.72 393.82L249.32 398.47Z" fill="#263238"/>
<path d="M235.82 409.35C236.494 409.333 237.164 409.246 237.82 409.09C237.852 409.079 237.88 409.061 237.903 409.036C237.926 409.012 237.942 408.982 237.95 408.95C237.954 408.918 237.949 408.886 237.937 408.856C237.925 408.826 237.905 408.8 237.88 408.78C237.64 408.61 235.54 407.18 234.63 407.54C234.529 407.581 234.44 407.646 234.37 407.729C234.3 407.813 234.252 407.913 234.23 408.02C234.184 408.182 234.181 408.354 234.219 408.518C234.258 408.682 234.337 408.834 234.45 408.96C234.843 409.254 235.331 409.392 235.82 409.35ZM237.32 408.84C235.99 409.1 235.02 409.06 234.67 408.72C234.598 408.636 234.549 408.534 234.528 408.426C234.507 408.317 234.515 408.205 234.55 408.1C234.557 408.046 234.579 407.996 234.612 407.954C234.646 407.912 234.69 407.879 234.74 407.86C235.23 407.67 236.46 408.29 237.32 408.84Z" fill="#263238"/>
<path d="M237.76 409.09C237.786 409.098 237.814 409.098 237.84 409.09C237.865 409.075 237.886 409.055 237.902 409.031C237.918 409.006 237.927 408.979 237.93 408.95C237.93 408.86 238.1 406.73 237.35 406.01C237.255 405.917 237.139 405.846 237.013 405.805C236.886 405.763 236.752 405.751 236.62 405.77C236.474 405.775 236.333 405.829 236.221 405.924C236.109 406.018 236.031 406.147 236 406.29C235.82 407.1 236.93 408.65 237.67 409.09C237.699 409.099 237.731 409.099 237.76 409.09ZM236.76 406.09C236.829 406.088 236.897 406.1 236.961 406.126C237.024 406.152 237.082 406.191 237.13 406.24C237.543 406.953 237.715 407.781 237.62 408.6C236.98 408.05 236.24 406.87 236.35 406.34C236.35 406.24 236.43 406.12 236.68 406.09H236.76Z" fill="#263238"/>
<path d="M261.64 160.94C261.751 160.315 261.735 159.673 261.592 159.055C261.449 158.436 261.183 157.853 260.81 157.339C260.436 156.826 259.963 156.393 259.418 156.066C258.874 155.74 258.269 155.527 257.64 155.44H257.56C255.17 155.09 252.17 154.73 249.23 154.59C243.618 154.27 237.992 154.27 232.38 154.59C229.79 154.83 227.26 155.26 225.24 155.65H225.16C223.897 155.905 222.728 156.5 221.778 157.37C220.828 158.241 220.134 159.354 219.77 160.59C217.35 168.74 214.46 185.38 218.24 220.71H257.89C258.17 217.17 257.38 205.65 257.96 190.98C258.539 180.898 259.769 170.864 261.64 160.94Z" fill="#263238"/>
<path opacity="0.3" d="M261.26 163.12C260.44 167.86 259.43 174.31 258.73 181.12C258.73 181.12 255.11 174.02 254.45 167.95C253.79 161.88 259 161.42 261.26 163.12Z" fill="black"/>
<g opacity="0.2">
<path d="M234.67 164.06C234.588 164.056 234.509 164.026 234.445 163.973C234.382 163.921 234.337 163.849 234.318 163.769C234.299 163.689 234.306 163.605 234.339 163.529C234.372 163.454 234.428 163.391 234.5 163.35L246.86 156.94C246.948 156.897 247.049 156.89 247.142 156.92C247.235 156.95 247.313 157.014 247.36 157.1C247.406 157.189 247.415 157.293 247.385 157.388C247.355 157.484 247.288 157.563 247.2 157.61L234.84 164C234.788 164.031 234.73 164.051 234.67 164.06Z" fill="white"/>
<path d="M240.33 164.64C240.281 164.642 240.232 164.633 240.188 164.614C240.143 164.595 240.102 164.567 240.07 164.53L233.29 157.8C233.223 157.728 233.186 157.634 233.186 157.535C233.186 157.437 233.223 157.342 233.29 157.27C233.361 157.201 233.456 157.163 233.555 157.163C233.654 157.163 233.749 157.201 233.82 157.27L240.59 164.01C240.659 164.081 240.698 164.176 240.698 164.275C240.698 164.374 240.659 164.469 240.59 164.54C240.555 164.573 240.515 164.599 240.47 164.616C240.425 164.634 240.378 164.642 240.33 164.64Z" fill="white"/>
<path d="M249.26 154.58C243.651 154.26 238.029 154.26 232.42 154.58H232.14C232.004 155.095 231.972 155.631 232.046 156.158C232.119 156.686 232.298 157.193 232.57 157.65C233.51 159.15 235.48 159.99 238.44 160.15H239.55C247.55 160.15 250.64 155.29 250.77 155.08L251.05 154.63L249.26 154.58Z" fill="white"/>
</g>
<path d="M233.22 154.52C238.12 153.36 238.98 150.33 238.65 147C238.573 146.166 238.442 145.337 238.26 144.52L244.4 139.42L248.91 135.68C247.66 141.11 246.25 151 249.91 154.62C249.91 154.62 246.91 159.62 238.48 159.18C231.41 158.79 233.22 154.52 233.22 154.52Z" fill="#FF8B7B"/>
<path opacity="0.2" d="M238.26 144.52C238.442 145.338 238.572 146.166 238.65 147C240.94 146.54 244 144.1 244.32 141.76C244.432 140.985 244.459 140.2 244.4 139.42L238.26 144.52Z" fill="black"/>
<path d="M235 118.5C231.67 120.5 232.2 125.5 231.3 129.08C233.42 129.29 236.76 125.52 236.76 125.52L238.76 119.79L235 118.5Z" fill="#263238"/>
<path d="M252.71 128.56C250.58 135.62 249.71 139.85 245.19 142.8C243.736 143.772 242.045 144.328 240.298 144.408C238.551 144.488 236.816 144.089 235.279 143.254C233.743 142.419 232.464 141.179 231.581 139.67C230.698 138.161 230.245 136.438 230.27 134.69C230.27 127.96 233.73 117.54 241.45 116.1C243.114 115.744 244.842 115.833 246.461 116.356C248.08 116.88 249.533 117.82 250.674 119.082C251.815 120.345 252.604 121.885 252.961 123.548C253.318 125.212 253.232 126.94 252.71 128.56Z" fill="#FF8B7B"/>
<path d="M246.06 134.55C251.06 128.75 244.81 125.89 249.92 121.86C244.17 122.13 234.7 121.72 233.01 117.78C231.32 113.84 236.52 108.5 240.85 108C245.85 107.42 244.77 113.61 244.77 113.61C244.77 113.61 263.9 112.42 257.83 120.61C262.43 120.33 261.16 127.77 253.16 134.05C251.15 134.72 246.06 134.55 246.06 134.55Z" fill="#263238"/>
<path d="M256.68 120.71C256.68 120.71 260.62 119.54 260.49 116.42C261.91 117.4 262.06 120.38 256.68 120.71Z" fill="#263238"/>
<path d="M253.88 135.93C252.729 137.351 251.122 138.33 249.33 138.7C247.06 139.11 246.53 137.01 247.66 134.96C248.66 133.12 251.09 130.69 253.13 131.2C255.17 131.71 255.33 134.14 253.88 135.93Z" fill="#FF8B7B"/>
<path d="M241.32 128.38C241.18 128.96 240.76 129.38 240.37 129.29C239.98 129.2 239.79 128.68 239.93 128.1C240.07 127.52 240.49 127.1 240.87 127.18C241.25 127.26 241.46 127.79 241.32 128.38Z" fill="#263238"/>
<path d="M234.69 127.05C234.55 127.63 234.13 128.05 233.75 127.97C233.37 127.89 233.16 127.36 233.3 126.78C233.44 126.2 233.86 125.78 234.24 125.86C234.62 125.94 234.83 126.47 234.69 127.05Z" fill="#263238"/>
<path d="M236.73 127.76C235.601 129.406 234.256 130.893 232.73 132.18C233.07 132.546 233.486 132.834 233.949 133.022C234.412 133.21 234.911 133.295 235.41 133.27L236.73 127.76Z" fill="#FF5652"/>
<path d="M237.45 135.31C238.142 135.375 238.841 135.298 239.503 135.085C240.164 134.872 240.776 134.527 241.3 134.07C241.317 134.055 241.331 134.036 241.34 134.016C241.349 133.995 241.354 133.972 241.354 133.95C241.354 133.927 241.349 133.905 241.34 133.884C241.331 133.863 241.317 133.845 241.3 133.83C241.267 133.797 241.222 133.779 241.175 133.779C241.129 133.779 241.084 133.797 241.05 133.83C240.475 134.318 239.795 134.668 239.063 134.85C238.331 135.032 237.567 135.042 236.83 134.88C236.808 134.875 236.785 134.876 236.763 134.88C236.74 134.885 236.719 134.894 236.701 134.907C236.682 134.92 236.666 134.937 236.654 134.956C236.642 134.976 236.634 134.997 236.63 135.02C236.621 135.066 236.631 135.114 236.657 135.153C236.683 135.193 236.724 135.22 236.77 135.23L237.45 135.31Z" fill="#263238"/>
<path d="M243.88 126.76C243.935 126.778 243.995 126.778 244.05 126.76C244.092 126.741 244.13 126.715 244.161 126.681C244.193 126.648 244.217 126.609 244.233 126.566C244.249 126.523 244.256 126.477 244.254 126.431C244.252 126.386 244.24 126.341 244.22 126.3C244.005 125.788 243.668 125.338 243.237 124.989C242.806 124.64 242.295 124.403 241.75 124.3C241.658 124.288 241.564 124.313 241.49 124.369C241.415 124.425 241.365 124.508 241.35 124.6C241.345 124.646 241.348 124.692 241.361 124.737C241.373 124.782 241.395 124.823 241.424 124.859C241.452 124.896 241.488 124.926 241.529 124.948C241.569 124.971 241.614 124.985 241.66 124.99C242.084 125.079 242.479 125.269 242.814 125.544C243.148 125.82 243.411 126.171 243.58 126.57C243.609 126.625 243.653 126.671 243.705 126.704C243.758 126.738 243.818 126.757 243.88 126.76Z" fill="#263238"/>
<path d="M233.05 123.07C233.104 123.089 233.162 123.094 233.218 123.084C233.274 123.073 233.327 123.048 233.37 123.01C233.715 122.722 234.123 122.519 234.56 122.417C234.998 122.315 235.453 122.316 235.89 122.42C235.934 122.434 235.98 122.44 236.026 122.436C236.073 122.433 236.118 122.42 236.159 122.399C236.2 122.379 236.237 122.35 236.267 122.315C236.297 122.28 236.32 122.239 236.335 122.195C236.349 122.151 236.355 122.104 236.351 122.058C236.348 122.012 236.335 121.967 236.315 121.926C236.294 121.884 236.265 121.848 236.23 121.817C236.195 121.787 236.154 121.764 236.11 121.75C235.563 121.615 234.991 121.608 234.441 121.732C233.891 121.855 233.377 122.104 232.94 122.46C232.867 122.517 232.82 122.601 232.809 122.692C232.798 122.784 232.823 122.877 232.88 122.95C232.92 123.009 232.981 123.051 233.05 123.07Z" fill="#263238"/>
<path d="M262 158.09L262.83 159.22L263.58 160.28C264.08 160.99 264.53 161.7 265 162.41C265.91 163.84 266.77 165.29 267.6 166.75C269.264 169.669 270.772 172.673 272.12 175.75C272.82 177.27 273.42 178.85 274.06 180.4C274.7 181.95 275.24 183.56 275.73 185.18C276.784 188.404 277.652 191.686 278.33 195.01L278.41 195.39C278.557 196.061 278.57 196.755 278.448 197.431C278.326 198.107 278.072 198.752 277.7 199.33C276.412 201.307 274.883 203.118 273.15 204.72C271.367 206.353 269.344 207.703 267.15 208.72C264.985 209.729 262.666 210.371 260.29 210.62C259.127 210.74 257.956 210.76 256.79 210.68C256.21 210.68 255.63 210.57 255.05 210.48L254.17 210.31L253.17 210.06C253.053 210.031 252.951 209.958 252.887 209.855C252.824 209.752 252.803 209.628 252.83 209.51L254.21 203.71C254.21 203.66 254.47 203.65 254.63 203.61L255.18 203.5C255.56 203.42 255.93 203.33 256.31 203.23C257.051 203.029 257.776 202.775 258.48 202.47C259.843 201.91 261.119 201.16 262.27 200.24C264.522 198.387 266.321 196.044 267.53 193.39L266.9 197.71C266.04 194.88 265.13 192.08 264.03 189.31C262.93 186.54 261.73 183.82 260.42 181.14C259.11 178.46 257.71 175.81 256.2 173.23C255.46 171.94 254.68 170.67 253.9 169.41L252.71 167.55L252.12 166.65L251.57 165.85L251.37 165.55C250.381 164.14 249.992 162.395 250.289 160.699C250.587 159.003 251.546 157.494 252.955 156.505C254.365 155.516 256.11 155.127 257.806 155.424C259.502 155.721 261.011 156.68 262 158.09Z" fill="#263238"/>
<path d="M248.78 209.48L246.63 213L255.96 212.63C255.96 212.63 258.41 206.35 255.07 205.36L253.77 205.71C251.691 206.292 249.908 207.639 248.78 209.48Z" fill="#FF8B7B"/>
<path d="M252.62 204.55C251.948 205.004 251.37 205.585 250.92 206.26C253.46 207.64 257 212.34 257 212.34L257.82 209.76C257.924 209.427 257.954 209.075 257.907 208.73C257.861 208.384 257.739 208.053 257.55 207.76L256 205.26C255.831 204.984 255.607 204.747 255.342 204.561C255.078 204.375 254.779 204.245 254.463 204.178C254.146 204.112 253.82 204.111 253.503 204.174C253.186 204.238 252.886 204.366 252.62 204.55Z" fill="#FF002C"/>
<path d="M247.45 218.42L255.14 217.74L255.96 212.63L246.63 213L247.45 218.42Z" fill="#FF8B7B"/>
<path d="M153.06 96.3402L152.55 95.4802C154.016 94.6111 155.544 93.8491 157.12 93.2002L157.5 94.1302C155.967 94.7557 154.483 95.4944 153.06 96.3402Z" fill="#FF002C"/>
<path d="M138.46 114L137.46 113.66C139.831 107.096 144.119 101.396 149.77 97.3003L150.36 98.1103C144.888 102.092 140.741 107.629 138.46 114Z" fill="#FF002C"/>
<path d="M170.2 156.17C187.199 156.17 200.98 142.39 200.98 125.39C200.98 108.391 187.199 94.6104 170.2 94.6104C153.201 94.6104 139.42 108.391 139.42 125.39C139.42 142.39 153.201 156.17 170.2 156.17Z" fill="#FF002C"/>
<path opacity="0.6" d="M195.91 125.39C195.908 131.388 193.809 137.197 189.976 141.811C186.143 146.425 180.817 149.553 174.921 150.655C169.025 151.756 162.93 150.762 157.689 147.843C152.449 144.924 148.394 140.265 146.227 134.672C144.06 129.08 143.916 122.905 145.821 117.217C147.725 111.53 151.559 106.687 156.658 103.528C161.756 100.368 167.799 99.0909 173.74 99.9168C179.681 100.743 185.146 103.62 189.19 108.05C189.198 108.047 189.206 108.045 189.215 108.045C189.223 108.045 189.232 108.047 189.24 108.05C193.551 112.794 195.93 118.98 195.91 125.39Z" fill="white"/>
<path d="M195.91 125.39C195.91 130.388 194.453 135.277 191.718 139.46C188.983 143.643 185.089 146.938 180.511 148.942C175.932 150.946 170.87 151.573 165.941 150.745C161.012 149.917 156.432 147.67 152.76 144.28C148.271 139.388 145.848 132.949 145.999 126.31C146.151 119.672 148.865 113.35 153.573 108.667C158.281 103.985 164.618 101.306 171.257 101.191C177.896 101.076 184.323 103.534 189.19 108.05C189.198 108.047 189.206 108.045 189.215 108.045C189.224 108.045 189.232 108.047 189.24 108.05C193.551 112.794 195.931 118.98 195.91 125.39Z" fill="white"/>
<path d="M170.2 126.89C170.003 126.891 169.808 126.852 169.626 126.777C169.444 126.701 169.279 126.59 169.14 126.45L156.6 113.91C156.453 113.773 156.334 113.607 156.252 113.423C156.17 113.239 156.126 113.041 156.123 112.839C156.119 112.638 156.156 112.438 156.232 112.251C156.307 112.064 156.419 111.895 156.562 111.752C156.704 111.61 156.874 111.498 157.061 111.422C157.248 111.347 157.448 111.31 157.649 111.313C157.85 111.317 158.049 111.361 158.233 111.443C158.417 111.525 158.583 111.643 158.72 111.79L170.2 123.27L176.83 116.64C177.114 116.375 177.49 116.231 177.879 116.238C178.268 116.245 178.638 116.402 178.913 116.677C179.188 116.952 179.345 117.323 179.352 117.711C179.359 118.1 179.215 118.476 178.95 118.76L171.26 126.45C170.978 126.731 170.597 126.889 170.2 126.89Z" fill="#263238"/>
</svg>
