<svg width="500" height="500" viewBox="0 0 500 500" fill="none" xmlns="http://www.w3.org/2000/svg">
<path d="M500 382.4H0V382.65H500V382.4Z" fill="#EBEBEB"/>
<path d="M237 337.8H43.91C42.3973 337.797 40.9475 337.195 39.8788 336.124C38.8102 335.053 38.21 333.603 38.21 332.09V60.66C38.2231 59.156 38.8292 57.718 39.8964 56.6582C40.9637 55.5985 42.4059 55.0026 43.91 55H237C238.514 55 239.967 55.6016 241.038 56.6724C242.108 57.7433 242.71 59.1956 242.71 60.71V332.09C242.71 333.604 242.108 335.057 241.038 336.128C239.967 337.198 238.514 337.8 237 337.8ZM43.91 55.2C42.4636 55.2026 41.0774 55.7791 40.0556 56.8027C39.0338 57.8264 38.46 59.2136 38.46 60.66V332.09C38.46 333.536 39.0338 334.924 40.0556 335.947C41.0774 336.971 42.4636 337.547 43.91 337.55H237C238.447 337.547 239.834 336.971 240.858 335.948C241.881 334.924 242.457 333.537 242.46 332.09V60.66C242.457 59.2127 241.881 57.8255 240.858 56.8021C239.834 55.7787 238.447 55.2026 237 55.2H43.91Z" fill="#EBEBEB"/>
<path d="M453.31 337.8H260.21C258.696 337.797 257.246 337.195 256.175 336.125C255.105 335.054 254.503 333.604 254.5 332.09V60.66C254.516 59.1551 255.124 57.7171 256.193 56.6576C257.262 55.5981 258.705 55.0025 260.21 55H453.31C454.812 55.0052 456.252 55.6022 457.317 56.6617C458.382 57.7212 458.987 59.1578 459 60.66V332.09C459 333.601 458.401 335.05 457.335 336.121C456.268 337.191 454.821 337.795 453.31 337.8ZM260.21 55.2C258.763 55.2026 257.375 55.7787 256.352 56.8021C255.329 57.8255 254.753 59.2127 254.75 60.66V332.09C254.753 333.537 255.329 334.924 256.352 335.948C257.375 336.971 258.763 337.547 260.21 337.55H453.31C454.757 337.547 456.145 336.971 457.168 335.948C458.191 334.924 458.767 333.537 458.77 332.09V60.66C458.767 59.2127 458.191 57.8255 457.168 56.8021C456.145 55.7787 454.757 55.2026 453.31 55.2H260.21Z" fill="#EBEBEB"/>
<path d="M449.9 391.92H418.33V392.17H449.9V391.92Z" fill="#EBEBEB"/>
<path d="M335.34 389.21H301.93V389.46H335.34V389.21Z" fill="#EBEBEB"/>
<path d="M459.02 401.21H396.59V401.46H459.02V401.21Z" fill="#EBEBEB"/>
<path d="M71.69 399.53H52.46V399.78H71.69V399.53Z" fill="#EBEBEB"/>
<path d="M110.89 399.53H80.6001V399.78H110.89V399.53Z" fill="#EBEBEB"/>
<path d="M244.14 395.31H189.58V395.56H244.14V395.31Z" fill="#EBEBEB"/>
<path d="M277.25 247.83L425.63 247.83V91.2501L277.25 91.2501V247.83Z" fill="#E6E6E6"/>
<path d="M261.35 86.1802H435.24C435.434 86.1802 435.626 86.2185 435.805 86.293C435.984 86.3675 436.146 86.4767 436.283 86.6143C436.42 86.7518 436.528 86.9151 436.601 87.0946C436.674 87.2741 436.711 87.4663 436.71 87.6602C436.71 88.05 436.555 88.4239 436.28 88.6996C436.004 88.9753 435.63 89.1302 435.24 89.1302H261.35C261.156 89.1315 260.964 89.0944 260.785 89.0212C260.605 88.9479 260.442 88.8398 260.304 88.7032C260.167 88.5665 260.057 88.404 259.983 88.225C259.908 88.046 259.87 87.8541 259.87 87.6602C259.87 87.2677 260.026 86.8912 260.304 86.6137C260.581 86.3361 260.958 86.1802 261.35 86.1802Z" fill="#E6E6E6"/>
<path d="M270.95 247.83L422.69 247.83V91.2501L270.95 91.2501V247.83Z" fill="#F0F0F0"/>
<path d="M277.25 253.68L425.63 253.68V247.83L277.25 247.83V253.68Z" fill="#E6E6E6"/>
<path d="M260.46 253.68L412.2 253.68V247.83L260.46 247.83V253.68Z" fill="#F0F0F0"/>
<path d="M413.87 239.02V100.07L279.76 100.07V239.02H413.87Z" fill="#FAFAFA"/>
<path d="M383.43 239.02L331.7 100.06H307.27L359.01 239.02H383.43Z" fill="white"/>
<path d="M353.76 239.02L302.03 100.06H292.51L344.24 239.02H353.76Z" fill="white"/>
<path d="M280.89 239.02V100.07H279.77V239.02H280.89Z" fill="#E6E6E6"/>
<g opacity="0.6">
<path d="M314.62 225.18H264.12L266.99 83.3496H317.49L314.62 225.18Z" fill="#F0F0F0"/>
<path d="M334.29 225.18H294.95L297.82 83.3496H337.16L334.29 225.18Z" fill="#E6E6E6"/>
<path d="M365.12 225.18H314.62L317.49 83.3496H367.99L365.12 225.18Z" fill="#F0F0F0"/>
<path d="M384.79 225.18H345.45L348.32 83.3498L387.66 83.3398L384.79 225.18Z" fill="#E6E6E6"/>
<path d="M415.62 225.18H365.12L367.99 83.3498L418.49 83.3398L415.62 225.18Z" fill="#F0F0F0"/>
</g>
<path d="M220.63 226.04V75.3701L85.6299 75.3701V226.04H220.63Z" fill="#EBEBEB"/>
<path d="M221.85 226.04V75.3701H220.63V226.04H221.85Z" fill="#E0E0E0"/>
<path d="M95.6401 216.03H210.64L210.64 85.3598H95.6401L95.6401 216.03Z" fill="#F5F5F5"/>
<path d="M157.38 220.37H189.77V175.04H157.38V220.37Z" fill="white"/>
<path d="M118.42 224.33H150.8L153.13 178.99H120.75L118.42 224.33Z" fill="white"/>
<path d="M90.21 168.19H122.59L124.92 122.85H92.54L90.21 168.19Z" fill="white"/>
<path d="M189.308 126.873L214.214 127.965L215.742 93.1083L190.836 92.0165L189.308 126.873Z" fill="white"/>
<path d="M90.2101 112.87L115.116 113.962L116.644 79.1054L91.7381 78.0136L90.2101 112.87Z" fill="white"/>
<path d="M215.224 133.43L190.296 133.1L189.833 167.987L214.761 168.317L215.224 133.43Z" fill="white"/>
<path d="M132.06 166.432L184.857 164.902L182.715 90.9934L129.918 92.5235L132.06 166.432Z" fill="white"/>
<path d="M117.97 382.4L117.97 244H62.4602L62.4602 382.4H117.97Z" fill="#F0F0F0"/>
<path d="M114.92 288.21V247.47H65.4999V288.21H114.92Z" fill="#E6E6E6"/>
<path d="M114.92 332.61V291.87H65.4999V332.61H114.92Z" fill="#E6E6E6"/>
<path d="M114.92 377.01V336.27H65.4999V377.01H114.92Z" fill="#E6E6E6"/>
<path d="M84.9399 288.21V247.47H65.4999V288.21H84.9399Z" fill="#E0E0E0"/>
<path d="M84.9399 332.61V291.87H65.4999V332.61H84.9399Z" fill="#E0E0E0"/>
<path d="M84.9302 377.01V336.27H65.4902V377.01H84.9302Z" fill="#E0E0E0"/>
<path d="M133.04 382.4V244H117.97L117.97 382.4H133.04Z" fill="#F5F5F5"/>
<path d="M177.32 382.4V244H121.81V382.4H177.32Z" fill="#F0F0F0"/>
<path d="M174.27 288.21V247.47H124.85V288.21H174.27Z" fill="#E6E6E6"/>
<path d="M174.27 332.61V291.87H124.85V332.61H174.27Z" fill="#E6E6E6"/>
<path d="M174.28 377V336.26H124.86V377H174.28Z" fill="#E6E6E6"/>
<path d="M144.29 288.21V247.47H124.85V288.21H144.29Z" fill="#E0E0E0"/>
<path d="M144.29 332.61V291.87H124.85V332.61H144.29Z" fill="#E0E0E0"/>
<path d="M144.28 377.01V336.27H124.84V377.01H144.28Z" fill="#E0E0E0"/>
<path d="M192.39 382.4V244H177.32V382.4H192.39Z" fill="#F5F5F5"/>
<path d="M106 324.6C106 329.02 100.28 332.6 93.23 332.6C86.18 332.6 80.5 329 80.5 324.6H106Z" fill="#F0F0F0"/>
<path d="M106 318.62C106 323.04 100.28 326.62 93.2302 326.62C86.1802 326.62 80.4702 323.04 80.4702 318.62H106Z" fill="#F0F0F0"/>
<path d="M167 280.21C167 284.63 159.85 288.21 151 288.21C142.15 288.21 135 284.63 135 280.21H167Z" fill="#FAFAFA"/>
<path d="M167 274.22C167 278.64 159.85 282.22 151 282.22C142.15 282.22 135 278.63 135 274.22H167Z" fill="#FAFAFA"/>
<path d="M128.21 377H168.34V342.13H128.21V377Z" fill="#F0F0F0"/>
<path d="M174.27 342.14H168.33V377.01H174.27V342.14Z" fill="#E0E0E0"/>
<path d="M68.8602 288.21H108.99V253.34H68.8602V288.21Z" fill="#F0F0F0"/>
<path d="M114.92 253.34H108.98V288.21H114.92V253.34Z" fill="#E0E0E0"/>
<path d="M267.62 382.4H275.41V309.14H267.62V382.4Z" fill="#E6E6E6"/>
<path d="M265.53 382.4H270.12V309.14H265.53V382.4Z" fill="#F0F0F0"/>
<path d="M374.69 309.14H264.12V317.25H374.69V309.14Z" fill="#F0F0F0"/>
<path d="M424.13 382.4H431.92V309.14H424.13V382.4Z" fill="#E6E6E6"/>
<path d="M422.67 382.4H427.26V309.14H422.67V382.4Z" fill="#F0F0F0"/>
<path d="M433.31 309.14H378.02V317.25H433.31V309.14Z" fill="#E6E6E6"/>
<path d="M375.35 382.4H383.14V309.14H375.35V382.4Z" fill="#E6E6E6"/>
<path d="M373.27 382.4H377.86V309.14H373.27V382.4Z" fill="#F0F0F0"/>
<path d="M250 427.56C357.082 427.56 443.89 422.492 443.89 416.24C443.89 409.988 357.082 404.92 250 404.92C142.917 404.92 56.1099 409.988 56.1099 416.24C56.1099 422.492 142.917 427.56 250 427.56Z" fill="#F5F5F5"/>
<path d="M298.81 405.64L284.67 404V322.89H272.55V404L258.41 405.64L257.18 409.66H300.04L298.81 405.64Z" fill="#263238"/>
<path opacity="0.4" d="M298.81 405.64L284.67 404V322.89H272.55V404L258.41 405.64L257.18 409.66H300.04L298.81 405.64Z" fill="#FF002C"/>
<path d="M275 213.75H338C327.333 247.088 321.849 281.867 321.74 316.87H258.74C258.849 281.867 264.333 247.088 275 213.75Z" fill="#FF002C"/>
<path opacity="0.3" d="M275 213.75H338C327.333 247.088 321.849 281.867 321.74 316.87H258.74C258.849 281.867 264.333 247.088 275 213.75Z" fill="black"/>
<path d="M271.17 213.75H334.17C323.499 247.088 318.012 281.866 317.9 316.87H254.9C255.007 281.866 260.494 247.086 271.17 213.75Z" fill="#FF002C"/>
<path d="M307.27 326.55H218.09C221.84 318.39 228.66 313.39 236.02 313.39H301.23L307.27 326.55Z" fill="#FF002C"/>
<path d="M325.39 326.55H282.33C286.07 318.39 292.89 313.39 300.26 313.39H315.5C322.86 313.39 326.5 317.64 325.39 326.55Z" fill="#FF002C"/>
<path opacity="0.3" d="M325.39 326.55H282.33C286.07 318.39 292.89 313.39 300.26 313.39H315.5C322.86 313.39 326.5 317.64 325.39 326.55Z" fill="black"/>
<path d="M237.45 401.31L229.38 402.37L224.13 384.09L232.2 383.03L237.45 401.31Z" fill="#FFC3BD"/>
<path d="M228.37 400.26L237.37 399.07C237.521 399.047 237.675 399.082 237.8 399.17C237.925 399.258 238.011 399.39 238.04 399.54L239.42 406.65C239.472 407.026 239.372 407.408 239.144 407.711C238.915 408.015 238.576 408.215 238.2 408.27C235.04 408.63 233.51 408.64 229.53 409.17C227.08 409.49 218.65 410.66 215.24 410.68C211.83 410.7 212 407.33 213.4 407C219.87 405.6 225 403 227.04 400.93C227.397 400.566 227.865 400.33 228.37 400.26Z" fill="#263238"/>
<path opacity="0.2" d="M232.2 383.04L224.13 384.1L226.84 393.52L234.91 392.46L232.2 383.04Z" fill="black"/>
<path d="M263.92 284.1C263.92 284.1 200.67 288.63 203.22 311.8C206.89 345.11 221.22 388.85 221.22 388.85L235.89 386.33C235.89 386.33 229.75 346 226.49 320C242.27 313.46 285.07 319.73 290.09 306.1C292.552 299.04 293.202 291.476 291.98 284.1H263.92Z" fill="#263238"/>
<path opacity="0.3" d="M233.1 303.39C233.1 303.39 234.64 310.28 235.69 317.76H235.55L233.93 318.01L233.1 318.17L232.17 318.34C230.9 318.606 229.645 318.94 228.41 319.34L227.56 319.62C227.19 319.74 226.83 319.89 226.49 320.03C226.86 323.03 228.14 326.94 228.15 330.36C214.08 313.72 225.68 303.39 233.1 303.39Z" fill="black"/>
<path d="M238.19 389.66L220.98 391.92L218.66 385.73L235.89 381.87L238.19 389.66Z" fill="#FF002C"/>
<path d="M225.69 402C226.412 401.886 227.119 401.695 227.8 401.43C227.834 401.417 227.864 401.396 227.887 401.368C227.91 401.34 227.925 401.306 227.93 401.27C227.932 401.232 227.922 401.195 227.902 401.163C227.883 401.131 227.854 401.106 227.82 401.09C227.54 400.94 225.06 399.68 224.12 400.2C224.015 400.26 223.926 400.346 223.861 400.449C223.797 400.551 223.759 400.669 223.75 400.79C223.711 400.974 223.725 401.166 223.791 401.343C223.856 401.52 223.97 401.675 224.12 401.79C224.599 402.052 225.159 402.127 225.69 402ZM227.25 401.23C225.85 401.7 224.78 401.8 224.35 401.47C224.258 401.391 224.189 401.289 224.151 401.175C224.112 401.061 224.105 400.938 224.13 400.82C224.131 400.761 224.147 400.703 224.177 400.652C224.207 400.601 224.249 400.559 224.3 400.53C224.81 400.29 226.24 400.79 227.25 401.27V401.23Z" fill="#FF002C"/>
<path d="M227.76 401.48C227.786 401.49 227.814 401.49 227.84 401.48C227.868 401.462 227.891 401.436 227.907 401.407C227.922 401.377 227.93 401.344 227.93 401.31C227.93 401.22 227.8 398.87 226.88 398.2C226.764 398.109 226.629 398.047 226.484 398.019C226.34 397.991 226.191 397.998 226.05 398.04C225.889 398.066 225.742 398.145 225.631 398.265C225.521 398.385 225.453 398.538 225.44 398.7C225.37 399.6 226.8 401.13 227.66 401.5C227.695 401.504 227.729 401.497 227.76 401.48ZM226.23 398.36C226.382 398.34 226.536 398.38 226.66 398.47C227.203 399.188 227.504 400.06 227.52 400.96C226.74 400.46 225.77 399.29 225.82 398.7C225.82 398.58 225.87 398.44 226.14 398.38L226.23 398.36Z" fill="#FF002C"/>
<path d="M272.68 221.55C271.98 224.69 271.13 227.61 270.28 230.61C269.43 233.61 268.47 236.54 267.43 239.47C266.39 242.4 265.3 245.33 264.11 248.24C262.92 251.15 261.59 254.02 260.16 256.87L259.9 257.38L259.8 257.53C258.933 258.76 257.865 259.835 256.64 260.71C255.7 261.393 254.715 262.011 253.69 262.56C251.856 263.511 249.954 264.327 248 265C246.11 265.66 244.22 266.21 242.33 266.68C240.427 267.153 238.501 267.527 236.56 267.8L234.69 262L239.44 259.34C241.01 258.44 242.56 257.55 244.04 256.63C245.469 255.768 246.851 254.83 248.18 253.82C248.748 253.398 249.279 252.929 249.77 252.42C250.18 251.99 250.48 251.57 250.42 251.53L250.06 252.19C251.15 249.53 252.15 246.8 253.12 244.04C254.09 241.28 254.97 238.48 255.84 235.65C256.71 232.82 257.54 229.99 258.35 227.14C259.16 224.29 259.95 221.39 260.7 218.64L272.68 221.55Z" fill="#FFC3BD"/>
<path d="M259.46 219.38C252.85 226.97 248.46 237.59 248.46 237.59L265.76 248C270.76 241.91 276.98 225.82 277.23 220.39C277.62 212.05 266.58 211.21 259.46 219.38Z" fill="#FF002C"/>
<path opacity="0.5" d="M259.46 219.38C252.85 226.97 248.46 237.59 248.46 237.59L265.76 248C270.76 241.91 276.98 225.82 277.23 220.39C277.62 212.05 266.58 211.21 259.46 219.38Z" fill="white"/>
<path opacity="0.5" d="M265.55 227.12C261.78 230.29 259.1 236.88 257.93 243.28L265.76 247.99C268.23 244.99 271 239.54 273.2 234.12C271.44 228.75 268.88 224.32 265.55 227.12Z" fill="#FF002C"/>
<path d="M263.11 406.18H254.98L251.25 387.35H259.38L263.11 406.18Z" fill="#FFC3BD"/>
<path d="M254.72 404.2H263.86C264.012 404.195 264.16 404.249 264.273 404.352C264.385 404.455 264.452 404.598 264.46 404.75L264.9 411.98C264.903 412.36 264.755 412.726 264.489 412.998C264.223 413.269 263.86 413.425 263.48 413.43C260.3 413.37 258.78 413.19 254.76 413.19C252.29 413.19 243.91 413.44 240.5 413.44C237.09 413.44 237.18 410.07 238.63 409.76C245.11 408.39 251.03 406.5 253.32 404.7C253.718 404.382 254.211 404.206 254.72 404.2Z" fill="#263238"/>
<path opacity="0.2" d="M259.38 387.35H251.25L253.18 397.06H261.31L259.38 387.35Z" fill="black"/>
<path d="M279.85 284.1C279.85 284.1 226.25 288.63 227.57 311.91C229.01 337.4 249.65 394.72 249.65 394.72H264.54C264.54 394.72 257.8 342.86 254.54 316.9C269.65 316.9 301 319.75 306.02 306.12C308.473 299.188 308.968 291.714 307.45 284.52L279.85 284.1Z" fill="#263238"/>
<path d="M265.39 394.95L247.53 395.76L246.15 388.09L264.84 388.15L265.39 394.95Z" fill="#FF002C"/>
<path d="M251.84 405.62C252.572 405.598 253.299 405.501 254.01 405.33C254.045 405.321 254.077 405.302 254.102 405.275C254.127 405.249 254.144 405.216 254.15 405.18C254.158 405.144 254.154 405.106 254.14 405.072C254.126 405.038 254.101 405.009 254.07 404.99C253.81 404.81 251.51 403.23 250.52 403.62C250.407 403.665 250.307 403.739 250.231 403.833C250.154 403.927 250.102 404.04 250.08 404.16C250.026 404.333 250.02 404.517 250.062 404.693C250.104 404.869 250.193 405.03 250.32 405.16C250.751 405.5 251.294 405.664 251.84 405.62ZM253.49 405.05C252.03 405.34 250.96 405.3 250.58 404.92C250.501 404.827 250.448 404.716 250.425 404.597C250.402 404.478 250.411 404.355 250.45 404.24C250.459 404.181 250.483 404.125 250.52 404.077C250.557 404.03 250.605 403.993 250.66 403.97C251.19 403.77 252.54 404.45 253.49 405.05Z" fill="#FF002C"/>
<path d="M254 405.33H254.08C254.108 405.316 254.132 405.295 254.15 405.268C254.168 405.242 254.178 405.211 254.18 405.18C254.18 405.08 254.37 402.74 253.55 401.95C253.444 401.849 253.318 401.773 253.18 401.726C253.042 401.68 252.895 401.664 252.75 401.68C252.587 401.687 252.431 401.748 252.306 401.853C252.182 401.958 252.095 402.101 252.06 402.26C251.88 403.14 253.06 404.84 253.9 405.32C253.931 405.333 253.966 405.337 254 405.33ZM252.88 402.03C252.956 402.029 253.032 402.044 253.102 402.073C253.173 402.103 253.236 402.146 253.29 402.2C253.741 402.98 253.93 403.884 253.83 404.78C253.12 404.19 252.31 402.9 252.43 402.32C252.43 402.21 252.52 402.07 252.8 402.04L252.88 402.03Z" fill="#FF002C"/>
<path d="M238.54 262.22L229.45 259.94L230.09 269.66C230.09 269.66 239.09 269.66 239.85 267.01L238.54 262.22Z" fill="#FFC3BD"/>
<path d="M222.54 264.68L224.68 270.78L230.09 269.66L229.45 259.94L222.54 264.68Z" fill="#FFC3BD"/>
<path d="M264 284.52H307.48C307.79 280.64 306.89 268 307.56 251.91C307.973 239.987 309.418 228.123 311.88 216.45C312.08 215.57 312.28 214.71 312.49 213.83C312.49 213.83 310.28 213.38 307.12 212.92C304.5 212.53 301.21 212.14 297.99 211.99C291.835 211.635 285.665 211.635 279.51 211.99C276.67 212.25 273.89 212.72 271.68 213.15C268.85 213.72 267.18 214.21 267.18 214.21C267.18 214.21 256.44 238.8 264 284.52Z" fill="#FF002C"/>
<path opacity="0.5" d="M264 284.52H307.48C307.79 280.64 306.89 268 307.56 251.91C307.973 239.987 309.418 228.123 311.88 216.45C312.08 215.57 312.28 214.71 312.49 213.83C312.49 213.83 310.28 213.38 307.12 212.92C304.5 212.53 301.21 212.14 297.99 211.99C291.835 211.635 285.665 211.635 279.51 211.99C276.67 212.25 273.89 212.72 271.68 213.15C268.85 213.72 267.18 214.21 267.18 214.21C267.18 214.21 256.44 238.8 264 284.52Z" fill="white"/>
<path opacity="0.5" d="M307.53 251.92C307.943 239.994 309.389 228.126 311.85 216.45C308.95 216.2 303.98 216.45 303.16 221.18C302.27 226.22 302.2 238 307.53 251.92Z" fill="#FF002C"/>
<path d="M315.22 219.46C315.64 220.23 315.93 220.81 316.22 221.46C316.51 222.11 316.83 222.76 317.12 223.46C317.7 224.76 318.25 226.07 318.77 227.39C319.811 230.05 320.709 232.764 321.46 235.52C322.233 238.313 322.831 241.152 323.25 244.02C323.686 246.979 323.86 249.97 323.77 252.96V253.25V253.82C323.738 254.22 323.681 254.617 323.6 255.01C323.446 255.756 323.205 256.481 322.88 257.17C322.334 258.319 321.593 259.364 320.69 260.26C319.346 261.568 317.804 262.655 316.12 263.48C313.401 264.804 310.539 265.811 307.59 266.48C304.854 267.133 302.082 267.63 299.29 267.97C296.529 268.316 293.752 268.517 290.97 268.57L290.15 262.52C295.099 261.132 299.975 259.497 304.76 257.62C306.933 256.78 309.019 255.731 310.99 254.49C311.675 254.066 312.284 253.528 312.79 252.9C312.92 252.71 312.92 252.61 312.85 252.7C312.794 252.779 312.754 252.867 312.73 252.96C312.707 253.025 312.691 253.092 312.68 253.16C312.68 253.16 312.68 253.26 312.68 253.22V253.01C312.301 248.22 311.337 243.495 309.81 238.94C309.05 236.593 308.203 234.26 307.27 231.94C306.82 230.78 306.34 229.62 305.84 228.48L305.07 226.79L304.34 225.22L315.22 219.46Z" fill="#FFC3BD"/>
<path d="M312.46 213.83C304.54 211.33 299.46 217.66 301.66 228.63C303.86 239.6 306.66 243.69 306.66 243.69L325.18 241.07C323.67 230.31 320.56 216.39 312.46 213.83Z" fill="#FF002C"/>
<path opacity="0.5" d="M312.46 213.83C304.54 211.33 299.46 217.66 301.66 228.63C303.86 239.6 306.66 243.69 306.66 243.69L325.18 241.07C323.67 230.31 320.56 216.39 312.46 213.83Z" fill="white"/>
<path d="M297.56 191.26L292.62 195.36L285.88 201C286.079 201.897 286.223 202.805 286.31 203.72C286.67 207.38 285.73 210.72 280.36 211.97C280.36 211.97 275.07 216.91 285.64 217.06C296.21 217.21 298.64 212.06 298.64 212.06C294.65 208.06 296.19 197.21 297.56 191.26Z" fill="#FFC3BD"/>
<path d="M297.92 209.07C297.92 209.07 292.4 214.84 285.12 217.01C286.427 217.27 287.608 217.963 288.471 218.978C289.335 219.992 289.832 221.268 289.88 222.6C295.11 221.04 301.32 213.18 301.15 211.72C300.02 210.904 298.941 210.019 297.92 209.07Z" fill="white"/>
<path d="M282.77 210.7C282.77 210.7 277.83 214.84 285.12 217.01C283.781 217.171 282.522 217.735 281.511 218.628C280.501 219.521 279.785 220.701 279.46 222.01C278.166 220.572 277.385 218.745 277.24 216.816C277.096 214.887 277.595 212.965 278.66 211.35C280.043 211.222 281.416 211.005 282.77 210.7Z" fill="white"/>
<path opacity="0.2" d="M285.88 201C286.079 201.897 286.223 202.805 286.31 203.72C288.82 203.22 292.18 200.54 292.53 197.98C292.65 197.129 292.68 196.267 292.62 195.41L285.88 201Z" fill="black"/>
<path d="M279.43 173C276.11 175.75 276.71 186.39 279.9 185.41C283.09 184.43 284.91 168.48 279.43 173Z" fill="#263238"/>
<path d="M299.6 182.7C297.88 190.6 297.28 195.3 292.6 198.91C291.095 200.093 289.295 200.844 287.395 201.08C285.495 201.316 283.566 201.03 281.817 200.251C280.068 199.472 278.565 198.23 277.469 196.66C276.373 195.09 275.727 193.25 275.6 191.34C274.99 183.98 277.91 172.29 286.22 170.05C288.008 169.519 289.904 169.468 291.718 169.902C293.532 170.335 295.2 171.237 296.555 172.519C297.911 173.8 298.905 175.415 299.44 177.202C299.974 178.989 300.029 180.885 299.6 182.7Z" fill="#FFC3BD"/>
<path d="M297 188.12C295.72 186.54 295.63 182.52 296.54 181.24C295.17 180.15 293.8 176.63 294.86 175.24C292.18 175.06 278.31 178.39 275.55 168.43C276.987 168.675 278.454 168.675 279.89 168.43C279.89 168.43 277.07 163.74 282.07 162.34C282.8 164.71 288.83 164.95 291.82 164.84C297.95 164.59 304.94 167.14 302.11 171.9C306.59 173.87 307.32 182.57 297 188.12Z" fill="#263238"/>
<path d="M301 171.6C301 171.6 304.06 172.24 303.47 168.34C306 170.48 304.38 174.39 301 171.6Z" fill="#263238"/>
<path d="M300.89 190C299.819 191.393 298.276 192.346 296.55 192.68C294.31 193.08 293.63 191.02 294.62 189.03C295.51 187.23 297.75 184.86 299.81 185.37C301.87 185.88 302.22 188.28 300.89 190Z" fill="#FFC3BD"/>
<path d="M296.28 185.33C295.448 188.241 294.093 190.975 292.28 193.4C291.337 194.65 290.097 195.644 288.672 196.292C287.246 196.94 285.682 197.221 284.12 197.11C281.25 197.06 281.69 193.11 281.69 193.11L280.28 192.79C280.28 192.79 280.43 197.68 277.63 195.61C276.884 194.743 276.347 193.717 276.06 192.61C275.768 191.745 275.6 190.842 275.56 189.93C274.88 191.01 274.63 195.8 275.67 198.08C276.654 199.791 278.258 201.059 280.15 201.62C283.606 202.6 287.282 202.471 290.66 201.25C295.76 199.25 296.5 194.33 296.66 191.53C296.852 189.456 297.186 187.398 297.66 185.37L296.28 185.33Z" fill="#263238"/>
<path d="M286.06 183.42C285.96 184.07 285.54 184.55 285.11 184.5C284.68 184.45 284.42 183.88 284.52 183.24C284.62 182.6 285.05 182.1 285.52 182.15C285.99 182.2 286.16 182.77 286.06 183.42Z" fill="#263238"/>
<path d="M278.7 182.54C278.6 183.19 278.18 183.68 277.75 183.63C277.32 183.58 277.06 183.01 277.16 182.36C277.26 181.71 277.69 181.23 278.11 181.28C278.53 181.33 278.8 181.89 278.7 182.54Z" fill="#263238"/>
<path d="M281 182.8C280.183 184.473 279.147 186.03 277.92 187.43C278.283 187.721 278.706 187.929 279.159 188.038C279.612 188.147 280.084 188.154 280.54 188.06L281 182.8Z" fill="#ED847E"/>
<path d="M280.5 191.26C281.253 191.375 282.021 191.336 282.759 191.146C283.496 190.955 284.187 190.616 284.79 190.15C284.809 190.133 284.825 190.113 284.836 190.091C284.847 190.069 284.854 190.044 284.856 190.019C284.858 189.994 284.855 189.969 284.847 189.945C284.839 189.921 284.826 189.899 284.81 189.88C284.793 189.861 284.773 189.845 284.751 189.834C284.729 189.823 284.704 189.816 284.679 189.814C284.654 189.812 284.629 189.815 284.605 189.823C284.581 189.831 284.559 189.843 284.54 189.86C283.878 190.356 283.111 190.693 282.297 190.846C281.484 190.999 280.647 190.962 279.85 190.74C279.826 190.734 279.8 190.733 279.776 190.737C279.751 190.74 279.727 190.749 279.706 190.762C279.684 190.775 279.666 190.792 279.651 190.812C279.636 190.833 279.626 190.856 279.62 190.88C279.612 190.904 279.61 190.928 279.612 190.953C279.615 190.978 279.622 191.002 279.635 191.023C279.647 191.045 279.663 191.064 279.683 191.079C279.703 191.094 279.726 191.104 279.75 191.11C279.996 191.177 280.247 191.227 280.5 191.26Z" fill="#263238"/>
<path d="M290.24 179.4C290.304 179.388 290.364 179.357 290.41 179.31C290.446 179.275 290.474 179.233 290.493 179.186C290.513 179.14 290.523 179.09 290.523 179.04C290.523 178.99 290.513 178.94 290.493 178.894C290.474 178.847 290.446 178.805 290.41 178.77C290.018 178.308 289.518 177.951 288.955 177.729C288.391 177.508 287.781 177.429 287.18 177.5C287.13 177.507 287.082 177.525 287.038 177.551C286.995 177.577 286.957 177.612 286.927 177.653C286.897 177.694 286.876 177.74 286.864 177.79C286.853 177.839 286.851 177.89 286.86 177.94C286.879 178.04 286.937 178.129 287.022 178.187C287.106 178.245 287.209 178.268 287.31 178.25C287.781 178.206 288.255 178.273 288.695 178.447C289.134 178.621 289.527 178.896 289.84 179.25C289.883 179.313 289.944 179.362 290.016 179.389C290.088 179.416 290.166 179.42 290.24 179.4Z" fill="#263238"/>
<path d="M276.28 177.82C276.339 177.841 276.403 177.845 276.465 177.833C276.526 177.82 276.583 177.792 276.63 177.75C276.998 177.423 277.437 177.186 277.913 177.057C278.388 176.929 278.887 176.913 279.37 177.01C279.469 177.035 279.574 177.021 279.664 176.971C279.753 176.92 279.82 176.838 279.85 176.74C279.878 176.64 279.865 176.534 279.814 176.444C279.764 176.354 279.679 176.288 279.58 176.26C278.976 176.134 278.351 176.15 277.754 176.307C277.158 176.463 276.605 176.755 276.14 177.16C276.1 177.191 276.066 177.23 276.042 177.274C276.017 177.319 276.002 177.368 275.997 177.419C275.992 177.47 275.998 177.521 276.014 177.569C276.03 177.617 276.056 177.662 276.09 177.7C276.14 177.758 276.206 177.799 276.28 177.82Z" fill="#263238"/>
<path d="M291.68 262.16H284.17L287.81 270.16C287.81 270.16 295.19 270.05 294.81 266.25L291.68 262.16Z" fill="#FFC3BD"/>
<path d="M277.01 267.31L280.86 272.5L287.81 270.15L284.17 262.15L277.01 267.31Z" fill="#FFC3BD"/>
<path d="M347.35 414.89H351V275.63H347.35V414.89Z" fill="#9B9B9B"/>
<path d="M368.91 414.89H372.56V275.63H368.91V414.89Z" fill="#9B9B9B"/>
<path opacity="0.2" d="M368.91 414.89H372.56V275.63H368.91V414.89Z" fill="black"/>
<path d="M139.95 414.89H143.6L143.6 275.63H139.95L139.95 414.89Z" fill="#9B9B9B"/>
<path opacity="0.2" d="M139.95 275.63H143.6V369.2L139.95 361.03V275.63Z" fill="black"/>
<path d="M118.4 414.89H122.05L122.05 275.63H118.4L118.4 414.89Z" fill="#9B9B9B"/>
<path d="M118.4 357.09L351.01 357.09V275.63H118.4V357.09Z" fill="#9B9B9B"/>
<path d="M116.07 275.63L351.01 275.63V269.68H116.07V275.63Z" fill="#9B9B9B"/>
<path d="M372.55 275.63H351V357.09H372.55V275.63Z" fill="#9B9B9B"/>
<path opacity="0.2" d="M372.55 275.63H351V357.09H372.55V275.63Z" fill="black"/>
<path d="M374.88 269.69H351V275.64H374.88V269.69Z" fill="#9B9B9B"/>
<path opacity="0.2" d="M374.88 269.69H351V275.64H374.88V269.69Z" fill="black"/>
<path opacity="0.2" d="M118.4 279.78L372.56 279.78V275.64L118.4 275.64V279.78Z" fill="black"/>
<path d="M263.88 253.7H177.43C175.82 253.68 174.278 253.049 173.116 251.935C171.954 250.821 171.258 249.307 171.17 247.7L168.89 197.46C168.848 196.685 168.964 195.91 169.232 195.183C169.501 194.455 169.915 193.789 170.45 193.227C170.984 192.665 171.628 192.219 172.342 191.915C173.056 191.611 173.824 191.456 174.6 191.46H261.05C262.658 191.483 264.197 192.115 265.357 193.229C266.517 194.342 267.211 195.854 267.3 197.46L269.59 247.7C269.634 248.475 269.518 249.251 269.25 249.979C268.983 250.708 268.568 251.374 268.033 251.936C267.498 252.498 266.854 252.945 266.139 253.248C265.425 253.552 264.656 253.705 263.88 253.7Z" fill="#9B9B9B"/>
<path d="M262.72 253.7H176.27C174.661 253.68 173.119 253.049 171.957 251.935C170.794 250.821 170.099 249.307 170.01 247.7L167.73 197.46C167.688 196.685 167.804 195.91 168.073 195.183C168.341 194.455 168.755 193.789 169.29 193.227C169.825 192.665 170.469 192.219 171.182 191.915C171.896 191.611 172.664 191.456 173.44 191.46H259.89C261.498 191.483 263.037 192.115 264.197 193.229C265.357 194.342 266.052 195.854 266.14 197.46L268.43 247.7C268.474 248.475 268.358 249.251 268.091 249.979C267.823 250.708 267.409 251.374 266.874 251.936C266.339 252.498 265.694 252.945 264.98 253.248C264.265 253.552 263.496 253.705 262.72 253.7Z" fill="#9B9B9B"/>
<path opacity="0.2" d="M262.72 253.7H176.27C174.661 253.68 173.119 253.049 171.957 251.935C170.794 250.821 170.099 249.307 170.01 247.7L167.73 197.46C167.688 196.685 167.804 195.91 168.073 195.183C168.341 194.455 168.755 193.789 169.29 193.227C169.825 192.665 170.469 192.219 171.182 191.915C171.896 191.611 172.664 191.456 173.44 191.46H259.89C261.498 191.483 263.037 192.115 264.197 193.229C265.357 194.342 266.052 195.854 266.14 197.46L268.43 247.7C268.474 248.475 268.358 249.251 268.091 249.979C267.823 250.708 267.409 251.374 266.874 251.936C266.339 252.498 265.694 252.945 264.98 253.248C264.265 253.552 263.496 253.705 262.72 253.7Z" fill="white"/>
<path d="M227.26 223.34H210.75V253.7H227.26V223.34Z" fill="#9B9B9B"/>
<path d="M210.23 220.1L202.94 269.67H220.8L228.09 220.1H210.23ZM220.72 235.85L219.54 243.85C219.454 244.444 219.156 244.987 218.703 245.38C218.25 245.772 217.67 245.989 217.07 245.99H214.38C214.02 245.99 213.665 245.912 213.338 245.762C213.011 245.612 212.72 245.393 212.485 245.121C212.25 244.849 212.076 244.529 211.975 244.184C211.874 243.839 211.848 243.476 211.9 243.12L213.08 235.12C213.166 234.526 213.463 233.983 213.917 233.591C214.37 233.198 214.95 232.981 215.55 232.98H218.24C218.6 232.981 218.955 233.059 219.282 233.208C219.609 233.358 219.9 233.577 220.135 233.849C220.37 234.121 220.544 234.441 220.645 234.786C220.746 235.131 220.772 235.494 220.72 235.85Z" fill="#9B9B9B"/>
<path opacity="0.2" d="M210.23 220.1L202.94 269.67H220.8L228.09 220.1H210.23ZM220.72 235.85L219.54 243.85C219.454 244.444 219.156 244.987 218.703 245.38C218.25 245.772 217.67 245.989 217.07 245.99H214.38C214.02 245.99 213.665 245.912 213.338 245.762C213.011 245.612 212.72 245.393 212.485 245.121C212.25 244.849 212.076 244.529 211.975 244.184C211.874 243.839 211.848 243.476 211.9 243.12L213.08 235.12C213.166 234.526 213.463 233.983 213.917 233.591C214.37 233.198 214.95 232.981 215.55 232.98H218.24C218.6 232.981 218.955 233.059 219.282 233.208C219.609 233.358 219.9 233.577 220.135 233.849C220.37 234.121 220.544 234.441 220.645 234.786C220.746 235.131 220.772 235.494 220.72 235.85Z" fill="white"/>
<path d="M230.98 266.05H199.72L195.88 269.69H239.29L230.98 266.05Z" fill="#9B9B9B"/>
<path opacity="0.2" d="M230.98 266.05H199.72L195.88 269.69H239.29L230.98 266.05Z" fill="white"/>
<path d="M138.66 258.57C136.9 257.57 137.5 247.95 138.27 242.45C139.21 235.8 142.01 224.03 150.91 217.51C155.15 214.4 159.2 211.76 159.91 208.41C161.21 211.41 168.6 232.65 158.06 242.2C149.14 250.27 142.53 248.47 138.66 258.57Z" fill="#4E4E4E"/>
<g opacity="0.2">
<path d="M138.66 258.57C136.9 257.57 137.5 247.95 138.27 242.45C139.21 235.8 142.01 224.03 150.91 217.51C155.15 214.4 159.2 211.76 159.91 208.41C161.21 211.41 168.6 232.65 158.06 242.2C149.14 250.27 142.53 248.47 138.66 258.57Z" fill="black"/>
</g>
<path d="M141 253.11C143.05 251.96 140.7 240.75 138.82 234.37C136.55 226.65 131.09 213.01 118.82 205.55C113 202 107.47 199 106 195.09C104.86 198.56 101.2 225.89 116 236.85C128.57 246.12 134.45 241.43 141 253.11Z" fill="#4E4E4E"/>
<path d="M140 250.61C139.94 250.609 139.882 250.589 139.833 250.553C139.785 250.517 139.749 250.467 139.73 250.41C136.695 240.962 132.854 231.791 128.25 223C120.75 208.25 110.66 205.85 110.56 205.83C110.525 205.822 110.492 205.807 110.463 205.786C110.434 205.764 110.409 205.738 110.391 205.707C110.372 205.676 110.36 205.642 110.354 205.607C110.349 205.571 110.351 205.535 110.36 205.5C110.367 205.465 110.381 205.432 110.401 205.403C110.421 205.373 110.447 205.348 110.476 205.328C110.506 205.309 110.539 205.295 110.574 205.289C110.609 205.282 110.645 205.283 110.68 205.29C110.79 205.29 121.11 207.75 128.74 222.76C133.345 231.584 137.182 240.788 140.21 250.27C140.229 250.34 140.219 250.415 140.184 250.478C140.148 250.542 140.09 250.589 140.02 250.61H140Z" fill="white"/>
<path d="M108.1 215.51C108.065 215.512 108.031 215.506 107.998 215.494C107.965 215.482 107.936 215.464 107.91 215.44C107.859 215.388 107.831 215.318 107.831 215.245C107.831 215.172 107.859 215.102 107.91 215.05C109.761 213.28 112.118 212.131 114.652 211.764C117.187 211.396 119.773 211.828 122.05 213C122.082 213.015 122.111 213.036 122.135 213.063C122.159 213.089 122.177 213.12 122.188 213.154C122.199 213.188 122.204 213.223 122.2 213.259C122.197 213.294 122.187 213.329 122.17 213.36C122.156 213.393 122.136 213.423 122.109 213.448C122.083 213.473 122.052 213.492 122.019 213.504C121.985 213.516 121.949 213.521 121.913 213.519C121.877 213.516 121.842 213.507 121.81 213.49C119.63 212.376 117.157 211.969 114.735 212.328C112.313 212.686 110.064 213.792 108.3 215.49C108.238 215.519 108.167 215.526 108.1 215.51Z" fill="white"/>
<path d="M118.67 233.76C118.624 233.773 118.576 233.773 118.53 233.76C118.499 233.742 118.472 233.719 118.45 233.69C118.428 233.662 118.412 233.63 118.403 233.596C118.394 233.561 118.391 233.525 118.396 233.49C118.4 233.455 118.412 233.421 118.43 233.39C118.43 233.3 123.43 225.05 130.76 227.07C130.83 227.091 130.888 227.138 130.924 227.201C130.959 227.265 130.969 227.34 130.95 227.41C130.929 227.479 130.882 227.538 130.818 227.574C130.755 227.609 130.68 227.618 130.61 227.6C123.7 225.69 118.95 233.6 118.91 233.67C118.88 233.702 118.842 233.727 118.8 233.743C118.759 233.758 118.714 233.764 118.67 233.76Z" fill="white"/>
<path d="M126.6 219.74C126.54 219.739 126.482 219.719 126.433 219.683C126.385 219.647 126.349 219.597 126.33 219.54C126.077 218.593 126.169 217.586 126.59 216.7C126.75 216.449 126.96 216.235 127.209 216.071C127.457 215.907 127.737 215.798 128.03 215.75C128.065 215.741 128.101 215.74 128.137 215.746C128.172 215.752 128.206 215.765 128.236 215.785C128.266 215.805 128.292 215.83 128.311 215.86C128.331 215.891 128.344 215.925 128.35 215.96C128.365 216.032 128.351 216.106 128.312 216.168C128.273 216.229 128.211 216.273 128.14 216.29C127.919 216.319 127.707 216.396 127.521 216.517C127.334 216.639 127.176 216.8 127.06 216.99C126.721 217.747 126.651 218.597 126.86 219.4C126.871 219.434 126.874 219.47 126.87 219.506C126.866 219.541 126.855 219.575 126.837 219.606C126.819 219.637 126.795 219.664 126.766 219.686C126.738 219.707 126.705 219.722 126.67 219.73L126.6 219.74Z" fill="white"/>
<path d="M154.43 247.99H129.12L131.45 269.66H152.1L154.43 247.99Z" fill="#FF002C"/>
<path opacity="0.7" d="M154.43 247.99H129.12L131.45 269.66H152.1L154.43 247.99Z" fill="white"/>
<path d="M355 250V248.65C355 248.361 354.885 248.084 354.681 247.879C354.476 247.675 354.199 247.56 353.91 247.56H340.46C340.171 247.56 339.894 247.675 339.689 247.879C339.485 248.084 339.37 248.361 339.37 248.65V269.65H355V267.21C358.4 267.21 361.07 263.43 361.07 258.6C361.07 253.77 358.41 250 355 250ZM355 265V252.22C357.1 252.22 358.88 255.16 358.88 258.64C358.88 262.12 357.11 265.06 355 265.06V265Z" fill="#FF002C"/>
<path opacity="0.2" d="M355 250V248.65C355 248.361 354.885 248.084 354.681 247.879C354.476 247.675 354.199 247.56 353.91 247.56H340.46C340.171 247.56 339.894 247.675 339.689 247.879C339.485 248.084 339.37 248.361 339.37 248.65V269.65H355V267.21C358.4 267.21 361.07 263.43 361.07 258.6C361.07 253.77 358.41 250 355 250ZM355 265V252.22C357.1 252.22 358.88 255.16 358.88 258.64C358.88 262.12 357.11 265.06 355 265.06V265Z" fill="white"/>
<path opacity="0.3" d="M355.01 252.22H353.23L355.01 257.15V252.22Z" fill="black"/>
<path opacity="0.3" d="M355.01 267.25H353.23L355.01 268.07V267.25Z" fill="black"/>
</svg>
