<svg width="711" height="711" viewBox="0 0 711 711" fill="none" xmlns="http://www.w3.org/2000/svg">
<path d="M711 543.773H0V544.128H711V543.773Z" fill="#EBEBEB"/>
<path d="M639.758 566.653H592.661V567.008H639.758V566.653Z" fill="#EBEBEB"/>
<path d="M388.519 562.202H370.189V562.557H388.519V562.202Z" fill="#EBEBEB"/>
<path d="M497.231 563.709H458.638V564.064H497.231V563.709Z" fill="#EBEBEB"/>
<path d="M591.24 553.457H511.451V553.812H591.24V553.457Z" fill="#EBEBEB"/>
<path d="M112.323 569.909H74.5977V570.265H112.323V569.909Z" fill="#EBEBEB"/>
<path d="M157.685 569.909H124.979V570.265H157.685V569.909Z" fill="#EBEBEB"/>
<path d="M272.754 562.031H186.282V562.387H272.754V562.031Z" fill="#EBEBEB"/>
<path d="M337.014 480.352H62.4404C60.2894 480.348 58.2278 479.491 56.7081 477.968C55.1885 476.446 54.335 474.383 54.335 472.232V86.2585C54.3537 84.1198 55.2155 82.0749 56.7331 80.5679C58.2507 79.061 60.3016 78.2136 62.4404 78.21H337.014C339.168 78.21 341.233 79.0654 342.756 80.5881C344.279 82.1109 345.134 84.1761 345.134 86.3296V472.232C345.134 474.385 344.279 476.451 342.756 477.973C341.233 479.496 339.168 480.352 337.014 480.352ZM62.4404 78.4944C60.3837 78.4981 58.4125 79.3178 56.9595 80.7734C55.5065 82.2291 54.6905 84.2018 54.6905 86.2585V472.232C54.6905 474.289 55.5065 476.261 56.9595 477.717C58.4125 479.173 60.3837 479.992 62.4404 479.996H337.014C339.072 479.992 341.045 479.173 342.5 477.718C343.955 476.263 344.775 474.29 344.778 472.232V86.2585C344.775 84.2005 343.955 82.2278 342.5 80.7726C341.045 79.3173 339.072 78.4981 337.014 78.4944H62.4404Z" fill="#EBEBEB"/>
<path d="M644.607 480.352H370.019C367.867 480.348 365.804 479.491 364.282 477.969C362.76 476.447 361.903 474.384 361.899 472.232V86.2585C361.922 84.1185 362.787 82.0736 364.307 80.5671C365.827 79.0605 367.879 78.2136 370.019 78.21H644.607C646.743 78.2174 648.791 79.0664 650.305 80.5729C651.82 82.0795 652.68 84.1223 652.698 86.2585V472.232C652.698 474.38 651.847 476.441 650.33 477.963C648.814 479.485 646.756 480.344 644.607 480.352ZM370.019 78.4944C367.961 78.4981 365.988 79.3173 364.533 80.7726C363.078 82.2278 362.259 84.2005 362.255 86.2585V472.232C362.259 474.29 363.078 476.263 364.533 477.718C365.988 479.173 367.961 479.992 370.019 479.996H644.607C646.665 479.992 648.638 479.173 650.093 477.718C651.548 476.263 652.368 474.29 652.371 472.232V86.2585C652.368 84.2005 651.548 82.2278 650.093 80.7726C648.638 79.3173 646.665 78.4981 644.607 78.4944H370.019Z" fill="#EBEBEB"/>
<path d="M376.688 421.467C373.844 413.29 351.39 424.41 342.275 437.962C336.204 446.977 332.492 456.618 330.771 469.559C330.971 454.798 331.212 438.929 331.44 423.955C333.288 420.229 337.498 411.626 340.512 404.801C350.623 382.049 374.64 373.517 382.93 359.211C393.809 340.384 393.738 312.157 384.495 301.962C376.446 293.117 349.812 352.983 346.812 359.666C338.626 377.566 333.469 396.701 331.554 416.291C331.781 402.227 331.994 389.273 332.165 379.319C332.734 346.826 333.431 336.374 333.758 333.16C334.867 331.596 336.175 329.762 336.943 328.781C343.385 320.49 357.69 310.607 364.828 298.549C375.266 280.93 373.588 259.856 366.25 252.007C358.6 243.802 345.063 263.198 337.881 282.409C330.7 301.62 333.772 320.021 331.753 335.99C331.34 339.119 330.899 351.007 330.501 367.502C328.311 349.755 323.974 337.867 315.926 326.79C305.972 313.167 297.44 296.572 289.349 298.72C281.257 300.867 285.58 322.808 292.036 338.223C297.724 351.959 326.164 365.639 330.288 376.688C329.79 399.042 329.349 427.368 329.037 453.732C326.804 440.109 328.34 438.971 319.182 418.111C313.75 405.711 291.439 390.424 288.78 398.942C286.121 407.46 290.202 423.557 298.577 434.833C305.375 443.934 320.448 443.92 323.932 449.565C324.756 450.888 327.444 455.936 328.98 458.837C328.61 491.031 328.454 519.457 328.638 529.14L330.06 529.24C330.06 526.737 330.174 510.356 330.459 488.685C334.127 477.152 358.771 470.426 366.378 458.424C374.384 445.925 380.115 431.278 376.688 421.467Z" fill="#E6E6E6"/>
<path d="M353.523 543.773H306.227C304.973 543.775 303.756 543.342 302.784 542.549C301.812 541.756 301.145 540.651 300.895 539.421L297.539 522.869H362.212L358.841 539.421C358.595 540.65 357.93 541.755 356.96 542.548C355.991 543.341 354.776 543.774 353.523 543.773Z" fill="#F0F0F0"/>
<path d="M363.562 529.282H296.188C295.403 529.283 294.646 528.993 294.063 528.467C293.48 527.942 293.112 527.219 293.031 526.438L291.609 514.195C291.561 513.751 291.607 513.303 291.744 512.878C291.881 512.453 292.105 512.062 292.403 511.729C292.7 511.397 293.065 511.131 293.472 510.948C293.879 510.765 294.32 510.67 294.766 510.668H364.899C365.345 510.67 365.785 510.765 366.192 510.948C366.598 511.131 366.961 511.397 367.258 511.73C367.555 512.063 367.778 512.454 367.913 512.879C368.048 513.304 368.092 513.752 368.042 514.195L366.62 526.438C366.544 527.203 366.191 527.914 365.628 528.438C365.065 528.962 364.331 529.262 363.562 529.282Z" fill="#F0F0F0"/>
<path d="M569.895 537.843H615.186V344.579H569.895V537.843Z" fill="#F0F0F0"/>
<path d="M377.47 543.773H612.128V537.843H377.47V543.773Z" fill="#F0F0F0"/>
<path d="M569.881 344.579H374.427V537.843H569.881V344.579Z" fill="#F5F5F5"/>
<path d="M552.077 420.755H392.23V461.681H552.077V420.755Z" fill="#F0F0F0"/>
<path d="M552.077 473.426H392.23V514.351H552.077V473.426Z" fill="#F0F0F0"/>
<path d="M454.215 427.809H490.092C492.535 427.809 494.515 425.832 494.515 423.393C494.515 420.955 492.535 418.978 490.092 418.978H454.215C451.773 418.978 449.793 420.955 449.793 423.393C449.793 425.832 451.773 427.809 454.215 427.809Z" fill="#F5F5F5"/>
<path d="M552.077 368.084H392.23V409.01H552.077V368.084Z" fill="#F0F0F0"/>
<path d="M454.215 375.138H490.092C491.262 375.134 492.382 374.669 493.21 373.843C494.039 373.018 494.507 371.899 494.515 370.73C494.511 369.558 494.044 368.435 493.215 367.607C492.387 366.778 491.264 366.311 490.092 366.307H454.215C453.044 366.311 451.921 366.778 451.092 367.607C450.264 368.435 449.797 369.558 449.793 370.73C449.8 371.899 450.269 373.018 451.097 373.843C451.926 374.669 453.046 375.134 454.215 375.138Z" fill="#F5F5F5"/>
<path d="M454.215 480.48H490.092C491.263 480.48 492.386 480.016 493.215 479.189C494.044 478.363 494.511 477.242 494.515 476.071C494.511 474.9 494.044 473.777 493.215 472.948C492.387 472.12 491.264 471.653 490.092 471.649H454.215C453.044 471.653 451.921 472.12 451.092 472.948C450.264 473.777 449.797 474.9 449.793 476.071C449.797 477.242 450.264 478.363 451.093 479.189C451.922 480.016 453.045 480.48 454.215 480.48Z" fill="#F5F5F5"/>
<path d="M370.403 344.579H569.881V339.062H370.403V344.579Z" fill="#F0F0F0"/>
<path d="M619.48 339.076H569.881V344.593H619.48V339.076Z" fill="#E6E6E6"/>
<path d="M209.617 543.773H254.367L254.367 254.353H209.617L209.617 543.773Z" fill="#E0E0E0"/>
<path d="M95.5723 543.773H245.408L261.15 187.533H111.314L95.5723 543.773Z" fill="#E6E6E6"/>
<path d="M73.7168 543.773H239.465L255.192 187.533H89.4583L73.7168 543.773Z" fill="#F0F0F0"/>
<path d="M223.24 526.311L236.493 205.01H105.683L92.416 526.311H223.24Z" fill="white"/>
<path d="M167.028 526.311L211.494 205.01H197.544L153.078 526.311H167.028Z" fill="#FAFAFA"/>
<path d="M147.163 526.311L191.629 205.01H167.839L123.373 526.311H147.163Z" fill="#FAFAFA"/>
<path d="M417.314 284.571H598.662V114.926L417.314 114.926V284.571Z" fill="#E6E6E6"/>
<path d="M411.67 284.571H596.018V114.926L411.67 114.926V284.571Z" fill="#F5F5F5"/>
<path d="M417.314 291.51H598.662V284.57H417.314V291.51Z" fill="#E6E6E6"/>
<path d="M406.635 291.51H578.669V284.57H406.635V291.51Z" fill="#F5F5F5"/>
<path d="M588.14 274.048V125.435L419.547 125.435V274.048H588.14Z" fill="#FAFAFA"/>
<path d="M420.685 274.062V125.449H419.561V274.062H420.685Z" fill="#E6E6E6"/>
<path d="M560.182 274.048L531.031 125.435H492.822L521.973 274.048H560.182Z" fill="white"/>
<path d="M515.788 274.048L486.637 125.435H469.388L498.539 274.048H515.788Z" fill="white"/>
<path d="M582.508 265.999V109.096C582.508 108.617 582.119 108.229 581.64 108.229H581.569C581.09 108.229 580.702 108.617 580.702 109.096V265.999C580.702 266.478 581.09 266.867 581.569 266.867H581.64C582.119 266.867 582.508 266.478 582.508 265.999Z" fill="#EBEBEB"/>
<path opacity="0.5" d="M407.546 134.18L601.72 134.18V108.214L407.546 108.214V134.18Z" fill="#E6E6E6"/>
<path d="M407.546 111.442L601.72 111.442V108.214L407.546 108.214V111.442Z" fill="#E0E0E0"/>
<path d="M407.872 109.636L601.406 109.636C602.09 109.636 602.644 109.082 602.644 108.399V108.044C602.644 107.36 602.09 106.806 601.406 106.806L407.872 106.806C407.189 106.806 406.635 107.36 406.635 108.044V108.399C406.635 109.082 407.189 109.636 407.872 109.636Z" fill="#EBEBEB"/>
<path d="M407.304 134.863H601.961C602.05 134.863 602.138 134.845 602.22 134.81C602.302 134.776 602.377 134.725 602.439 134.662C602.501 134.598 602.55 134.523 602.583 134.44C602.616 134.357 602.631 134.269 602.63 134.18C602.63 134.003 602.559 133.833 602.434 133.707C602.308 133.582 602.138 133.512 601.961 133.512H407.304C407.125 133.512 406.954 133.582 406.826 133.707C406.698 133.832 406.625 134.002 406.621 134.18C406.621 134.361 406.693 134.535 406.821 134.663C406.949 134.791 407.123 134.863 407.304 134.863Z" fill="white"/>
<path d="M355.5 607.99C507.771 607.99 631.211 600.784 631.211 591.893C631.211 583.003 507.771 575.796 355.5 575.796C203.228 575.796 79.7881 583.003 79.7881 591.893C79.7881 600.784 203.228 607.99 355.5 607.99Z" fill="#F5F5F5"/>
<path d="M92.2004 386.9L90.7598 387.068L93.3198 408.96L94.7605 408.792L92.2004 386.9Z" fill="#FF002C"/>
<path d="M95.715 416.934L94.2744 417.103L95.566 428.147L97.0066 427.979L95.715 416.934Z" fill="#FF002C"/>
<path d="M191.387 342.261L189.681 337.469C188.507 334.175 186.25 331.377 183.28 329.533C180.309 327.689 176.8 326.907 173.328 327.316L105.37 335.265C101.299 335.742 97.5847 337.817 95.0434 341.033C92.5021 344.249 91.3421 348.343 91.8188 352.414L111.158 517.793C111.319 519.176 111.75 520.514 112.428 521.73C113.106 522.947 114.018 524.017 115.11 524.881C116.202 525.745 117.454 526.385 118.794 526.764C120.134 527.144 121.535 527.255 122.918 527.093L366.08 498.653C367.466 498.496 368.807 498.066 370.026 497.39C371.246 496.713 372.32 495.803 373.186 494.71C374.053 493.617 374.695 492.364 375.077 491.023C375.458 489.681 375.571 488.278 375.408 486.893L358.629 343.925C358.304 341.134 356.885 338.587 354.682 336.842C352.479 335.098 349.674 334.301 346.883 334.625L205.678 351.149C202.642 351.5 199.577 350.813 196.982 349.199C194.387 347.585 192.415 345.139 191.387 342.261Z" fill="#FF002C"/>
<path d="M198.173 270.344L121.346 285.654L142.439 391.502L219.266 376.193L198.173 270.344Z" fill="#FF002C"/>
<path opacity="0.7" d="M198.173 270.344L121.346 285.654L142.439 391.502L219.266 376.193L198.173 270.344Z" fill="white"/>
<g opacity="0.4">
<path d="M187.917 295.776L140.593 305.218C139.49 305.432 138.348 305.203 137.414 304.58C136.479 303.957 135.828 302.991 135.602 301.891C135.388 300.788 135.617 299.646 136.24 298.711C136.863 297.777 137.829 297.126 138.929 296.899L186.282 287.5C187.384 287.286 188.527 287.515 189.461 288.138C190.395 288.761 191.046 289.728 191.273 290.828C191.474 291.928 191.235 293.063 190.607 293.988C189.979 294.914 189.013 295.556 187.917 295.776Z" fill="#FF002C"/>
<path d="M191.401 313.309L144.077 322.794C142.977 323.004 141.838 322.773 140.907 322.15C139.976 321.528 139.327 320.564 139.1 319.467C138.89 318.366 139.121 317.228 139.744 316.297C140.367 315.365 141.33 314.716 142.427 314.49L189.752 305.062C190.852 304.852 191.991 305.083 192.922 305.706C193.853 306.329 194.502 307.292 194.729 308.389C194.922 309.481 194.683 310.605 194.062 311.524C193.441 312.442 192.486 313.083 191.401 313.309Z" fill="#FF002C"/>
<path d="M194.885 330.814L147.56 340.242C146.46 340.452 145.321 340.221 144.39 339.598C143.459 338.975 142.81 338.012 142.583 336.915C142.374 335.814 142.605 334.676 143.227 333.744C143.85 332.813 144.814 332.164 145.911 331.938L193.235 322.495C194.335 322.286 195.474 322.517 196.405 323.14C197.336 323.762 197.985 324.726 198.212 325.823C198.426 326.925 198.197 328.068 197.574 329.002C196.951 329.937 195.984 330.588 194.885 330.814Z" fill="#FF002C"/>
<path d="M198.383 348.39L151.059 357.818C149.956 358.032 148.814 357.803 147.879 357.18C146.945 356.557 146.294 355.59 146.067 354.49C145.853 353.388 146.083 352.246 146.706 351.311C147.329 350.377 148.295 349.726 149.395 349.499L196.719 340.071C197.822 339.857 198.964 340.087 199.898 340.71C200.833 341.333 201.484 342.299 201.71 343.399C201.924 344.501 201.695 345.644 201.072 346.578C200.449 347.512 199.483 348.164 198.383 348.39Z" fill="#FF002C"/>
<path d="M188.926 368.398L154.542 375.252C153.442 375.462 152.303 375.23 151.372 374.608C150.441 373.985 149.792 373.021 149.565 371.924C149.351 370.822 149.581 369.679 150.204 368.745C150.827 367.811 151.793 367.16 152.893 366.933L187.277 360.079C188.377 359.869 189.516 360.1 190.447 360.723C191.378 361.346 192.027 362.309 192.254 363.406C192.468 364.509 192.239 365.651 191.616 366.586C190.993 367.52 190.026 368.171 188.926 368.398Z" fill="#FF002C"/>
</g>
<path d="M307.642 249.945L230.027 260.563L244.656 367.497L322.271 356.879L307.642 249.945Z" fill="#FF002C"/>
<path opacity="0.7" d="M307.642 249.945L230.027 260.563L244.656 367.497L322.271 356.879L307.642 249.945Z" fill="white"/>
<g opacity="0.4">
<path d="M295.861 274.73L248.053 281.272C246.94 281.418 245.814 281.119 244.92 280.44C244.025 279.761 243.434 278.757 243.276 277.645C243.129 276.532 243.428 275.406 244.107 274.512C244.786 273.617 245.79 273.026 246.902 272.867L294.709 266.326C295.823 266.18 296.949 266.479 297.843 267.158C298.738 267.837 299.328 268.841 299.487 269.952C299.633 271.066 299.334 272.192 298.656 273.086C297.977 273.981 296.973 274.571 295.861 274.73Z" fill="#FF002C"/>
<path d="M298.278 292.406L250.471 298.947C249.357 299.093 248.231 298.794 247.337 298.115C246.442 297.437 245.852 296.432 245.693 295.321C245.551 294.21 245.851 293.087 246.53 292.196C247.208 291.305 248.21 290.716 249.319 290.557L297.126 284.016C298.238 283.87 299.362 284.167 300.256 284.842C301.15 285.518 301.742 286.519 301.904 287.628C302.05 288.741 301.752 289.867 301.073 290.762C300.394 291.656 299.39 292.247 298.278 292.406Z" fill="#FF002C"/>
<path d="M266.056 314.831L252.888 316.636C251.775 316.783 250.649 316.484 249.755 315.805C248.86 315.126 248.269 314.122 248.11 313.01C247.964 311.897 248.263 310.771 248.942 309.877C249.621 308.982 250.625 308.391 251.737 308.232L264.919 306.427C266.03 306.285 267.152 306.585 268.043 307.264C268.935 307.942 269.523 308.944 269.682 310.053C269.828 311.166 269.529 312.292 268.851 313.186C268.172 314.081 267.168 314.672 266.056 314.831Z" fill="#FF002C"/>
<path d="M291.609 311.333L278.427 313.139C277.316 313.281 276.193 312.98 275.302 312.301C274.411 311.623 273.822 310.621 273.663 309.512C273.517 308.399 273.816 307.273 274.495 306.379C275.174 305.484 276.178 304.893 277.289 304.735L290.457 302.943C291.568 302.796 292.692 303.093 293.586 303.769C294.481 304.445 295.073 305.446 295.235 306.555C295.381 307.668 295.082 308.794 294.403 309.688C293.725 310.583 292.72 311.174 291.609 311.333Z" fill="#FF002C"/>
<path d="M303.113 327.771L255.306 334.312C254.192 334.458 253.066 334.159 252.172 333.48C251.277 332.802 250.687 331.798 250.528 330.686C250.386 329.575 250.686 328.452 251.365 327.561C252.043 326.67 253.045 326.081 254.154 325.922L301.961 319.367C303.075 319.221 304.201 319.52 305.095 320.198C305.99 320.877 306.58 321.881 306.739 322.993C306.885 324.106 306.587 325.232 305.908 326.127C305.229 327.021 304.225 327.612 303.113 327.771Z" fill="#FF002C"/>
<path d="M292.477 347.238L257.723 351.987C256.614 352.13 255.494 351.831 254.603 351.156C253.712 350.48 253.122 349.482 252.959 348.376C252.813 347.264 253.11 346.14 253.786 345.246C254.462 344.352 255.462 343.76 256.571 343.598L291.325 338.848C292.434 338.706 293.554 339.005 294.445 339.68C295.336 340.356 295.926 341.354 296.089 342.46C296.235 343.571 295.938 344.695 295.262 345.589C294.586 346.484 293.586 347.076 292.477 347.238Z" fill="#FF002C"/>
</g>
<path d="M234.404 265.547L156.361 272.348L165.73 379.87L243.773 373.07L234.404 265.547Z" fill="#FF002C"/>
<path opacity="0.8" d="M234.404 265.547L156.361 272.348L165.73 379.87L243.773 373.07L234.404 265.547Z" fill="white"/>
<g opacity="0.4">
<path d="M221.42 289.747L173.342 293.927C172.224 294.018 171.114 293.665 170.255 292.943C169.395 292.222 168.854 291.191 168.749 290.074C168.662 288.958 169.018 287.852 169.738 286.995C170.459 286.139 171.488 285.6 172.603 285.495L220.681 281.229C221.799 281.138 222.909 281.491 223.768 282.213C224.628 282.934 225.169 283.965 225.274 285.082C225.329 285.642 225.272 286.207 225.108 286.745C224.944 287.282 224.675 287.782 224.317 288.216C223.959 288.649 223.518 289.008 223.021 289.27C222.524 289.533 221.98 289.695 221.42 289.747Z" fill="#FF002C"/>
<path d="M222.97 307.522L174.892 311.788C173.774 311.879 172.664 311.525 171.805 310.804C170.945 310.083 170.404 309.051 170.299 307.934C170.208 306.816 170.562 305.706 171.283 304.846C172.004 303.987 173.035 303.446 174.153 303.341L222.231 299.075C223.349 298.984 224.459 299.338 225.318 300.059C226.178 300.78 226.719 301.811 226.824 302.929C226.915 304.047 226.561 305.157 225.84 306.016C225.118 306.876 224.087 307.417 222.97 307.522Z" fill="#FF002C"/>
<path d="M224.52 325.297L176.442 329.563C175.323 329.654 174.214 329.3 173.354 328.579C172.495 327.857 171.954 326.826 171.849 325.709C171.758 324.59 172.112 323.481 172.833 322.621C173.554 321.762 174.585 321.221 175.703 321.116L223.78 316.85C224.899 316.759 226.008 317.113 226.868 317.834C227.728 318.555 228.269 319.586 228.374 320.704C228.464 321.822 228.111 322.932 227.39 323.791C226.668 324.651 225.637 325.192 224.52 325.297Z" fill="#FF002C"/>
<path d="M226.099 343.072L178.021 347.338C176.903 347.429 175.793 347.075 174.934 346.354C174.074 345.632 173.533 344.601 173.428 343.484C173.337 342.365 173.691 341.256 174.412 340.396C175.133 339.537 176.164 338.996 177.282 338.891L225.36 334.71C226.478 334.619 227.587 334.973 228.447 335.694C229.307 336.416 229.848 337.447 229.953 338.564C230.02 339.668 229.656 340.756 228.937 341.597C228.218 342.438 227.201 342.967 226.099 343.072Z" fill="#FF002C"/>
<path d="M214.481 361.998L179.542 365.041C178.417 365.144 177.296 364.796 176.427 364.074C175.558 363.351 175.011 362.313 174.907 361.188C174.816 360.069 175.169 358.96 175.89 358.1C176.612 357.24 177.643 356.7 178.76 356.595L213.699 353.552C214.817 353.461 215.927 353.814 216.786 354.536C217.646 355.257 218.187 356.288 218.292 357.405C218.383 358.517 218.036 359.621 217.323 360.479C216.611 361.338 215.591 361.883 214.481 361.998Z" fill="#FF002C"/>
</g>
<path d="M329.499 260.323L251.252 264.095L256.449 371.9L334.696 368.128L329.499 260.323Z" fill="#FF002C"/>
<path opacity="0.8" d="M329.499 260.323L251.252 264.095L256.449 371.9L334.696 368.128L329.499 260.323Z" fill="white"/>
<g opacity="0.4">
<path d="M315.599 283.973L267.407 286.305C266.287 286.352 265.194 285.956 264.364 285.203C263.534 284.45 263.033 283.4 262.97 282.281C262.924 281.161 263.32 280.068 264.073 279.238C264.826 278.408 265.876 277.907 266.995 277.845L315.201 275.512C316.32 275.466 317.414 275.862 318.244 276.615C319.074 277.368 319.575 278.418 319.637 279.537C319.684 280.659 319.286 281.754 318.53 282.585C317.774 283.416 316.72 283.914 315.599 283.973Z" fill="#FF002C"/>
<path d="M316.466 301.805L268.261 304.123C267.141 304.17 266.047 303.774 265.217 303.021C264.387 302.268 263.887 301.218 263.824 300.099C263.777 298.977 264.175 297.882 264.932 297.051C265.688 296.22 266.741 295.721 267.862 295.662L316.054 293.33C317.176 293.284 318.272 293.682 319.102 294.438C319.933 295.194 320.432 296.247 320.491 297.369C320.537 298.489 320.141 299.582 319.388 300.412C318.635 301.242 317.586 301.743 316.466 301.805Z" fill="#FF002C"/>
<path d="M282.409 321.372L269.128 322.012C268.008 322.058 266.915 321.662 266.084 320.909C265.254 320.156 264.754 319.107 264.691 317.987C264.645 316.868 265.041 315.774 265.794 314.944C266.547 314.114 267.596 313.613 268.715 313.551L281.997 312.897C283.119 312.85 284.214 313.248 285.045 314.004C285.876 314.76 286.375 315.814 286.434 316.935C286.48 318.055 286.084 319.148 285.331 319.979C284.578 320.809 283.528 321.309 282.409 321.372Z" fill="#FF002C"/>
<path d="M308.161 320.064L294.88 320.704C293.76 320.75 292.667 320.354 291.836 319.601C291.006 318.848 290.506 317.798 290.443 316.679C290.397 315.559 290.793 314.466 291.546 313.636C292.299 312.806 293.348 312.305 294.467 312.243L307.749 311.603C308.869 311.556 309.962 311.952 310.792 312.705C311.622 313.458 312.123 314.508 312.186 315.627C312.232 316.747 311.836 317.84 311.083 318.67C310.33 319.501 309.28 320.001 308.161 320.064Z" fill="#FF002C"/>
<path d="M318.187 337.455L269.981 339.773C268.861 339.819 267.768 339.423 266.938 338.67C266.108 337.917 265.607 336.868 265.545 335.748C265.498 334.626 265.896 333.531 266.652 332.7C267.408 331.87 268.461 331.371 269.583 331.312L317.775 328.98C318.897 328.933 319.992 329.331 320.823 330.087C321.653 330.843 322.152 331.897 322.211 333.018C322.258 334.138 321.862 335.231 321.109 336.062C320.356 336.892 319.306 337.392 318.187 337.455Z" fill="#FF002C"/>
<path d="M305.872 355.912L270.849 357.605C269.729 357.651 268.635 357.255 267.805 356.502C266.975 355.749 266.474 354.699 266.412 353.58C266.365 352.46 266.761 351.367 267.514 350.537C268.267 349.707 269.317 349.206 270.436 349.144L305.46 347.451C306.58 347.405 307.673 347.801 308.503 348.554C309.334 349.307 309.834 350.357 309.897 351.476C309.943 352.596 309.547 353.689 308.794 354.519C308.041 355.349 306.992 355.85 305.872 355.912Z" fill="#FF002C"/>
</g>
<path d="M213.086 345.318L211.835 340.64C210.958 337.402 208.923 334.599 206.115 332.764C203.307 330.929 199.923 330.189 196.605 330.686L128.648 338.635C124.525 339.14 120.728 341.132 117.969 344.237C115.21 347.342 113.678 351.346 113.66 355.5L117.514 517.395C117.537 518.728 117.845 520.041 118.418 521.245C118.99 522.45 119.814 523.518 120.834 524.377C121.854 525.237 123.046 525.868 124.33 526.228C125.614 526.589 126.96 526.67 128.278 526.467L371.44 498.027C374.264 497.684 376.865 496.324 378.758 494.201C380.65 492.079 381.704 489.338 381.721 486.494L378.394 346.541C378.369 345.207 378.059 343.894 377.485 342.689C376.91 341.485 376.085 340.417 375.064 339.558C374.043 338.699 372.85 338.068 371.566 337.708C370.281 337.347 368.934 337.266 367.615 337.469L226.425 353.978C223.526 354.421 220.567 353.783 218.108 352.187C215.648 350.59 213.862 348.146 213.086 345.318Z" fill="#FF002C"/>
<path opacity="0.3" d="M213.086 345.318L211.835 340.64C210.958 337.402 208.923 334.599 206.115 332.764C203.307 330.929 199.923 330.189 196.605 330.686L128.648 338.635C124.525 339.14 120.728 341.132 117.969 344.237C115.21 347.342 113.678 351.346 113.66 355.5L117.514 517.395C117.537 518.728 117.845 520.041 118.418 521.245C118.99 522.45 119.814 523.518 120.834 524.377C121.854 525.237 123.046 525.868 124.33 526.228C125.614 526.589 126.96 526.67 128.278 526.467L371.44 498.027C374.264 497.684 376.865 496.324 378.758 494.201C380.65 492.079 381.704 489.338 381.721 486.494L378.394 346.541C378.369 345.207 378.059 343.894 377.485 342.689C376.91 341.485 376.085 340.417 375.064 339.558C374.043 338.699 372.85 338.068 371.566 337.708C370.281 337.347 368.934 337.266 367.615 337.469L226.425 353.978C223.526 354.421 220.567 353.783 218.108 352.187C215.648 350.59 213.862 348.146 213.086 345.318Z" fill="black"/>
<path d="M450.774 267.492C449.722 272.768 448.598 277.972 447.333 283.134C446.067 288.296 444.83 293.515 443.451 298.677L441.346 306.398L441.076 307.393C440.948 307.82 440.806 308.247 440.635 308.687C440.272 309.655 439.794 310.577 439.213 311.432C438.508 312.494 437.605 313.412 436.554 314.134C435.396 314.919 434.063 315.407 432.672 315.556C430.566 315.709 428.46 315.26 426.6 314.262C425.187 313.492 423.862 312.572 422.647 311.517C420.449 309.596 418.504 307.402 416.859 304.99L420.912 301.464C422.847 302.969 424.891 304.328 427.027 305.531C427.955 306.057 428.937 306.481 429.956 306.796C430.823 307.081 431.591 307.038 431.591 306.896C431.591 306.754 431.449 306.896 431.378 306.896C431.307 306.896 431.378 306.896 431.378 306.654C431.378 306.412 431.549 306.156 431.648 305.787L431.975 304.208L433.625 296.444L436.966 280.916C438.047 275.74 439.213 270.549 440.337 265.43L450.774 267.492Z" fill="#FFC3BD"/>
<path d="M446.053 251.239C433.923 260.524 434.421 278.029 434.421 278.029L456.106 283.22C456.106 283.22 462.776 265.615 460.074 259.174C457.258 252.462 452.893 246.006 446.053 251.239Z" fill="#263238"/>
<path d="M421.992 301.677L414.015 293.7L409.749 306.185C409.749 306.185 416.489 309.811 422.931 306.384L421.992 301.677Z" fill="#FFC3BD"/>
<path d="M402.966 292.462L401.501 302.331L409.706 306.185L414.015 293.7L402.966 292.462Z" fill="#FFC3BD"/>
<path d="M516.356 581.399L504.156 582.593L491.457 553.542L503.658 552.347L516.356 581.399Z" fill="#FFC3BD"/>
<path d="M594.965 538.454L585.793 547.057L566.013 525.315L575.185 516.712L594.965 538.454Z" fill="#FFC3BD"/>
<path d="M581.598 542.933L588.48 530.534C588.596 530.316 588.787 530.149 589.017 530.062C589.248 529.976 589.502 529.977 589.732 530.064L600.326 534.103C600.587 534.213 600.823 534.377 601.017 534.584C601.211 534.791 601.359 535.037 601.452 535.306C601.544 535.574 601.579 535.859 601.554 536.142C601.529 536.425 601.445 536.699 601.307 536.947C598.832 541.213 597.425 543.175 594.396 548.636C592.533 551.992 588.907 559.685 586.333 564.278C583.759 568.871 579.038 566.624 579.692 564.463C582.636 554.765 582.081 549.375 581.257 545.109C581.115 544.366 581.236 543.597 581.598 542.933Z" fill="#263238"/>
<path d="M502.534 578.825H517.522C517.792 578.825 518.054 578.915 518.267 579.079C518.481 579.244 518.634 579.474 518.703 579.735L521.959 591.58C522.039 591.86 522.052 592.154 521.998 592.44C521.944 592.726 521.823 592.995 521.646 593.225C521.469 593.456 521.241 593.643 520.979 593.769C520.717 593.896 520.43 593.959 520.139 593.955C514.849 593.955 512.346 593.955 505.762 593.955H485.627C480.138 593.955 479 588.423 481.261 587.911C491.429 585.665 497.273 582.565 500.416 579.607C500.998 579.089 501.755 578.81 502.534 578.825Z" fill="#263238"/>
<path opacity="0.2" d="M491.472 553.556L498.013 568.529H510.74L503.672 552.361L491.472 553.556Z" fill="black"/>
<path opacity="0.2" d="M575.185 516.726L566.013 525.329L576.223 536.535L585.395 527.917L575.185 516.726Z" fill="black"/>
<path d="M449.721 249.447C449.721 249.447 444.233 251.85 462.633 324.657L513.74 320.234C511.095 299.516 509.957 286.689 516.2 243.133C508.92 242.272 501.586 241.944 494.258 242.152C486.485 242.269 478.73 242.939 471.051 244.157C463.857 245.558 456.737 247.324 449.721 249.447Z" fill="#263238"/>
<path d="M494.259 241.74C494.259 241.74 497.103 241.74 500.572 241.74C502.634 244.911 495.951 258.804 484.93 267.89C483.252 262.839 480.169 258.37 476.043 255.007L494.259 241.74Z" fill="white"/>
<path d="M471.052 243.972C471.052 243.972 469.758 244.157 466.672 244.868C464.61 248.039 461.126 261.591 467.198 268.502C468.727 263.261 471.793 258.6 476 255.121L471.052 243.972Z" fill="white"/>
<path d="M489.694 216.215C488.883 223.808 488.599 237.545 494.258 242.152C494.258 242.152 488.215 248.324 476 255.121C467.112 248.978 471.051 244.157 471.051 244.157C479.199 241.455 478.446 235.298 476.498 229.61L489.694 216.215Z" fill="#FFC3BD"/>
<path d="M475.787 255.163C475.787 255.163 483.281 247.001 487.163 248.565C491.045 250.13 488.045 252.931 487.703 255.562C487.362 258.192 489.211 265.189 484.021 263.368C478.83 261.548 475.787 255.163 475.787 255.163Z" fill="#FF002C"/>
<path d="M475.488 254.993C475.488 254.993 471.947 248.736 468.122 249.575C464.297 250.414 466.572 252.604 466.914 254.964C467.354 257.979 464.169 263.781 468.776 262.074C473.384 260.368 475.488 254.993 475.488 254.993Z" fill="#FF002C"/>
<g opacity="0.2">
<path d="M473.525 253.642C473.474 254.904 473.717 256.16 474.236 257.311C474.707 256.576 475.121 255.806 475.473 255.007C474.948 254.116 474.344 253.273 473.668 252.49C473.55 252.862 473.502 253.253 473.525 253.642Z" fill="black"/>
<path d="M478.517 252.519C476.91 253.941 475.801 255.163 475.801 255.163C476.214 256.017 476.689 256.839 477.223 257.624C478.082 256.762 478.589 255.611 478.645 254.396C478.781 253.77 478.737 253.119 478.517 252.519Z" fill="black"/>
</g>
<path d="M475.702 257.723C474.635 257.723 473.981 256.571 473.91 253.827C473.839 251.082 475.943 252.604 475.943 252.604C475.943 252.604 478.787 251.182 478.276 254.467C477.906 257.069 476.797 257.723 475.702 257.723Z" fill="#FF002C"/>
<path opacity="0.2" d="M484.318 221.689L476.512 229.61C476.98 230.929 477.336 232.284 477.578 233.663C480.721 232.937 485.271 229.667 485.314 226.311C485.263 224.723 484.926 223.157 484.318 221.689Z" fill="black"/>
<path d="M477.621 190.548C477.621 190.548 469.089 202.365 467.667 207.612C461.865 210.996 460.699 194.344 463.77 184.078C473.355 190.093 477.621 190.548 477.621 190.548Z" fill="#263238"/>
<path d="M496.377 204.355C493.206 216.485 492.111 221.69 484.688 226.766C473.497 234.417 459.291 227.875 458.765 215.035C458.296 203.488 463.557 185.585 476.54 183.068C479.401 182.487 482.363 182.65 485.143 183.541C487.923 184.433 490.428 186.022 492.419 188.158C494.409 190.294 495.818 192.904 496.511 195.74C497.204 198.576 497.158 201.542 496.377 204.355Z" fill="#FFC3BD"/>
<path d="M502.976 199.506C502.976 199.506 496.875 209.389 496.05 213.726C491.628 216.727 489.765 203.559 491.628 195.24C493.662 187.832 502.976 199.506 502.976 199.506Z" fill="#263238"/>
<path d="M500.543 192.638C498.78 193.975 496.917 189.04 498.666 185.258C495.296 185.471 491.244 183.466 492.111 180.21C485.47 182.442 483.01 175.688 483.778 171.01C484.702 165.322 489.651 164.113 492.566 165.606C492.566 163.061 498.993 157.756 501.439 161.909C505.975 160.302 513.285 160.8 513.128 166.374C516.129 166.459 524.988 169.858 521.66 177.75C525.571 177.977 527.689 182.94 525.514 186.694C526.371 187.148 527.106 187.802 527.657 188.6C528.208 189.398 528.56 190.316 528.681 191.279C528.802 192.241 528.69 193.218 528.354 194.128C528.018 195.038 527.468 195.853 526.751 196.506C528.557 200.26 523.082 205.848 520.167 205.18C517.949 208.579 514.55 211.138 512.332 208.237C508.066 211.38 503.16 207.384 504.255 204.313C499.42 203.573 494.486 195.511 500.543 192.638Z" fill="#263238"/>
<path d="M507.768 180.693C510.953 186.012 510.683 192.069 507.185 194.131C503.687 196.193 498.24 193.634 495.055 188.315C491.87 182.997 492.126 176.939 495.638 174.877C499.15 172.815 504.583 175.389 507.768 180.693Z" fill="#FF002C"/>
<path d="M478.19 189.126C478.005 190.647 473.81 190.249 472.602 187.561C470.867 189.381 466.786 190.32 465.392 188.343C463.032 192.78 458.282 191.614 457.059 189.495C455.836 187.376 455.026 183.438 457.486 182.655C456.064 181.433 456.49 175.673 460.216 176.399C461.78 173.327 466.06 169.843 469.189 172.559C470.895 171.137 477.721 168.179 480.48 173.597C481.085 173.184 481.775 172.913 482.5 172.805C483.225 172.697 483.965 172.754 484.664 172.973C485.364 173.192 486.004 173.567 486.538 174.069C487.072 174.571 487.485 175.188 487.746 175.873C492.168 174.721 494.088 178.077 494.074 179.897C497.216 180.75 497.43 186.182 495.496 187.348C496.25 190.093 495.851 193.036 492.965 192.78C492.41 196.477 487.462 197.046 486.296 195.041C483.082 197.103 476.526 193.52 478.19 189.126Z" fill="#263238"/>
<path d="M470.682 178.631C474.279 173.654 487.404 171.521 498.766 179.044C509.005 185.77 508.336 201.398 500.188 200.559C492.04 199.72 483.992 190.178 483.992 190.178L470.682 178.631Z" fill="#263238"/>
<path d="M497.373 215.305C496.239 217.443 494.308 219.048 491.998 219.77C488.912 220.694 487.319 217.964 488.116 215.021C488.841 212.376 491.301 208.707 494.415 209.077C495.094 209.167 495.74 209.426 496.294 209.829C496.848 210.233 497.292 210.769 497.586 211.388C497.879 212.006 498.014 212.689 497.977 213.373C497.94 214.058 497.732 214.722 497.373 215.305Z" fill="#FFC3BD"/>
<path d="M462.633 324.656C462.633 324.656 445.342 401.16 456.945 455.097C464.681 491.215 492.495 564.178 492.495 564.178L514.309 563.624C514.309 563.624 493.192 487.049 488.826 456.974C481.361 405.469 500.06 321.471 500.06 321.471L462.633 324.656Z" fill="#FF002C"/>
<path opacity="0.2" d="M482.57 340.114L493.434 357.306C490.15 377.69 488.065 398.25 487.191 418.878C471.905 391.434 479.214 354.632 482.57 340.114Z" fill="black"/>
<path d="M489.424 565.316L516.357 564.619L514.807 556.357L487.319 557.651L489.424 565.316Z" fill="#263238"/>
<path d="M473.811 323.846C473.811 323.846 483.949 404.971 505.948 449.266C523.708 485.044 571.104 536.008 571.104 536.008L583.219 523.523C583.219 523.523 551.21 468.179 538.014 444.417C505.635 386.115 532.098 341.678 513.74 320.277L473.811 323.846Z" fill="#FF002C"/>
<path d="M569.88 537.644L585.522 522.4L580.332 515.333L563.737 531.885L569.88 537.644Z" fill="#263238"/>
<path d="M514.252 317.177L516.954 321.557C517.167 321.884 516.769 322.282 516.186 322.339L462.576 326.975C462.121 326.975 461.723 326.818 461.666 326.534L460.813 321.998C460.742 321.685 461.126 321.386 461.624 321.343L513.385 316.864C513.544 316.834 513.708 316.848 513.861 316.903C514.013 316.958 514.148 317.052 514.252 317.177Z" fill="#FF002C"/>
<path opacity="0.5" d="M514.252 317.177L516.954 321.557C517.167 321.884 516.769 322.282 516.186 322.339L462.576 326.975C462.121 326.975 461.723 326.818 461.666 326.534L460.813 321.998C460.742 321.685 461.126 321.386 461.624 321.343L513.385 316.864C513.544 316.834 513.708 316.848 513.861 316.903C514.013 316.958 514.148 317.052 514.252 317.177Z" fill="white"/>
<path d="M507.796 323.562L509.218 323.448C509.488 323.448 509.688 323.263 509.659 323.092L508.493 317.205C508.493 317.02 508.209 316.907 507.924 316.935L506.502 317.049C506.218 317.049 506.019 317.234 506.061 317.404L507.227 323.291C507.27 323.462 507.526 323.59 507.796 323.562Z" fill="#FF002C"/>
<path d="M466.515 327.131L467.937 327.017C468.207 327.017 468.406 326.832 468.378 326.662L467.212 320.775C467.161 320.673 467.077 320.591 466.974 320.542C466.871 320.493 466.754 320.48 466.643 320.504L465.221 320.618C464.937 320.618 464.738 320.803 464.78 320.974L465.946 326.861C465.989 327.06 466.245 327.159 466.515 327.131Z" fill="#FF002C"/>
<path d="M487.163 325.353L488.585 325.225C488.869 325.225 489.068 325.04 489.026 324.87L487.86 318.983C487.86 318.812 487.575 318.684 487.305 318.712L485.883 318.84C485.613 318.84 485.414 319.025 485.442 319.196L486.608 325.083C486.637 325.254 486.878 325.367 487.163 325.353Z" fill="#FF002C"/>
<path d="M475.843 203.943C475.644 204.938 474.962 205.649 474.307 205.521C473.653 205.393 473.284 204.469 473.468 203.474C473.653 202.478 474.364 201.767 475.018 201.895C475.673 202.023 476.042 202.933 475.843 203.943Z" fill="#263238"/>
<path d="M464.522 201.708C464.719 200.707 464.348 199.79 463.693 199.661C463.038 199.533 462.347 200.24 462.15 201.242C461.954 202.244 462.325 203.161 462.98 203.289C463.635 203.418 464.326 202.71 464.522 201.708Z" fill="#263238"/>
<path d="M463.998 199.791L461.723 198.625C461.723 198.625 462.59 200.743 463.998 199.791Z" fill="#263238"/>
<path d="M468.421 204.213C467.089 206.322 465.471 208.236 463.614 209.901C464.045 210.376 464.576 210.75 465.169 210.996C465.761 211.242 466.401 211.354 467.041 211.323L468.421 204.213Z" fill="#ED847E"/>
<path d="M471.663 216.016C473.763 216.038 475.795 215.266 477.351 213.854C477.381 213.832 477.406 213.803 477.423 213.77C477.441 213.737 477.451 213.7 477.453 213.663C477.455 213.625 477.449 213.587 477.435 213.553C477.421 213.518 477.399 213.486 477.371 213.461C477.344 213.435 477.311 213.416 477.275 213.405C477.239 213.394 477.201 213.39 477.164 213.395C477.127 213.4 477.091 213.413 477.059 213.434C477.028 213.454 477.001 213.481 476.981 213.513C476.024 214.357 474.881 214.963 473.646 215.282C472.41 215.6 471.117 215.623 469.871 215.347C469.839 215.341 469.806 215.342 469.775 215.348C469.743 215.355 469.713 215.368 469.687 215.387C469.66 215.405 469.638 215.429 469.62 215.456C469.603 215.484 469.592 215.515 469.587 215.547C469.578 215.578 469.577 215.612 469.583 215.644C469.588 215.677 469.601 215.708 469.62 215.735C469.639 215.762 469.664 215.784 469.692 215.801C469.721 215.818 469.753 215.828 469.786 215.831C470.403 215.96 471.032 216.022 471.663 216.016Z" fill="#263238"/>
<path d="M482.626 200.061C482.716 200.059 482.805 200.035 482.882 199.99C482.995 199.922 483.077 199.812 483.109 199.684C483.141 199.556 483.121 199.42 483.053 199.307C482.583 198.508 481.928 197.833 481.144 197.338C480.36 196.844 479.469 196.544 478.545 196.463C478.48 196.461 478.415 196.472 478.354 196.495C478.293 196.519 478.237 196.554 478.189 196.599C478.142 196.644 478.103 196.697 478.077 196.757C478.05 196.817 478.035 196.881 478.033 196.947C478.032 197.012 478.043 197.077 478.066 197.138C478.089 197.199 478.124 197.255 478.169 197.303C478.214 197.35 478.268 197.389 478.327 197.415C478.387 197.442 478.452 197.457 478.517 197.458C479.28 197.542 480.012 197.807 480.652 198.23C481.292 198.652 481.823 199.222 482.2 199.89C482.252 199.951 482.318 199.998 482.392 200.028C482.467 200.057 482.547 200.069 482.626 200.061Z" fill="#263238"/>
<path d="M461.41 196.051C461.49 196.069 461.572 196.069 461.652 196.051C462.312 195.66 463.056 195.43 463.822 195.381C464.588 195.332 465.355 195.464 466.06 195.766C466.175 195.815 466.305 195.818 466.422 195.775C466.54 195.732 466.637 195.647 466.694 195.535C466.751 195.424 466.765 195.296 466.732 195.175C466.699 195.055 466.621 194.951 466.515 194.885C465.664 194.499 464.731 194.325 463.798 194.377C462.865 194.429 461.958 194.705 461.154 195.183C461.042 195.249 460.961 195.355 460.926 195.48C460.892 195.605 460.907 195.738 460.969 195.852C461.018 195.922 461.084 195.977 461.162 196.012C461.24 196.048 461.326 196.061 461.41 196.051Z" fill="#263238"/>
<path d="M518.376 254.765C519.343 255.704 520.011 256.443 520.765 257.282C521.518 258.121 522.187 258.946 522.869 259.785C524.22 261.477 525.514 263.212 526.723 264.989C529.126 268.573 531.256 272.333 533.093 276.237C534.927 280.16 536.407 284.238 537.516 288.424C538.07 290.514 538.568 292.69 538.938 294.78C539.643 297.8 539.297 300.971 537.957 303.767C537.176 305.236 536.096 306.525 534.786 307.55C533.649 308.424 532.401 309.141 531.074 309.683C528.792 310.563 526.399 311.128 523.964 311.361C519.643 311.776 515.29 311.719 510.981 311.19C502.733 310.231 494.592 308.503 486.665 306.028L487.973 300.866C491.841 301.506 495.823 302.104 499.747 302.516C503.672 302.928 507.625 303.298 511.507 303.383C515.268 303.519 519.033 303.309 522.755 302.758C524.358 302.497 525.918 302.019 527.391 301.336C528.294 300.994 529.039 300.33 529.481 299.473C529.601 299.145 529.659 298.798 529.652 298.449C529.672 298.193 529.672 297.937 529.652 297.681C529.652 297.397 529.553 297.141 529.425 296.615C529.026 294.78 528.5 292.974 527.932 291.183C526.774 287.61 525.348 284.131 523.666 280.774C521.975 277.397 520.036 274.15 517.864 271.061C516.797 269.497 515.674 267.976 514.508 266.511C513.925 265.771 513.313 265.089 512.716 264.364C512.119 263.638 511.436 262.942 510.967 262.43L518.376 254.765Z" fill="#FFC3BD"/>
<path d="M491.229 301.649L481.275 296.373L480.82 309.555C480.82 309.555 487.93 310.01 491.997 306.711L491.229 301.649Z" fill="#FFC3BD"/>
<path d="M473.767 372.564L481.986 283.248L464.424 269.796L410.815 264.861L401.501 365.909L473.767 372.564Z" fill="#FF002C"/>
<path opacity="0.8" d="M473.767 372.564L481.986 283.248L464.424 269.796L410.815 264.861L401.501 365.909L473.767 372.564Z" fill="white"/>
<path d="M481.987 283.248L464.425 269.796L469.032 285.893L481.987 283.248Z" fill="#FF002C"/>
<path d="M407.786 381.522C419.881 381.522 429.685 371.718 429.685 359.623C429.685 347.529 419.881 337.725 407.786 337.725C395.692 337.725 385.888 347.529 385.888 359.623C385.888 371.718 395.692 381.522 407.786 381.522Z" fill="#FF002C"/>
<path d="M418.606 373.31C426.173 367.332 427.461 356.351 421.483 348.783C415.504 341.216 404.523 339.928 396.956 345.906C389.389 351.885 388.1 362.866 394.079 370.433C400.057 378.001 411.039 379.289 418.606 373.31Z" fill="white"/>
<path d="M418.579 358.088L410.872 357.192L411.768 349.485L406.25 348.831L405.355 356.538L397.647 355.628L396.993 361.159L404.7 362.069L403.79 369.762L409.322 370.417L410.218 362.709L417.925 363.619L418.579 358.088Z" fill="#FF002C"/>
<path opacity="0.4" d="M468.876 301.762C468.805 302.544 468.58 303.304 468.215 303.999C467.849 304.693 467.351 305.309 466.747 305.811C466.143 306.313 465.447 306.691 464.697 306.923C463.947 307.156 463.159 307.238 462.378 307.166L423.273 303.568C421.695 303.42 420.241 302.653 419.228 301.435C418.215 300.217 417.727 298.647 417.869 297.07C417.94 296.288 418.165 295.528 418.531 294.833C418.896 294.139 419.395 293.523 419.998 293.021C420.602 292.519 421.298 292.141 422.048 291.909C422.798 291.676 423.586 291.594 424.368 291.666L463.473 295.264C464.254 295.335 465.014 295.56 465.709 295.925C466.404 296.291 467.02 296.789 467.521 297.393C468.023 297.996 468.401 298.693 468.634 299.443C468.866 300.192 468.949 300.981 468.876 301.762Z" fill="#FF002C"/>
<path opacity="0.4" d="M455.551 317.902C455.48 318.684 455.255 319.444 454.89 320.139C454.525 320.833 454.026 321.449 453.422 321.951C452.819 322.453 452.122 322.831 451.372 323.063C450.623 323.296 449.834 323.378 449.053 323.306L421.722 320.789C420.94 320.718 420.18 320.493 419.486 320.127C418.791 319.762 418.175 319.263 417.673 318.66C417.171 318.056 416.793 317.36 416.561 316.61C416.328 315.86 416.246 315.072 416.318 314.29C416.39 313.509 416.615 312.749 416.98 312.054C417.345 311.359 417.844 310.743 418.448 310.241C419.051 309.74 419.748 309.362 420.497 309.129C421.247 308.897 422.035 308.814 422.817 308.887L450.148 311.418C451.722 311.566 453.174 312.331 454.187 313.546C455.199 314.761 455.69 316.327 455.551 317.902Z" fill="#FF002C"/>
<path d="M475.189 297.155L476.683 307.01L480.806 309.555L481.261 296.373L475.189 297.155Z" fill="#FFC3BD"/>
<path d="M516.186 243.162C522.457 244.271 531.245 262.245 531.245 262.245L515.446 276.465C515.446 276.465 502.876 262.757 503.544 254.595C504.127 247.698 508.223 241.74 516.186 243.162Z" fill="#263238"/>
<path d="M579.152 549.603C579.315 549.6 579.478 549.576 579.635 549.532C581.143 549.02 582.124 546.247 582.579 544.64C582.588 544.594 582.585 544.546 582.571 544.501C582.556 544.456 582.529 544.416 582.494 544.384C582.456 544.353 582.408 544.336 582.359 544.336C582.309 544.336 582.262 544.353 582.223 544.384C581.768 544.612 577.758 546.759 577.63 548.337C577.612 548.509 577.642 548.683 577.717 548.839C577.793 548.995 577.91 549.127 578.057 549.219C578.367 549.469 578.754 549.604 579.152 549.603ZM581.996 545.081C581.299 547.299 580.403 548.764 579.55 549.048C579.357 549.108 579.151 549.116 578.954 549.071C578.757 549.026 578.575 548.93 578.427 548.792C578.35 548.749 578.288 548.684 578.248 548.606C578.207 548.527 578.19 548.439 578.199 548.352C578.199 547.385 580.545 545.863 581.925 545.081H581.996Z" fill="#FF002C"/>
<path d="M578.526 545.707C579.892 545.7 581.239 545.384 582.465 544.782C582.5 544.759 582.529 544.727 582.549 544.69C582.569 544.653 582.579 544.611 582.579 544.569C582.581 544.525 582.57 544.481 582.547 544.443C582.524 544.405 582.491 544.375 582.451 544.356C582.323 544.285 579.152 542.536 577.446 543.147C577.231 543.21 577.034 543.322 576.871 543.476C576.708 543.629 576.583 543.818 576.507 544.029C576.401 544.228 576.365 544.458 576.406 544.68C576.448 544.902 576.564 545.104 576.735 545.252C577.265 545.599 577.895 545.759 578.526 545.707ZM581.783 544.569C580.432 545.152 577.801 545.508 577.062 544.882C576.934 544.768 576.806 544.597 576.976 544.214C577.027 544.072 577.11 543.945 577.219 543.841C577.327 543.737 577.459 543.66 577.602 543.616C578.754 543.204 580.887 544.128 581.783 544.626V544.569Z" fill="#FF002C"/>
<path d="M495.894 581.242C497.269 581.209 498.637 581.033 499.975 580.716C500.022 580.699 500.063 580.668 500.091 580.628C500.12 580.587 500.135 580.538 500.135 580.489C500.135 580.439 500.12 580.39 500.091 580.35C500.063 580.309 500.022 580.278 499.975 580.261C499.364 579.962 493.917 577.417 492.552 578.384C492.427 578.466 492.327 578.581 492.264 578.717C492.201 578.853 492.178 579.003 492.197 579.152C492.2 579.43 492.269 579.704 492.397 579.951C492.526 580.198 492.71 580.411 492.936 580.574C493.826 581.106 494.862 581.34 495.894 581.242ZM499.122 580.389C497.515 580.688 494.529 581.086 493.292 580.162C493.133 580.037 493.003 579.88 492.91 579.701C492.817 579.522 492.763 579.325 492.751 579.123C492.739 579.061 492.746 578.996 492.771 578.938C492.797 578.879 492.839 578.83 492.894 578.796C493.647 578.27 496.861 579.394 499.122 580.389Z" fill="#FF002C"/>
<path d="M499.918 580.73C499.974 580.747 500.033 580.747 500.089 580.73C500.124 580.699 500.15 580.658 500.162 580.613C500.175 580.567 500.174 580.519 500.16 580.474C500.16 580.247 498.88 574.886 495.894 575.227C495.154 575.327 494.941 575.682 494.912 575.981C494.728 577.403 498.155 580.09 499.79 580.773L499.918 580.73ZM496.192 575.654C498.084 575.654 499.178 578.782 499.548 580.033C497.771 579.095 495.282 576.862 495.439 575.995C495.439 575.924 495.439 575.725 495.993 575.668L496.192 575.654Z" fill="#FF002C"/>
<path d="M475.289 202.009L473.028 200.843C473.028 200.843 473.896 202.962 475.289 202.009Z" fill="#263238"/>
</svg>
