<svg width="40" height="40" viewBox="0 0 40 40" fill="none" xmlns="http://www.w3.org/2000/svg">
<path d="M9.16675 34V8.84633C9.16675 8.00444 9.45841 7.29183 10.0417 6.7085C10.6251 6.12516 11.3377 5.8335 12.1796 5.8335H27.8205C28.6624 5.8335 29.375 6.12516 29.9583 6.7085C30.5417 7.29183 30.8333 8.00444 30.8333 8.84633V34L20 27.2692L9.16675 34ZM11.6667 29.9168L20 24.5L28.3334 29.9168V8.84633C28.3334 8.71811 28.28 8.60057 28.1731 8.49371C28.0663 8.38687 27.9487 8.33346 27.8205 8.33346H12.1796C12.0514 8.33346 11.9338 8.38687 11.827 8.49371C11.7201 8.60057 11.6667 8.71811 11.6667 8.84633V29.9168Z" fill="#9B9B9B"/>
</svg>
