<svg width="500" height="500" viewBox="0 0 500 500" fill="none" xmlns="http://www.w3.org/2000/svg">
<path d="M0 382.4H500V382.65H0V382.4Z" fill="transparent"/>
<path d="M50.1 398.49H83.22V398.74H50.1V398.49Z" fill="transparent"/>
<path d="M168.78 401.21H177.47V401.46H168.78V401.21Z" fill="transparent"/>
<path d="M84.22 389.21H103.41V389.46H84.22V389.21Z" fill="transparent"/>
<path d="M404.35 390.89H447.54V391.14H404.35V390.89Z" fill="transparent"/>
<path d="M389.11 390.89H395.44V391.14H389.11V390.89Z" fill="transparent"/>
<path d="M274.85 395.11H368.53V395.36H274.85V395.11Z" fill="transparent"/>
<path d="M263 337.8H456.09C457.603 337.797 459.052 337.195 460.121 336.124C461.19 335.053 461.79 333.603 461.79 332.09V60.66C461.777 59.156 461.171 57.718 460.104 56.6582C459.036 55.5985 457.594 55.0026 456.09 55H263C261.486 55 260.033 55.6016 258.962 56.6724C257.892 57.7433 257.29 59.1956 257.29 60.71V332.09C257.29 333.604 257.892 335.057 258.962 336.128C260.033 337.198 261.486 337.8 263 337.8ZM456.09 55.2C457.536 55.2026 458.923 55.7791 459.944 56.8027C460.966 57.8264 461.54 59.2136 461.54 60.66V332.09C461.54 333.536 460.966 334.924 459.944 335.947C458.923 336.971 457.536 337.547 456.09 337.55H263C261.553 337.547 260.165 336.971 259.142 335.948C258.119 334.924 257.543 333.537 257.54 332.09V60.66C257.543 59.2127 258.119 57.8255 259.142 56.8021C260.165 55.7787 261.553 55.2026 263 55.2H456.09Z" fill="transparent"/>
<path d="M46.69 337.8H239.79C241.304 337.797 242.754 337.195 243.825 336.125C244.895 335.054 245.497 333.604 245.5 332.09V60.66C245.484 59.1551 244.876 57.7171 243.807 56.6576C242.738 55.5981 241.295 55.0025 239.79 55H46.69C45.1877 55.0052 43.748 55.6022 42.6829 56.6617C41.6178 57.7212 41.0132 59.1578 41 60.66V332.09C41 333.601 41.5988 335.05 42.6653 336.121C43.7319 337.191 45.1791 337.795 46.69 337.8ZM239.79 55.2C241.237 55.2026 242.625 55.7787 243.648 56.8021C244.671 57.8255 245.247 59.2127 245.25 60.66V332.09C245.247 333.537 244.671 334.924 243.648 335.948C242.625 336.971 241.237 337.547 239.79 337.55H46.69C45.2427 337.547 43.8555 336.971 42.8321 335.948C41.8087 334.924 41.2327 333.537 41.23 332.09V60.66C41.2327 59.2127 41.8087 57.8255 42.8321 56.8021C43.8555 55.7787 45.2427 55.2026 46.69 55.2H239.79Z" fill="transparent"/>
<path d="M113.865 274.596C99.0601 259.791 99.0601 235.787 113.865 220.983C128.67 206.178 152.673 206.178 167.478 220.983C182.283 235.787 182.283 259.791 167.478 274.595C152.673 289.4 128.67 289.4 113.865 274.596Z" fill="#fff"/>
<path d="M429.3 181H325.49C325.49 181 326.99 172.78 346.2 173.25C342.39 161.25 353.14 148.15 377.39 147.65C401.64 147.15 393.12 166.65 393.12 166.65C393.12 166.65 433.88 159.65 421.55 174.17C441.75 174.94 445.74 177.52 429.3 181Z" fill="#fff"/>
<path d="M159.83 232.41C157.47 220.6 177.65 207.66 214.83 207.16C252.01 206.66 233.36 225.93 233.36 225.93C233.36 225.93 297.57 218.93 274.56 233.34C305.18 234.03 310.56 236.58 284.43 240.06H126C126 240.06 130.66 232 159.83 232.41Z" fill="#fff"/>
<path d="M180.43 143.93H72.87C72.87 143.93 48.87 130.15 77.32 128.37C72.43 116.59 84.44 96.6102 126.43 96.1502C168.42 95.6902 146.65 123.26 146.65 123.26C146.65 123.26 210.65 104.81 188.2 134.15C198 134.15 232.87 143.93 180.43 143.93Z" fill="#fff"/>
<path d="M405.69 286.63H357.36C357.36 286.63 346.57 280.44 359.36 279.63C357.16 274.34 362.56 265.36 381.43 265.15C400.3 264.94 390.51 277.33 390.51 277.33C390.51 277.33 419.27 269.05 409.19 282.23C413.58 282.24 429.26 286.63 405.69 286.63Z" fill="#fff"/>
<path d="M407.87 97.9197C407.87 97.9197 421.51 89.1797 431 101.61C423.21 93.8897 408.4 101.67 408.4 101.67C408.4 101.67 391.4 93.9697 385.8 101.67C391.83 89.2597 407.87 97.9197 407.87 97.9197Z" fill="#fff"/>
<path d="M334.75 213C334.75 213 342.95 207.74 348.67 215.22C343.97 210.57 335.06 215.22 335.06 215.22C335.06 215.22 324.86 210.58 321.45 215.22C325.09 207.82 334.75 213 334.75 213Z" fill="#fff"/>
<path d="M185.23 91.1396C185.23 91.1396 189.33 88.5096 192.23 92.2496C189.88 89.9196 185.42 92.2496 185.42 92.2496C185.42 92.2496 180.32 89.9396 178.62 92.2496C180.4 88.5296 185.23 91.1396 185.23 91.1396Z" fill="#fff"/>
<path d="M84.93 180.92C84.93 180.92 89.04 178.29 91.93 182.03C89.59 179.71 85.13 182.03 85.13 182.03C85.13 182.03 80.03 179.71 78.33 182.03C80.11 178.31 84.93 180.92 84.93 180.92Z" fill="#fff"/>
<path d="M250 427.56C142.918 427.56 56.11 422.492 56.11 416.24C56.11 409.988 142.918 404.92 250 404.92C357.083 404.92 443.89 409.988 443.89 416.24C443.89 422.492 357.083 427.56 250 427.56Z" fill="#fff"/>
<path d="M237.13 311.379L230.88 310.759L230 296.479L236.25 297.099L237.13 311.379Z" fill="#CF7A64"/>
<path d="M273.01 315.09L266.86 314.48L265.55 299.95L271.7 300.56L273.01 315.09Z" fill="#CF7A64"/>
<path d="M266.51 313.099L273.43 313.789C273.55 313.802 273.662 313.856 273.748 313.942C273.833 314.027 273.887 314.139 273.9 314.259L274.43 319.839C274.441 319.973 274.422 320.108 274.375 320.234C274.329 320.36 274.256 320.475 274.16 320.57C274.065 320.665 273.951 320.738 273.825 320.785C273.699 320.831 273.564 320.85 273.43 320.839C271.02 320.559 269.87 320.299 266.83 319.999C264.96 319.809 262.45 319.639 259.83 319.379C257.21 319.119 257.22 316.539 258.31 316.379C263.18 315.819 263.78 314.539 265.47 313.329C265.778 313.131 266.147 313.049 266.51 313.099Z" fill="#263238"/>
<path d="M230.7 309.47L237.42 310.15C237.542 310.16 237.656 310.212 237.742 310.298C237.828 310.384 237.881 310.499 237.89 310.62L238.42 316.2C238.432 316.335 238.415 316.47 238.369 316.597C238.323 316.724 238.25 316.839 238.154 316.935C238.059 317.03 237.944 317.103 237.817 317.149C237.69 317.195 237.554 317.213 237.42 317.2C235 316.92 231.52 316.42 228.47 316.12C224.9 315.76 224.88 315.95 220.7 315.53C218.18 315.27 217.8 312.65 218.88 312.53C223.83 311.96 224.69 311.94 229.18 309.8C229.649 309.559 230.173 309.445 230.7 309.47Z" fill="#263238"/>
<path d="M254.67 110.94C253.11 111.08 251.35 111.25 249.67 111.33C247.99 111.41 246.31 111.47 244.67 111.47C243.089 111.466 241.51 111.373 239.94 111.19C238.694 111.061 237.474 110.747 236.32 110.26L238.16 113.08C238.16 113.41 238.09 113.41 238.16 113.21C238.245 112.903 238.365 112.608 238.52 112.33C238.989 111.477 239.541 110.673 240.17 109.93C241.61 108.205 243.156 106.572 244.8 105.04C246.48 103.43 248.25 101.87 250.04 100.32C251.83 98.77 253.69 97.23 255.49 95.74L253.09 92C250.86 93.14 248.76 94.38 246.64 95.67C244.52 96.96 242.48 98.36 240.46 99.86C238.374 101.377 236.405 103.048 234.57 104.86C233.551 105.889 232.631 107.01 231.82 108.21C231.322 108.949 230.912 109.745 230.6 110.58C230.148 111.75 229.99 113.014 230.14 114.26L230.36 116.02L232 117.11C233.975 118.367 236.176 119.226 238.48 119.64C240.457 120.045 242.464 120.293 244.48 120.38C246.42 120.49 248.33 120.47 250.22 120.38C252.11 120.29 253.94 120.15 255.94 119.85L254.67 110.94Z" fill="#CE7A63"/>
<path d="M251 93.9996L254.68 89.3896L257.44 95.9996C257.44 95.9996 254.1 99.9296 250.56 97.9996L251 93.9996Z" fill="#CF7A64"/>
<path d="M259.56 86.9697L260.18 94.4697L257.44 95.9497L254.69 89.3697L259.56 86.9697Z" fill="#CF7A64"/>
<path d="M264.07 87.9297L258.47 85.6097C258.379 85.5624 258.279 85.5353 258.177 85.5302C258.075 85.5251 257.973 85.5421 257.878 85.5801C257.783 85.6181 257.698 85.6761 257.627 85.7503C257.557 85.8244 257.503 85.9129 257.47 86.0097L253.86 97.5197C253.817 97.7221 253.846 97.9333 253.943 98.1162C254.04 98.2991 254.198 98.4419 254.39 98.5197L259.99 100.84C260.081 100.887 260.181 100.914 260.283 100.919C260.385 100.924 260.487 100.907 260.582 100.869C260.677 100.831 260.762 100.773 260.833 100.699C260.903 100.625 260.957 100.536 260.99 100.44L264.6 88.9997C264.662 88.7874 264.642 88.5593 264.544 88.361C264.446 88.1627 264.277 88.0087 264.07 87.9297Z" fill="#263238"/>
<path d="M260.77 121.92C256.7 126.84 240.02 122.23 240.02 122.23L241.43 111C241.43 111 245.64 109.74 253.99 109.48C262.55 109.17 265.23 116.53 260.77 121.92Z" fill="#FF002C"/>
<path opacity="0.2" d="M230 296.49L230.46 303.85L236.7 304.47L236.25 297.11L230 296.49Z" fill="black"/>
<path opacity="0.2" d="M271.71 300.57L265.55 299.95L266.23 307.44L272.38 308.06L271.71 300.57Z" fill="black"/>
<path d="M247.95 112.57C245.53 118.85 239.59 137.57 241.66 165.83L274.58 169.14C275.44 164.14 275.58 136.65 283.46 113.38C279.9 112.318 276.276 111.486 272.61 110.89C267.974 110.15 263.3 109.679 258.61 109.48C256.214 109.476 253.82 109.613 251.44 109.89C250.669 109.974 249.936 110.269 249.32 110.741C248.705 111.214 248.231 111.846 247.95 112.57Z" fill="#FF002C"/>
<path opacity="0.2" d="M260.6 117.7L261.89 117.87C261.76 128.87 261.6 131.87 271.53 142.15C273.323 143.975 274.95 145.956 276.39 148.07C276.26 149.37 276.13 150.63 276.01 151.85C273.44 149.5 270.01 146.42 267.45 144.28C255.9 134.64 260.27 117.56 260.6 117.7Z" fill="black"/>
<path opacity="0.2" d="M275.57 118.53C274.57 122.38 274.57 131.86 276.97 143.04C278.077 133.777 279.995 124.628 282.7 115.7C280.57 115.21 276.55 114.92 275.57 118.53Z" fill="black"/>
<path d="M272.42 97.6504C270.97 102.05 269.83 107.57 272.61 110.89C272.61 110.89 270.23 115.26 261.86 114.42C254.22 113.65 258.61 109.48 258.61 109.48C263.79 108.79 264.3 102.57 263.86 98.9904L272.42 97.6504Z" fill="#CF7A64"/>
<path d="M261.5 114L259.5 115.82C259.43 115.883 259.378 115.964 259.348 116.053C259.319 116.142 259.312 116.238 259.33 116.33L259.74 118.16C259.76 118.261 259.812 118.353 259.887 118.423C259.962 118.493 260.058 118.537 260.16 118.55L262.11 118.84C262.2 118.854 262.292 118.845 262.378 118.813C262.464 118.782 262.54 118.729 262.6 118.66L263.94 117.06C264.012 116.967 264.051 116.853 264.051 116.735C264.051 116.617 264.012 116.503 263.94 116.41L262.27 114.07C262.225 114.013 262.17 113.966 262.106 113.931C262.042 113.896 261.972 113.875 261.9 113.868C261.828 113.862 261.755 113.87 261.686 113.893C261.618 113.915 261.554 113.952 261.5 114Z" fill="#263238"/>
<path d="M262.12 113.94C262.959 116.124 264.064 118.196 265.41 120.11C265.41 120.11 273.54 116.41 274.03 111.11C274.039 111.014 274.023 110.916 273.985 110.827C273.947 110.738 273.886 110.66 273.81 110.6C273.5 110.36 272.94 109.92 272.41 109.48C272.348 109.424 272.275 109.382 272.195 109.358C272.116 109.334 272.031 109.328 271.949 109.34C271.867 109.353 271.788 109.383 271.719 109.43C271.65 109.477 271.592 109.538 271.55 109.61C270.9 110.76 268.8 113 262.12 113.94Z" fill="white"/>
<path d="M261.83 113.879C260.131 115.162 258.712 116.779 257.66 118.629C256.884 117.275 256.416 115.766 256.292 114.21C256.167 112.654 256.389 111.09 256.94 109.629C256.975 109.543 257.03 109.466 257.099 109.404C257.168 109.342 257.251 109.296 257.34 109.269C257.69 109.179 258.34 109.019 259.01 108.889C259.099 108.875 259.189 108.881 259.275 108.908C259.361 108.934 259.44 108.98 259.505 109.042C259.57 109.104 259.619 109.181 259.65 109.265C259.68 109.35 259.69 109.44 259.68 109.529C259.512 110.39 259.632 111.282 260.02 112.068C260.409 112.854 261.044 113.49 261.83 113.879Z" fill="white"/>
<path d="M260.66 117.63C260.34 117.49 257.1 132.79 268.28 142.08C272.84 145.87 280.17 152.64 280.16 152.63C279.48 149.94 277.34 145.79 271.97 140.35C262.26 130.52 262.27 127.85 261.87 117.85L260.66 117.63Z" fill="#263238"/>
<path opacity="0.2" d="M263.86 99.0001C264.217 101.502 263.871 104.054 262.86 106.37C263.655 106.334 264.441 106.179 265.19 105.91C268.19 104.91 269.84 102.91 271.69 99.9101C271.9 99.1201 272.13 98.3601 272.37 97.6201L263.86 99.0001Z" fill="black"/>
<path d="M267.23 84.0004C266.04 74.5904 259.12 84.5504 261.04 89.2304C262.22 92.0904 267.52 86.2704 267.23 84.0004Z" fill="#263238"/>
<path d="M276.75 92.5397C274.38 98.2597 273.28 101.73 269.32 103.77C263.37 106.86 257.16 101.86 257.8 95.5797C258.37 89.9297 262.15 81.5197 268.61 81.0397C270.028 80.9221 271.452 81.1762 272.741 81.777C274.031 82.3779 275.141 83.3046 275.963 84.4658C276.785 85.627 277.29 86.9824 277.428 88.3984C277.566 89.8143 277.332 91.2417 276.75 92.5397Z" fill="#CF7A64"/>
<path d="M274.08 98.07C273.325 97.9376 272.624 97.5911 272.06 97.0717C271.496 96.5522 271.094 95.8817 270.9 95.14C272.606 94.4548 274.086 93.3045 275.17 91.82C275.17 91.82 272.63 88.1699 272.9 86.0599C269.64 86.0599 262 82.91 263.73 79.43C265.46 75.95 272.32 74.22 276.32 76.68C278.841 78.3983 281.829 79.3022 284.88 79.2699C283.971 79.809 282.982 80.2006 281.95 80.43C283.076 81.5311 283.959 82.857 284.539 84.3214C285.12 85.7858 285.386 87.356 285.32 88.93C285.13 93.4 287.56 95.1999 287.56 95.1999C287.56 95.1999 284.56 95.65 283.64 94.33C284.05 95.79 281.58 100.91 276.15 101.62C270.07 102.41 274.08 98.07 274.08 98.07Z" fill="#263238"/>
<path d="M276.57 100.81C274.32 101.81 272.57 102.15 271.41 101.47C270.25 100.79 270.58 98.4703 272.06 97.1403C273.39 95.9703 276.01 94.8603 277.53 96.1403C279.05 97.4203 278.89 99.7503 276.57 100.81Z" fill="#CF7A64"/>
<path d="M241.66 165.83C241.66 165.83 227.5 212.39 226.5 230C225.4 249.27 228.18 300.48 228.18 300.48L239.31 301.61C239.31 301.61 241.39 252.85 244.21 233.99C247.27 213.52 262.64 167.99 262.64 167.99L241.66 165.83Z" fill="#263238"/>
<path opacity="0.2" d="M251.41 187.78L253.16 198C250.71 206.27 248.26 215.08 246.47 222.73C245.935 210.875 247.61 199.023 251.41 187.78Z" fill="black"/>
<path d="M240.23 298.83L239.87 302.94L227.42 301.69L227.06 297.04L240.23 298.83Z" fill="#FF002C"/>
<path d="M253.34 167C253.34 167 248.73 208.63 250.34 226.6C252.13 246.27 263.52 305.11 263.52 305.11L274.79 306.24C274.79 306.24 268.59 249.5 268.59 230.24C268.59 209.29 274.59 169.18 274.59 169.18L253.34 167Z" fill="#263238"/>
<path d="M275.18 302.64L275.34 306.51L262.95 305.26L261.69 300.88L275.18 302.64Z" fill="#FF002C"/>
<path d="M267.42 91.3199C267.26 91.7999 266.87 92.0999 266.57 91.9999C266.27 91.8999 266.14 91.4299 266.31 90.9999C266.48 90.5699 266.85 90.2199 267.16 90.3199C267.47 90.4199 267.59 90.8399 267.42 91.3199Z" fill="#263238"/>
<path d="M262.1 89.5895C261.94 90.0695 261.55 90.3695 261.25 90.2695C260.95 90.1695 260.82 89.6995 260.99 89.2695C261.16 88.8395 261.53 88.4895 261.84 88.5895C262.15 88.6895 262.26 89.1195 262.1 89.5895Z" fill="#263238"/>
<path d="M263.71 90.3799C262.646 91.6468 261.419 92.7667 260.06 93.7099C260.301 94.0478 260.615 94.3273 260.978 94.5281C261.342 94.7288 261.746 94.8456 262.16 94.8699L263.71 90.3799Z" fill="#BA4D3C"/>
<path d="M263.34 96.8198C263.305 96.8044 263.277 96.7761 263.262 96.7408C263.247 96.7054 263.247 96.6657 263.26 96.6298C263.275 96.5944 263.303 96.5658 263.338 96.5492C263.373 96.5327 263.413 96.5294 263.45 96.5398C264.031 96.7589 264.656 96.8394 265.274 96.7752C265.892 96.711 266.486 96.5037 267.01 96.1698C267.038 96.1423 267.076 96.127 267.115 96.127C267.154 96.127 267.192 96.1423 267.22 96.1698C267.245 96.1989 267.259 96.2362 267.259 96.2748C267.259 96.3134 267.245 96.3507 267.22 96.3798C266.657 96.7619 266.01 97.0015 265.334 97.0782C264.658 97.1548 263.974 97.0662 263.34 96.8198Z" fill="#263238"/>
<path d="M269.62 90.1104C269.578 90.096 269.54 90.0724 269.509 90.0412C269.478 90.01 269.454 89.9721 269.44 89.9304C269.341 89.5807 269.157 89.2606 268.907 88.9975C268.656 88.7344 268.345 88.5363 268 88.4204C267.962 88.4113 267.927 88.3945 267.896 88.3711C267.866 88.3476 267.84 88.318 267.821 88.2842C267.802 88.2504 267.791 88.213 267.787 88.1745C267.783 88.136 267.788 88.0971 267.8 88.0604C267.821 87.9856 267.87 87.9218 267.938 87.8827C268.005 87.8435 268.085 87.8319 268.16 87.8504C268.597 87.9898 268.993 88.2341 269.314 88.5618C269.634 88.8895 269.87 89.2907 270 89.7304C270.018 89.7833 270.021 89.8402 270.008 89.8946C269.995 89.9489 269.967 89.9987 269.928 90.0382C269.888 90.0777 269.839 90.1054 269.784 90.1181C269.73 90.1309 269.673 90.1282 269.62 90.1104Z" fill="#263238"/>
<path d="M260.37 86.9095C260.327 86.8923 260.29 86.8648 260.26 86.8295C260.208 86.7739 260.179 86.7006 260.179 86.6245C260.179 86.5484 260.208 86.4751 260.26 86.4195C260.6 86.099 261.011 85.8625 261.459 85.7288C261.907 85.5951 262.38 85.568 262.84 85.6495C262.877 85.6599 262.911 85.6774 262.941 85.7012C262.971 85.7249 262.996 85.7544 263.015 85.7878C263.034 85.8213 263.045 85.8581 263.05 85.8962C263.054 85.9342 263.051 85.9727 263.04 86.0095C263.031 86.0473 263.014 86.0828 262.991 86.1139C262.967 86.1451 262.938 86.1712 262.905 86.1908C262.871 86.2104 262.834 86.223 262.795 86.228C262.757 86.2329 262.717 86.23 262.68 86.2195C262.321 86.1641 261.953 86.192 261.607 86.3013C261.26 86.4105 260.943 86.5981 260.68 86.8495C260.639 86.8873 260.588 86.913 260.534 86.9236C260.479 86.9342 260.422 86.9293 260.37 86.9095Z" fill="#263238"/>
<path d="M287.38 123.53L279 126.92C279 126.92 285.9 147.44 284.41 150.22C282.41 154 277 160.03 273.79 164.04C274.084 165.55 274.774 166.955 275.79 168.11C282.53 164.91 293.15 154.86 293.7 151.01C294.91 142.23 287.38 123.53 287.38 123.53Z" fill="#CF7A64"/>
<path d="M283.46 113.38C290.31 115.6 291.27 130.83 291.27 130.83L280.67 136.27C277.623 132.642 275.435 128.372 274.27 123.78C272.42 116.05 277.44 111.43 283.46 113.38Z" fill="#FF002C"/>
<path d="M264.34 314C263.921 313.995 263.518 313.842 263.2 313.57C263.101 313.465 263.029 313.337 262.992 313.197C262.956 313.057 262.955 312.91 262.99 312.77C263.002 312.686 263.036 312.606 263.089 312.54C263.141 312.473 263.211 312.421 263.29 312.39C264.01 312.11 265.85 313.52 266.06 313.68C266.074 313.704 266.081 313.732 266.081 313.76C266.081 313.788 266.074 313.816 266.06 313.84C266.054 313.868 266.038 313.892 266.017 313.91C265.995 313.928 265.968 313.939 265.94 313.94C265.411 314.024 264.874 314.044 264.34 314ZM263.59 312.64C263.524 312.624 263.456 312.624 263.39 312.64C263.359 312.655 263.332 312.677 263.313 312.705C263.294 312.733 263.282 312.766 263.28 312.8C263.255 312.895 263.253 312.996 263.276 313.091C263.299 313.187 263.345 313.276 263.41 313.35C264.066 313.73 264.841 313.848 265.58 313.68C264.994 313.193 264.318 312.826 263.59 312.6V312.64Z" fill="#FF002C"/>
<path d="M265.95 313.91C265.95 313.91 265.95 313.91 265.88 313.91C265.28 313.5 264.22 312.03 264.44 311.36C264.476 311.255 264.545 311.166 264.638 311.106C264.73 311.046 264.84 311.019 264.95 311.03C265.062 311.026 265.174 311.046 265.277 311.089C265.381 311.132 265.474 311.197 265.55 311.28C266.19 311.93 266.11 313.72 266.11 313.79C266.112 313.817 266.105 313.844 266.091 313.868C266.077 313.891 266.055 313.909 266.03 313.92L265.95 313.91ZM265.02 311.29H264.95C264.76 311.29 264.73 311.38 264.72 311.41C264.59 311.81 265.25 312.91 265.82 313.41C265.867 312.708 265.696 312.01 265.33 311.41C265.239 311.33 265.121 311.287 265 311.29H265.02Z" fill="#FF002C"/>
<path d="M228 310.29C227.473 310.289 226.963 310.101 226.56 309.76C226.468 309.665 226.403 309.548 226.369 309.42C226.336 309.292 226.336 309.158 226.37 309.03C226.385 308.95 226.419 308.874 226.47 308.81C226.52 308.746 226.586 308.694 226.66 308.66C227.46 308.32 229.78 309.82 230.04 309.99C230.063 310.009 230.081 310.034 230.092 310.062C230.102 310.09 230.105 310.121 230.1 310.15C230.092 310.18 230.075 310.206 230.052 310.226C230.029 310.245 230 310.257 229.97 310.26C229.316 310.332 228.656 310.342 228 310.29ZM227.05 308.9C226.958 308.878 226.862 308.878 226.77 308.9C226.74 308.913 226.714 308.934 226.694 308.96C226.675 308.986 226.663 309.018 226.66 309.05C226.638 309.134 226.637 309.222 226.658 309.306C226.679 309.39 226.721 309.467 226.78 309.53C227.11 309.91 228.12 310.06 229.51 309.98C228.741 309.479 227.892 309.114 227 308.9H227.05Z" fill="#FF002C"/>
<path d="M229.94 310.26H229.88C229.18 309.86 227.88 308.38 228.07 307.7C228.12 307.54 228.26 307.35 228.67 307.35C228.815 307.346 228.958 307.373 229.091 307.43C229.224 307.487 229.343 307.573 229.44 307.68C229.922 308.406 230.154 309.27 230.1 310.14C230.1 310.164 230.093 310.188 230.081 310.209C230.069 310.23 230.051 310.248 230.03 310.26C230.016 310.267 230.001 310.271 229.985 310.271C229.969 310.271 229.954 310.267 229.94 310.26ZM228.75 307.62H228.66C228.39 307.62 228.36 307.72 228.35 307.75C228.23 308.16 229.1 309.31 229.81 309.84C229.83 309.129 229.627 308.43 229.23 307.84C229.1 307.714 228.93 307.636 228.75 307.62Z" fill="#FF002C"/>
<path d="M275.3 163.18L269.41 163.38L273 169.52C273 169.52 278.15 169.17 278.67 165.15L275.3 163.18Z" fill="#CF7A64"/>
<path d="M266.65 165.43L270.22 170.83L273.05 169.52L269.41 163.38L266.65 165.43Z" fill="#CF7A64"/>
</svg>
