<svg width="500" height="478" viewBox="0 0 500 478" fill="none" xmlns="http://www.w3.org/2000/svg">
<path d="M250 427.56C357.082 427.56 443.89 422.492 443.89 416.24C443.89 409.988 357.082 404.92 250 404.92C142.917 404.92 56.11 409.988 56.11 416.24C56.11 422.492 142.917 427.56 250 427.56Z" fill="#F5F5F5"/>
<path d="M266.52 163.36C266.856 163.363 267.188 163.297 267.497 163.167C267.806 163.036 268.085 162.844 268.317 162.601C268.549 162.358 268.728 162.07 268.844 161.755C268.959 161.44 269.009 161.105 268.99 160.77L268.25 146C268.21 145.303 267.906 144.647 267.402 144.164C266.897 143.682 266.228 143.409 265.53 143.4H263.53L261.72 106.65C261.486 102.729 259.78 99.0411 256.943 96.3246C254.106 93.6081 250.347 92.0634 246.42 91.9998H131.33C129.44 91.9871 127.567 92.3622 125.828 93.1019C124.089 93.8417 122.52 94.9304 121.218 96.3006C119.916 97.6709 118.909 99.2937 118.259 101.069C117.609 102.844 117.331 104.733 117.44 106.62L119.26 143.54C118.737 143.73 118.289 144.084 117.983 144.549C117.677 145.013 117.529 145.564 117.56 146.12L119.31 181.55C119.35 182.13 119.561 182.685 119.917 183.144C120.274 183.604 120.758 183.947 121.31 184.13L129 340.48C129.242 344.402 130.957 348.088 133.802 350.799C136.646 353.511 140.411 355.047 144.34 355.1H259.42C261.31 355.113 263.183 354.737 264.922 353.998C266.661 353.258 268.23 352.169 269.532 350.799C270.834 349.429 271.841 347.806 272.491 346.031C273.141 344.256 273.419 342.367 273.31 340.48L265.86 189.78H267.86C268.196 189.783 268.528 189.717 268.837 189.587C269.146 189.456 269.425 189.264 269.657 189.021C269.889 188.778 270.068 188.49 270.184 188.175C270.299 187.86 270.349 187.525 270.33 187.19L269.6 172.39C269.555 171.695 269.25 171.043 268.746 170.563C268.242 170.084 267.576 169.811 266.88 169.8H264.88L264.56 163.36H266.52Z" fill="#FF002C"/>
<path d="M146.77 355.1H261.85C263.74 355.112 265.614 354.737 267.353 353.998C269.093 353.258 270.663 352.17 271.966 350.799C273.268 349.429 274.276 347.807 274.927 346.032C275.578 344.257 275.858 342.367 275.75 340.48L264.19 106.63C263.953 102.707 262.241 99.0181 259.398 96.3046C256.554 93.591 252.79 92.0533 248.86 91.9998H133.77C131.879 91.9872 130.006 92.3622 128.267 93.1019C126.527 93.8415 124.957 94.93 123.654 96.3001C122.352 97.6703 121.344 99.2929 120.693 101.068C120.042 102.843 119.762 104.732 119.87 106.62L131.43 340.47C131.669 344.394 133.383 348.082 136.228 350.796C139.073 353.509 142.839 355.047 146.77 355.1Z" fill="#FF002C"/>
<path opacity="0.4" d="M146.77 355.1H261.85C263.74 355.112 265.614 354.737 267.353 353.998C269.093 353.258 270.663 352.17 271.966 350.799C273.268 349.429 274.276 347.807 274.927 346.032C275.578 344.257 275.858 342.367 275.75 340.48L264.19 106.63C263.953 102.707 262.241 99.0181 259.398 96.3046C256.554 93.591 252.79 92.0533 248.86 91.9998H133.77C131.879 91.9872 130.006 92.3622 128.267 93.1019C126.527 93.8415 124.957 94.93 123.654 96.3001C122.352 97.6703 121.344 99.2929 120.693 101.068C120.042 102.843 119.762 104.732 119.87 106.62L131.43 340.47C131.669 344.394 133.383 348.082 136.228 350.796C139.073 353.509 142.839 355.047 146.77 355.1Z" fill="#FAFAFA"/>
<path d="M137.32 334.71H269.32C269.614 334.713 269.906 334.656 270.178 334.542C270.449 334.427 270.694 334.259 270.897 334.046C271.101 333.833 271.258 333.581 271.36 333.304C271.462 333.028 271.506 332.734 271.49 332.44L260.71 115.17C260.672 114.56 260.405 113.986 259.961 113.565C259.518 113.144 258.931 112.906 258.32 112.9H126.32C126.026 112.897 125.734 112.954 125.464 113.068C125.193 113.183 124.948 113.352 124.746 113.565C124.543 113.778 124.386 114.03 124.286 114.306C124.185 114.583 124.142 114.877 124.16 115.17L134.89 332.44C134.928 333.057 135.201 333.636 135.653 334.059C136.105 334.481 136.702 334.714 137.32 334.71Z" fill="white"/>
<path opacity="0.7" d="M205.52 98.7696H177.77C177.537 98.7678 177.307 98.8139 177.092 98.9049C176.878 98.9959 176.685 99.1299 176.525 99.2987C176.364 99.4674 176.24 99.6673 176.16 99.8859C176.08 100.105 176.046 100.337 176.06 100.57C176.088 101.054 176.298 101.511 176.649 101.846C177 102.182 177.464 102.373 177.95 102.38H205.7C205.934 102.381 206.165 102.335 206.38 102.244C206.595 102.152 206.789 102.017 206.949 101.847C207.11 101.677 207.233 101.476 207.313 101.256C207.392 101.037 207.425 100.803 207.41 100.57C207.38 100.087 207.168 99.6328 206.818 99.2991C206.467 98.9653 206.004 98.7762 205.52 98.7696Z" fill="#FF002C"/>
<path opacity="0.6" d="M307.02 289.49H191.64L183.37 122.13H298.75L307.02 289.49Z" fill="#FF002C"/>
<path d="M293.4 243.73C293.347 243.739 293.293 243.739 293.24 243.73C293.189 243.712 293.144 243.681 293.11 243.64C293.071 243.603 293.041 243.559 293.02 243.51C293.011 243.457 293.011 243.403 293.02 243.35C293.02 243.238 293.064 243.131 293.143 243.053C293.222 242.974 293.329 242.93 293.44 242.93C293.551 242.93 293.658 242.974 293.737 243.053C293.816 243.131 293.86 243.238 293.86 243.35C293.869 243.403 293.869 243.457 293.86 243.51C293.839 243.559 293.809 243.603 293.77 243.64C293.735 243.681 293.691 243.712 293.64 243.73C293.562 243.754 293.478 243.754 293.4 243.73Z" fill="white"/>
<path d="M294.55 275C294.547 274.946 294.555 274.892 294.573 274.841C294.592 274.791 294.62 274.744 294.656 274.704C294.692 274.664 294.736 274.632 294.785 274.609C294.833 274.586 294.886 274.572 294.94 274.57C295.05 274.564 295.157 274.602 295.24 274.675C295.322 274.748 295.372 274.85 295.38 274.96C295.383 275.015 295.374 275.07 295.356 275.122C295.337 275.174 295.308 275.222 295.271 275.263C295.234 275.304 295.189 275.337 295.139 275.36C295.089 275.384 295.035 275.397 294.98 275.4C294.87 275.403 294.764 275.362 294.683 275.287C294.603 275.213 294.555 275.109 294.55 275ZM294.39 271.84C294.387 271.785 294.396 271.73 294.414 271.678C294.433 271.626 294.462 271.578 294.499 271.537C294.536 271.496 294.581 271.463 294.631 271.439C294.681 271.416 294.735 271.402 294.79 271.4C294.845 271.397 294.899 271.405 294.951 271.424C295.002 271.443 295.049 271.472 295.089 271.509C295.129 271.546 295.162 271.591 295.184 271.641C295.207 271.691 295.219 271.745 295.22 271.8C295.223 271.854 295.215 271.908 295.197 271.958C295.178 272.009 295.15 272.056 295.114 272.096C295.078 272.136 295.034 272.168 294.985 272.191C294.937 272.214 294.884 272.227 294.83 272.23C294.72 272.235 294.613 272.198 294.53 272.125C294.448 272.052 294.398 271.949 294.39 271.84ZM294.24 268.67C294.237 268.616 294.245 268.562 294.263 268.511C294.282 268.461 294.31 268.414 294.346 268.374C294.382 268.334 294.426 268.302 294.475 268.279C294.523 268.256 294.576 268.242 294.63 268.24C294.684 268.236 294.739 268.243 294.79 268.26C294.841 268.278 294.889 268.306 294.929 268.342C294.969 268.379 295.001 268.423 295.024 268.473C295.047 268.522 295.059 268.576 295.06 268.63C295.064 268.685 295.057 268.739 295.04 268.791C295.022 268.843 294.994 268.891 294.958 268.932C294.922 268.973 294.877 269.007 294.828 269.03C294.778 269.054 294.725 269.067 294.67 269.07C294.56 269.073 294.454 269.032 294.373 268.957C294.293 268.883 294.245 268.779 294.24 268.67ZM294.08 265.5C294.077 265.392 294.116 265.287 294.189 265.207C294.261 265.127 294.362 265.078 294.47 265.07C294.58 265.064 294.687 265.102 294.77 265.175C294.852 265.248 294.902 265.35 294.91 265.46C294.916 265.57 294.878 265.677 294.805 265.759C294.732 265.842 294.63 265.892 294.52 265.9C294.465 265.903 294.41 265.894 294.358 265.876C294.306 265.857 294.258 265.828 294.217 265.791C294.176 265.754 294.143 265.709 294.12 265.659C294.096 265.609 294.083 265.555 294.08 265.5ZM293.92 262.34C293.917 262.285 293.926 262.23 293.944 262.178C293.963 262.126 293.992 262.078 294.029 262.037C294.066 261.996 294.111 261.963 294.161 261.939C294.211 261.916 294.265 261.902 294.32 261.9C294.375 261.897 294.429 261.905 294.481 261.924C294.532 261.943 294.579 261.972 294.619 262.009C294.659 262.046 294.692 262.091 294.714 262.141C294.737 262.191 294.749 262.245 294.75 262.3C294.753 262.354 294.745 262.408 294.727 262.458C294.708 262.509 294.68 262.556 294.644 262.596C294.608 262.636 294.564 262.668 294.515 262.691C294.467 262.714 294.414 262.727 294.36 262.73C294.25 262.735 294.143 262.698 294.06 262.625C293.978 262.552 293.928 262.449 293.92 262.34ZM293.77 259.17C293.767 259.116 293.775 259.062 293.793 259.011C293.812 258.961 293.84 258.914 293.876 258.874C293.912 258.834 293.956 258.802 294.005 258.779C294.053 258.756 294.106 258.742 294.16 258.74C294.215 258.736 294.27 258.743 294.322 258.76C294.373 258.778 294.421 258.806 294.462 258.842C294.503 258.878 294.537 258.922 294.56 258.972C294.584 259.021 294.597 259.075 294.6 259.13C294.603 259.241 294.563 259.348 294.488 259.43C294.414 259.512 294.311 259.562 294.2 259.57C294.09 259.573 293.984 259.532 293.903 259.457C293.823 259.383 293.775 259.279 293.77 259.17ZM293.61 256C293.607 255.89 293.648 255.784 293.722 255.703C293.797 255.623 293.9 255.575 294.01 255.57C294.064 255.567 294.118 255.575 294.168 255.593C294.219 255.611 294.266 255.639 294.306 255.676C294.346 255.712 294.378 255.756 294.401 255.804C294.424 255.853 294.437 255.906 294.44 255.96C294.446 256.07 294.408 256.177 294.335 256.259C294.262 256.342 294.16 256.392 294.05 256.4C293.995 256.403 293.94 256.394 293.888 256.376C293.836 256.357 293.788 256.328 293.747 256.291C293.706 256.254 293.673 256.209 293.65 256.159C293.626 256.109 293.613 256.055 293.61 256ZM293.46 252.84C293.456 252.785 293.463 252.73 293.48 252.678C293.498 252.626 293.526 252.578 293.562 252.537C293.598 252.496 293.643 252.463 293.692 252.439C293.742 252.416 293.795 252.402 293.85 252.4C293.905 252.397 293.959 252.405 294.011 252.424C294.062 252.443 294.109 252.472 294.149 252.509C294.189 252.546 294.222 252.591 294.244 252.641C294.267 252.691 294.279 252.745 294.28 252.8C294.283 252.854 294.275 252.908 294.257 252.958C294.238 253.009 294.21 253.056 294.174 253.096C294.138 253.136 294.094 253.168 294.045 253.191C293.997 253.214 293.944 253.227 293.89 253.23C293.836 253.233 293.782 253.225 293.732 253.206C293.681 253.188 293.634 253.16 293.594 253.124C293.554 253.088 293.522 253.044 293.499 252.995C293.476 252.947 293.463 252.894 293.46 252.84ZM293.3 249.67C293.297 249.616 293.305 249.562 293.323 249.511C293.342 249.461 293.37 249.414 293.406 249.374C293.442 249.334 293.486 249.302 293.535 249.279C293.583 249.256 293.636 249.242 293.69 249.24C293.8 249.234 293.907 249.272 293.99 249.345C294.072 249.418 294.122 249.52 294.13 249.63C294.133 249.741 294.093 249.848 294.018 249.93C293.944 250.012 293.841 250.062 293.73 250.07C293.62 250.073 293.514 250.032 293.433 249.957C293.353 249.883 293.305 249.779 293.3 249.67ZM293.14 246.51C293.137 246.455 293.146 246.4 293.164 246.348C293.183 246.296 293.212 246.248 293.249 246.207C293.286 246.166 293.331 246.133 293.381 246.109C293.431 246.086 293.485 246.072 293.54 246.07C293.594 246.067 293.648 246.075 293.698 246.093C293.749 246.111 293.796 246.139 293.836 246.176C293.876 246.212 293.908 246.256 293.931 246.304C293.954 246.353 293.967 246.406 293.97 246.46C293.976 246.57 293.938 246.677 293.865 246.759C293.792 246.842 293.69 246.892 293.58 246.9C293.47 246.905 293.363 246.868 293.28 246.795C293.198 246.722 293.148 246.619 293.14 246.51Z" fill="white"/>
<path d="M295.12 278.57C295.065 278.57 295.011 278.558 294.961 278.536C294.911 278.513 294.866 278.481 294.83 278.44C294.79 278.403 294.759 278.358 294.739 278.308C294.718 278.258 294.708 278.204 294.71 278.15C294.7 278.097 294.7 278.043 294.71 277.99C294.728 277.939 294.759 277.894 294.8 277.86C294.837 277.821 294.881 277.79 294.93 277.77C295.033 277.73 295.147 277.73 295.25 277.77C295.302 277.79 295.35 277.821 295.39 277.86C295.425 277.898 295.452 277.942 295.47 277.99C295.484 278.042 295.484 278.097 295.47 278.15C295.468 278.258 295.425 278.362 295.35 278.44C295.31 278.479 295.262 278.51 295.21 278.53C295.182 278.548 295.152 278.562 295.12 278.57Z" fill="white"/>
<path d="M291.35 278.15C291.35 278.095 291.361 278.041 291.382 277.991C291.403 277.94 291.434 277.895 291.474 277.856C291.513 277.818 291.559 277.788 291.61 277.768C291.661 277.748 291.715 277.739 291.77 277.74C291.824 277.74 291.877 277.75 291.927 277.771C291.977 277.792 292.022 277.822 292.06 277.86C292.098 277.898 292.128 277.943 292.149 277.993C292.169 278.043 292.18 278.096 292.18 278.15C292.18 278.26 292.137 278.365 292.061 278.443C291.984 278.522 291.88 278.567 291.77 278.57C291.659 278.57 291.552 278.526 291.473 278.447C291.394 278.368 291.35 278.261 291.35 278.15ZM287.99 278.15C287.99 278.095 288.001 278.041 288.022 277.991C288.043 277.94 288.074 277.895 288.114 277.856C288.153 277.818 288.199 277.788 288.25 277.768C288.301 277.748 288.355 277.739 288.41 277.74C288.464 277.74 288.517 277.75 288.567 277.771C288.617 277.792 288.662 277.822 288.7 277.86C288.738 277.898 288.768 277.943 288.789 277.993C288.809 278.043 288.82 278.096 288.82 278.15C288.821 278.205 288.812 278.259 288.792 278.31C288.772 278.361 288.742 278.407 288.703 278.446C288.665 278.485 288.62 278.517 288.569 278.538C288.519 278.559 288.465 278.57 288.41 278.57C288.3 278.567 288.196 278.522 288.119 278.443C288.043 278.365 288 278.26 288 278.15H287.99ZM284.64 278.15C284.64 278.096 284.651 278.043 284.671 277.993C284.692 277.943 284.722 277.898 284.76 277.86C284.798 277.822 284.843 277.792 284.893 277.771C284.943 277.75 284.996 277.74 285.05 277.74C285.105 277.739 285.159 277.748 285.21 277.768C285.261 277.788 285.307 277.818 285.346 277.856C285.386 277.895 285.417 277.94 285.438 277.991C285.459 278.041 285.47 278.095 285.47 278.15C285.47 278.261 285.426 278.368 285.347 278.447C285.268 278.526 285.161 278.57 285.05 278.57C284.995 278.57 284.941 278.559 284.891 278.538C284.84 278.517 284.795 278.485 284.756 278.446C284.718 278.407 284.688 278.361 284.668 278.31C284.648 278.259 284.639 278.205 284.64 278.15ZM281.28 278.15C281.28 278.095 281.291 278.041 281.312 277.991C281.333 277.94 281.364 277.895 281.404 277.856C281.443 277.818 281.489 277.788 281.54 277.768C281.591 277.748 281.645 277.739 281.7 277.74C281.754 277.74 281.807 277.75 281.857 277.771C281.907 277.792 281.952 277.822 281.99 277.86C282.028 277.898 282.058 277.943 282.079 277.993C282.099 278.043 282.11 278.096 282.11 278.15C282.111 278.205 282.102 278.259 282.082 278.31C282.062 278.361 282.032 278.407 281.993 278.446C281.955 278.485 281.91 278.517 281.859 278.538C281.809 278.559 281.755 278.57 281.7 278.57C281.589 278.57 281.482 278.526 281.403 278.447C281.324 278.368 281.28 278.261 281.28 278.15ZM277.93 278.15C277.93 278.096 277.941 278.043 277.961 277.993C277.982 277.943 278.012 277.898 278.05 277.86C278.088 277.822 278.133 277.792 278.183 277.771C278.233 277.75 278.286 277.74 278.34 277.74C278.395 277.739 278.449 277.748 278.5 277.768C278.551 277.788 278.597 277.818 278.636 277.856C278.676 277.895 278.707 277.94 278.728 277.991C278.749 278.041 278.76 278.095 278.76 278.15C278.76 278.261 278.716 278.368 278.637 278.447C278.558 278.526 278.451 278.57 278.34 278.57C278.285 278.57 278.231 278.559 278.181 278.538C278.13 278.517 278.085 278.485 278.046 278.446C278.008 278.407 277.978 278.361 277.958 278.31C277.938 278.259 277.929 278.205 277.93 278.15ZM274.57 278.15C274.57 278.095 274.581 278.041 274.602 277.991C274.623 277.94 274.654 277.895 274.694 277.856C274.733 277.818 274.779 277.788 274.83 277.768C274.881 277.748 274.935 277.739 274.99 277.74C275.044 277.74 275.097 277.75 275.147 277.771C275.197 277.792 275.242 277.822 275.28 277.86C275.318 277.898 275.348 277.943 275.369 277.993C275.389 278.043 275.4 278.096 275.4 278.15C275.401 278.205 275.392 278.259 275.372 278.31C275.352 278.361 275.322 278.407 275.283 278.446C275.245 278.485 275.2 278.517 275.149 278.538C275.099 278.559 275.045 278.57 274.99 278.57C274.879 278.57 274.772 278.526 274.693 278.447C274.614 278.368 274.57 278.261 274.57 278.15ZM271.21 278.15C271.21 278.095 271.221 278.041 271.242 277.991C271.263 277.94 271.294 277.895 271.334 277.856C271.373 277.818 271.419 277.788 271.47 277.768C271.521 277.748 271.575 277.739 271.63 277.74C271.684 277.74 271.737 277.75 271.787 277.771C271.837 277.792 271.882 277.822 271.92 277.86C271.958 277.898 271.988 277.943 272.009 277.993C272.029 278.043 272.04 278.096 272.04 278.15C272.041 278.205 272.032 278.259 272.012 278.31C271.992 278.361 271.962 278.407 271.923 278.446C271.885 278.485 271.84 278.517 271.789 278.538C271.739 278.559 271.685 278.57 271.63 278.57C271.519 278.57 271.412 278.526 271.333 278.447C271.254 278.368 271.21 278.261 271.21 278.15ZM267.86 278.15C267.86 278.096 267.871 278.043 267.891 277.993C267.912 277.943 267.942 277.898 267.98 277.86C268.018 277.822 268.063 277.792 268.113 277.771C268.163 277.75 268.216 277.74 268.27 277.74C268.325 277.739 268.379 277.748 268.43 277.768C268.481 277.788 268.527 277.818 268.566 277.856C268.606 277.895 268.637 277.94 268.658 277.991C268.679 278.041 268.69 278.095 268.69 278.15C268.69 278.261 268.646 278.368 268.567 278.447C268.488 278.526 268.381 278.57 268.27 278.57C268.16 278.567 268.056 278.522 267.979 278.443C267.903 278.365 267.86 278.26 267.86 278.15ZM264.5 278.15C264.5 278.095 264.511 278.041 264.532 277.991C264.553 277.94 264.584 277.895 264.624 277.856C264.663 277.818 264.709 277.788 264.76 277.768C264.811 277.748 264.865 277.739 264.92 277.74C264.974 277.74 265.027 277.75 265.077 277.771C265.127 277.792 265.172 277.822 265.21 277.86C265.248 277.898 265.278 277.943 265.299 277.993C265.319 278.043 265.33 278.096 265.33 278.15C265.331 278.205 265.322 278.259 265.302 278.31C265.282 278.361 265.252 278.407 265.213 278.446C265.175 278.485 265.13 278.517 265.079 278.538C265.029 278.559 264.975 278.57 264.92 278.57C264.809 278.57 264.702 278.526 264.623 278.447C264.544 278.368 264.5 278.261 264.5 278.15ZM261.15 278.15C261.15 278.096 261.161 278.043 261.181 277.993C261.202 277.943 261.232 277.898 261.27 277.86C261.308 277.822 261.353 277.792 261.403 277.771C261.453 277.75 261.506 277.74 261.56 277.74C261.615 277.739 261.669 277.748 261.72 277.768C261.771 277.788 261.817 277.818 261.856 277.856C261.896 277.895 261.927 277.94 261.948 277.991C261.969 278.041 261.98 278.095 261.98 278.15C261.98 278.261 261.936 278.368 261.857 278.447C261.778 278.526 261.671 278.57 261.56 278.57C261.505 278.57 261.451 278.559 261.401 278.538C261.35 278.517 261.305 278.485 261.266 278.446C261.228 278.407 261.198 278.361 261.178 278.31C261.158 278.259 261.149 278.205 261.15 278.15ZM257.79 278.15C257.79 278.095 257.801 278.041 257.822 277.991C257.843 277.94 257.874 277.895 257.914 277.856C257.953 277.818 257.999 277.788 258.05 277.768C258.101 277.748 258.155 277.739 258.21 277.74C258.264 277.74 258.317 277.75 258.367 277.771C258.417 277.792 258.462 277.822 258.5 277.86C258.538 277.898 258.568 277.943 258.589 277.993C258.609 278.043 258.62 278.096 258.62 278.15C258.621 278.205 258.612 278.259 258.592 278.31C258.572 278.361 258.542 278.407 258.503 278.446C258.465 278.485 258.42 278.517 258.369 278.538C258.319 278.559 258.265 278.57 258.21 278.57C258.099 278.57 257.992 278.526 257.913 278.447C257.834 278.368 257.79 278.261 257.79 278.15Z" fill="white"/>
<path d="M254.85 278.57C254.795 278.568 254.742 278.556 254.692 278.534C254.642 278.512 254.597 278.48 254.56 278.44C254.519 278.405 254.488 278.36 254.47 278.31C254.46 278.257 254.46 278.203 254.47 278.15C254.468 278.096 254.478 278.042 254.499 277.992C254.519 277.942 254.55 277.897 254.59 277.86C254.646 277.799 254.719 277.758 254.8 277.741C254.881 277.725 254.965 277.735 255.04 277.77C255.091 277.787 255.135 277.819 255.17 277.86C255.211 277.896 255.243 277.941 255.266 277.991C255.288 278.041 255.3 278.095 255.3 278.15C255.309 278.203 255.309 278.257 255.3 278.31C255.256 278.407 255.178 278.486 255.08 278.53C255.009 278.564 254.929 278.578 254.85 278.57Z" fill="white"/>
<path opacity="0.5" d="M300.95 166.73H185.57L183.37 122.13H298.75L300.95 166.73Z" fill="#FF002C"/>
<path d="M295.52 238.2L295.25 235.28C302.497 235.003 309.351 231.914 314.36 226.67C317.308 223.58 319.493 219.844 320.74 215.76L323.54 216.76C322.172 221.25 319.775 225.359 316.54 228.76C311.027 234.52 303.488 237.906 295.52 238.2Z" fill="#263238"/>
<g style="mix-blend-mode:multiply" opacity="0.5">
<path d="M312.3 185C308.726 181.577 304.39 179.051 299.65 177.63L300.36 174.83C305.57 176.395 310.337 179.171 314.27 182.93C318.805 187.16 322.073 192.568 323.71 198.549C325.347 204.531 325.288 210.85 323.54 216.8L320.74 215.8C322.329 210.388 322.381 204.641 320.89 199.202C319.4 193.763 316.425 188.845 312.3 185Z" fill="#FF002C"/>
</g>
<path d="M270.68 228.74C264.434 222.842 260.647 214.802 260.08 206.23H263C263.57 214.308 267.248 221.852 273.261 227.276C279.275 232.7 287.156 235.583 295.25 235.32L295.52 238.24C290.953 238.412 286.399 237.658 282.13 236.026C277.862 234.393 273.967 231.915 270.68 228.74Z" fill="#FF002C"/>
<path opacity="0.7" d="M260.08 206.23C259.779 201.972 260.365 197.699 261.801 193.68C263.236 189.661 265.49 185.983 268.42 182.88C272.471 178.704 277.603 175.735 283.243 174.305C288.882 172.875 294.808 173.039 300.36 174.78L299.65 177.58C294.595 175.999 289.199 175.856 284.067 177.166C278.935 178.477 274.269 181.189 270.59 185C267.931 187.816 265.883 191.153 264.577 194.8C263.271 198.447 262.734 202.325 263 206.19L260.08 206.23Z" fill="white"/>
<path opacity="0.6" d="M310.609 223.485C319.911 213.95 319.331 198.298 309.314 188.525C299.296 178.753 283.634 178.56 274.332 188.096C265.03 197.631 265.61 213.284 275.628 223.056C285.646 232.829 301.307 233.021 310.609 223.485Z" fill="white"/>
<path d="M232.16 254.18L231.67 256.18C226.63 254.69 221.213 255.165 216.51 257.51C213.78 258.873 211.407 260.856 209.58 263.3L207.88 262C209.884 259.311 212.491 257.13 215.49 255.63C220.664 253.058 226.62 252.54 232.16 254.18Z" fill="#263238"/>
<g style="mix-blend-mode:multiply" opacity="0.5">
<path d="M208.27 285.78C209.953 288.906 212.351 291.589 215.27 293.61L214.13 295.31C210.92 293.085 208.279 290.135 206.42 286.7C204.283 282.873 203.284 278.514 203.541 274.138C203.798 269.762 205.3 265.551 207.87 262L209.57 263.3C207.229 266.532 205.862 270.366 205.632 274.35C205.401 278.334 206.317 282.3 208.27 285.78Z" fill="#FF002C"/>
</g>
<path opacity="0.7" d="M247.08 266.22C250.016 271.54 250.769 277.794 249.18 283.66L247.18 283.02C248.628 277.679 247.943 271.985 245.27 267.14C243.85 264.496 241.918 262.162 239.587 260.273C237.255 258.385 234.571 256.979 231.69 256.14L232.18 254.14C235.342 255.061 238.289 256.604 240.847 258.678C243.406 260.752 245.525 263.316 247.08 266.22Z" fill="white"/>
<path d="M249.18 283.66C248.38 286.591 246.971 289.319 245.044 291.668C243.118 294.017 240.718 295.932 238 297.29C234.206 299.135 229.984 299.922 225.78 299.57C221.576 299.218 217.545 297.74 214.11 295.29L215.25 293.59C218.375 295.817 222.043 297.16 225.868 297.476C229.692 297.793 233.531 297.072 236.98 295.39C239.453 294.157 241.637 292.416 243.391 290.281C245.146 288.146 246.43 285.665 247.16 283L249.18 283.66Z" fill="#FF002C"/>
<path opacity="0.6" d="M239.743 289.108C246.404 282.281 245.989 271.075 238.818 264.079C231.647 257.083 220.434 256.947 213.774 263.774C207.113 270.602 207.528 281.807 214.699 288.803C221.87 295.799 233.083 295.936 239.743 289.108Z" fill="white"/>
<path d="M257 127.75H253.04L243.09 142.59L254.51 157.43H258.47L247.05 142.59L257 127.75Z" fill="white"/>
<path d="M268.85 127.75H272.81L284.24 142.59L274.28 157.43H270.31L280.27 142.59L268.85 127.75Z" fill="white"/>
<g opacity="0.6">
<path d="M167.8 141.18H142.51C142.266 141.178 142.024 141.226 141.799 141.322C141.575 141.418 141.372 141.558 141.204 141.736C141.036 141.913 140.907 142.123 140.823 142.352C140.74 142.582 140.705 142.826 140.72 143.07L141.58 160.46C141.608 160.971 141.831 161.452 142.203 161.803C142.575 162.155 143.068 162.351 143.58 162.35H168.87C169.114 162.352 169.356 162.303 169.581 162.208C169.805 162.112 170.008 161.971 170.176 161.794C170.344 161.617 170.473 161.407 170.557 161.177C170.64 160.948 170.675 160.703 170.66 160.46L169.8 143.07C169.772 142.559 169.549 142.078 169.177 141.726C168.805 141.375 168.312 141.179 167.8 141.18ZM158.25 157.36H153.67L153.99 151.83C153.549 151.555 153.181 151.178 152.916 150.73C152.652 150.283 152.499 149.779 152.47 149.26C152.447 148.862 152.505 148.463 152.642 148.089C152.779 147.715 152.992 147.373 153.267 147.084C153.541 146.795 153.872 146.566 154.239 146.41C154.606 146.255 155.001 146.176 155.4 146.18C156.228 146.188 157.023 146.511 157.622 147.083C158.222 147.655 158.582 148.433 158.63 149.26C158.664 149.761 158.566 150.263 158.345 150.714C158.123 151.165 157.787 151.55 157.37 151.83L158.25 157.36Z" fill="#FF002C"/>
<path opacity="0.2" d="M152.47 149.26C152.499 149.779 152.652 150.283 152.916 150.731C153.181 151.178 153.549 151.555 153.99 151.83L153.67 157.36H156L156.24 162.36H143.56C143.048 162.361 142.555 162.165 142.183 161.814C141.811 161.462 141.588 160.981 141.56 160.47L140.7 143.08C140.685 142.836 140.72 142.592 140.803 142.363C140.887 142.133 141.016 141.923 141.184 141.746C141.352 141.569 141.555 141.428 141.779 141.332C142.004 141.237 142.246 141.188 142.49 141.19H155.14L155.38 146.19C154.984 146.189 154.592 146.27 154.228 146.426C153.864 146.582 153.536 146.811 153.264 147.098C152.991 147.385 152.78 147.725 152.644 148.097C152.507 148.469 152.448 148.865 152.47 149.26Z" fill="black"/>
<path d="M165.48 139.93C165.031 139.926 164.6 139.751 164.275 139.441C163.95 139.13 163.755 138.708 163.73 138.26L163.64 136.56C163.539 134.253 162.596 132.063 160.989 130.404C159.382 128.746 157.223 127.734 154.92 127.56C153.758 127.487 152.593 127.662 151.503 128.073C150.414 128.484 149.424 129.122 148.599 129.945C147.775 130.767 147.135 131.756 146.721 132.844C146.307 133.933 146.13 135.097 146.2 136.26L146.3 138.26C146.312 138.477 146.28 138.693 146.205 138.897C146.13 139.101 146.014 139.286 145.863 139.443C145.713 139.6 145.533 139.724 145.332 139.808C145.132 139.891 144.917 139.933 144.7 139.93C144.251 139.926 143.82 139.751 143.495 139.441C143.17 139.13 142.975 138.708 142.95 138.26L142.87 136.6C142.76 135.062 142.96 133.518 143.457 132.059C143.954 130.599 144.738 129.254 145.763 128.103C146.789 126.952 148.034 126.018 149.427 125.356C150.819 124.694 152.33 124.318 153.87 124.25C157.194 124.164 160.421 125.372 162.871 127.62C165.321 129.869 166.801 132.981 167 136.3L167.09 138.3C167.098 138.515 167.062 138.729 166.985 138.929C166.907 139.129 166.789 139.311 166.638 139.464C166.487 139.617 166.307 139.737 166.107 139.817C165.908 139.897 165.695 139.936 165.48 139.93Z" fill="#FF002C"/>
</g>
<path opacity="0.4" d="M176.52 326.26H93.93L86.81 182.09H169.4L176.52 326.26Z" fill="#FF002C"/>
<path opacity="0.3" d="M169.74 189H87.15L86.81 182.09H169.4L169.74 189Z" fill="#FF002C"/>
<path opacity="0.3" d="M176.52 326.26H93.93L93.59 319.35H176.18L176.52 326.26Z" fill="#FF002C"/>
<path d="M112.45 222.89L109.45 221.35C109 220.06 108.424 218.817 107.73 217.64L108.54 214.51L102.05 208.33L98.97 209.33C97.7593 208.695 96.49 208.18 95.18 207.79L93.51 204.91H84.8L83.4 207.79C82.1402 208.177 80.9237 208.693 79.77 209.33L76.6 208.33L70.72 214.51L71.83 217.64C71.2559 218.828 70.8036 220.071 70.48 221.35L67.67 222.89L68.1 231.63L71.1 233.16C71.5569 234.447 72.1327 235.689 72.82 236.87L72 240L78.49 246.18L81.57 245.18C82.7773 245.814 84.0432 246.33 85.35 246.72L87 249.65H95.74L97.13 246.76C98.3905 246.375 99.6071 245.858 100.76 245.22L103.94 246.22L109.81 240.04L108.7 236.91C109.28 235.724 109.733 234.481 110.05 233.2L112.87 231.67L112.45 222.89ZM91.05 243.1C86.7884 243.056 82.7022 241.397 79.6171 238.456C76.532 235.516 74.6781 231.514 74.43 227.26C74.305 225.212 74.6028 223.161 75.305 221.234C76.0072 219.307 77.0987 217.545 78.5116 216.058C79.9244 214.571 81.6282 213.391 83.517 212.591C85.4058 211.792 87.439 211.389 89.49 211.41C93.7542 211.453 97.843 213.114 100.93 216.056C104.017 218.998 105.872 223.002 106.12 227.26C106.244 229.307 105.944 231.358 105.241 233.285C104.538 235.211 103.445 236.972 102.031 238.458C100.617 239.944 98.9128 241.123 97.0236 241.922C95.1343 242.72 93.1009 243.121 91.05 243.1Z" fill="#FF002C"/>
<path opacity="0.6" d="M89.6 213.63C87.8364 213.613 86.0882 213.959 84.4643 214.647C82.8403 215.335 81.3753 216.35 80.1605 217.628C78.9457 218.907 78.0071 220.422 77.4032 222.079C76.7992 223.736 76.5428 225.5 76.65 227.26C76.8681 230.927 78.4717 234.374 81.1362 236.903C83.8006 239.432 87.3266 240.853 91 240.88C92.7664 240.902 94.5185 240.56 96.147 239.876C97.7755 239.191 99.2454 238.178 100.465 236.9C101.685 235.622 102.628 234.107 103.236 232.448C103.845 230.79 104.105 229.023 104 227.26C103.781 223.583 102.171 220.128 99.4963 217.596C96.8215 215.065 93.2829 213.646 89.6 213.63Z" fill="white"/>
<path d="M177.38 236.4H130.49C130.028 236.398 129.57 236.49 129.144 236.672C128.719 236.853 128.335 237.12 128.017 237.455C127.698 237.791 127.452 238.188 127.292 238.622C127.133 239.056 127.064 239.518 127.09 239.98L128.28 264.05C128.336 265.012 128.755 265.917 129.453 266.582C130.151 267.247 131.076 267.621 132.04 267.63H160.22L160.74 278.06L170.66 267.63H178.93C179.393 267.633 179.852 267.542 180.278 267.361C180.704 267.18 181.088 266.913 181.407 266.578C181.726 266.242 181.972 265.844 182.131 265.41C182.29 264.975 182.357 264.512 182.33 264.05L181.14 240C181.087 239.035 180.669 238.126 179.971 237.458C179.273 236.789 178.346 236.411 177.38 236.4Z" fill="#FF002C"/>
<path d="M114.07 276.46H146.07C146.728 276.468 147.359 276.726 147.836 277.18C148.312 277.635 148.6 278.252 148.64 278.91L149.45 295.35C149.469 295.665 149.423 295.981 149.315 296.278C149.207 296.574 149.039 296.846 148.821 297.075C148.603 297.304 148.341 297.485 148.05 297.608C147.759 297.731 147.446 297.793 147.13 297.79H127.9L128.25 304.92L120.77 297.79H115.12C114.463 297.783 113.834 297.528 113.359 297.075C112.883 296.622 112.598 296.005 112.56 295.35L111.75 278.91C111.729 278.594 111.774 278.277 111.882 277.979C111.989 277.681 112.157 277.408 112.375 277.178C112.593 276.948 112.856 276.765 113.147 276.642C113.439 276.518 113.753 276.456 114.07 276.46Z" fill="white"/>
<path d="M391.18 217.68L386.45 217.47L388.59 226.47C390.275 225.33 391.813 223.987 393.17 222.47C393.366 222.244 393.515 221.981 393.609 221.697C393.703 221.413 393.74 221.114 393.717 220.815C393.695 220.517 393.614 220.226 393.479 219.959C393.344 219.692 393.157 219.455 392.93 219.26L391.18 217.68Z" fill="#FF8B7B"/>
<path d="M380.96 222.32L383.08 229.65L388.59 226.45L386.45 217.47L380.96 222.32Z" fill="#FF8B7B"/>
<path d="M355.27 171.81L353 174.43C352.22 175.33 351.46 176.25 350.71 177.18C349.21 179.03 347.71 180.89 346.33 182.8C343.529 186.475 341.053 190.386 338.93 194.49C338.68 194.99 338.48 195.49 338.25 195.98L337.91 196.71C337.791 197.202 337.808 197.717 337.96 198.2C338.515 200.169 339.336 202.053 340.4 203.8C342.842 207.874 345.555 211.779 348.52 215.49L344.75 219.49C340.494 216.375 336.653 212.728 333.32 208.64C331.425 206.365 329.909 203.798 328.83 201.04C328.106 199.174 327.842 197.16 328.06 195.17C328.14 194.548 328.281 193.935 328.48 193.34L328.84 192.34C329.08 191.68 329.31 191.01 329.56 190.34C331.639 185.406 334.248 180.712 337.34 176.34C338.84 174.19 340.34 172.09 342.03 170.09C342.85 169.09 343.68 168.09 344.53 167.09C345.38 166.09 346.23 165.17 347.22 164.09L355.27 171.81Z" fill="#FF8B7B"/>
<path d="M354.54 218.63L350.27 227.05L346.1 223.47L349.52 217.47L354.54 218.63Z" fill="#FF8B7B"/>
<path d="M396.38 163.73C399.01 168.38 401.46 173.05 403.81 177.82C406.16 182.59 408.41 187.41 410.51 192.36L410.68 192.79L410.87 193.34C410.997 193.697 411.091 194.065 411.15 194.44C411.21 194.78 411.25 195.13 411.29 195.44C411.31 195.753 411.31 196.067 411.29 196.38C411.284 196.954 411.227 197.526 411.12 198.09C411.033 198.587 410.913 199.079 410.76 199.56C410.254 201.167 409.559 202.707 408.69 204.15C407.939 205.428 407.108 206.658 406.2 207.83C405.33 208.97 404.45 210.06 403.53 211.1C399.883 215.188 395.866 218.931 391.53 222.28L387.71 218.28C390.91 214.28 394.09 210.12 396.85 205.97C398.196 204.001 399.383 201.927 400.4 199.77C400.815 198.91 401.124 198.004 401.32 197.07C401.348 196.918 401.365 196.764 401.37 196.61C401.37 196.48 401.37 196.37 401.37 196.35C401.37 196.28 401.37 196.33 401.37 196.35C401.365 196.373 401.365 196.397 401.37 196.42C401.37 196.42 401.37 196.5 401.37 196.56C401.361 196.589 401.361 196.621 401.37 196.65C401.37 196.65 401.42 196.73 401.37 196.65C398.98 192.08 396.47 187.5 393.99 182.9C391.51 178.3 388.99 173.69 386.59 169.09L396.38 163.73Z" fill="#FF8B7B"/>
<path d="M358.56 135.32C358.68 135.9 358.47 136.44 358.1 136.54C357.73 136.64 357.32 136.24 357.19 135.66C357.06 135.08 357.28 134.53 357.65 134.44C358.02 134.35 358.43 134.74 358.56 135.32Z" fill="#263238"/>
<path d="M358.53 136.43C358.218 138.381 357.646 140.281 356.83 142.08C357.29 142.265 357.785 142.346 358.279 142.316C358.774 142.287 359.255 142.148 359.69 141.91L358.53 136.43Z" fill="#FF5652"/>
<path d="M357.91 140.91C357.15 140.91 356.41 140.32 355.82 139.23C354.587 136.63 354.373 133.661 355.22 130.91C355.66 129.69 356.35 128.99 357.15 128.91C357.95 128.83 358.72 129.44 359.34 130.58C359.982 131.86 360.35 133.26 360.42 134.69C360.67 138.04 359.61 140.76 358.01 140.88L357.91 140.91ZM357.25 129.43H357.18C356.6 129.43 356.06 130.08 355.69 131.08C355.267 132.369 355.114 133.73 355.24 135.08C355.298 136.436 355.639 137.764 356.24 138.98C356.75 139.93 357.38 140.45 357.96 140.4C359.23 140.31 360.12 137.72 359.9 134.74C359.84 133.385 359.5 132.057 358.9 130.84C358.41 129.94 357.81 129.43 357.25 129.43Z" fill="#263238"/>
<path d="M357 131.79C357.071 131.79 357.141 131.77 357.2 131.73C357.572 131.508 357.993 131.377 358.426 131.349C358.859 131.321 359.292 131.397 359.69 131.57C359.775 131.603 359.87 131.602 359.954 131.567C360.038 131.531 360.105 131.464 360.14 131.38C360.174 131.294 360.173 131.198 360.137 131.112C360.102 131.026 360.035 130.958 359.95 130.92C359.445 130.703 358.894 130.612 358.346 130.653C357.797 130.695 357.267 130.869 356.8 131.16C356.762 131.185 356.729 131.218 356.704 131.256C356.679 131.294 356.662 131.336 356.653 131.381C356.645 131.426 356.646 131.472 356.655 131.516C356.665 131.561 356.684 131.603 356.71 131.64C356.742 131.687 356.786 131.725 356.836 131.751C356.887 131.777 356.943 131.791 357 131.79Z" fill="#263238"/>
<path d="M378.52 139.39C378.33 145.44 376.09 152.75 379.71 156.33C379.71 156.33 378.03 161.78 368.04 161.78C357.04 161.78 363.04 156.33 363.04 156.33C369.09 154.9 369.11 150.46 368.23 146.28L378.52 139.39Z" fill="#FF8B7B"/>
<path d="M382.28 158.2C383.14 156.48 384.01 153.83 382.28 153.2C380.33 152.52 370.43 150.8 362.9 153.2C363.295 154.039 363.508 154.952 363.525 155.88C363.542 156.807 363.363 157.727 363 158.58L382.28 158.2Z" fill="#263238"/>
<path d="M395.46 409.11C394.71 409.11 393.98 409 393.71 408.63C393.62 408.51 393.571 408.365 393.571 408.215C393.571 408.065 393.62 407.92 393.71 407.8C393.772 407.694 393.856 407.603 393.956 407.532C394.056 407.462 394.17 407.413 394.29 407.39C395.36 407.16 397.29 408.54 397.41 408.6C397.438 408.618 397.459 408.644 397.472 408.674C397.484 408.704 397.487 408.738 397.48 408.77C397.475 408.804 397.46 408.835 397.436 408.86C397.413 408.885 397.383 408.902 397.35 408.91C396.728 409.04 396.095 409.107 395.46 409.11ZM394.59 407.71H394.39C394.246 407.741 394.121 407.827 394.04 407.95C393.87 408.24 393.96 408.36 393.99 408.4C394.29 408.81 395.79 408.82 396.89 408.63C396.204 408.15 395.417 407.835 394.59 407.71Z" fill="white"/>
<path d="M397.34 408.91H397.26C396.52 408.5 395.12 406.91 395.26 406.08C395.287 405.949 395.359 405.83 395.462 405.745C395.566 405.659 395.696 405.612 395.83 405.61C395.962 405.597 396.096 405.611 396.223 405.651C396.35 405.69 396.468 405.754 396.57 405.84C397.4 406.54 397.49 408.66 397.49 408.75C397.492 408.781 397.485 408.813 397.471 408.841C397.457 408.869 397.436 408.893 397.41 408.91H397.34ZM395.97 405.91H395.89C395.66 405.91 395.63 406.05 395.62 406.1C395.53 406.59 396.42 407.8 397.14 408.36C397.121 407.532 396.849 406.729 396.36 406.06C396.26 405.974 396.132 405.928 396 405.93L395.97 405.91Z" fill="white"/>
<path d="M351.35 409.11C350.35 409.11 349.5 408.98 349.2 408.56C349.122 408.449 349.08 408.316 349.08 408.18C349.08 408.044 349.122 407.911 349.2 407.8C349.99 406.5 353.25 408.37 353.62 408.59C353.65 408.608 353.674 408.635 353.689 408.667C353.703 408.699 353.707 408.735 353.7 408.77C353.693 408.804 353.676 408.836 353.651 408.861C353.626 408.886 353.594 408.903 353.56 408.91C352.83 409.037 352.091 409.104 351.35 409.11ZM350.22 407.69C350.091 407.673 349.96 407.691 349.841 407.742C349.721 407.793 349.617 407.875 349.54 407.98C349.39 408.22 349.46 408.32 349.49 408.36C349.81 408.82 351.67 408.84 353.05 408.65C352.179 408.146 351.217 407.82 350.22 407.69Z" fill="white"/>
<path d="M353.57 408.91H353.5C352.62 408.5 350.95 406.91 351.09 406.1C351.09 405.9 351.26 405.65 351.75 405.6C351.929 405.573 352.112 405.588 352.285 405.641C352.458 405.695 352.617 405.787 352.75 405.91C353.66 406.68 353.75 408.65 353.75 408.74C353.754 408.769 353.75 408.799 353.737 408.825C353.725 408.852 353.705 408.875 353.68 408.89C353.646 408.907 353.608 408.914 353.57 408.91ZM351.89 405.91H351.79C351.46 405.91 351.44 406.07 351.43 406.12C351.35 406.63 352.48 407.86 353.36 408.4C353.312 407.571 353.008 406.778 352.49 406.13C352.32 405.994 352.107 405.924 351.89 405.93V405.91Z" fill="white"/>
<path d="M361.65 408.741H354.3L354.23 391.721H361.57L361.65 408.741Z" fill="#FF8B7B"/>
<path d="M405.76 408.741H398.41L395.37 391.721H402.72L405.76 408.741Z" fill="#FF8B7B"/>
<path d="M397.92 407.891H406.17C406.314 407.888 406.455 407.937 406.567 408.029C406.678 408.12 406.754 408.249 406.78 408.391L407.98 414.921C408.006 415.083 407.997 415.249 407.952 415.407C407.907 415.565 407.828 415.712 407.72 415.836C407.612 415.96 407.478 416.059 407.328 416.125C407.177 416.192 407.014 416.224 406.85 416.221C403.97 416.221 402.58 416.011 398.95 416.011C396.72 416.011 392.11 416.241 389.03 416.241C385.95 416.241 385.66 413.191 386.93 412.911C392.64 411.671 394.84 409.971 396.71 408.341C397.045 408.048 397.475 407.888 397.92 407.891Z" fill="#263238"/>
<path d="M354.38 407.891H362.38C362.523 407.889 362.662 407.938 362.772 408.03C362.882 408.121 362.956 408.249 362.98 408.391L364.18 414.921C364.21 415.082 364.203 415.247 364.161 415.406C364.118 415.564 364.041 415.711 363.935 415.835C363.829 415.96 363.696 416.059 363.546 416.126C363.396 416.192 363.234 416.225 363.07 416.221C360.18 416.221 356.01 416.011 352.37 416.011C348.12 416.011 344.43 416.241 339.45 416.241C336.45 416.241 335.71 413.191 336.98 412.911C342.78 411.661 347.48 411.521 352.56 408.461C353.103 408.108 353.733 407.911 354.38 407.891Z" fill="#263238"/>
<path d="M393.73 158C400.55 159.58 407.73 178.35 407.73 178.35L393.54 187.83C390.282 182.887 387.426 177.691 385 172.29C381.24 163.7 386.75 156.38 393.73 158Z" fill="#FF002C"/>
<path opacity="0.3" d="M393.73 158C400.55 159.58 407.73 178.35 407.73 178.35L393.54 187.83C390.282 182.887 387.426 177.691 385 172.29C381.24 163.7 386.75 156.38 393.73 158Z" fill="#FAFAFA"/>
<path opacity="0.2" d="M388.33 170L394.2 187.41L393.53 187.86C393.53 187.86 390.85 183.86 388 178.53L388.33 170Z" fill="black"/>
<path d="M347.89 190.81C347.95 199.01 348.44 209.21 349.66 221.87H389C389.51 215.87 386.85 186.41 393.76 157.99C389.441 157.153 385.071 156.598 380.68 156.33C375.118 156.01 369.542 156.01 363.98 156.33C360.141 156.704 356.336 157.372 352.6 158.33C352.6 158.33 349.24 161.97 348.22 179.04C348 182.45 347.87 186.33 347.89 190.81Z" fill="#FF002C"/>
<path opacity="0.3" d="M347.89 190.81C347.95 199.01 348.44 209.21 349.66 221.87H389C389.51 215.87 386.85 186.41 393.76 157.99C389.441 157.153 385.071 156.598 380.68 156.33C375.118 156.01 369.542 156.01 363.98 156.33C360.141 156.704 356.336 157.372 352.6 158.33C352.6 158.33 349.24 161.97 348.22 179.04C348 182.45 347.87 186.33 347.89 190.81Z" fill="#FAFAFA"/>
<path opacity="0.2" d="M347.89 190.81C350.27 186.47 354.59 177.76 353.98 172.81L348.18 179.09C348 182.45 347.87 186.33 347.89 190.81Z" fill="black"/>
<path d="M360.26 165C360.88 172 345.01 188.84 345.01 188.84L332.29 178.47C335.624 172.859 339.615 167.665 344.18 163C351.62 155.8 359.57 157.17 360.26 165Z" fill="#FF002C"/>
<path opacity="0.3" d="M360.26 165C360.88 172 345.01 188.84 345.01 188.84L332.29 178.47C335.624 172.859 339.615 167.665 344.18 163C351.62 155.8 359.57 157.17 360.26 165Z" fill="#FAFAFA"/>
<path opacity="0.2" d="M354.23 391.73L354.27 400.5H361.62L361.58 391.73H354.23Z" fill="black"/>
<path opacity="0.2" d="M402.72 391.73H395.37L396.94 400.5H404.29L402.72 391.73Z" fill="black"/>
<path d="M377.46 129.25C378.53 136.48 379.53 140.65 376.74 145.2C375.856 146.69 374.582 147.909 373.054 148.726C371.527 149.543 369.805 149.927 368.076 149.835C366.346 149.743 364.674 149.18 363.242 148.206C361.81 147.232 360.671 145.885 359.95 144.31C357.08 138.31 355.8 127.47 362.11 122.89C363.445 121.861 365.028 121.203 366.698 120.981C368.369 120.759 370.069 120.982 371.626 121.627C373.183 122.272 374.542 123.317 375.567 124.655C376.591 125.994 377.244 127.579 377.46 129.25Z" fill="#FF8B7B"/>
<path d="M365.17 127.27C342.06 126.71 360.97 112.72 360.97 112.72C357.17 119.39 368.06 118.78 370.81 115.78C374.15 112.11 380.19 117.22 379.71 121.22C383.23 120.78 386.02 123.39 384.71 131.79C383.4 140.19 380.65 142.56 379.21 144.61C377.77 146.66 377.89 144.71 373.09 145.61C369.79 146.23 364.26 139.11 363.65 134.95C363.217 132.291 363.757 129.564 365.17 127.27Z" fill="#263238"/>
<path d="M377.06 122.44C377.06 122.44 383.06 119.94 379.06 113.67C384.62 116.56 383.78 121.83 377.06 122.44Z" fill="#263238"/>
<path d="M368.37 133.72C368.342 135.561 367.725 137.345 366.61 138.81C365.12 140.73 363.41 139.81 363 137.65C362.64 135.73 363 132.42 364.86 131.26C366.72 130.1 368.38 131.52 368.37 133.72Z" fill="#FF8B7B"/>
<path d="M363.61 221.87C363.61 221.87 369.78 278 373.54 299C377.66 322 393.54 398.76 393.54 398.76H407C407 398.76 397.44 323.9 395.46 301.09C393.31 276.34 388.92 221.83 388.92 221.83L363.61 221.87Z" fill="#263238"/>
<path d="M391.63 393.84C391.57 393.84 392.82 399.01 392.82 399.01H408L407.9 394.4L391.63 393.84Z" fill="#FF002C"/>
<path opacity="0.2" d="M368.1 241.87C377.67 243.76 375.26 279.71 373.39 298.2C371.11 285.13 368.01 259.98 365.92 242.13C366.597 241.8 367.365 241.709 368.1 241.87Z" fill="black"/>
<path d="M349.67 221.87C349.67 221.87 346.53 276.8 346.47 299.2C346.4 322.5 351.59 398.8 351.59 398.8H364C364 398.8 367.35 323.86 368.79 300.98C370.35 275.98 375.46 221.87 375.46 221.87H349.67Z" fill="#263238"/>
<path d="M346.66 214.82L350.15 215.1C350.434 215.123 350.709 215.208 350.956 215.351C351.202 215.493 351.414 215.689 351.575 215.924C351.736 216.159 351.842 216.427 351.887 216.708C351.931 216.99 351.911 217.277 351.83 217.55L350.39 222.4C350.268 222.794 350.053 223.153 349.763 223.446C349.473 223.74 349.117 223.958 348.724 224.084C348.331 224.21 347.914 224.239 347.507 224.168C347.101 224.098 346.718 223.931 346.39 223.68C344.583 222.006 343.29 219.852 342.66 217.47L346.66 214.82Z" fill="#FF8B7B"/>
<path opacity="0.2" d="M354.54 389.86C354.507 389.86 354.476 389.848 354.451 389.826C354.427 389.803 354.413 389.773 354.41 389.74C353.03 368.63 349.83 317.53 349.89 299.2C349.94 280.45 352.17 238.5 352.89 226.09C352.884 226.071 352.884 226.05 352.887 226.031C352.891 226.011 352.899 225.992 352.911 225.976C352.923 225.96 352.939 225.947 352.957 225.938C352.975 225.929 352.995 225.924 353.015 225.924C353.035 225.924 353.055 225.929 353.073 225.938C353.091 225.947 353.107 225.96 353.119 225.976C353.131 225.992 353.139 226.011 353.143 226.031C353.146 226.05 353.146 226.071 353.14 226.09C352.46 238.5 350.23 280.45 350.14 299.19C350.08 317.51 353.28 368.6 354.66 389.72C354.661 389.737 354.659 389.753 354.654 389.769C354.648 389.785 354.64 389.799 354.629 389.811C354.617 389.824 354.604 389.833 354.588 389.84C354.573 389.847 354.557 389.85 354.54 389.85V389.86Z" fill="#FAFAFA"/>
<path d="M349.39 393.84C349.33 393.84 349.89 399.01 349.89 399.01H365L365.59 394.4L349.39 393.84Z" fill="#FF002C"/>
</svg>
