<svg width="32" height="32" viewBox="0 0 32 32" fill="none" xmlns="http://www.w3.org/2000/svg">
<path d="M13.3335 18.6668V15.1796L25.2591 3.25399C25.4061 3.10699 25.5608 3.00528 25.7232 2.94886C25.8856 2.89246 26.0566 2.86426 26.2361 2.86426C26.4036 2.86426 26.5672 2.89246 26.7271 2.94886C26.8869 3.00528 27.0318 3.09845 27.1617 3.22836L28.6438 4.66683C28.7857 4.81383 28.8933 4.97579 28.9668 5.15273C29.0403 5.32964 29.0771 5.50784 29.0771 5.68733C29.0771 5.86681 29.0502 6.03648 28.9963 6.19633C28.9425 6.35615 28.8421 6.50957 28.695 6.65659L16.6925 18.6668H13.3335ZM25.954 7.52836L27.7515 5.71299L26.2694 4.15399L24.4207 5.99503L25.954 7.52836ZM7.48733 26.6668C6.87366 26.6668 6.36127 26.4613 5.95016 26.0502C5.53905 25.639 5.3335 25.1267 5.3335 24.513V7.48733C5.3335 6.87366 5.53905 6.36127 5.95016 5.95016C6.36127 5.53905 6.87366 5.33349 7.48733 5.33349H18.6694L10.154 13.8489V21.8463H18.0156L26.6668 13.195V24.513C26.6668 25.1267 26.4613 25.639 26.0502 26.0502C25.639 26.4613 25.1267 26.6668 24.513 26.6668H7.48733Z" fill="black"/>
</svg>
