<svg width="32" height="32" viewBox="0 0 32 32" fill="none" xmlns="http://www.w3.org/2000/svg">
<path d="M7.48709 26.6668C6.87342 26.6668 6.36103 26.4613 5.94992 26.0502C5.53881 25.639 5.33325 25.1267 5.33325 24.513V7.48733C5.33325 6.87366 5.53881 6.36127 5.94992 5.95016C6.36103 5.53905 6.87342 5.33349 7.48709 5.33349H18.6692L17.3358 6.66683H7.48709C7.28197 6.66683 7.09394 6.75229 6.92299 6.92323C6.75205 7.09418 6.66659 7.28221 6.66659 7.48733V24.513C6.66659 24.7181 6.75205 24.9061 6.92299 25.0771C7.09394 25.248 7.28197 25.3335 7.48709 25.3335H24.5128C24.7179 25.3335 24.9059 25.248 25.0769 25.0771C25.2478 24.9061 25.3333 24.7181 25.3333 24.513V14.5284L26.6666 13.195V24.513C26.6666 25.1267 26.461 25.639 26.0499 26.0502C25.6388 26.4613 25.1264 26.6668 24.5128 26.6668H7.48709ZM13.3333 18.6668V15.1796L25.2589 3.25399C25.4059 3.10699 25.5606 3.00528 25.723 2.94886C25.8854 2.89246 26.0563 2.86426 26.2358 2.86426C26.4033 2.86426 26.567 2.89246 26.7269 2.94886C26.8867 3.00528 27.0315 3.09845 27.1615 3.22836L28.6435 4.66683C28.7854 4.81383 28.8931 4.97579 28.9666 5.15273C29.0401 5.32964 29.0769 5.50784 29.0769 5.68733C29.0769 5.86681 29.0499 6.03648 28.9961 6.19633C28.9422 6.35615 28.8418 6.50957 28.6948 6.65659L16.6922 18.6668H13.3333ZM14.6666 17.3335H16.123L25.0102 8.44633L24.2819 7.71813L23.4692 6.93863L14.6666 15.7412V17.3335Z" fill="#9B9B9B"/>
</svg>
