<svg width="32" height="32" viewBox="0 0 32 32" fill="none" xmlns="http://www.w3.org/2000/svg">
<path d="M7.07726 27.3331C6.40375 27.3331 5.83366 27.0998 5.36699 26.6331C4.90033 26.1664 4.66699 25.5963 4.66699 24.9228V7.07677C4.66699 6.40326 4.90033 5.83317 5.36699 5.3665C5.83366 4.89984 6.40375 4.6665 7.07726 4.6665H16.0131V6.66647H7.07726C6.97468 6.66647 6.88065 6.70921 6.79516 6.79467C6.70969 6.88016 6.66696 6.97419 6.66696 7.07677V24.9228C6.66696 25.0254 6.70969 25.1194 6.79516 25.2049C6.88065 25.2904 6.97468 25.3331 7.07726 25.3331H16.0131V27.3331H7.07726ZM21.6413 21.692L20.2568 20.2459L23.5029 16.9998H12.1285V14.9998H23.5029L20.2568 11.7537L21.6413 10.3076L27.3336 15.9998L21.6413 21.692Z" fill="black"/>
</svg>
