<svg width="32" height="32" viewBox="0 0 32 32" fill="none" xmlns="http://www.w3.org/2000/svg">
<path d="M7.48709 26.6668C6.87342 26.6668 6.36103 26.4613 5.94992 26.0502C5.53881 25.6391 5.33325 25.1267 5.33325 24.513V7.48733C5.33325 6.87366 5.53881 6.36127 5.94992 5.95016C6.36103 5.53905 6.87342 5.3335 7.48709 5.3335H16.0256V6.66683H7.48709C7.28197 6.66683 7.09394 6.7523 6.92299 6.92323C6.75205 7.09419 6.66659 7.28222 6.66659 7.48733V24.513C6.66659 24.7181 6.75205 24.9061 6.92299 25.0771C7.09394 25.248 7.28197 25.3335 7.48709 25.3335H16.0256V26.6668H7.48709ZM21.9486 20.7181L21.0127 19.7591L24.1051 16.6668H12.2563V15.3335H24.1051L21.0127 12.2412L21.9486 11.2822L26.6666 16.0002L21.9486 20.7181Z" fill="#9B9B9B"/>
</svg>
