<svg width="32" height="32" viewBox="0 0 32 32" fill="none" xmlns="http://www.w3.org/2000/svg">
<path d="M15.3333 22H16.6667V14.6667H15.3333V22ZM16 12.7692C16.2325 12.7692 16.4274 12.6906 16.5846 12.5333C16.7419 12.3761 16.8205 12.1812 16.8205 11.9487C16.8205 11.7162 16.7419 11.5214 16.5846 11.3641C16.4274 11.2068 16.2325 11.1282 16 11.1282C15.7675 11.1282 15.5726 11.2068 15.4154 11.3641C15.2581 11.5214 15.1795 11.7162 15.1795 11.9487C15.1795 12.1812 15.2581 12.3761 15.4154 12.5333C15.5726 12.6906 15.7675 12.7692 16 12.7692ZM16.0045 28C14.3451 28 12.785 27.6851 11.3241 27.0554C9.86331 26.4256 8.59259 25.5709 7.51197 24.4913C6.43137 23.4117 5.57589 22.1422 4.94553 20.6827C4.31518 19.2233 4 17.6638 4 16.0045C4 14.3451 4.31488 12.785 4.94463 11.3241C5.57441 9.86331 6.4291 8.59259 7.5087 7.51197C8.5883 6.43137 9.85782 5.57589 11.3173 4.94553C12.7767 4.31518 14.3362 4 15.9955 4C17.6549 4 19.215 4.31488 20.6759 4.94463C22.1367 5.57441 23.4074 6.4291 24.488 7.5087C25.5686 8.5883 26.4241 9.85782 27.0545 11.3173C27.6848 12.7767 28 14.3362 28 15.9955C28 17.6549 27.6851 19.215 27.0554 20.6759C26.4256 22.1367 25.5709 23.4074 24.4913 24.488C23.4117 25.5686 22.1422 26.4241 20.6827 27.0545C19.2233 27.6848 17.6638 28 16.0045 28ZM16 26.6667C18.9778 26.6667 21.5 25.6333 23.5667 23.5667C25.6333 21.5 26.6667 18.9778 26.6667 16C26.6667 13.0222 25.6333 10.5 23.5667 8.43333C21.5 6.36667 18.9778 5.33333 16 5.33333C13.0222 5.33333 10.5 6.36667 8.43333 8.43333C6.36667 10.5 5.33333 13.0222 5.33333 16C5.33333 18.9778 6.36667 21.5 8.43333 23.5667C10.5 25.6333 13.0222 26.6667 16 26.6667Z" fill="#9B9B9B"/>
</svg>
