<svg width="40" height="40" viewBox="0 0 40 40" fill="none" xmlns="http://www.w3.org/2000/svg">
<path d="M10 32.5003V9.35928C10 8.5922 10.2569 7.95171 10.7708 7.43783C11.2847 6.92394 11.9252 6.66699 12.6923 6.66699H27.3077C28.0748 6.66699 28.7153 6.92394 29.2292 7.43783C29.7431 7.95171 30 8.5922 30 9.35928V32.5003L20 26.3718L10 32.5003ZM11.6667 29.917L20 24.5L28.3333 29.917V9.35928C28.3333 9.10289 28.2265 8.86785 28.0128 8.65416C27.7991 8.44049 27.5641 8.33366 27.3077 8.33366H12.6923C12.4359 8.33366 12.2009 8.44049 11.9872 8.65416C11.7735 8.86785 11.6667 9.10289 11.6667 9.35928V29.917Z" fill="#9B9B9B"/>
</svg>
